<?xml version="1.0" encoding="utf-8"?>
<!-- Generator: Adobe Illustrator 21.0.0, SVG Export Plug-In . SVG Version: 6.00 Build 0)  -->
<svg version="1.1" id="Layer_1" xmlns="http://www.w3.org/2000/svg" xmlns:xlink="http://www.w3.org/1999/xlink" x="0px" y="0px"
	 viewBox="0 0 78.4 105.4" style="enable-background:new 0 0 78.4 105.4;" xml:space="preserve">
<style type="text/css">
	.st0{fill-rule:evenodd;clip-rule:evenodd; fill: #FFFFFF; stroke: #FFFFFF}
	.st1{fill:#FFFFFF; stroke: #FFFFFF}
</style>
<g>
	<path class="st1" d="M77,28.1c0-0.2-0.1-0.5-0.2-0.7V14.6c0.1-0.2,0.3-0.4,0.4-0.6c0.3-0.7,0.4-1.5,0.1-2.3c0.1-0.1,0.3-0.3,0.4-0.4
		c0.7-0.9,0.9-2.1,0.6-3.2l-1.1-4.4C76.6,1.6,74.7,0,72.6,0H6c-2.1,0-4,1.6-4.6,3.6L0.1,8.2c-0.3,1.2-0.1,2.4,0.6,3.3
		c0.1,0.2,0.3,0.3,0.4,0.4c-0.3,1-0.1,1.7,0.1,2.2c0.1,0.1,0.1,0.3,0.3,0.5l0,13.3c0,0.1-0.1,0.2-0.1,0.3c-0.3,0.5-0.8,1.5-0.8,3
		v74.3h77.4V31.3c0-1.4-0.6-2.4-1-3C77.1,28.2,77,28.1,77,28.1z M5.6,26.3V15.8h67.2v10.5H5.6z M4.6,31.1c0-0.4,0.1-0.6,0.2-0.8
		h68.9c0.3,0.5,0.4,0.7,0.4,1v1H4.6V31.1z M5.2,4.7C5.3,4.3,5.8,4,6,4h66.6c0.2,0,0.6,0.3,0.7,0.6l1,4L4.1,8.9L5.2,4.7z M4.6,101.4
		V36.3h69.4v65.2H4.6z"/>
	<path d="M55.3,19.2H23.4c-1.1,0-2,0.9-2,2s0.9,2,2,2h31.8c1.1,0,2-0.9,2-2S56.4,19.2,55.3,19.2z"/>
</g>
<path class="st0" d="M66.8,62.6L51.9,52.1c-0.6-0.4-1.3-0.5-1.9-0.2c-0.6,0.3-1,0.9-1.1,1.6L48.2,63l-3,4.2
	c-0.6-3.3-2.4-6.4-5.4-8.5c-2.9-2.1-6.4-2.9-10-2.3c-3.5,0.6-6.6,2.5-8.7,5.4c-0.8,1.1-1.3,2.2-1.8,3.4c-0.5-4.2,0.6-8.4,3.1-11.8
	c0.6-0.9,0.4-2-0.5-2.7c-0.9-0.6-2-0.4-2.7,0.5c-3.2,4.6-4.5,10.1-3.6,15.6c0.9,5.4,3.8,10.2,8.3,13.4c0.1,0.1,0.2,0.1,0.3,0.2
	c0,0,0,0,0,0c0.1,0.1,0.2,0.1,0.3,0.2c0.1,0,0.1,0.1,0.2,0.1c0,0,0,0,0.1,0c0.1,0.1,0.3,0.2,0.4,0.3c0,0,0,0,0,0
	c4.4,2.8,9.6,3.8,14.7,3c5.3-0.9,10-3.8,13.3-8.1c0,0,0,0,0,0c0.1-0.1,0.2-0.3,0.3-0.4l4.1-5.8l8.7-3.8c0.6-0.3,1.1-0.9,1.1-1.5
	C67.6,63.7,67.3,63,66.8,62.6 M40.7,73.6c-0.1,0.1-0.1,0.2-0.2,0.4c0,0,0,0,0,0c-0.1,0.1-0.1,0.2-0.2,0.4c0,0,0,0.1-0.1,0.1
	c-0.1,0.1-0.1,0.2-0.2,0.3c-0.1,0.1-0.2,0.3-0.3,0.4c-0.1,0.1-0.2,0.2-0.3,0.4c-0.1,0.1-0.1,0.2-0.2,0.3c-0.2,0.3-0.4,0.5-0.7,0.7
	c-0.7,0.7-1.4,1.2-2.2,1.6c0,0,0,0,0,0c-0.1,0-0.2,0.1-0.3,0.1c0,0,0,0,0,0c-0.2,0.1-0.4,0.2-0.6,0.2h0c-0.1,0-0.1,0-0.2,0.1
	c0,0-0.1,0-0.1,0.1c-0.1,0-0.1,0-0.2,0.1c-0.1,0-0.1,0-0.2,0.1c0,0-0.1,0-0.1,0c-0.1,0-0.2,0.1-0.3,0.1c0,0-0.1,0-0.1,0
	c-0.1,0-0.2,0-0.3,0.1c0,0,0,0,0,0c-0.1,0-0.2,0-0.3,0.1c-1.6,0.3-3.1,0.1-4.6-0.3c0,0,0,0,0,0c-0.1,0-0.2-0.1-0.4-0.1
	c0,0-0.1,0-0.1,0c-0.1,0-0.2-0.1-0.3-0.1c0,0-0.1,0-0.1-0.1c-0.1,0-0.2-0.1-0.3-0.1c-0.1,0-0.1-0.1-0.2-0.1c-0.1,0-0.2-0.1-0.2-0.1
	c-0.1,0-0.1-0.1-0.2-0.1c-0.1,0-0.1-0.1-0.2-0.1c-0.1,0-0.1-0.1-0.2-0.1c-0.1,0-0.1-0.1-0.2-0.1c-0.1,0-0.1-0.1-0.2-0.1
	c-2.1-1.5-3.5-3.7-3.9-6.2c-0.4-2.5,0.2-5,1.6-7.1c1.5-2.1,3.7-3.4,6.2-3.9c2.5-0.4,5,0.2,7.1,1.6C41.4,64.5,42.6,69.5,40.7,73.6"/>
</svg>
