<svg xmlns="http://www.w3.org/2000/svg" width="15" height="14" viewBox="0 0 15 14">
    <g fill="#F19C18" fill-rule="nonzero">
        <path d="M.473 9.017c.045-.105.076-.22.138-.313.162-.244.403-.338.693-.337.876.006 1.751.005 2.627.01a.237.237 0 0 0 .203-.09c1.312-1.527 2.626-3.05 3.94-4.575l.093-.111c-.049-.003-.082-.008-.116-.008-.28-.002-.563 0-.843-.006a.223.223 0 0 0-.192.089C6.435 4.352 5.85 5.024 5.269 5.7c-.17.199-.372.306-.638.25-.435-.09-.627-.625-.337-.961.687-.8 1.382-1.592 2.073-2.387a.647.647 0 0 1 .514-.228l2.83-.003c.259 0 .472.096.655.281.566.572 1.137 1.139 1.705 1.707l.098.094c.037-.034.068-.063.098-.093.455-.453.921-.896 1.36-1.363.375-.4.991-.22 1.091.26.02.102.02.173.02.244-.055.199-.19.34-.332.48-.538.538-1.072 1.08-1.609 1.618a1.753 1.753 0 0 1-.213.189c-.303.217-.628.192-.892-.07-.34-.339-.677-.68-1.015-1.02-.03-.03-.062-.058-.102-.096l-1.78 2.06c.034.036.062.068.092.098.493.493.983.99 1.48 1.478.246.241.312.533.242.85-.308 1.403-.625 2.803-.94 4.204-.127.57-.68.834-1.163.556a.77.77 0 0 1-.362-.825c.241-1.089.486-2.177.733-3.265.02-.087.009-.144-.058-.208C8.248 9 7.68 8.447 7.112 7.895c-.02-.02-.04-.037-.085-.077-.02.03-.034.064-.057.09-.488.547-.98 1.09-1.466 1.64a1.026 1.026 0 0 1-.791.347c-1.145.013-2.29.018-3.435.016C.856 9.91.587 9.675.49 9.26c-.017-.102-.017-.173-.017-.244z"/>
        <path stroke="#F19C18" stroke-width=".7" d="M11.117.512c.233.065.455.144.645.306.523.446.534 1.33.012 1.78-.364.312-.777.408-1.227.237-.446-.171-.7-.512-.77-.986-.089-.596.34-1.174.967-1.313.022-.005.042-.016.064-.024h.31z"/>
    </g>
</svg>
