<?xml version="1.0" encoding="UTF-8"?><!DOCTYPE svg PUBLIC "-//W3C//DTD SVG 1.1//EN" "http://www.w3.org/Graphics/SVG/1.1/DTD/svg11.dtd"><svg xmlns="http://www.w3.org/2000/svg"><symbol id="america-city" viewBox="0 0 52.34 46.83"><title>america-city</title><path fill="#fb8f04" d="M1.42 28.26h49.5v18.57H1.42z"/><path fill="#ffb400" d="M3.9 30.53h44.53v16.31H3.9z"/><path fill="#e28201" d="M3.9 30.53h44.53v1.39H3.9z"/><path fill="#fb8f04" d="M25.68 12.01h.9v4h-.9z"/><path fill="#fb8f04" d="M24.52 13.98v-.9h3.22v.9z"/><path fill="#ffb400" d="M40.67 0h.58v3.33h-.58z"/><path fill="#ffb400" d="M40.04.75h1.83v.42h-1.83zM26.17 15.29L0 25.83v2.94h52.34v-3.1L26.17 15.29"/><path d="M30.92 18.51c0-.78-2.13-1.42-4.75-1.42s-4.75.64-4.75 1.42a.47.47 0 0 0 0 .08v9.67h9.5v-9.67a.49.49 0 0 0 0-.08z" fill="#fb8f04"/><path fill="#764300" d="M15.2 45.77h18.63v1.07H15.2z"/><path fill="#764300" d="M21.33 34.01h9.75v12.11h-9.75z"/><path fill="#e28201" d="M36.17 31.92h9.58v14.92h-9.58zM35.74 30.91h10.43v1.01H35.74zM36.17 21.91h9.58v9h-9.58zM35.74 20.9h10.43v1.01H35.74z"/><path fill="#e28201" d="M36.59 11.39v1.01h.36v9h8.02v-9h.36v-1.01h-8.74"/><path fill="#ffb400" d="M37.8 7.32h6.32v4.07H37.8z"/><path fill="#764300" d="M38.59 3.25l-.79 4.07h6.32l-1.03-4.07h-4.5"/><path fill="#e28201" d="M39.09 7.32l1.92-2.95 1.82 2.95h-3.74"/><circle cx="40.96" cy="9.36" r=".85" fill="#764300"/><path fill="#fb8f04" d="M18.33 31.92h.75v13.85h-.75z"/><path fill="none" stroke="#764300" stroke-miterlimit="10" stroke-width=".5" d="M38.92 14.55h.83M40.54 14.55h.84M42.17 14.55H43M38.92 15.66h.83M40.54 15.66h.84M42.17 15.66H43M38.92 17.96h.83M40.54 17.96h.84M42.17 17.96H43M38.92 19.06h.83M40.54 19.06h.84M42.17 19.06H43M38.92 24.15h.83M40.54 24.15h.84M42.17 24.15H43M38.92 25.25h.83M40.54 25.25h.84M42.17 25.25H43M38.92 28.05h.83M40.54 28.05h.84M42.17 28.05H43M38.92 29.16h.83M40.54 29.16h.84M42.17 29.16H43M38.92 31.96h.83M40.54 31.96h.84M42.17 31.96H43M38.92 33.06h.83M40.54 33.06h.84M42.17 33.06H43M38.92 35.86h.83M40.54 35.86h.84M42.17 35.86H43M38.92 36.97h.83M40.54 36.97h.84M42.17 36.97H43M38.92 39.77h.83M40.54 39.77h.84M42.17 39.77H43M38.92 40.88h.83M40.54 40.88h.84M42.17 40.88H43M38.92 43.68h.83M40.54 43.68h.84M42.17 43.68H43M38.92 44.78h.83M40.54 44.78h.84M42.17 44.78H43"/></symbol><symbol id="australia-city" viewBox="0 0 113.3 53.67"><title>australia-city</title><path fill="#ffb400" d="M78.91 32.83l-1.09 14.48 2.78.02.25-1.5h4.74l.36 1.5h2.75l-.5-14.5h-9.29"/><path fill="#fb8f04" stroke="#fb8f04" stroke-miterlimit="10" d="M52.03 44.65h1.15l12.27-4.32-7.67-17.41H45.7L40.91 39.5l11.12 5.15zM12.7 29.5v15.17h2.9l.25-1.5h4.74l.36 1.5h2.83V29.5H12.7zM27.24 24.04l-2.33 20.61 5.23.02.26-1.5h4.73l.36 1.5h5.42l-2.59-22.13-11.08 1.5z"/><path d="M0 17.67l11.2 27h2.22l4.89-16.85a23 23 0 0 0-5.11-4.37A52.92 52.92 0 0 0 0 17.67z" fill="#e28201"/><path d="M8.69 9.5l14.17 35.17h2.83l6.58-21.81a29.9 29.9 0 0 0-6.57-5.74A68.69 68.69 0 0 0 8.69 9.5zM78.91 12.52l-13 32.15h-2.88l-6.58-21.81a29.9 29.9 0 0 1 6.57-5.74c8.44-5.35 15.89-4.6 15.89-4.6z" fill="#e28201"/><path d="M68.69 26.25l8.5 21.09h1.89l4.31-14.31a19.61 19.61 0 0 0-4.31-3.77 17.92 17.92 0 0 0-10.39-3.01z" fill="#fb8f04" stroke="#fb8f04" stroke-miterlimit="10"/><path d="M112.2 21.34l-22.63 26h-1.88l-4.31-14.31a37.5 37.5 0 0 1 4.31-3.77c9.34-7.92 24.51-7.92 24.51-7.92z" fill="#fb8f04" stroke="#fb8f04" stroke-miterlimit="10"/><path d="M22.12 0l18 44.67h1.57l14.79-21.8a42.25 42.25 0 0 0-12.71-13.2A87.24 87.24 0 0 0 22.12 0z" fill="#ffb400"/><path fill="#764300" d="M70.82 46.92H9.15l.8-2.25h60l.87 2.25M95.57 52.42H5.07l1-5.5h88l1.5 5.5"/><path fill="#ffb400" d="M71.45 53.67H3.2l.62-2.38h67l.63 2.38"/><path fill="none" stroke="#764300" stroke-miterlimit="10" stroke-width=".5" d="M24.53 2.25l16.17 40"/><path fill="none" stroke="#ffb400" stroke-miterlimit="10" d="M10.92 11.81l12.86 31.83M2.6 20.24l9.46 23.4"/><path fill="none" stroke="#764300" stroke-miterlimit="10" stroke-width=".5" d="M70.35 27.55l7.47 18.49M109.45 22.54l-20.26 23.5"/></symbol><symbol id="austria-city" viewBox="0 0 115.24 23.62"><title>austria-city</title><path fill="#003026" d="M112.94 4.07H71.52v3.64h43.72l-2.3-3.64"/><path fill="#00ab8a" d="M71.52 6.85h43.72v16.77H71.52z"/><path fill="#00dbb6" d="M75.92 19.37h2.36v4.25h-2.36zM80.25 19.37h2.36v4.25h-2.36zM84.59 19.37h2.36v4.25h-2.36zM88.92 19.37h2.36v4.25h-2.36zM93.25 19.37h2.36v4.25h-2.36zM101.92 19.37h2.36v4.25h-2.36zM106.25 19.37h2.36v4.25h-2.36zM110.59 19.37h2.36v4.25h-2.36zM97.59 19.37h2.36v4.25h-2.36zM75.92 8.78h2.36v1.59h-2.36zM80.25 8.78h2.36v1.59h-2.36zM84.59 8.78h2.36v1.59h-2.36zM88.92 8.78h2.36v1.59h-2.36zM93.25 8.78h2.36v1.59h-2.36zM101.92 8.78h2.36v1.59h-2.36zM106.25 8.78h2.36v1.59h-2.36zM110.59 8.78h2.36v1.59h-2.36zM97.59 8.78h2.36v1.59h-2.36zM75.92 12.63h2.36v3.81h-2.36zM80.25 12.63h2.36v3.81h-2.36zM84.59 12.63h2.36v3.81h-2.36zM88.92 12.63h2.36v3.81h-2.36zM93.25 12.63h2.36v3.81h-2.36zM101.92 12.63h2.36v3.81h-2.36zM106.25 12.63h2.36v3.81h-2.36zM110.59 12.63h2.36v3.81h-2.36zM98.76 11.45a1.18 1.18 0 0 0-1.18 1.18v3.81h2.35v-3.81a1.18 1.18 0 0 0-1.17-1.18z"/><path fill="#00ab8a" stroke="#00ab8a" stroke-miterlimit="10" stroke-width=".5" d="M71.52 6.04h42.57"/><path fill="#00ab8a" d="M76.58 5.45h1.04v1.72h-1.04zM80.91 5.45h1.04v1.72h-1.04zM85.25 5.45h1.04v1.72h-1.04zM89.58 5.45h1.04v1.72h-1.04zM93.91 5.45h1.04v1.72h-1.04zM98.25 5.45h1.04v1.72h-1.04zM102.58 5.45h1.04v1.72h-1.04zM106.91 5.45h1.04v1.72h-1.04zM111.25 5.45h1.04v1.72h-1.04z"/><path fill="#003026" d="M2.3 4.07h41.42v3.64H0l2.3-3.64"/><path fill="#00ab8a" d="M43.72 23.63H0V6.86h43.72z"/><path fill="#00dbb6" d="M39.32 23.63h-2.36v-4.25h2.36zM34.99 23.63h-2.36v-4.25h2.36zM30.65 23.63h-2.36v-4.25h2.36zM26.32 23.63h-2.36v-4.25h2.36zM21.99 23.63h-2.36v-4.25h2.36zM13.32 23.63h-2.36v-4.25h2.36zM8.99 23.63H6.63v-4.25h2.36zM4.65 23.63H2.29v-4.25h2.36zM17.65 23.63h-2.36v-4.25h2.36zM39.32 10.37h-2.36V8.78h2.36zM34.99 10.37h-2.36V8.78h2.36zM30.65 10.37h-2.36V8.78h2.36zM26.32 10.37h-2.36V8.78h2.36zM21.99 10.37h-2.36V8.78h2.36zM13.32 10.37h-2.36V8.78h2.36zM8.99 10.37H6.63V8.78h2.36zM4.65 10.37H2.29V8.78h2.36zM17.65 10.37h-2.36V8.78h2.36zM39.32 16.45h-2.36v-3.81h2.36zM34.99 16.45h-2.36v-3.81h2.36zM30.65 16.45h-2.36v-3.81h2.36zM26.32 16.45h-2.36v-3.81h2.36zM21.99 16.45h-2.36v-3.81h2.36zM13.32 16.45h-2.36v-3.81h2.36zM8.99 16.45H6.63v-3.81h2.36zM4.65 16.45H2.29v-3.81h2.36zM16.48 11.45a1.18 1.18 0 0 1 1.18 1.18v3.81h-2.35v-3.81a1.18 1.18 0 0 1 1.17-1.18z"/><path fill="#00ab8a" stroke="#00ab8a" stroke-miterlimit="10" stroke-width=".5" d="M43.72 6.04H1.15"/><path fill="#00ab8a" d="M38.66 7.17h-1.04V5.45h1.04zM34.33 7.17h-1.04V5.45h1.04zM29.99 7.17h-1.04V5.45h1.04zM25.66 7.17h-1.04V5.45h1.04zM21.33 7.17h-1.04V5.45h1.04zM16.99 7.17h-1.04V5.45h1.04zM12.66 7.17h-1.04V5.45h1.04zM8.33 7.17H7.29V5.45h1.04zM3.99 7.17H2.95V5.45h1.04zM42.34 1.72H73.1v5.13H42.34z"/><path d="M44.94 3.28a1.18 1.18 0 0 0-1.18 1.18v3.5h2.35v-3.5a1.18 1.18 0 0 0-1.17-1.18zM48.86 3.28a1.18 1.18 0 0 0-1.18 1.18v3.5h2.35v-3.5a1.18 1.18 0 0 0-1.17-1.18zM52.79 3.28a1.18 1.18 0 0 0-1.18 1.18v3.5h2.35v-3.5a1.18 1.18 0 0 0-1.17-1.18zM62.65 3.28a1.18 1.18 0 0 0-1.18 1.18v3.5h2.35v-3.5a1.18 1.18 0 0 0-1.17-1.18zM66.57 3.28a1.18 1.18 0 0 0-1.18 1.18v3.5h2.35v-3.5a1.18 1.18 0 0 0-1.17-1.18zM70.5 3.28a1.18 1.18 0 0 0-1.18 1.18v3.5h2.35v-3.5a1.18 1.18 0 0 0-1.17-1.18zM57.79 3.28c-1 0-1.87.51-1.87 1.14v3.54h3.74V4.42c0-.6-.84-1.14-1.87-1.14z" fill="#003026"/><path fill="#00dbb6" d="M42.34 6.85H73.1v16.77H42.34z"/><path d="M44.94 12.63a1.18 1.18 0 0 0-1.18 1.18v3.5h2.35v-3.5a1.18 1.18 0 0 0-1.17-1.18zM48.86 12.63a1.18 1.18 0 0 0-1.18 1.18v3.5h2.35v-3.5a1.18 1.18 0 0 0-1.17-1.18zM52.79 12.63a1.18 1.18 0 0 0-1.18 1.18v3.5h2.35v-3.5a1.18 1.18 0 0 0-1.17-1.18zM62.65 12.63a1.18 1.18 0 0 0-1.18 1.18v3.5h2.35v-3.5a1.18 1.18 0 0 0-1.17-1.18zM66.57 12.63a1.18 1.18 0 0 0-1.18 1.18v3.5h2.35v-3.5a1.18 1.18 0 0 0-1.17-1.18zM70.5 12.63a1.18 1.18 0 0 0-1.18 1.18v3.5h2.35v-3.5a1.18 1.18 0 0 0-1.17-1.18zM57.79 12.63a1.87 1.87 0 0 0-1.87 1.87v5.83h3.74V14.5a1.87 1.87 0 0 0-1.87-1.87z" fill="#00ab8a"/><path fill="#003026" d="M70.04 16.37H45.41l-5 2.84v4.41h34.63v-4.41l-5-2.84"/><path fill="#00ab8a" d="M43.76 17.79h2.36v5.83h-2.36zM47.69 17.79h2.36v5.83h-2.36zM51.61 17.79h2.36v5.83h-2.36zM55.92 17.79h3.74v5.83h-3.74zM61.47 17.79h2.36v5.83h-2.36zM65.4 17.79h2.36v5.83H65.4zM69.32 17.79h2.36v5.83h-2.36zM43.76 8.88h2.35v2.02h-2.35zM47.69 8.88h2.35v2.02h-2.35zM51.61 8.88h2.35v2.02h-2.35zM61.47 8.88h2.35v2.02h-2.35zM56.55 8.88h2.35v2.02h-2.35zM65.4 8.88h2.35v2.02H65.4zM69.32 8.88h2.35v2.02h-2.35z"/><path fill="#00ab8a" stroke="#00ab8a" stroke-miterlimit="10" stroke-width=".5" d="M42.34.71H73.1"/><path fill="#00ab8a" d="M44.42 0h1.04v1.72h-1.04zM48.35 0h1.04v1.72h-1.04zM52.27 0h1.04v1.72h-1.04zM62.13 0h1.04v1.72h-1.04zM57.2 0h1.04v1.72H57.2zM66.06 0h1.04v1.72h-1.04zM69.98 0h1.04v1.72h-1.04z"/></symbol><symbol id="britain-city" viewBox="0 0 18.33 94.28"><title>britain-city</title><path fill="#fb8f04" d="M.79 58.91h16.75v35.37H.79z"/><path fill="none" stroke="#764300" stroke-miterlimit="10" stroke-width=".5" d="M13.53 20.55v-4.64"/><path fill="#fb0" d="M12.79 17.41h1.47v4.44h-1.47z"/><path fill="none" stroke="#764300" stroke-miterlimit="10" stroke-width=".5" d="M4.09 20.55v-4.64"/><path fill="#fb0" d="M3.35 17.41h1.47v4.44H3.35zM0 40.95h18.33v18.14H0z"/><path fill="#e28201" d="M0 37.39h18.33v3.55H0zM3.35 21.18h10.91v8.53H3.35z"/><path fill="#764300" d="M18.33 37.39H0l3.35-7.68h10.91l4.07 7.68"/><path fill="#fb8f04" d="M2.17 43.31h13.99v13.41H2.17z"/><circle cx="9.16" cy="50.01" r="6.71" fill="#fff"/><path d="M10.78 12.75l-2-10.44-2 10.44C5.71 18.4 3.3 21.17 3.3 21.17h11.01s-2.46-2.76-3.53-8.42z" fill="#764300"/><path fill="none" stroke="#764300" stroke-miterlimit="10" stroke-width=".5" d="M8.81 4.64V0"/><path fill="none" stroke="#fb0" stroke-miterlimit="10" stroke-width=".5" d="M6.46 22.81v5.56M8.02 22.81v5.56M9.59 22.81v5.56M11.16 22.81v5.56M6.21 38.19v1.96M7.77 38.19v1.96M9.34 38.19v1.96M1.2 38.19v1.96M2.77 38.19v1.96M4.34 38.19v1.96M10.9 38.19v1.96M12.43 38.19v1.96M13.99 38.19v1.96M15.56 38.19v1.96M17.12 38.19v1.96"/><path fill="none" stroke="#764300" stroke-miterlimit="10" stroke-width=".5" d="M6.21 46.03l2.95 3.98 4.83.01"/><path fill="none" stroke="#fb0" stroke-miterlimit="10" stroke-width=".5" d="M3.64 61.34v6.75M5.12 61.34v6.75M8.42 61.34v6.75M9.9 61.34v6.75M13.25 61.34v6.75M14.73 61.34v6.75M3.64 72.07v6.75M5.12 72.07v6.75M8.42 72.07v6.75M9.9 72.07v6.75M13.25 72.07v6.75M14.73 72.07v6.75M3.64 82.8v6.74M5.12 82.8v6.74M8.42 82.8v6.74M9.9 82.8v6.74M13.25 82.8v6.74M14.73 82.8v6.74"/></symbol><symbol id="canada-city" viewBox="0 0 12.96 69.3"><title>canada-city</title><path d="M7.91 29.37c-.28-12.72-.17-13.39-.17-13.39H4.85s.11.68-.17 13.39C4.68 48.21 0 69.3 0 69.3h12.59S7.91 48.21 7.91 29.37z" fill="#ffb400"/><path d="M7.17 34.98c-.28-12.72-.28-19-.28-19h-.8l.25 53.33h6.63a108.82 108.82 0 0 1-5.8-34.33z" fill="#fb8f04"/><path d="M7.74 16.6v-5H4.85v4.58z" fill="#ffb400"/><path d="M7.19 11.93l-.31-7.58H5.72l-.29 7.5c-.02 2.48 1.76 2.55 1.76.08z" fill="#ffb400"/><path d="M6.76 7.72L6.67 0h-.74l-.08 7.53c0 2.47.92 2.66.91.19zM10.48 14.66H2.1l1 3.74h6.42l.96-3.74" fill="#ffb400"/><path fill="#fb8f04" d="M10.48 14.66H2.1l1-1.02h6.42l.96 1.02"/><path fill="#e28201" d="M8.5 19.37H3.9l-.8-.97h6.42l-1.02.97"/><path fill="none" stroke="#764300" stroke-miterlimit="10" stroke-width=".5" d="M3.1 15.42h6.42"/><path fill="#e28201" d="M7.34 3.99H5.28l-.56.78h3.16l-.54-.78"/><path fill="#fb8f04" d="M7.34 3.99H5.28l-.03-.39h2.11l-.02.39"/><path fill="#764300" d="M7.38 5.11h-2.2l-.46-.34h3.16l-.5.34"/></symbol><symbol id="germany-city" viewBox="0 0 38 32.3"><title>germany-city</title><path fill="#00dbb6" d="M1.01 9.61H38V32.3H1.01z"/><path fill="#00ab8a" d="M38 9.61H1.01L3.97.94h30.85L38 9.61"/><path fill="#00ab8a" d="M12.91 8.78h6.6V32.3h-6.6zM0 12.94h6.6V32.3H0z"/><path fill="#003026" d="M12.5 8.56h7.43v1.43H12.5zM19.93 8.56H12.5L16.21 0l3.72 8.56M17.6 28.79a1.43 1.43 0 0 0-2.78 0v3.51h2.86v-3.51zM17.19 15.13a1 1 0 0 0-2 0v2.48h2v-2.48zM4.28 15.13a1 1 0 0 0-2 0v2.48h2v-2.48z"/><path fill="#00ab8a" d="M21.57 11.55h4.24v7.47h-4.24z"/><path fill="#003026" d="M25.81 11.48h-4.24l2.12-7.47 2.12 7.47"/><path fill="#00ab8a" d="M21.99 18.28h3.41v13.86h-3.41z"/><path d="M24.47 14.61a.8.8 0 0 0-1.56 0v2h1.6v-2z" fill="#003026"/><path fill="#00ab8a" d="M26.73 11.55h4.24v7.47h-4.24z"/><path fill="#003026" d="M30.98 11.48h-4.25l2.12-7.47 2.13 7.47"/><path fill="#00ab8a" d="M27.15 18.28h3.41v13.86h-3.41z"/><path d="M29.63 14.61a.8.8 0 0 0-1.56 0v2h1.6v-2z" fill="#003026"/><path fill="#00ab8a" d="M31.9 11.55h4.24v7.47H31.9z"/><path fill="#003026" d="M36.14 11.48H31.9l2.12-7.47 2.12 7.47"/><path fill="#00ab8a" d="M32.32 18.28h3.41v13.86h-3.41z"/><path d="M34.78 14.61a.8.8 0 0 0-1.56 0v2h1.6v-2z" fill="#003026"/><path fill="#00ab8a" d="M5.74 12.56h.85v.6h-.85zM0 12.56h.85v.6H0zM1.44 12.56h.85v.6h-.85zM2.87 12.56h.85v.6h-.85zM4.31 12.56h.85v.6h-.85z"/></symbol><symbol id="italy-city" viewBox="0 0 25.91 57.96"><title>italy-city</title><path fill="#003026" d="M0 57.84l.98-10.83 22.95 2.08-.8 8.87-1.72-.01-4.23-.02-1.14-.01-4.1-.02h-1.28l-4.14-.02-1.22-.01-5.3-.03"/><path fill="#00dbb6" d="M2.112 37.672l22.23 2.01-.857 9.473-22.23-2.01zM3.33 28.23l21.503 1.946-.857 9.47-21.502-1.944z"/><path d="M3.98 49.81a2 2 0 0 0-2.22 1.85l-.54 5.93v.26h4.12l.53-5.84a2 2 0 0 0-1.89-2.2zM9.31 50.29a2 2 0 0 0-2.22 1.85l-.49 5.45-.08.29h4.14l.49-5.39a2 2 0 0 0-1.84-2.2zM14.64 50.78a2 2 0 0 0-2.22 1.85l-.45 5v.27h4.1l.45-4.93a2 2 0 0 0-1.88-2.19zM19.98 51.26a2 2 0 0 0-2.22 1.85l-.42 4.63v.19h4.1l.4-4.48a2 2 0 0 0-1.86-2.19zM5.53 38.55a2 2 0 0 0-2.14 1.79l-.55 6.08 3.93.36.55-6.08a2 2 0 0 0-1.79-2.15zM10.68 39.02a2 2 0 0 0-2.14 1.79l-.55 6.08 3.93.36.55-6.08a2 2 0 0 0-1.79-2.15zM15.83 39.49a2 2 0 0 0-2.14 1.79l-.55 6.08 3.93.36.55-6.08a2 2 0 0 0-1.79-2.15zM20.98 39.95a2 2 0 0 0-2.14 1.79l-.55 6.08 3.93.36.55-6.08a2 2 0 0 0-1.79-2.15zM6.64 29.3a1.9 1.9 0 0 0-2.07 1.72l-.53 5.86 3.79.34.53-5.86a1.9 1.9 0 0 0-1.72-2.06zM11.61 29.75a1.9 1.9 0 0 0-2.07 1.72l-.53 5.86 3.79.34.53-5.86a1.9 1.9 0 0 0-1.72-2.06zM16.57 30.2a1.9 1.9 0 0 0-2.07 1.72l-.53 5.86 3.79.34.53-5.86a1.9 1.9 0 0 0-1.72-2.06zM21.54 30.65a1.9 1.9 0 0 0-2.07 1.72l-.53 5.86 3.79.34.53-5.86a1.9 1.9 0 0 0-1.72-2.06z" fill="#00ab8a"/><path fill="#00dbb6" d="M4.55 18.8l20.774 1.88-.857 9.47-20.775-1.88z"/><path d="M7.5 19.83a1.9 1.9 0 0 0-2.07 1.72l-.53 5.86 3.79.34.53-5.86a1.9 1.9 0 0 0-1.72-2.06zM12.46 20.28A1.9 1.9 0 0 0 10.39 22l-.53 5.86 3.79.34.53-5.86a1.9 1.9 0 0 0-1.72-2.06zM17.43 20.73a1.9 1.9 0 0 0-2.07 1.72l-.53 5.86 3.79.34.53-5.86a1.9 1.9 0 0 0-1.72-2.06zM22.4 21.18a1.9 1.9 0 0 0-2.07 1.72l-.53 5.86 3.79.34.53-5.86a1.9 1.9 0 0 0-1.72-2.06z" fill="#00ab8a"/><path fill="#00dbb6" d="M5.777 9.358l20.06 1.814-.858 9.472L4.92 18.83z"/><path fill="#00ab8a" d="M16.363 5.62l15.41 1.386-.79 8.78-15.41-1.387z"/><path fill="#00dbb6" d="M8.803.092l16.075 1.455-.13 1.434L8.674 1.527z"/><path d="M8.35 10.36a1.9 1.9 0 0 0-2.07 1.72l-.53 5.86 3.79.34.53-5.86a1.9 1.9 0 0 0-1.72-2.06zM13.32 10.81a1.9 1.9 0 0 0-2.07 1.72l-.53 5.86 3.79.34.53-5.86a1.9 1.9 0 0 0-1.72-2.06zM18.29 11.26a1.9 1.9 0 0 0-2.07 1.72l-.53 5.86 3.79.34.53-5.86a1.9 1.9 0 0 0-1.72-2.06zM23.25 11.71a1.9 1.9 0 0 0-2.07 1.72l-.53 5.86 3.79.34.53-5.86a1.9 1.9 0 0 0-1.72-2.06z" fill="#00ab8a"/><path d="M12.91 4.64a1.62 1.62 0 0 0-1.76 1.47l-.33 3.61 3.22.29.33-3.61a1.62 1.62 0 0 0-1.46-1.76zM20.37 5.32a1.62 1.62 0 0 0-1.76 1.47l-.33 3.61 3.22.29.33-3.61a1.62 1.62 0 0 0-1.46-1.76zM16.73 5.02a.81.81 0 0 0-.88.73l-.16 1.81 1.61.15.16-1.81a.81.81 0 0 0-.73-.88z" fill="#00dbb6"/></symbol><symbol id="japan-city" viewBox="0 0 49.4 49.85"><title>japan-city</title><path fill="#ff2323" d="M14.04 31.88h20.67v16.74H14.04z"/><path fill="#e61313" d="M31.76 15.12h.72v11.11h-.72zM15.65 15.12h.72v11.11h-.72z"/><path fill="#ff2323" d="M12.6 15.12h1.44v11.11H12.6zM34 15.12h1.44v11.11H34zM23.8 4.24h1.46v.99H23.8z"/><path fill="#ff2323" d="M24.48 4.7L9.84 12.24v2.88h29.27v-2.68L24.48 4.7M25.77 4.43h-2.63a1 1 0 0 1-1-1 1 1 0 0 1 1-1h2.63a1 1 0 0 1 1 1 1 1 0 0 1-1 1z"/><path d="M25.16 2.46h-1.39a.51.51 0 0 1-.51-.51.51.51 0 0 1 .51-.51l.67-1.45.67 1.45a.51.51 0 0 1 .51.51.51.51 0 0 1-.46.51z" fill="#ff2323"/><path d="M14.05 34.32v12h3.11a7.19 7.19 0 1 1 13.73 0H34v-12H14z" fill="#e61313"/><path fill="#850202" d="M32.49 34.32h3.22v12.01h-3.22zM12.34 34.32h2.76v12.01h-2.76z"/><path fill="#e61313" d="M7.55 34.32h1.71v12.01H7.55zM39.9 34.32h1.71v12.01H39.9z"/><path fill="#850202" d="M6.89 45.55h12.34v3.02H6.89z"/><path fill="#850202" d="M0 47.62h49.4v2.23H0z"/><path fill="#850202" d="M30.01 45.55h12.34v3.02H30.01z"/><path fill="#e61313" d="M21.2 15.12H7.15l-4.46-4.9 18.51 4.9M28.28 15.12h14.05l4.46-4.9-18.51 4.9"/><path fill="#ff2323" d="M42.33 31.02l.01-.02-1.78-5.51H8.79l-1.9 5.42.03.06-5.81-1.54 4.47 4.89H43.9l4.47-4.89-6.04 1.59"/><path fill="#fb8f04" stroke="#e61313" stroke-miterlimit="10" d="M24.48 5.47l-12.29 7.72M24.48 5.47l12.72 8.02M24.54 5.47l-9.49 8.61M24.54 5.47l9.7 8.61M24.54 5.47l6.3 9.15M24.64 5.47l-6.3 9.15M24.48 5.7v9.42M24.48 5.7l3.6 9.13M24.41 5.7l-3.22 9.13"/></symbol><symbol id="malaysia-city" viewBox="0 0 55.58 61.91"><title>malaysia-city</title><path fill="none" stroke="#00dbb6" stroke-miterlimit="10" stroke-width=".5" d="M28.05 35.16l7.34 8.79M28.04 35.07l-7.35 8.79"/><path fill="#00ab8a" d="M20.1 32.78h15.41v2.63H20.1z"/><path fill="#00dbb6" d="M36.24 51.8h19.33v10.11H36.24z"/><path fill="none" stroke="#003026" stroke-miterlimit="10" stroke-width=".5" d="M38.08 55.33h16.58M38.08 60.74h1.58M40.58 60.74h1.58M43.08 60.74h1.58M45.58 60.74h1.58M48.08 60.74h1.58M50.58 60.74h1.58M53.08 60.74h1.58"/><path fill="none" stroke="#00ab8a" stroke-miterlimit="10" stroke-width=".5" d="M38.08 58.41h1.58M40.58 58.41h1.58M43.08 58.41h1.58M45.58 58.41h1.58M48.08 58.41h1.58M50.58 58.41h1.58M53.08 58.41h1.58"/><path fill="#00dbb6" d="M19.33 61.91H0V51.8h19.33z"/><path fill="none" stroke="#003026" stroke-miterlimit="10" stroke-width=".5" d="M17.5 55.33H.92M17.5 60.74h-1.58M15 60.74h-1.58M12.5 60.74h-1.58M10 60.74H8.42M7.5 60.74H5.92M5 60.74H3.42M2.5 60.74H.92"/><path fill="none" stroke="#00ab8a" stroke-miterlimit="10" stroke-width=".5" d="M17.5 58.41h-1.58M15 58.41h-1.58M12.5 58.41h-1.58M10 58.41H8.42M7.5 58.41H5.92M5 58.41H3.42M2.5 58.41H.92"/><circle cx="17.56" cy="2.46" r=".56" fill="#00ab8a"/><path fill="#00ab8a" d="M15.48 5.38h4.16v25h-4.16zM17.34 3.84l-1.35 1.54h3.14l-1.39-1.59-.4.05"/><path fill="#00dbb6" d="M15.06 9.2h5.01v25h-5.01z"/><path fill="#00ab8a" d="M14.63 17.15h5.86v25h-5.86z"/><path fill="#00dbb6" d="M14.21 26.75h6.71v25h-6.71z"/><path fill="none" stroke="#00ab8a" stroke-miterlimit="10" stroke-width=".5" d="M17.56 3.81V0"/><circle cx="38.44" cy="2.46" r=".56" fill="#00ab8a"/><path fill="#00ab8a" d="M36.36 5.38h4.16v25h-4.16zM38.22 3.84l-1.35 1.54h3.14l-1.4-1.59-.39.05"/><path fill="#00dbb6" d="M35.93 9.2h5.01v25h-5.01z"/><path fill="#00ab8a" d="M35.51 17.15h5.86v25h-5.86z"/><path fill="#00dbb6" d="M35.08 26.75h6.71v25h-6.71z"/><path fill="none" stroke="#00ab8a" stroke-miterlimit="10" stroke-width=".5" d="M38.44 3.81V0"/><path d="M36.74 51.8a15.34 15.34 0 0 1-17.41 0 23.18 23.18 0 0 1 8.7-2.71c4.17.32 7.15 1.19 8.71 2.71z" fill="#003026"/><path fill="none" stroke="#003026" stroke-miterlimit="10" stroke-width=".5" d="M21.39 34.1h12.9"/><path fill="#00ab8a" d="M19.33 51.8h17.41v10.11H19.33z"/><path fill="none" stroke="#003026" stroke-miterlimit="10" stroke-width=".5" d="M21 60.74h1.58M23.5 60.74h1.58M26 60.74h1.58M28.5 60.74h1.58M31 60.74h1.58M33.5 60.74h1.58"/><path fill="none" stroke="#00dbb6" stroke-miterlimit="10" stroke-width=".5" d="M21 58.41h1.58M23.5 58.41h1.58M26 58.41h1.58M28.5 58.41h1.58M31 58.41h1.58M33.5 58.41h1.58M21 55.33h14.08M18.5 24.53h.83"/><path fill="none" stroke="#003026" stroke-miterlimit="10" stroke-width=".5" d="M14.67 44.93h.83"/><path fill="none" stroke="#00ab8a" stroke-miterlimit="10" stroke-width=".5" d="M19.26 47.41h.84"/><path fill="none" stroke="#00dbb6" stroke-miterlimit="10" stroke-width=".5" d="M15.46 22.2h.83"/><path fill="none" stroke="#003026" stroke-miterlimit="10" stroke-width=".5" d="M18.33 18.41h.84M17.15 20.28h.83"/><path fill="none" stroke="#00ab8a" stroke-miterlimit="10" stroke-width=".5" d="M17.29 15.45h.83M18.71 12.45h.84"/><path fill="none" stroke="#003026" stroke-miterlimit="10" stroke-width=".5" d="M16.59 10.24h.83"/><path fill="none" stroke="#00ab8a" stroke-miterlimit="10" stroke-width=".5" d="M15.87 13.78h.84"/><path fill="none" stroke="#003026" stroke-miterlimit="10" stroke-width=".5" d="M18.3 8.53h.83"/><path fill="none" stroke="#00dbb6" stroke-miterlimit="10" stroke-width=".5" d="M16.29 6.12h.83"/><path fill="none" stroke="#00ab8a" stroke-miterlimit="10" stroke-width=".5" d="M18.33 28.28h.84"/><path fill="none" stroke="#00dbb6" stroke-miterlimit="10" stroke-width=".5" d="M15.87 25.49h.84"/><path fill="none" stroke="#003026" stroke-miterlimit="10" stroke-width=".5" d="M18.92 42.58h.83M18.92 38.08h.83"/><path fill="none" stroke="#00ab8a" stroke-miterlimit="10" stroke-width=".5" d="M16.04 39.46h.83"/><path fill="none" stroke="#003026" stroke-miterlimit="10" stroke-width=".5" d="M14.89 35.41h.83"/><path fill="none" stroke="#00ab8a" stroke-miterlimit="10" stroke-width=".5" d="M17.08 36.74h.84M18.75 33.74h.83M19.68 31.16h.83M18.33 29.45h.84M16.25 32.08h.83M15.87 27.66h.84M17.08 48.35h.84M17.92 49.85h.83M15.63 49.1h.83M15.46 41.93h.83M17.5 41.05h.83"/><path fill="none" stroke="#003026" stroke-miterlimit="10" stroke-width=".5" d="M17.58 45.8h.84"/><path fill="none" stroke="#00dbb6" stroke-miterlimit="10" stroke-width=".5" d="M39.32 24.53h.83"/><path fill="none" stroke="#003026" stroke-miterlimit="10" stroke-width=".5" d="M35.48 44.93h.84"/><path fill="none" stroke="#00ab8a" stroke-miterlimit="10" stroke-width=".5" d="M40.08 47.41h.83"/><path fill="none" stroke="#00dbb6" stroke-miterlimit="10" stroke-width=".5" d="M36.28 22.2h.83"/><path fill="none" stroke="#003026" stroke-miterlimit="10" stroke-width=".5" d="M39.15 18.41h.83M37.96 20.28h.84"/><path fill="none" stroke="#00ab8a" stroke-miterlimit="10" stroke-width=".5" d="M38.11 15.45h.83M39.53 12.45h.83"/><path fill="none" stroke="#003026" stroke-miterlimit="10" stroke-width=".5" d="M37.4 10.24h.84"/><path fill="none" stroke="#00ab8a" stroke-miterlimit="10" stroke-width=".5" d="M36.69 13.78h.84"/><path fill="none" stroke="#003026" stroke-miterlimit="10" stroke-width=".5" d="M39.11 8.53h.84"/><path fill="none" stroke="#00dbb6" stroke-miterlimit="10" stroke-width=".5" d="M37.11 6.12h.83"/><path fill="none" stroke="#00ab8a" stroke-miterlimit="10" stroke-width=".5" d="M39.15 28.28h.83"/><path fill="none" stroke="#00dbb6" stroke-miterlimit="10" stroke-width=".5" d="M36.69 25.49h.84"/><path fill="none" stroke="#003026" stroke-miterlimit="10" stroke-width=".5" d="M39.73 42.58h.84M39.73 38.08h.84"/><path fill="none" stroke="#00ab8a" stroke-miterlimit="10" stroke-width=".5" d="M36.86 39.46h.83"/><path fill="none" stroke="#003026" stroke-miterlimit="10" stroke-width=".5" d="M35.71 35.41h.83"/><path fill="none" stroke="#00ab8a" stroke-miterlimit="10" stroke-width=".5" d="M37.9 36.74h.83M39.57 33.74h.83M40.5 31.16h.83M39.15 29.45h.83M37.07 32.08h.83M36.69 27.66h.84M37.9 48.35h.83M38.73 49.85h.84M36.44 49.1h.84M36.28 41.93h.83M38.32 41.05h.83"/><path fill="none" stroke="#003026" stroke-miterlimit="10" stroke-width=".5" d="M38.4 45.8h.83"/></symbol><symbol id="mexico-city" viewBox="0 0 79.86 53.12"><title>mexico-city</title><path fill="#e61313" d="M0 53.12h38.46v-45h-6.58L0 51.87v1.25M79.86 53.12H41.4v-45h6.59l31.87 43.75v1.25"/><path fill="#ff2323" d="M8.7 50.62h62.47v2.5H8.7zM10.11 48.12h59.64v2.5H10.11zM11.53 45.62h56.8v2.5h-56.8zM12.95 43.12h53.97v2.5H12.95zM14.37 40.62H65.5v2.5H14.37zM15.78 38.12h48.3v2.5h-48.3zM17.2 35.62h45.46v2.5H17.2zM18.62 33.12h42.63v2.5H18.62z"/><path fill="#ff2323" d="M20.04 30.62h39.79v2.5H20.04zM21.45 28.12h36.96v2.5H21.45zM22.87 25.62h34.12v2.5H22.87zM24.29 23.12h31.29v2.5H24.29zM25.7 20.62h28.45v2.5H25.7zM27.12 18.12h25.62v2.5H27.12zM28.54 15.62h22.78v2.5H28.54zM29.96 13.12h19.95v2.5H29.96zM32.79 8.12h14.28v2.5H32.79z"/><path fill="#ff2323" d="M32.79 8.12h14.28v6.45H32.79z"/><path fill="#ff2323" d="M34.21.22h11.45v8.23H34.21z"/><path fill="#ff2323" d="M33.5 1.56h12.86V2H33.5zM33.5 0h12.86v.44H33.5z"/><path fill="#850202" d="M38.46 3.73h2.94v4.39h-2.94z"/><path fill="#c61111" d="M52.74 53.12H27.5l9.75-45h5.42l10.07 45"/><path fill="#850202" d="M27.83 53.12h-1.16l10-45h1.16l-10 45M52.25 53.12h1.16l-10-45h-1.16l10 45"/><path fill="#850202" stroke="#850202" stroke-miterlimit="10" stroke-width=".5" d="M28.7 50.62h22.46M29.27 48.12H50.6M29.83 45.62h20.2M30.4 43.12h19.06M30.97 40.62h17.92M31.54 38.12h16.79M32.1 35.62h15.66M32.67 33.12h14.52M33.24 30.62h13.39M33.8 28.12h12.26M34.37 25.62h11.12M34.94 23.12h9.99M35.5 20.62h8.86M36.07 18.12h7.72M36.64 15.62h6.59M37.2 13.12h5.46M37.77 10.62h4.32"/></symbol><symbol id="poland-city" viewBox="0 0 29.75 46.54"><title>poland-city</title><path fill="#ff2323" d="M0 11h14.88v35.54H0z"/><path fill="#850202" d="M12.5 0H1.63L0 11h14.88L12.5 0M2.94 16.74h2.75v5.03H2.94z"/><path fill="#c61111" d="M2.37 21.38h3.88v.76H2.37z"/><path fill="#850202" d="M9.19 16.74h2.75v5.03H9.19z"/><path fill="#c61111" d="M8.62 21.38h3.88v.76H8.62z"/><path fill="#850202" d="M2.94 26.49h2.75v5.03H2.94z"/><path fill="#c61111" d="M2.37 31.13h3.88v.76H2.37z"/><path fill="#850202" d="M9.19 26.49h2.75v5.03H9.19z"/><path fill="#c61111" d="M8.62 31.13h3.88v.76H8.62z"/><path fill="#850202" d="M2.94 38.9h4.37v7.64H2.94zM9.19 38.9h2.75v3.82H9.19z"/><path fill="#ff2323" d="M3.44 6.75h1.75v2.88H3.44zM9.69 6.75h1.75v2.88H9.69z"/><path fill="#e61313" d="M14.88 22.97h14.88v23.57H14.88z"/><path fill="#850202" d="M27.38 15.5h-12.5V23h14.87l-2.37-7.5M17.81 26.49h2.75v5.03h-2.75z"/><path fill="#ff2323" d="M17.25 31.13h3.88v.76h-3.88z"/><path fill="#850202" d="M24.06 26.49h2.75v5.03h-2.75z"/><path fill="#ff2323" d="M23.5 31.13h3.88v.76H23.5z"/><path fill="#850202" d="M17.81 38.9h4.37v7.64h-4.37zM24.06 38.9h2.75v3.82h-2.75z"/><path fill="#ff2323" d="M18.31 18.75h1.75v2.88h-1.75zM24.56 18.75h1.75v2.88h-1.75z"/></symbol><symbol id="russia-city" viewBox="0 0 29.7 81.79"><title>russia-city</title><path fill="#e61313" d="M6.83 36.61h16.13v12.32H6.83z"/><path fill="#c61111" d="M2.41 47.9h24.94v17.72H2.41z"/><path fill="#ff2323" d="M29.65 81.79H0V60.14h4.24v4.24h4.23v-4.24h4.24v4.24h4.23v-4.24h4.24v4.24h4.23v-4.24h4.24v21.65M8.5 28.14h12.86v8.47H8.5zM14.93 7.86L8.5 28.14h12.86L14.93 7.86"/><circle cx="14.88" cy="42.26" r="3.57" fill="#fff"/><path fill="none" stroke="#850202" stroke-miterlimit="10" d="M14.88 39.61v2.89h2.69"/><path fill="none" stroke="#ff2323" stroke-miterlimit="10" d="M14.93 1.13l1 2.03 2.25.33-1.63 1.58.39 2.24-2.01-1.06-2.01 1.06.39-2.24-1.63-1.58 2.25-.33 1-2.03z"/><path fill="#ff2323" stroke="#ff2323" stroke-miterlimit="10" d="M14.93 6.34V10"/><path fill="#e61313" d="M.05 75.97h12.1v5.82H.05zM18.45 75.97H29.7v5.82H18.45z"/><path d="M14.83 69.37c-2.4 0-4.34 1.06-4.34 2.38v10h8.68v-10c0-1.32-1.95-2.38-4.34-2.38z" fill="#850202"/><path fill="#c61111" d="M4.32 41.05L2.4 47.9h3.82l-1.9-6.85M25.44 41.05l-1.91 6.85h3.82l-1.91-6.85"/></symbol><symbol id="russia_city" viewBox="0 0 29.7 81.79"><title>russia_city</title><path fill="#e61313" d="M6.83 36.61h16.13v12.32H6.83z"/><path fill="#c61111" d="M2.41 47.9h24.94v17.72H2.41z"/><path fill="#ff2323" d="M29.65 81.79H0V60.14h4.24v4.24h4.23v-4.24h4.24v4.24h4.23v-4.24h4.24v4.24h4.23v-4.24h4.24v21.65M8.5 28.14h12.86v8.47H8.5zM14.93 7.86L8.5 28.14h12.86L14.93 7.86"/><circle cx="14.88" cy="42.26" r="3.57" fill="#fff"/><path fill="none" stroke="#850202" stroke-miterlimit="10" d="M14.88 39.61v2.89h2.69"/><path fill="none" stroke="#ff2323" stroke-miterlimit="10" d="M14.93 1.13l1 2.03 2.25.33-1.63 1.58.39 2.24-2.01-1.06-2.01 1.06.39-2.24-1.63-1.58 2.25-.33 1-2.03z"/><path fill="#ff2323" stroke="#ff2323" stroke-miterlimit="10" d="M14.93 6.34V10"/><path fill="#e61313" d="M.05 75.97h12.1v5.82H.05zM18.45 75.97H29.7v5.82H18.45z"/><path d="M14.83 69.37c-2.4 0-4.34 1.06-4.34 2.38v10h8.68v-10c0-1.31-1.94-2.38-4.34-2.38z" fill="#850202"/><path fill="#c61111" d="M4.32 41.05L2.4 47.9h3.82l-1.9-6.85M25.44 41.05l-1.91 6.85h3.82l-1.91-6.85"/></symbol><symbol id="spain-city" viewBox="0 0 52.12 58.52"><title>spain-city</title><path fill="#764300" d="M22.11 8.21h-4.8l-1.05 7.84h7.15l-1.3-7.84M11.26 30.63H8.15l-2-7.1h5.11v7.1"/><path d="M35.73 25.6c-2.54-.8-6-3.68-8-6.22a14.53 14.53 0 0 1-3.09-6.9H22.7v.93a1 1 0 0 1-1 1 1 1 0 0 1-1-1v-.91H19v.9a1 1 0 0 1-1 1 1 1 0 0 1-1-1v-.88h-1.68a15.26 15.26 0 0 1-1.56 5c-1.77 4.46-7.58 5.95-7.58 5.95a9.38 9.38 0 0 1 5.17 1.7c.27.19.74.62.74.62l2.53-1.3 3.35-2.55 6.4.54 10.6 8.12.17-1.94s.79-2.99.59-3.06z" fill="#e28201"/><path d="M43.73 34.5h-8.81s-1.47-7.21 1.2-11.07 7.61-4 7.61-4v15.12z" fill="#764300"/><path d="M43.52 33.45h-7.59s-1.27-6.21 1-9.54 6.56-3.48 6.56-3.48v13z" fill="#e28201"/><path fill="none" stroke="#ffb400" stroke-miterlimit="10" stroke-width=".5" d="M45.72 6.13l.69-2.6M47.07 6.13l-.69-2.6"/><path fill="#764300" d="M43.41 21.9h6.07v11.36h-6.07z"/><path fill="#764300" d="M43.01 21.53h6.86v.82h-6.86z"/><path fill="#ffb400" d="M43.27 19.51h6.33v2.36h-6.33zM45.52 6.44h1.84v.63h-1.84z"/><path fill="#ffb400" d="M45.36 5.82h2.16v.63h-2.16zM36.49 58.02H.5v-25.5l3.17.55 7.64-6.05 8.46-6.33 5.41 2.52 11.31 9.31v25.5"/><rect x="19.34" y="30.34" width="2.77" height="7.32" rx="1.22" ry="1.22" fill="#764300"/><rect x="23.09" y="31.23" width="2.1" height="5.54" rx=".93" ry=".93" fill="#764300"/><rect x="16.26" y="31.23" width="2.1" height="5.54" rx=".93" ry=".93" fill="#764300"/><path d="M31.03 53.8a53 53 0 0 1-22.53 0V43.65a49.33 49.33 0 0 1 22.53 0V53.8z" fill="#764300"/><path fill="#fb8f04" stroke="#fb8f04" stroke-miterlimit="10" d="M35.93 33.26h13.54v24.76H35.93z"/><path d="M47.92 13.73a39.35 39.35 0 0 1-.63-6.89h-1.7a39.35 39.35 0 0 1-.63 6.89c-.63 2.92-1.43 5.73-1.43 5.73h5.82s-.83-2.73-1.43-5.73z" fill="#ffb400"/><rect x="44.08" y="23.72" width="2.1" height="3.22" rx=".93" ry=".93" fill="#ffb400"/><rect x="46.77" y="23.72" width="2.1" height="3.22" rx=".93" ry=".93" fill="#ffb400"/><rect x="1.24" y="46.06" width="2.1" height="5.26" rx=".93" ry=".93" fill="#764300"/><path fill="none" stroke="#764300" stroke-miterlimit="10" stroke-width=".5" d="M44.58 20.24v.89M45.82 20.24v.89M47.06 20.24v.89M48.3 20.24v.89"/><path fill="none" stroke="#ffb400" stroke-miterlimit="10" stroke-width=".5" d="M46.44 3.75V0M45.36 1.17h2.16"/><path d="M50.26 29.55v1.5a1.06 1.06 0 0 1-2.12 0v-1.51h-1.62v1.53a1.06 1.06 0 0 1-2.12 0v-1.54h-1.61v1.56a1.06 1.06 0 1 1-2.12 0v-1.57h-1.61v1.58a1.06 1.06 0 0 1-2.12 0v-1.6H35.7a4.37 4.37 0 0 1-4.37-4.37v-.42a6.35 6.35 0 0 0-6.43-3.06c-2.41 0-4.37-3.15-4.37-3.15s-2 3.15-4.37 3.15a4.34 4.34 0 0 0-5 3.3 4.36 4.36 0 0 1-1.42-.24v.42a4.37 4.37 0 0 1-4.37 4.37H3.89v1.6a1.06 1.06 0 0 1-2.12 0v-1.58H.48v5.71h4.68a5.22 5.22 0 0 1 4.94-5 5.39 5.39 0 0 1 5.15-4.06 5.55 5.55 0 0 1 10.56 0 5.39 5.39 0 0 1 5.15 4.06 5.22 5.22 0 0 1 4.94 5h15.62v-5.55s.56-.11-1.26-.13z" fill="#fb8f04" stroke="#fb8f04" stroke-miterlimit="10"/><path d="M22.99 6.17c0-2.33-1.42-5.52-3.16-5.52s-3.16 3.19-3.16 5.52 1.42 4.23 3.16 4.23 3.16-1.9 3.16-4.23z" fill="#ffb400"/></symbol><symbol id="thailand-city" viewBox="0 0 64.15 45.7"><title>thailand-city</title><path fill="#e61313" d="M27.8 17.42h8.64v2.49H27.8zM27.8 17.42a19.81 19.81 0 0 0 2.39-3.75C31.1 11.67 32.12 0 32.12 0s1.12 12 1.9 13.67a25.07 25.07 0 0 0 2.42 3.75H27.8z"/><path fill="#ff2323" d="M26.37 22.18h11.5v3.96h-11.5z"/><path fill="#ff2323" d="M26.78 19.24h10.68v3.96H26.78zM22.92 25.77h18.11v4.98H22.92z"/><path d="M60.5 34.42H37.42v-5s16.41.25 20.43 0a20.49 20.49 0 0 0 6.3-1.24z" fill="#c61111"/><path d="M57.38 32.05H38.85v-5s11.86.25 15.88 0a20.49 20.49 0 0 0 6.3-1.24z" fill="#850202"/><path d="M53.41 30.76H40.26v-5s6.48.25 10.5 0a20.49 20.49 0 0 0 6.3-1.24z" fill="#ff2323"/><path d="M33.89 31.3a22.43 22.43 0 0 0 8.35-11.48V31.3h-8.35zM3.69 34.42h23.28v-5s-16.61.25-20.63 0a20.49 20.49 0 0 1-6.3-1.24z" fill="#c61111"/><path d="M6.78 32.05h18.78v-5s-12.11.25-16.14 0a20.49 20.49 0 0 1-6.3-1.24z" fill="#850202"/><path d="M10.75 30.76H23.9v-5s-6.48.25-10.5 0a20.49 20.49 0 0 1-6.3-1.24z" fill="#ff2323"/><path d="M30.27 31.3a22.43 22.43 0 0 1-8.35-11.48V31.3h8.35zM7.81 43.69H6.37v-9.85h1.44zM15.06 43.69h-1.44v-9.85h1.44zM49.37 43.69h-1.44v-9.85h1.44z" fill="#c61111"/><path fill="#850202" d="M40.97 43.69h-1.44v-9.85h1.44zM25.27 43.69h-1.44v-9.85h1.44z"/><path fill="#c61111" d="M29.36 43.69h-1.44v-9.85h1.44zM37.05 43.69h-1.44v-9.85h1.44zM58.49 43.69h-1.44v-9.85h1.44z"/><path fill="#850202" d="M2.58 43.69h59.08v2.01H2.58zM20.46 35.58a41.1 41.1 0 0 0 6.42-7.55l5.17-8.39s3 5.07 5.09 8.39a52 52 0 0 0 6.5 7.55H20.46z"/><path d="M25.36 33.76a24 24 0 0 0 3.75-4.41l3-4.9s1.75 3 3 4.9a30.39 30.39 0 0 0 3.8 4.41H25.38z" fill="#e61313"/></symbol></svg>