<?xml version="1.0" encoding="utf-8"?>
<!-- Generator: Adobe Illustrator 21.0.0, SVG Export Plug-In . SVG Version: 6.00 Build 0)  -->
<svg version="1.1" id="Layer_1" xmlns="http://www.w3.org/2000/svg" xmlns:xlink="http://www.w3.org/1999/xlink" x="0px" y="0px"
	 viewBox="0 0 115.5 182.5" style="enable-background:new 0 0 115.5 182.5;" xml:space="preserve">
<style type="text/css">
	.st0{clip-path:url(#SVGID_2_);}
	.st1{clip-path:url(#SVGID_4_);fill:#f19c18;}
</style>
<g>
	<defs>
		<path id="SVGID_1_" d="M53.3,87.7C37.4,85.5,25.1,72,25.1,55.5c0-18,14.6-32.7,32.7-32.7c18,0,32.7,14.6,32.7,32.7
			c0,16.5-12.3,30-28.2,32.2v94.8c13.4-24.1,53.3-98.2,53.3-124.7C115.5,25.8,89.6,0,57.7,0C25.8,0,0,25.8,0,57.7
			c0,26.5,39.9,100.6,53.3,124.7V87.7z"/>
	</defs>
	<clipPath id="SVGID_2_">
		<use xlink:href="#SVGID_1_"  style="overflow:visible;"/>
	</clipPath>
	<g class="st0">
		<defs>
			<rect id="SVGID_3_" x="-11432" y="-2413.6" width="20124.8" height="61674.1"/>
		</defs>
		<clipPath id="SVGID_4_">
			<use xlink:href="#SVGID_3_"  style="overflow:visible;"/>
		</clipPath>
		<rect x="-69.9" y="-69.9" class="st1" width="255.2" height="322.2"/>
	</g>
</g>
</svg>
