<?xml version="1.0" encoding="utf-8"?>
<!-- Generator: Adobe Illustrator 21.0.0, SVG Export Plug-In . SVG Version: 6.00 Build 0)  -->
<svg version="1.1" id="Layer_1" xmlns="http://www.w3.org/2000/svg" xmlns:xlink="http://www.w3.org/1999/xlink" x="0px" y="0px"
	 viewBox="0 0 100 101" style="enable-background:new 0 0 100 101;" xml:space="preserve">
<style type="text/css">
	.st0{fill-rule:evenodd;clip-rule:evenodd;fill:#FBAE3E;}
</style>
<path class="st0" d="M57.9,9.9C44.6-3.3,23.2-3.3,9.9,9.9c-13.2,13.2-13.2,34.7,0,47.9c11.8,11.8,30,13,43.2,3.9l37.8,37.8
	c1.9,1.9,5.1,1.9,7.1,0l0.6-0.6c2-1.9,2-5.1,0-7.1L60.9,54.3C71,41,70,22,57.9,9.9 M52.4,52.4c-10.2,10.2-26.8,10.2-37,0
	c-10.2-10.2-10.2-26.8,0-37s26.8-10.2,37,0S62.6,42.2,52.4,52.4"/>
</svg>
