<svg xmlns="http://www.w3.org/2000/svg" width="25" height="28" viewBox="0 0 25 28">
    <g fill="#FFF" fill-rule="evenodd">
        <path d="M0 27.659h24.588v-.683H0z"/>
        <path d="M15.8 2.004l5.82 4.746-1.187 1.455-5.82-4.747L15.8 2.004zm5.494 8.115l-2.372 2.91-8.73-7.12L12.565 3l.728.594 7.274 5.933.727.593zm-6.67 10.303L2.13 25.45l5.664-6.946a2.35 2.35 0 0 0 2.908-.594 2.35 2.35 0 0 0-.335-3.302 2.35 2.35 0 0 0-3.302.335 2.35 2.35 0 0 0 .002 2.969l-5.664 6.944 2.41-13.25 6.276-2.6.965-1.182 5.819 4.746-.964 1.184-1.285 6.67zm-6.63-2.905a1.41 1.41 0 0 1-.202-1.982 1.41 1.41 0 0 1 2.183 1.78 1.41 1.41 0 0 1-1.982.202zm5.892-14.652L12.43 1.679l-3.56 4.364 1.455 1.187-.815 1-6.53 2.704L0 27.317l15.449-6.214 1.336-6.94.816-1 1.455 1.187 3.559-4.365-1.455-1.187 1.78-2.182L15.666.683l-1.78 2.182z"/>
    </g>
</svg>
