<svg data-name="Layer 27" xmlns="http://www.w3.org/2000/svg" viewBox="0 0 52.34 46.83"><title>america-city</title><path fill="#fb8f04" d="M1.42 28.26h49.5v18.57H1.42z"/><path fill="#ffb400" d="M3.9 30.53h44.53v16.31H3.9z"/><path fill="#e28201" d="M3.9 30.53h44.53v1.39H3.9z"/><path fill="#fb8f04" d="M25.68 12.01h.9v4h-.9z"/><path fill="#fb8f04" d="M24.52 13.98v-.9h3.22v.9z"/><path fill="#ffb400" d="M40.67 0h.58v3.33h-.58z"/><path fill="#ffb400" d="M40.04.75h1.83v.42h-1.83zM26.17 15.29L0 25.83v2.94h52.34v-3.1L26.17 15.29z"/><path d="M30.92 18.51c0-.78-2.13-1.42-4.75-1.42s-4.75.64-4.75 1.42a.47.47 0 0 0 0 .08v9.67h9.5v-9.67a.49.49 0 0 0 0-.08z" fill="#fb8f04"/><path fill="#764300" d="M15.2 45.77h18.63v1.07H15.2z"/><path fill="#764300" d="M21.33 34.01h9.75v12.11h-9.75z"/><path fill="#e28201" d="M36.17 31.92h9.58v14.92h-9.58zM35.74 30.91h10.43v1.01H35.74zM36.17 21.91h9.58v9h-9.58zM35.74 20.9h10.43v1.01H35.74z"/><path fill="#e28201" d="M36.59 11.39v1.01h.36v9h8.02v-9h.36v-1.01h-8.74z"/><path fill="#ffb400" d="M37.8 7.32h6.32v4.07H37.8z"/><path fill="#764300" d="M38.59 3.25l-.79 4.07h6.32l-1.03-4.07h-4.5z"/><path fill="#e28201" d="M39.09 7.32l1.92-2.95 1.82 2.95h-3.74z"/><circle cx="40.96" cy="9.36" r=".85" fill="#764300"/><path fill="#fb8f04" d="M18.33 31.92h.75v13.85h-.75z"/><path fill="none" stroke="#764300" stroke-miterlimit="10" stroke-width=".5" d="M38.92 14.55h.83M40.54 14.55h.84M42.17 14.55H43M38.92 15.66h.83M40.54 15.66h.84M42.17 15.66H43M38.92 17.96h.83M40.54 17.96h.84M42.17 17.96H43M38.92 19.06h.83M40.54 19.06h.84M42.17 19.06H43M38.92 24.15h.83M40.54 24.15h.84M42.17 24.15H43M38.92 25.25h.83M40.54 25.25h.84M42.17 25.25H43M38.92 28.05h.83M40.54 28.05h.84M42.17 28.05H43M38.92 29.16h.83M40.54 29.16h.84M42.17 29.16H43M38.92 31.96h.83M40.54 31.96h.84M42.17 31.96H43M38.92 33.06h.83M40.54 33.06h.84M42.17 33.06H43M38.92 35.86h.83M40.54 35.86h.84M42.17 35.86H43M38.92 36.97h.83M40.54 36.97h.84M42.17 36.97H43M38.92 39.77h.83M40.54 39.77h.84M42.17 39.77H43M38.92 40.88h.83M40.54 40.88h.84M42.17 40.88H43M38.92 43.68h.83M40.54 43.68h.84M42.17 43.68H43M38.92 44.78h.83M40.54 44.78h.84M42.17 44.78H43"/></svg>