<svg data-name="Layer 20" xmlns="http://www.w3.org/2000/svg" width="81.071" height="58.356" viewBox="0 0 60.81 43.78"><title>america</title><path d="M60.38 37.8l-.15-.62.2-.83-.39-.34-.65-.37-.17-.51-.85-1-2-1.16-1.16-.27h-2.08l-.68-.17-.27-.44-.72-.31-.48.07-1.33 1-1.44.34-2.9 1.47-.85.82-.82.1-1.54-.07-1.64-1.13-1.09-.51-.27.24.55.34v.48l-.75.13-.79-.41-.24-.38.19-.19.32-.1-.26-.29h-.38l-.58-.19-.51-.55-.19-.52-.08-.23-.68-.5-.75-.22-.51-.63-.29-.77-1-1-.51-.86-.14-1-.33-.84-.45.1-.14.44h-1l.21-.34.06-.1.44-.28-.14-.71-.51-.62-.24-1 .58-1.13.31-.75v-1l-.27.55-.14.44-.48.28v-.69l.24-.75.44-1-.14-.62v-.65l.55-1.4.41.1-.17.38v1.75h.26l.38-.63.22-1.83v-2.19l.17-.47-.36-.55-.31-.14v-.48l.33-.34h.29l.17.29.29-1.18.77-1 .36-.64.09-.48-.46-.33-.05-.41.28-.61-.13-.79.07-1.26.27-.51.29-.31.29-.31-.27-.48-1.09-.89-1-.44-.07.17.41.78h-1l-1.29-.13-.48-.38-.89-.1h-.79l.21-.37.62-.17-.07-.44.41-.1.75.17 1.24.39.17-.13-.85-.69-1.16-.65-.82-.07-.79.17-.51-.24-.21.58-.62-.44-2.08-.2-2-.1-1.09-.93-1-.48-.21.58.38.28-.75.31-.48.34-.79-.28-1.57.41-2-.17-2.8.07-1.23.68-.58-.47-.16.4-.61.44-.31.82-1.33.78h-.72L6.29 5.49l-.75.79.24.82-.58 1.26-1.26.93v.54h-.08l-.53 2.49.18.27-.25.18v.45l-.82.24-1.16.27-.89 1v.48l-.34.54.43.15h.92l.75.71 1.09.24h.55l1.61.71 1.5.82.21-.41-.68-.38.34-.2h.85l.72 1 .51.44H11l.61-.85-.24-.45.27-.31-.12-.43.24-.72-.1-.36.13-.56.5-.69-.24-.45.31-.31.51.27.24.34h.41l.21-.31.38.2v.58l.21.51v.52l-.38.07-.85-.31-.17.31 1.71 2.08.82.55v.58l1.37 1.23 1.2 1.64 2.19 2.39.58.07.34.23.11.07-.27 1.06-.31.28.27.24.72.17.21 1-.82.48-.44 1.09.2.92 1.26 1.09h1.26l.75.48.44.78h.44l.55-1-.24-.82-1.26-.92-.31-.51.41-.34.82.65.89.45.07.78.92.65.31 1 1.09.62.82.75.61.38 1 1.2.17.44-.62.79v.65l.41.65 1.13.41.75.48.37-.21.1-.79-.44-.58-.82-.41v-.17l.34-.24.51.38.82 1v.86l.33.19.26.15.33.38h.6l.15-.46-.05-.55h.14l.67-.07.81.14.87-.16.44-.32.41.44-.05.35.53.15 1.73.24.12 1.28.6 1.22.75.45h.79l.29-.57-.33-.36.31-.5.63.1.29.4-.17.51.24 1-.17.69.31.53 1.34.21.56-.89.65-.67.85.14.48-.15.07-1-.74-.65-.79-.57-.36-.77.15-.53.79-.41 1.49-.32L50 36.86l-.05-.45-.28-.22.1-.91 1.42-.75 1.15-.1.6.33.86.84.63.12.82 1.1.32.87.5.4.29-.24.62-.72h.51l.22.65-.39.41-.48.07-.79 1.18-.38.36.39 1.24 1.06 1.47 1 .88.62-1.43h.46l.58-.46.33-1.15.68-1.22z" fill="#0087e0" fill-rule="evenodd"/></svg>