<svg data-name="Layer 12" xmlns="http://www.w3.org/2000/svg" viewBox="0 0 28.6 37.63"><title>armchair</title><path d="M24.71 17.56s1.59-14.73 0-16.53-5.46 1.59-10.41 1.59S5.41-.22 3.89 1.03s0 16.53 0 16.53M8.54 32.64a5.74 5.74 0 0 0-.38 2.24v2.24H6.01v-2.24a5.88 5.88 0 0 1 .38-2.24M20.08 32.64a5.74 5.74 0 0 1 .38 2.24v2.24h2.15v-2.24a5.88 5.88 0 0 0-.38-2.24" fill="none" stroke="#70706e" stroke-miterlimit="10"/><path d="M24.71 17.56a3.39 3.39 0 0 0-3.39 3.39v8.3h-14v-8.3a3.39 3.39 0 1 0-3.39 3.39v8.3h20.82v-8.3a3.39 3.39 0 1 0-.04-6.78zM7.28 24.55h14.07" fill="none" stroke="#009ce1" stroke-miterlimit="10"/><path class="armchair-arrow" fill="none" stroke="#ff4025" stroke-miterlimit="10" d="M17.58 15.88l.77-8.37h-6.84l.62 8.37h-1.59l4.39 4.4 4.4-4.4h-1.75z"/></svg>