<svg data-name="Isolation Mode" xmlns="http://www.w3.org/2000/svg" viewBox="0 0 113.3 53.67"><title>australia-city</title><path fill="#ffb400" d="M78.91 32.83l-1.09 14.48 2.78.02.25-1.5h4.74l.36 1.5h2.75l-.5-14.5h-9.29z"/><path fill="#fb8f04" stroke="#fb8f04" stroke-miterlimit="10" d="M52.03 44.65h1.15l12.27-4.32-7.67-17.41H45.7L40.91 39.5l11.12 5.15zM12.7 29.5v15.17h2.9l.25-1.5h4.74l.36 1.5h2.83V29.5H12.7zM27.24 24.04l-2.33 20.61 5.23.02.26-1.5h4.73l.36 1.5h5.42l-2.59-22.13-11.08 1.5z"/><path d="M0 17.67l11.2 27h2.22l4.89-16.85a23 23 0 0 0-5.11-4.37A52.92 52.92 0 0 0 0 17.67z" fill="#e28201"/><path d="M8.69 9.5l14.17 35.17h2.83l6.58-21.81a29.9 29.9 0 0 0-6.57-5.74A68.69 68.69 0 0 0 8.69 9.5zM78.91 12.52l-13 32.15h-2.88l-6.58-21.81a29.9 29.9 0 0 1 6.57-5.74c8.44-5.35 15.89-4.6 15.89-4.6z" fill="#e28201"/><path d="M68.69 26.25l8.5 21.09h1.89l4.31-14.31a19.61 19.61 0 0 0-4.31-3.77 17.92 17.92 0 0 0-10.39-3.01z" fill="#fb8f04" stroke="#fb8f04" stroke-miterlimit="10"/><path d="M112.2 21.34l-22.63 26h-1.88l-4.31-14.31a37.5 37.5 0 0 1 4.31-3.77c9.34-7.92 24.51-7.92 24.51-7.92z" fill="#fb8f04" stroke="#fb8f04" stroke-miterlimit="10"/><path d="M22.12 0l18 44.67h1.57l14.79-21.8a42.25 42.25 0 0 0-12.71-13.2A87.24 87.24 0 0 0 22.12 0z" fill="#ffb400"/><path fill="#764300" d="M70.82 46.92H9.15l.8-2.25h60l.87 2.25zM95.57 52.42H5.07l1-5.5h88l1.5 5.5z"/><path fill="#ffb400" d="M71.45 53.67H3.2l.62-2.38h67l.63 2.38z"/><path fill="none" stroke="#764300" stroke-miterlimit="10" stroke-width=".5" d="M24.53 2.25l16.17 40"/><path fill="none" stroke="#ffb400" stroke-miterlimit="10" d="M10.92 11.81l12.86 31.83M2.6 20.24l9.46 23.4"/><path fill="none" stroke="#764300" stroke-miterlimit="10" stroke-width=".5" d="M70.35 27.55l7.47 18.49M109.45 22.54l-20.26 23.5"/></svg>