<svg data-name="Layer 20" xmlns="http://www.w3.org/2000/svg" width="389.707" height="393.335" viewBox="0 0 292.28 295"><title>australia</title><path d="M190.46 98.64l.32-1.73.22 1.06-.55.67zm.44-11.87l-.44-1.4.17-1 .1-.85.82-1 .51-1-.27-.65.27-.75.44.07.17 1.09-.2 1.33-1.06 1.43-.24 1.92.27.92-.55-.17zm-7.94-14.06l.86 1.18.46.84.19-.84-.35-.44.07-.6-.58-.07-.44-.31-.21.24zm-1.23-6.72l-.1-.53-.39.39.5.14zm-18.06-21l.33-.77-.7-.79.77-.21.32-.17.12 1.56-.39.95-.44-.57zm-15.56-45l.26.62.39-.51-.65-.1zm-.67 2.44v1.16l.44-.25h.48l-.34-.77-.6-.1zm-15.25 34.15l.28.44.5-.27-.07-.51-.7.34zm-1.11-2.06l.41.43.56-.21.56-.72 1-.15v-.34l-1.23-.29-1.16.67a3.86 3.86 0 0 0-.21.62zm-9.69-4.58l-.34-.6.31-.78.53.71-.5.67zm-3.08-10.15l-.13-.46-.26.17-.08-.45.55-.51.46.65-.53.6zm1.23 1.13l-.5.41.34.05.75-.29 1.25.21.27-.74-.34-.15-.39.09-.2-.24.79-.75-.1-.21-.79.23v-.76l-.53.26-.15.43h-.74l.21.24-.17.2.32 1.06zm.65-14.55l.63.29.17-.72.82-.75-.38-.45-1 1-.28.59zm-1 .81l.53.28-.07-.52-.46.24zm-.74.33l.27.38.29-.38h-.56zm-1.71.91l.55.05v-.46l-.55.41zm-1.2 1.38l-.09-.56.89-.52h.79l-.29.51-.8.09-.5.51zm-1.52.35l.38.27.84-.34-.07-.29-1.15.36zm-12-3.84l-.53-.94.17-.67.72-.13-.29.87-.07.87zm-10.51-.5l.12 1.13.77.91.67.86 1.32.55L96 7.56l.41.07.07-.5.45-.38-.38-.31-.27-.62h-.41l-.58.29H94l-.53.67-.56-.29-.12-.31-.56-.08-.58-.62h-.27l.15.31zm-.32.24l.39 1.69.79.28.12.29-1.08-.24h-.39l-1-.26v-.53l.31-.05.46.14v-.26l-.23-.1V6.5l-.12-.16.67-.33zM60.9 26.48l.34.48.77-.16-.67-.84s-.5.55-.44.52zm.2 3.25l-.08-1-.46-.7.07 1.39.48.32zm4-7l-.56-.07.27-.5.39.05-.1.51zM14.85 55.28l-.27-.48.89-1.23-.1 1.06-.51.65zM.71 79.91l.38-2 .11 1.3s-.48.72-.48.75zm-.07 3.65l-.58-1.88.44-1.09.51 1.57-.38 1.4zm105.03 61.5l-.15.75.21.46h.58l-.32.39h.86l.5-.22.65.32-.6.55-1.71-.24-.32.45h-.5l-.1.29h-.46l-.36-.48-.58.22-.86-.13-.32.07h-1.1l-.68-.48.05-.55 1.13-.58 2.53-.7.84.09.74-.24zm30.91 22.51l.5-.2.31.43-.23.32-.58-.54zm4.8 3.24l.5.34.32-.41-.82.07zm-11.3 12.59l.16.71.61.18.45-.45-.61-.59-.61.14zm.39-1.75v.7l.54-.05-.09-.86-.48.21zm-.7 1.13l-.64-.38.27-.73.64-.36v.82l-.3.64zm-3.09-3.45l.11-.68-.21-.79.63-.81-.12-.82.64-.79.54-.43.55.46-.21 1.38.32.66-.63 1-.18.52-.77.61-.66-.32zm18.86 2.34l1.68-.75v-.83l-1.54-1.54-.68.25.29.79-.36.86.32.57.29.65zm-.9 1.07l.29.61 1.43.07.72.29.14-.54-1-.9-1.07.11-.54.36zm.9 2.26l-.47-.54.68-.22-.21.76zm-5.13 15.31v-.79l.54.5-.54.28zm-5.45 5.6l-.61-.36.68-1.07v-.83l.47-.21.21.5-.43.6-.32 1.37zm-6.2-.5v-1l.54-.61-.9-.32-.21-1.22.21-.39-.5-.39v-2.66l.22-.5-.65-.54-.07-1.65.39-.93.79.89 1 .07-.86-.86v-.61l-.43-.29.25-1.33-.21-1.68-.11-2.08.23-1.2-.21-1.86v-1l.29-.21.07-1.09.3-.45.93.66.87.44.72.57.14-.5.39-.47v1.4l1.65.9 1.29 1.18.89.65.61-.46h.93l.72.68v-.86l.61-.4 2.83.18.5-.32.65-.5h.54l.25.18.54-.86h.43l1.11.79-.32.82-.43 2.44-.82 1-.07 1.76-.68 1 .25 1.18-.25.43v.86l-.47 1-.18-.68-.29-1.37-.5.9-.61.43-.11 2-.39.39h-.9V200l-.68.86.75.5v.7l-1.08 1.54-.38-.13-.84.42-.05-1.39 1 .4.12-.81-.54-.46-.79.15-.47.82-.61-.22v-1l-.36 1-.86.69-.29.5-.64-.61-.43 1.55-.11.86-.89 1.36h-.75l-.47-.86v-.81l-.75 1-.65-.64-.86.18-.39-.18zM2.18 131.08l.64.57h.72l2 2v.76l.36.43 1 .18.46.57 1.36.22.54-.11.29.4 1 .14 1.22-.25.32.68.54-.43.29.21 1.36-.25 1.18-.11.15-.57.72-.15.79-1.18 1.4.18v-.82l.89-.5h.72l.71.75.75-1 .39.18.47-.25.25-1.15 2.62-1.61 1 .14.64.4.86-.57 2.51-.54.32.5 1.61-.36.47.32.75.07 1-.36.36 1h.57l.75-.4.43.5.76-.5h1.86l-.11.79.32.15 1-1 1 .29 1.25-.86.46-1.15.47-.14 1-1 .57-1.69 1.15-.89 1.37-.4.5.32 2-.68 2.51-1.54 1.54-1.44.72-.28h1.51l1.4.61 1.29.07.9-.32 1.9.11 2.62-.93 1.54-.36 1.15-.83h.72l1.33-1 2-.14 5.2-.4 1.69.47h1.15l1.43-.5 1.15.15 1.43 1.36 1.11 1.9.86.29.61-.5.58-.21.43.46.54-.25 1 .25.9 1.18 1.22.21.5-.32 2.08 1.47-.18.9h.64l.72.75-.29.69h-.79l-.18.64.82 1.83.86.07 1 1 .32 1.33-.18 1 1 2.3-.36 1 .43.58-.18 1.22-.39.72-.57-.36-.29.29.75 1 .72.4.36 1 .79-.29.83.65v-.83l-.47-.75.54-.57.47-.93.75-.14.43-.79.83-.36.25-.83.86-1.11 2-1 .21-.61h.4l1.58-.75.39-1.33 1.25-1.94 1.36-.28.54-.79-.36-1 .21-1.14.57 1.33v2.4l-.58.75-.28 2.4-2 1.29-.29 1-.58.75.07 1.08-1.15 1.61.36.47-.83 2.29-2.26-.25-.46 1.26-.58 1v.36l1.4-.36 1.36-.61 1.61.58 1.58-2.66.43-2.44 1.33-1.36.36.43v2.26l.5 1.32-.43.14.14 2.26-1 1.94-1.79.72.29.64 1.15-.15h1.23l.54-.55.82-.2 1-.82.81.23.61-.09-.48.82-.46.77-.86-.05-.23.5.84 1.23.35 1 .61 1.51.07 1.76-.18 2.19-1.18 1.25.21.61-.18 1.65.83.72.72 1.26.22 1.54 1.69 2.26 1.29.32.9.65.43 1.14 1 .07.22-.43.61-.21 1.22.39 1 1.22 1.08.11 1.18 1.11.15 1 .93.32 1 1.15h.72l.32-.65 1.83-.86.56-.82h1.14l1.22-1.21.88.18.39-.47-.23-.48-1-.29.34-.62 1.86-1.24 1.56 1.09-.05 1-1.9 1 .45.89.59.14.7-.74.77-.59 1 .54-.09.91h-.57l-.76.75 1.26 1.47.25 1.61.47-.28.65.07.07 1 .68 1 .68-1.18-.07-1.29-.75.57-.18-.54.57-.64 2.33.07.29.46.32-.54 1.18-1.61 2.44-1.47 1.36-1.22h-.73l-.54.32.22-.29-.83-.28.9-.07h1.25l1.79-.54 3.66-.72 2.94.58 1.22-.72v-.79h.86l.89-.61.83-1.68-.36-1.87v-1l1.61-1.61v-2.54l.75-1.08.33-1.89.93-.43-.07-.93 2.87-3.59.79-.14.5-1.94 1.15-1.51.72-2 1.15-1.15-.12-1 .83-.43.73-1.91-.61-.58 1.47-.68 1-1.5.61-.61.72-1.55 1.4-.43.86-.43h-1.45l.36-.47 1.69-.11 1.51-1.07.32-1.11-.21-.58.21-1 1.54-1.19v-1l1.07-.43 1-1.76-.14-.89.54-1.44-.39-.47.14-.75 1.33-3.08.32-1.65 1.72-3.08-.01-1.14.89-2.23 1.29-1.08.47-1.29-.36-1.4.79-1-.72-2.15.11-1.15-.68-1.79-.29-.57v-1l.32-.43v-1.11l.83-1.43-.07-.43-.07-2.76.54-.93-.39-.54-.25-1v-1.86l-.4-.14.5-1-.93-.39-.46-.93v-1.08l-1.07-.94-.68-1.36-.29-1.33-.61-1.15h-.61l-.72.32-.64-.61-.14-1.22-.47-.21-.11-.68-1.15-1-.54-.5.25-.71-.64-1.15.9-1.15.21-1.43-.29-.68.14-.93-.64-.36-.18.5.28.43-.36.5-2.12-1.94-.47-1.11-.39.21v.65l-.25.71.5 1.47-1-1.26-.5.58v-.9l-.39-.75-.18-2.66.29-.29v-.65l-.9-.57.36-.79-.68-.54.21-.83-1.54-1.33-.43-.93-.07-1.11.86.21v-.82l-.75-1.36-.4.21-.82-.11-.93-1.33h-.72l-.86-.75-.5.54-.39-.54-1-.36-.64.61.54-.86.93-.25.07-.68-.29-.54-1.08.11-.82-.07-.25-.57h-.47l-2-1.11-.86-1.73-.18-1.72-.57-1.12v-.9l.47-.18.39-1.9-.54-2.51-.57-1.15.5-.25-.61-.58h-.72l-.9-1.87v-2.33l.36-.28v-.5l-.43-.54-.21-2.94.25-.79-.25-.93.32-.29.11-.68-1.65-1.58-1-.61.29-.43-1.08-1.07-1 .64-.47-.32-.54 1h-.79l-1-1.47.11-.79-.61-1.33.36-1.76-.21-2.11-.39.18-.36-.86.43-.82-.72-1v-.83l-.5-.32v-1.18l.57-.57-.64-.36-.79.18-.61-.57.36-2.26-.29-.5-.29-1.32-1-.22v-.61l-1.11.43-.54.75v1.69l-.5 1.43v.4l-.21 1-.54-.07-.61 1.54-.82 1.15.72.68.9.72-.57.4-.61-.11-.39.93-.5.93.68 1.11.11.79-.72-.29-.54.4-.43 2.33.43 1.58-.32 1.72.47 1.22-.11 1.4-.9.83v.79l-1 1.83-.18 2.69-.83.93.29 1-.54 1.47-.86.86-.11 1.8-1.47 1.11-3 1.18-1.22-.86-1.25-.11-.61-.83-1.18-.93v-.58l-.32-.43-.29-1-1.11-.18-.93-.4-1.47-.11-1.36-.86-.25-.79-1-1.33-1.26-.11-1.11-.72-.07-.61-.61-.07-.54-.43h-1l-.86-.21.25-.4-1.18-1-.21-.93-1.22-1.26-.79-.11-1-1.22v-1.18l.9-1.43.21-1.15.93-.64.29-1.33.39-.86-.82.61-.68-1.29 1-.64-.18-1h.5l.58-.25.25.36.86.18 1.18-.54.4-1.08-.83-.68.64-.5.68.18.46-1.61.61-.32.64-.86v-.46l-1-.47-.61.71-.61-.25-.14-1.61-.79.36-1.11 1.33.57.25v.64l-.79.39-.75-.46-.18-.57-.39-.54-.32.61-.65.18v-.6l.54-.58.22-.47-.68.28-.5.58-1.07.36-.14.4-.57.11-.29-.4-.9-.07v-.43l-.72-1-.39-.11-1.11.61-.79-.32-.47.28-.36-.68-.43-.11-.54-1-1.08.5-1.15-.18-1-.47.07-.68-.72-.9-.43.11.11.4-1.43.43-.36-.86-.79-.29-1.26-.72-.18.36-.65-.47-.79.61.93.72-.29.25.9.21.79-.36 1.36 1.14-.11.64.28 1.51-1 .07-.36 1.07-.32-.64-.72-.21-.75.5-2.72.15-1-.9-.14.4-1.08.4.11.9-.9-.18.29 1.26-.32-.46-1.11-.36-.43.64.43.61-.07.4-1.18-.36-.61.61.47.5-.51.25-.78.45.07.59.71.74.2.53-.84-.48-.68.57h-.83l-.83 1.33-.75 1.51-.61.18-.29 1.26-.75.46.64.68 1.61.29-.61.18-.36.68 1.94.64-.75.32-1.22-.14-.39-.58v.58l.79.61v1l.82 1.11-1.22-1-.75-1.4-.9-.11v.58l-.36.64-.11-.75-2-1.29-1.47.28.47.54-.5.5-.5-.43h-.39l-.43.57.68.9-.18.54-.14-.4-.47.11v.47l-.93.54-1.36.25 1.08-.5.72-1-.07-1.47.75-.93-.47-.61-.79-.11-1.36-2.47-.72-1.08-1.33-.32-.9-.57-.57.36.47.46-.54.18-.64 1-.65-.11.22-.54-.86.25-.21.58-.64-1.36-.54-.14-.14.79.68.4-.93.68-.32 1 .32.57-1 .58-.43-.68h-.54l-.18-.5.68-.79h-.72l-.36 1-1 .25-.42.57-.18 1 1.45.41-1.21 1-.93-.5-1.11.75.21.68 1.33.18-.46.75-.65.15-.93-1.11-.79.89-.94.15.2.7.18.65.07.61.57-.2-.68.93.47.68-.79.39-.5.65 1.65.29-1 .54-.21.43-.9-.21-.5-.69-.75-.5-.72.61-.32-.68-.9-.57-.65.54 1.18.82-.43.21-.5.93 1 .86h1l-.43.79v.86l-.39-.36h-.5l.18 1-.39 1.08-.15 1.18-1.5-3.23-1-2-.54-.75.25-1.15-.36.54-1 .75-.25 1.26-.76.18-.11.54-.93-.07-.54.71-.79.68.18 1.22v2.47l.47.25v.86l-.86.46-.5.93-1.29.36.11.54-1.11.72v1.22l-.61.57-1.47 2-2.83 1.69-2.47.21-1 .36-1.44.11-1.15.29-1.15-.29-1.47.58-.18.86-1 .47-3.08-.11-.79.46-.25.83-1.94.79h-1.47l-.79-.32-.75.07-.29-.54-.79.4-.75 1.14-2 .36-.18.43h-.66l-1.58 1.39-2 1-2.69.83-1.18 1.65v1.51l-1.08.93-.75-.5.36-.54-.14-.75.5-1.18v-.86l-1.5 1.15-.36 1.4-1.07 2 .72 1.43-.5 1.18.07 2.19L4.7 71l-.72 3.12.5 1.61-.25 2.26 1.65 2.8.07 1.08.68.79-.61 1.4.36 1.25-1 .4-.43-.75-.07-1.65-.61.9-.29-.32.07-1.51-1-2.08-.61 1 .21 2.08 1.29 1.29.89 1.79-1.32.21-1.08-1.43-.25-1.69-.43.72-.54.29.83 1.57 1.65 2 1 2.69-.18 4.81.68.9.5 2.69 1.43 3.55-.5 1.26.15 5.31-.21.72.5 1.47v1.65l1 2.33v1.15l-.9.65.47.5-.32 1.25-.18 2.08-.82.75.25.61-.25 1.26-.82.61.18 1.22-1.54 1.18-.68-.61-1.18 1.79z" fill="#ff8f6b" fill-rule="evenodd"/><path d="M216.68 233.58l.46.25.36-.09v-.55h-.78l-.17.33.14.11zm-13.87 60.77l.75.65 1-.1.67-1.21-.6-.55-.6.93-.79-.06-.41.35zm-6.48-18.18l2.32-2.32h.48l-.14.85-.58.75.41.85-.2.55-1-.41-.85.34-.48-.65zm81.4-106.83l.67-.05v.48l-.43-.07-.21-.36zm1.34-4l-.2-.29.36-.17-.16.46zm1.56.38l-.55-.69.55-1.27.07.74.29.43-.29.21.12.45-.19.13zm-15.37 37.15l1 .23.2-.53h.41v.67l-.08.48.26.12.38-.12.27.34-.05.75.21.28.72-.09 1.73-1.27 1.52-1.23 1.4-1.46 1.32-1.51 1.61-2 .87-.57.58-.05.39-.5.07-.75.36-.48.92-.38.61-1.84 1-1.44v-.46l.48-.44-.72-.69-.78-.14-.62.1.65-.55.58-.17 2.12-2.26.92-.34 1.54.24.79.07-.15.6.1.65.79-.77.57-.31-1.11-.46.12-.93.6-1.47.53-.6h.79l.22.32.41-.41.5-.74 1.23-2v-1.3l.36-1.12.74-.86.82-.51-.13-.23-1.13-.37-.41-.55.36-.12.07-.27-1.08-.21-1 .65-1.73 1.81-1.13.1-.61.31-.85-.38-1.91-2-.58.1-.72-1-.27-.65.48-.51.17-1.06-.72-1.47v-.75l-.31-.51.1-.92.24-.65-.48-.1-.13-1.06-.24-.58-.34.24-.75-.44-.24.38.68.68v.93l.14.34-.72.69v.64l.62.79v.55l-.75.24-.55-.62-.1-.79-1-.14v-.44l-.75-.34-.58.1-.07-.48.72-.41.27-.64-.75-.62.55-1.06.72-.17.2-1-.31-.72.2-.51-.31-.79.07-1.06-1-.71.1-.48.58.34.79-.17.17-1 .34-.34v-1.33l-.34-1.23.14-.78-.41.17-1.13.48-.85-.86.51-.44-.51-.48-.38-.07.34-.55.75-.34-.14-.51-.89-.21-.58-.55-.58.24-.13-.82h.38l.31-.55-.48-.07-.48.34v.49l-.39.68-.62-.27.26-.75-.38-.63-.24-1.22.05-.82v-.29l.26-.1-.43-.48-.48.33-1.27-.09v.29l.6.67 1 2.45.15.87-.15 1.58-.38.39h-.36l-.17.26.55 2 .27.27.72-.51h1l-.67.21-.67.81.24 1.15.57 1.3.22 2.4v2.44l.5-.24.2-.84-.24-.58.29-.26.34.53v.81l.51-.07.09-.39-.12-.29.27-.07.09.67-.51.91-.24.75-.05.46-.34.1-.36-.55h-.39l.21 1.42.65 1.83.39.14.32-.17.34.62.09.44.43.33-.94.63v.34l.32.33-.29.65-.55 1.63v.83l-.26.29.48.5-.19.35-.65.05-.41.74v.46l.53.53-.55.29h-.58l-.41 1-.81 3.48-.1.81-.67.5-.68.05-.81-.31-.89.12-1.8.86-.82.91-.23 1.06.21 1.48.8.7 1.35.82.65 1.23 1.26.41.51.51.21 2 .1.21-.24.24v1.1l-.41.89-1.87 2.37-1.33 1.39-1.4 1.26-.5.6.14.48zm-3.09-3.65v-.69l.53-.73.75.2-.18.45-.61.35-.43.64h-.22l.11-.25zm-.31 1.25l.39-.45.43-.12-.38.55h-.44zm-.74-.21h.5l.43-.21v-.25l-1 .5zm-38.87 44l.53-.33-.1.43-.43-.1zm-4.52 1.8l-.7.82h-.45l-.14-.41.93-.94.38-.24v-.6l.7-.14.26-.86-.07-.91.14-.65.82-.24.82.84.41 1 .16.31-.05.21-.53.1-.2-.22-.43.17.31.07.38.36.43.2.07.38-.29.38-.35-.13-1 .34-.5.36h-.5l-.27-.19-.31.07zm-.72-8l-.65-.68.13-.89.51-.31-.44-.11-.56-.09 1.11-1.25 1-.13h.79l.34-.29-.34-.45-.72-.69-.07-.58.82-1.37.32-.22.34-.58.38.19.36.82.36-.47.08-1.63.43-.59h.39l1.38-1.54.43.31.41-.46v-1.13l.57-.38.6-.55.41.34.14.58.2-1.12.82-1 .74-.22 1.15-.93.55-.7 1.49-1.28.72-.05.41.34.84-.2.79-.24.36.15.81.75-.12-1-.32-.76.15-.53 1.66-1 .92-.21 1.53-1.45 1.77-.89h.75l.13-.68 1.19-.62 1-.14 1.91-1.37 1.71-2 .1-.75.44-.58v-1l.76-.84.51-.26.05-.94.26-.86.77-.57 1 .09.81-.32.32-.71 1.08-1.32.41-.15.86-1.15.85-2.14.16-1.18.84-.68.63-.26 1.27-.84.77.1-.57.79-.1.62.39.48.34.19.48-.38.29.29-.05.39.26.1-.15.47-.46.55-.39.29.44 1.36.62.31.63-.87.6-.39.58.17h.41l-.1.55.46.48.86-.6-.39-.12-.22-.24.58-1.1.69.16v.55h.26l-.55 1-1 .6.67-.1.72-.21-.89 1.22-.31-.09-.24.79-.07.83.39.93.1.93.48.15-.86.51-2.46 2.13-.13.55-1.68 1.71.1.38-.75-.07-1 1-.13.89-1.06 1.26-.21.55-1.4.89-1.3.41-.69.27-.34 1.5.1 1.09-.27.41.65.14.41.65-.13 1.26-.44.34-.31-.24.1-1-.27-.24-.24.31v.68l-.27.44-.72-.28h-1l.85-.35v-.37l-.65-.24-.62.44v.41l-.58.2-.34-.1-.34-1-.79-.34.62.65.07.71-.58.79-.51.14h-.79l-.27.71h-.55l-.65-.51-.21.86-.72.34-.82 1v.82l-.51.75-.92 1.54-.17 1-.48.82-2.05 1.47-.68.78-.34 1.4-.75 1.36-1 1.18.2.14-.16.31-.49.3.8-.15.1.27-.42.31h-1.22l-1.4.59-.6.89-.32 1-1.11.46.17-.63-.58-.48.22.77-.09.48-.89.38-1.35 1.18-1.64.67-1.16.15-.77-.21v-.5l-1.25.6-.46-.1.92-.55-.63-.47-.91-.79-.12-.87-.34-.4h-.77l-.5-.44.26-.33-.29-.75-.73-.27-.49.07-.11.55-.37-.05-.12-.26-1.2-.1z" fill="#aa2358" fill-rule="evenodd"/></svg>