<svg data-name="Layer 27" xmlns="http://www.w3.org/2000/svg" viewBox="0 0 115.24 23.62"><title>austria-city</title><path fill="#003026" d="M112.94 4.07H71.52v3.64h43.72l-2.3-3.64z"/><path fill="#00ab8a" d="M71.52 6.85h43.72v16.77H71.52z"/><path fill="#00dbb6" d="M75.92 19.37h2.36v4.25h-2.36zM80.25 19.37h2.36v4.25h-2.36zM84.59 19.37h2.36v4.25h-2.36zM88.92 19.37h2.36v4.25h-2.36zM93.25 19.37h2.36v4.25h-2.36zM101.92 19.37h2.36v4.25h-2.36zM106.25 19.37h2.36v4.25h-2.36zM110.59 19.37h2.36v4.25h-2.36zM97.59 19.37h2.36v4.25h-2.36zM75.92 8.78h2.36v1.59h-2.36zM80.25 8.78h2.36v1.59h-2.36zM84.59 8.78h2.36v1.59h-2.36zM88.92 8.78h2.36v1.59h-2.36zM93.25 8.78h2.36v1.59h-2.36zM101.92 8.78h2.36v1.59h-2.36zM106.25 8.78h2.36v1.59h-2.36zM110.59 8.78h2.36v1.59h-2.36zM97.59 8.78h2.36v1.59h-2.36zM75.92 12.63h2.36v3.81h-2.36zM80.25 12.63h2.36v3.81h-2.36zM84.59 12.63h2.36v3.81h-2.36zM88.92 12.63h2.36v3.81h-2.36zM93.25 12.63h2.36v3.81h-2.36zM101.92 12.63h2.36v3.81h-2.36zM106.25 12.63h2.36v3.81h-2.36zM110.59 12.63h2.36v3.81h-2.36zM98.76 11.45a1.18 1.18 0 0 0-1.18 1.18v3.81h2.35v-3.81a1.18 1.18 0 0 0-1.17-1.18z"/><path fill="#00ab8a" stroke="#00ab8a" stroke-miterlimit="10" stroke-width=".5" d="M71.52 6.04h42.57"/><path fill="#00ab8a" d="M76.58 5.45h1.04v1.72h-1.04zM80.91 5.45h1.04v1.72h-1.04zM85.25 5.45h1.04v1.72h-1.04zM89.58 5.45h1.04v1.72h-1.04zM93.91 5.45h1.04v1.72h-1.04zM98.25 5.45h1.04v1.72h-1.04zM102.58 5.45h1.04v1.72h-1.04zM106.91 5.45h1.04v1.72h-1.04zM111.25 5.45h1.04v1.72h-1.04z"/><path fill="#003026" d="M2.3 4.07h41.42v3.64H0l2.3-3.64z"/><path fill="#00ab8a" d="M43.72 23.63H0V6.86h43.72z"/><path fill="#00dbb6" d="M39.32 23.63h-2.36v-4.25h2.36zM34.99 23.63h-2.36v-4.25h2.36zM30.65 23.63h-2.36v-4.25h2.36zM26.32 23.63h-2.36v-4.25h2.36zM21.99 23.63h-2.36v-4.25h2.36zM13.32 23.63h-2.36v-4.25h2.36zM8.99 23.63H6.63v-4.25h2.36zM4.65 23.63H2.29v-4.25h2.36zM17.65 23.63h-2.36v-4.25h2.36zM39.32 10.37h-2.36V8.78h2.36zM34.99 10.37h-2.36V8.78h2.36zM30.65 10.37h-2.36V8.78h2.36zM26.32 10.37h-2.36V8.78h2.36zM21.99 10.37h-2.36V8.78h2.36zM13.32 10.37h-2.36V8.78h2.36zM8.99 10.37H6.63V8.78h2.36zM4.65 10.37H2.29V8.78h2.36zM17.65 10.37h-2.36V8.78h2.36zM39.32 16.45h-2.36v-3.81h2.36zM34.99 16.45h-2.36v-3.81h2.36zM30.65 16.45h-2.36v-3.81h2.36zM26.32 16.45h-2.36v-3.81h2.36zM21.99 16.45h-2.36v-3.81h2.36zM13.32 16.45h-2.36v-3.81h2.36zM8.99 16.45H6.63v-3.81h2.36zM4.65 16.45H2.29v-3.81h2.36zM16.48 11.45a1.18 1.18 0 0 1 1.18 1.18v3.81h-2.35v-3.81a1.18 1.18 0 0 1 1.17-1.18z"/><path fill="#00ab8a" stroke="#00ab8a" stroke-miterlimit="10" stroke-width=".5" d="M43.72 6.04H1.15"/><path fill="#00ab8a" d="M38.66 7.17h-1.04V5.45h1.04zM34.33 7.17h-1.04V5.45h1.04zM29.99 7.17h-1.04V5.45h1.04zM25.66 7.17h-1.04V5.45h1.04zM21.33 7.17h-1.04V5.45h1.04zM16.99 7.17h-1.04V5.45h1.04zM12.66 7.17h-1.04V5.45h1.04zM8.33 7.17H7.29V5.45h1.04zM3.99 7.17H2.95V5.45h1.04zM42.34 1.72H73.1v5.13H42.34z"/><path d="M44.94 3.28a1.18 1.18 0 0 0-1.18 1.18v3.5h2.35v-3.5a1.18 1.18 0 0 0-1.17-1.18zM48.86 3.28a1.18 1.18 0 0 0-1.18 1.18v3.5h2.35v-3.5a1.18 1.18 0 0 0-1.17-1.18zM52.79 3.28a1.18 1.18 0 0 0-1.18 1.18v3.5h2.35v-3.5a1.18 1.18 0 0 0-1.17-1.18zM62.65 3.28a1.18 1.18 0 0 0-1.18 1.18v3.5h2.35v-3.5a1.18 1.18 0 0 0-1.17-1.18zM66.57 3.28a1.18 1.18 0 0 0-1.18 1.18v3.5h2.35v-3.5a1.18 1.18 0 0 0-1.17-1.18zM70.5 3.28a1.18 1.18 0 0 0-1.18 1.18v3.5h2.35v-3.5a1.18 1.18 0 0 0-1.17-1.18zM57.79 3.28c-1 0-1.87.51-1.87 1.14v3.54h3.74V4.42c0-.6-.84-1.14-1.87-1.14z" fill="#003026"/><path fill="#00dbb6" d="M42.34 6.85H73.1v16.77H42.34z"/><path d="M44.94 12.63a1.18 1.18 0 0 0-1.18 1.18v3.5h2.35v-3.5a1.18 1.18 0 0 0-1.17-1.18zM48.86 12.63a1.18 1.18 0 0 0-1.18 1.18v3.5h2.35v-3.5a1.18 1.18 0 0 0-1.17-1.18zM52.79 12.63a1.18 1.18 0 0 0-1.18 1.18v3.5h2.35v-3.5a1.18 1.18 0 0 0-1.17-1.18zM62.65 12.63a1.18 1.18 0 0 0-1.18 1.18v3.5h2.35v-3.5a1.18 1.18 0 0 0-1.17-1.18zM66.57 12.63a1.18 1.18 0 0 0-1.18 1.18v3.5h2.35v-3.5a1.18 1.18 0 0 0-1.17-1.18zM70.5 12.63a1.18 1.18 0 0 0-1.18 1.18v3.5h2.35v-3.5a1.18 1.18 0 0 0-1.17-1.18zM57.79 12.63a1.87 1.87 0 0 0-1.87 1.87v5.83h3.74V14.5a1.87 1.87 0 0 0-1.87-1.87z" fill="#00ab8a"/><path fill="#003026" d="M70.04 16.37H45.41l-5 2.84v4.41h34.63v-4.41l-5-2.84z"/><path fill="#00ab8a" d="M43.76 17.79h2.36v5.83h-2.36zM47.69 17.79h2.36v5.83h-2.36zM51.61 17.79h2.36v5.83h-2.36zM55.92 17.79h3.74v5.83h-3.74zM61.47 17.79h2.36v5.83h-2.36zM65.4 17.79h2.36v5.83H65.4zM69.32 17.79h2.36v5.83h-2.36zM43.76 8.88h2.35v2.02h-2.35zM47.69 8.88h2.35v2.02h-2.35zM51.61 8.88h2.35v2.02h-2.35zM61.47 8.88h2.35v2.02h-2.35zM56.55 8.88h2.35v2.02h-2.35zM65.4 8.88h2.35v2.02H65.4zM69.32 8.88h2.35v2.02h-2.35z"/><path fill="#00ab8a" stroke="#00ab8a" stroke-miterlimit="10" stroke-width=".5" d="M42.34.71H73.1"/><path fill="#00ab8a" d="M44.42 0h1.04v1.72h-1.04zM48.35 0h1.04v1.72h-1.04zM52.27 0h1.04v1.72h-1.04zM62.13 0h1.04v1.72h-1.04zM57.2 0h1.04v1.72H57.2zM66.06 0h1.04v1.72h-1.04zM69.98 0h1.04v1.72h-1.04z"/></svg>