<svg data-name="Layer 27" xmlns="http://www.w3.org/2000/svg" viewBox="0 0 18.33 94.28"><title>britain-city</title><path fill="#fb8f04" d="M.79 58.91h16.75v35.37H.79z"/><path fill="none" stroke="#764300" stroke-miterlimit="10" stroke-width=".5" d="M13.53 20.55v-4.64"/><path fill="#fb0" d="M12.79 17.41h1.47v4.44h-1.47z"/><path fill="none" stroke="#764300" stroke-miterlimit="10" stroke-width=".5" d="M4.09 20.55v-4.64"/><path fill="#fb0" d="M3.35 17.41h1.47v4.44H3.35zM0 40.95h18.33v18.14H0z"/><path fill="#e28201" d="M0 37.39h18.33v3.55H0zM3.35 21.18h10.91v8.53H3.35z"/><path fill="#764300" d="M18.33 37.39H0l3.35-7.68h10.91l4.07 7.68z"/><path fill="#fb8f04" d="M2.17 43.31h13.99v13.41H2.17z"/><circle cx="9.16" cy="50.01" r="6.71" fill="#fff"/><path d="M10.78 12.75l-2-10.44-2 10.44C5.71 18.4 3.3 21.17 3.3 21.17h11.01s-2.46-2.76-3.53-8.42z" fill="#764300"/><path fill="none" stroke="#764300" stroke-miterlimit="10" stroke-width=".5" d="M8.81 4.64V0"/><path fill="none" stroke="#fb0" stroke-miterlimit="10" stroke-width=".5" d="M6.46 22.81v5.56M8.02 22.81v5.56M9.59 22.81v5.56M11.16 22.81v5.56M6.21 38.19v1.96M7.77 38.19v1.96M9.34 38.19v1.96M1.2 38.19v1.96M2.77 38.19v1.96M4.34 38.19v1.96M10.9 38.19v1.96M12.43 38.19v1.96M13.99 38.19v1.96M15.56 38.19v1.96M17.12 38.19v1.96"/><path fill="none" stroke="#764300" stroke-miterlimit="10" stroke-width=".5" d="M6.21 46.03l2.95 3.98 4.83.01"/><path fill="none" stroke="#fb0" stroke-miterlimit="10" stroke-width=".5" d="M3.64 61.34v6.75M5.12 61.34v6.75M8.42 61.34v6.75M9.9 61.34v6.75M13.25 61.34v6.75M14.73 61.34v6.75M3.64 72.07v6.75M5.12 72.07v6.75M8.42 72.07v6.75M9.9 72.07v6.75M13.25 72.07v6.75M14.73 72.07v6.75M3.64 82.8v6.74M5.12 82.8v6.74M8.42 82.8v6.74M9.9 82.8v6.74M13.25 82.8v6.74M14.73 82.8v6.74"/></svg>