<svg xmlns="http://www.w3.org/2000/svg" viewBox="0 0 42.5 76.5"><path fill-rule="evenodd" clip-rule="evenodd" fill="#8B4B5F" d="M7.9 48.8l-1-.7-.7-.1-.9-1.8-1.3-.6-.6.4-.3 1.3-.7.1-2-1.8 1-2.1 1-.1.3-.8.6-.3.5-.5.9-.2.3-.4.5-.1.9-.6 1.4.1.8.4.1.9 1.4 2-.7.5 1.3.1.3 2.1-.5-1.6h-.6l.3.5-.3.7.7.1-.2.8-1.1-.1-.1.7-.7.6-.4-.1.1.7-.3-.1zM27.8 7.2l.4-.8.3.3-.7.5zm1.8-5.6l-.3-.4.7-.7-.4 1.1zm-2 2.2l.1-1.1-.6.2-.2.6c0-.1.7.3.7.3zm1.1-.7l-.5-.5.4-.5.1-.6.3.2v1.1l-.3.3zM28.2 6l-.4-.8h-1.1l-.4-.5.6-.2 1 .1.1-.5-.2-.3.2-.3.5.3.7.2-.4.4.2.5-.4.5.2.8-.6-.2zm9.2 59.4l.6.3.5-.1-.3-.3h-.4l-.4.1zm-9.7 5.4l1.3-.7.5.3.7-.1-.2.7v.3l-.8.1-.8-.4-.7-.2zM12.3 36.3v.7l.5.4-.1-.7-.4-.4zm-4.4-.7l.3-.9.1.5-.4.4zm-2.6-3l.1-.7.7.1-.8.6zm1.1-.9l.8-1-.2.7-.6.3zm2-1.9l.4-.4h-.4v.4zm-.9-1.2l.4.7.3-.3-.3-.5-.4.1zm12.3-14.1l.4.4.1-.5-.5.1zm-1 .4l.7-.1.6.5-.3.4 1-.1v.7l-.5-.3-.9.1-.1-.7-.2.6-.3-.3v-.8zm0 1.5l.5.8.2-.4-.3-.5-.4.1zM5.2 22.1l.4-.3-.5-.5.5-.7 1 .5-.2-.7 2.1-1.5.1 1.2-.8.7-.3.7.3.2-.6.8-.8-.2-.8.1-.4-.3zm0 1.4l.6.5 1-.9-.7-.3-.4.2-.2.4-.3.1zM4.9 25l-.8.2-.6-.7.4-.2 1.1.1-.1.6zm-.4 1l-.6-.2v-.3l.8-.1-.2.6zm-.9 2.3l.2.6-.6.4v-.5l.4-.5zm.8-.3l-.2-.8.2-.4-.1-.6-.5-.1v.5l-.3.6.2.6.7.2zm4.7.6l-.1-.9-1.1.1-.6-1.1.1-.3-.3-.3v.3l-.9-.6.4-.3.3.2-.1-.8 1 .7-.1-1.1.5-.2.5.8-.1 1.6.9.5.5-.1.3.3-.6.4-.3.8h-.3zm-1.5 5.1l1.7-.4.1.3.8-.6-.3-.8-.6-.1-.8-.9-.9.6 1.2.6-.7.4.2.3-.7.6zM9 37l-.3-.9 1.6-1.5-.7 1.6-.6.8zm-1.2 1.2l1-.6-.5-1.6-1.3.6v1.2l.9-.5-.1.9zm3.4-.2l.2 1.4.9.4.3-.9-.6-1.4-.8.5zm3.2 15.6l1.3.7 1.1-.9-.8.1-.4-.8-1 .1s-.2.7-.2.8zm-.9-5l.4-1.2 1.5-1.3-.2.8.2.5-1.1 1.1-.8.1zm-1.8 26.9l.5-.5-.2-.3.5-.6.2.3.6-.5h.4l.3-.7.9.2.7-.3.6.1.4-.2.4.5h.5l.6.5h.8l-.1-.5.6-.3.2-.5-.2-.8.5-.5.4-.1.2-.3 1.7-.4.9.1 1 .7.4-.1h1.1l.6.2.3-.7 1-.5.7.2 1-.7.7.2.4-.1.5-.4.1.4.6.3.7-.5h1.5l1-.2.9.3.5.1.7-.6.8-.1.7-.6h.5l.5.1-.1-.5 1.1-.8.7-.1.1-.7-.7-.6.2-.6h-1.2l-.9.3-.5.2-.8-.3-.3-.1.3-.3h.3l.1-.2-.7-.2-.6.2.9-.6.6.1.7-.4-.2-.6h-.7l.5-.5.4-.4.4.4.7-.5.3-.4-.3-.1.2-.3-.8-.1.3-.5.5.1.1.4.6-.7.5-.2.1-1.4.5-1.3-.6-.4-.2-1.2-1.6-1.2-2.2-.1h-1.4l-.1 1-.4.6-.7-.8-.9-.2 1.4-1.4v-.8l-1.1-1.7-.4-.1-.9-.6-.4-.7-.5.1-.3.1-.6-.2h-.3l.6-.2.4.1.7-.1.4.2.4.4.5-.1.5.1-1.3-1.6-.6-.8.4-.6.3-.1-.6-.3-.2-.4h-.3l-.7-1.4-1.1-.6-1.6-.4-.1-.6-.4-.2-.5-1.7-.6-.9-.4-2.2-.5-.7h-.4l-1.3-2-.8-.2-.6-.5-1-.4-.4.4-.8.4-1.1-.4-.5.1-.9-.3-.3-.4.5.3 1.1.1.9-.3.3-.7h.9l.8-.6-.8-.4-.1-.5-.3-.3-1.2.6-.2-.2.9-.7 1.1.1.6-.6.1-.5.4-.3.6-1.2.4-.6-.1-.4.4-.8-.2-.3.4-1.1.9-.6v-.7l-1.1-1-.2.2-1.9.1-1.2-.2-.3.2h-.6l-.7-.3h-.5l-.1.3-.7.2-.7.4h-.3l-.5.4-.2-.2.7-.8.7-1.2-.5.3-.7-.3.4-.3.1-.5 1.8-1.4.5-.9.6-.2.3-.8-.1-.3.4-.6V18h-.9l-.4.4-.6-.2-.9.4-.8-.1-.7.3h-.4l-.5.4.1-.4-.4-.2-.8.7.2-.6-1.1-.5-.2.7-.4.3.1.6h-.2v.7l-.8.2.4.6-.2.7h-.4l.9.8.3.6-.9-.5-.3.3-.7-.5v.3l.2.4-.2.3-.4-.7-.3.7.4.4-.3.6.6.6h.5l-.6.2-.6-.4.1 1v.3l1.2-.2-.8.4-.2.4.2.2.7-.3-.2.2.3.4-.6-.2-.2.1-.2.5.3.2-.4.1-.1.4.5.2.1.4-.8-.3-.2.6.3.2-.1.3-.4.3h-.8l-.4.4.3.2h.7l.5.1-.1.2h-.5l.7.7.2-.1.4.4 1.9-1.9-.3.6.3.2-.6.2-.5 1.1.1.3-.6 1.1.3.1-.5 1.3.1.9-.4.5.3.4.3-.2-.6 1-.1 1.3-.4.4v.3h1l-.1-.7.4-1v-.6l.5-.6-.4-1.7h.4l1.2-1.4-.9 1.4-.1 1 .3.3.1-.6.6-.5.3.9.5-1.1-.1-.8.4-.2-.2 1 1 .8-.9-.2-.3 1.3.2.9.5.1.3.8-.8.8-.8 2 .2.9-.7-.4v1l.9 1.3-.2-1.2.6-.2 1.7 1.2v-.9l-.7-.5.4-.1 1.7.8 1.3-.2V43h.5l.1-.8 2.3.1-1.6.4-1 2.7 1.1 2.1.5-.3v1.1l.8-.9.9.1-.3 1.1.3.2-.9.7.3 1.3-.5 1 .6.7.7.6.6.1-.4.3h-.6l-.5-.8-.5.2.4.7.5.3-.7-.2-.6-.6-1.5.5-.7-.1-1.6.8-.8 1.1-1.1.7-.5.7.7-.1.4.1.1-.4 1.6-.4-.1.8.6.6-.6.4.3.6.4.1-1 2-.8.3-.8.6h-.4l-1 .6h-.7l-1.1.7.9.1.1.7-.6.3 1.1.2-.3.3.4.3.6-.2.8-.5 1.2-.4.1.6 1 .2-.8.2-.1.5h1.3v-.3l.7-.2.7.8.6.7h1.5l.4-.6.7-.3 1-.4.4-.5.8-.4-1.1 1.3-1.1 1.1-.1 1.3h-.8l-.6.2-.7-.4-2-.2-1.5.5v.7l-.6.6h-.8l-.1 1.6-.8.7-.2.4-.9.2-.2.9H12l-.2.5-1.2.8-.2-.2-.4.6v.7l.5.1-.1-.6.9.3.4.6z"/></svg>