<svg data-name="Layer 27" xmlns="http://www.w3.org/2000/svg" viewBox="0 0 12.96 69.3"><title>canada-city</title><path d="M7.91 29.37c-.28-12.72-.17-13.39-.17-13.39H4.85s.11.68-.17 13.39C4.68 48.21 0 69.3 0 69.3h12.59S7.91 48.21 7.91 29.37z" fill="#ffb400"/><path d="M7.17 34.98c-.28-12.72-.28-19-.28-19h-.8l.25 53.33h6.63a108.82 108.82 0 0 1-5.8-34.33z" fill="#fb8f04"/><path d="M7.74 16.6v-5H4.85v4.58z" fill="#ffb400"/><path d="M7.19 11.93l-.31-7.58H5.72l-.29 7.5c-.02 2.48 1.76 2.55 1.76.08z" fill="#ffb400"/><path d="M6.76 7.72L6.67 0h-.74l-.08 7.53c0 2.47.92 2.66.91.19zM10.48 14.66H2.1l1 3.74h6.42l.96-3.74z" fill="#ffb400"/><path fill="#fb8f04" d="M10.48 14.66H2.1l1-1.02h6.42l.96 1.02z"/><path fill="#e28201" d="M8.5 19.37H3.9l-.8-.97h6.42l-1.02.97z"/><path fill="none" stroke="#764300" stroke-miterlimit="10" stroke-width=".5" d="M3.1 15.42h6.42"/><path fill="#e28201" d="M7.34 3.99H5.28l-.56.78h3.16l-.54-.78z"/><path fill="#fb8f04" d="M7.34 3.99H5.28l-.03-.39h2.11l-.02.39z"/><path fill="#764300" d="M7.38 5.11h-2.2l-.46-.34h3.16l-.5.34z"/></svg>