<svg data-name="Layer 20" xmlns="http://www.w3.org/2000/svg" width="549.392" height="509.405" viewBox="0 0 412.06 382.06"><title>canada</title><path d="M298.04 67.15l.62-.55.55-1 1.5-1.57.68-2.36.55-.34.17.78-.44 1.13v.58l.79.15 1-1 .82-.58-.1-1-.92-.2v-.27l1-.41v-1.3l-.31-.51v-.89l1.2-1 .41-1.57.92-.31.44-.75-.07.85.17.48-.65.24-.65 1.54-.82 1.06-.17 1.37.41.82.31 1.09.51-.55.72-1.54 1.81-1.5.58-1.06v-1.2l.58-1 .61-.24.1.58-.27.31v1.13l.75-.31 1-1.33h.89l1.33.17 1.54-.51.86.09.67-.67.89-.33.39-.86v-.6l.15-.69-.62-.65.39-1.18-.05-2.23h-.36l-.58 1.35-1.15 1.27h-.51v-.62l.72-.91 1-.58.1-.72-1.06-1-.19-.7-.46-.07-.5.32-.19.6-.58-.43-.84.05-.79.53-.7-.14.29-.44 2.23-1 1-.17 1.54-1.7.5-.38 1-1.87.46-1.54-.33-.26-.75.2-.5.34-.36-.48.34-.55.56-.29.67.07.41-.63v-1l.89-.94v-1.1l-.26-.33v-.75l-.86-.26-.82.38-1 2-.21 1 .51.62-.65.82-.46.36-.28-.19v-.53l-.32-.41v-.84l.89-1.63-.29-.86.15-.51.39.32.62-.36-.33-1.18-.57-1h-.84l-1 .33-.46.82-.19-.53-.31-.26.14-1.39-.53-1.08.2-2-.07-1.47.51-1.11.14-1.53-.11-1.13.75-1.5.07-1.26-.82-1-.24-1-1.4-1-.27-.82-1.33-.62-.41.34v.56l-.34.17-1.28-1.17-1 .2v1l-.65 1.26.58.61h1l.82-.27 1.13.55.34.75.79.14v.61l-1.43 1.4h-.72l-.92-.75-.85.1-1-.2.48.82.65.1-.75.72-.75.27-1.3-1.37-1.4.72-.44 1.26-.65.58.1.58.79.27.24 1.09 1.06.61v.48l-.72-.07-.17.75.51.51v.65h-.61l-.68-.55-.92-.14-1-.72-.65-.14-.89.48-.1.85.51.85-.41.78-.41-.31v-.62l-.68-.48-1.05-.37-.36.12-.63-.75-.6-.14-.27.5.51 1.2-.19 1 .41 1.22.74.55 1.15.19.39.48-.29.14h-1.09l1.16.7.38.76.81.55h1.26l.51-.61h.48l.1.65-.79.58-.34 1.44-.55.14-1.23-1-2.6-.55-.89-1.3-.68-.27-.31-.51h-.34l-.41 1 .14.44-.44.51.44 1.43-.72.44-.58-.31v1.26l-.55.31v2l.61.55 1.44.1.82.44.85-.27v.41l-.65.38-1-.34h-1.44l-.48-.24-.89.07-1.23 1.64-.14.72.51.65-.14.51-.55.24-.07.75.51.48.61-.38 1.17.12.79-.82.44.48-.14.79h-.85l-.51 1 .38.44h.68l.79-.75h.55l.89-.65v.55l-.48.51.58.27h1.33l.34.55-.85.07v.79l.72.1 1-.24 1.09.79 2.25.55.27.41-1.95-.07-1 .1-1.3-.85-1.16.44-.07.55 1.23.58 1.88.24h1.88l.65.44-2 .38-.62-.31-1.85-.24-1.26-.07-.55-.68-.92-.31-1.3-1.16-.55.41-.65.68-1.44.07-.65.55-.27 1.67 1.06 1v1.06l-.34.44-.55-1.5-.58-.07-.55 2.08.14 1.2.68.2.31-.38.55.07.65 1.06.68.2-.75.17-.51.37-.79-.89-1.23.17-.1 1.56.38.58.61-.34-.41.65.07 2.12.58-.51.72.24v1.4l1.26.41 1.91 1.33.85-.34.38-.89-.21-.82 1.3.1.24.82-.24.82.2 1 .38-.24.82-2.25-.1-1.95.38-1.3 1.06-1.06.44-1v1.23l-1.09 1.81-.24 1.3.27.79-.4 1.74.44.92-.14.58.24.34zm2.3-41.81l.3-.22h.59l.39.26h.75l.08.8-.5.05-.41-.32-.91-.16-.29-.41zm.67 41.39l.15-.84.62-.63.09-.62.6-.29.36.26-.36.62-.1.53-1 .89-.39.09zm9.84-9l1.13-1.49h.62l.92-.57.84.38 1 .87-.32.62h-1.27l-.74.77-1.27.15-.7-.22-.17-.48zm71.38-55.85l.36-.82.57-.07.46.82-.84.33-.55-.26zm-34.33 67l-.36.38.43.55h.92v-.69l-.6-.34a3.43 3.43 0 0 1-.43.07zm-17 10.47l.38.58h.85l-.48-.79-.75.24zm-24.08-.43l-.46-1.25v-.57h.55l.43.53v.84l-.29.34h-.29zm-6.73 14.26l-.19-.48v-.79l-.35-1.24-.24-.27-.31.29-.36 1.12.26 1.54.63 1.08-.26.69-.41.05-.69-.31-1.76-.07-.09-.74-.43-.1-1.37-.91h-.6l-.19-.33-.38-.29h-.5l-.1-.48.49-.76.39-.07.46-.79-.05-.65-.67-1.23-.36-.29v.7l.41.39.07.74-.29.51h-.74l-.27.29.14.17.1.62-.55.6-.42-.1-.6-1v-.57l-.19-.58.48-1.13-.15-.43.07-.6-.44.44-.24.79-.44.77.1.38-.12.75-.94-.07-.53-.45h-.53l-.26-.43.39-.79.12-1.1.28-.38v-.84l1-1.85-.6.38-.67.27-.43 1.85-.05 1.28-.62.71-.32-.26.47-.85.06-.25-.28-.07-.56 1.27h-1.06l-.26-.58v-1.15l-.26-.51.17-.65 1-.67.24-.67-.08-.46.29-.75.69-.67.67-.15.46-.36 1.32-.09.48-.65.85-.31.6-.19v-.55l.41-.4h.82l1.23.53 1.49.07.62-.39.72.21.38.91h.69l.09-.53.56-.07.91.72.39-.22.86.09.39-.43-.38-.32-.68.15-.57-.58-.48-.05.09-.34.6-.43.07-.48-.74-.29.15-.24h.92l.21-.27-1-.38-.22.29-.65.09-.49-.87.17-.53.8-.63V76h-.41l-.34-.69v-1.59l.26-.33-.21-.82.1-.82.73-.08.82-.27h1l.65-.14 1 .34h.79l.92 1.2.44 1.88v2.67l-.38 1.23.41.41.58-.31 1.71.92.61 1.13.58.17v-.63h1.95l1.23 1.13.44-.38-.55-.55.72-.61 1.4-.65 1-1.37 1.78-1.09 1.57-1.67.07-.89.65-.54h-.68l-.58.58-.07.75-1.53 1.61-1 .62v.31l-1.4 1.22-1.59.6-.55-.39h-.53l-.12.27h-1.08l-1.25-.72.09-.57.74-.63.87-.58.1-.86-1 .77-.38.6h-.75l-.56-1.13v-.43l.58-.09.81-.4.1-.32h-.8v-.59l.48-.36.69.27.65-.07.1-.55h-.83l-.53-.34-.36.48-.74-.05-.36-.7.31-.51.79-.19.59-.42 1 .07 1 .38.72-.45h-1.06l-.17-.51.82-.85h.68l.31-.41h-.72v-.48l.58-.89.82-.14-.38-.75 1.16-1.74.79-.48.21-.61-.82.14-1.3 1.61-1 1.95-1.4 1.13-1.13 1.16-.75-.24h-1.4v-.62l.72-1 1-.44v-.99l-1.4 1-1.23-.14v.69l-.79.54-1.46-.09-1.2-1.09.61-.48.85-.1-.31-.48h-.55l.17-1 1.13-.92.14-.72 1-.41.85-.61 1-.14.07-1.13.65-1.23 1.3-1.57.75.27 1.84-.41 1.37.34.72-.41h.75l1-.65.72-.1.14.34 1.16 1.23h.61l2.08 1.4.34.75.55.79h.55l1.26 1.95v-1.37l.92-.07-.17-.62-1.13-.1-.44-.17v-.79l.89-.31h2l.92.48.31-.41.07-1.09.48-.92-.07-.65-.55.24-.14.75-1 .65-.68.65-1.78-.65h-1.4l-.58-.72-.72-.41-1.4.17-1.13-2.12v-1.61l.51-.48 1 .51.21.92.41.65.65-1.09.31-1.26-.68.17-.31-.27-.07-1 .79-1.5v-1.26l.65-1.43-.42-2.51-.45-1.33-.51-.45-.39-1 .17-.7.56-.22.5-.24.51.51.74.19.55 1 .33-.12v-.75l-.46-1.11-1-.29-.58-.5-.05-.86.34-1.1 2.94-3.21 1.33-.31.89.38.34.89 1.09.85h.82l2 1.37v1l1.09 1.26.51 2.29-.14 1.67.2 1.61.68.92.31-.48.38-.07.89.82.17.85.24-.62.65-.38 1 .1-.75-.48-1.16-.17-.65-.85-.68-.44v-.55l.92-1-.1-.62-.1-3.38-.31-.92.31-1.06 1.78-.1.61.41 1.35.36 1.34.1 1.51.55 1.8-.05 1.45-.69.87.14.87.74 1.87.21.89.58 1-.31v-.48l-.84-.56h-1.27l-1.46-.31-.38-.53.14-.31h.72l1.37-.55 3.25-.34 2.19-.17 1.74.62 1.07.99.78-.41 1.16-.24-.58-.58h-.51l-.82-.41v-.51l-.92-.55h-1.16l-.62-.41-2.46.24v-.38l.48-.44.58-1.26 1.06-.13 1-.85.48-1.23 2.49-1.5 1.4-.07 2.25-1.09v-.58l-2.7 1.09-1.78.17-2.53 1.88v1h-.5l-.34-1-.38-.07-.61.92-.85.1-1.24 1.51h.51l.17.44-1.71 1.3-1 .17-3.38 1.37-1 .21-.89-.17-2.77.07-1.23-1.23-1.33.17-.75-.14-.1-.79 1.26-1.16h1.23l.82-.34 1.71-.2.82-.82-.68-.07-1.16.44-1.06-.14-1.26.51-.89-.24v-.79l1.13-.58-.82-.1-1.5.41-.14 1.37-1.39 1.31-1.47.07-2-.65-1.81-.07-.82-.92v-.53l-1.11-.05-1-.82.09-.52.79-.65.65-1.15 1.42-.81.85-1.08 1.32-.74.53-.62 1 .26 1.92.14.58-.31.92.07 1.75 1 1.61.05.84.29 1.52-.21.22-.27-.7-.45-1.81.12-2-.38-1.2-.72h-1.25l-1.81.19-2-.43h-.53l-.5.6-1 1.06-1.63 1-1.76.82-1.09 1.46-.36.17-.79-.34-1.27-1.68-.58-.15-.55-.5-.38-1.2v-1.35l-.46-.53-.12-1.25.38-.39.92.22 1-.22.58.43 2.79-.05 1.42 1h.84l.5.33.87.07 1.13-.58 1.16.38.27-.29.92-.24.55-.38 1.92-.43 1.76-.31.24-.53-.07-.58-.57.19-.51.15-.65.39-1.16.27-1.92-.14-1.46.89-.67.12-1.28-.2-.48.24h-.81l-1.09-1h-.67l-.41-.27h-1.11l-1.51-.82-1.08.48-1-.51-.27-.67.45-.46V21.5l.68-.48h.51l.65.77 1.42-.09.58-.26-.82-.63h-.79l-.67-.82.28-.43h1.32l1.22-1h1.61l.68-.58h.91l.6.33.79-.17v-.57l-.5-.41-2 .31-1.63.14-1.27.5-.89.14-.58.62h-.79v-.69l-.24-.93 1.13-.46 1.37-1.06 1.47-.1.74-.39-1-.05-.43-.45.15-1.3-.43.19-.21.92-.5.31-.27-.91-.53.09-.44.48-1 .1v.79l-.36.58-1.22.34-.1-.87.1-1-.38-.1-.22-.84.28-.29.68.34.14-1.1.77-.36 1.1.05.44-.89 1.15-.55.74-.05 1.4-.75 2-.14.46-.38.74.27.1.67-.34.5-.07 2.23.67-.22.46-1.4.62-.55.31.45-.31.39.12.69.55-.38v-.75l.29-.45-.14-.67.19-1.11.58-.12 1.22-1.06.46.1.12.82v1.15l.84.46.19 1.2-.24.7.33.72-.12.72.65.5.38-.31-.39-.67-.05-1.1.57-.27 1-1.53h.51l.82 1.27.05 1.18-.26 1 .48.5.22.65.45-.57-.05-1.27.56-.1.55-.41.22.6-.31.34.1.86.43.5.68-.91h.44l-.14 1 .5-.55v-1.1l-.8-1.34h-.45l-.46-.7v-1l-.58-.69-.43-.84-.48-.48.22-1.06.92.07.67.6 1-.31.8.28.38-.46.08-1.71-.7-.7.31-.84 1.16-.31.34.26 1.69.24.74.51-.08.7-.67.63.21.51 1.74.63.05.57-.27 1.3.17 2 .77-.27.53-1.11h.38l.05.84.38.53.75-.43.41-.72 1-.45.24-.51-.58-1.77.55-.69h.69l.41.33 1.59.17-.07-.7-1.49-1.06-.27-1.22.31-.46.26-.94.6-.07 1.78 1 .21 1.4.24 1-.1 1.15.44.69.26 1.25.43.81.41-.38v-1.1l-.15-.74-.12-1.22-.5-1.37.19-1.61-.12-1.7.33-1 .62.05.91.84h.6l.16.3.05 1.32.53 1-.15 1.13.17 1.51.45.19-.05-.79.34-.65.36-.05 1.66 1.9.17-.33.74-.21.05-.43-.67-.17-.8-1 .28-.34.1-.56-1.08-.91-.31-.69.27-.4 1.08-.09-.48-.45-.73-.12-.57-.74.55-.29h.82l1-.86 2 .33.38.5v1l-.53.86.24.44.62-.05.67-1.18.45-.34.34.51-.43 1.37.5.31.58-.12.19-.45 1.18-1.11.36.44-.15 1.12-.43.77.34 1.58-.53.69.43.41 1-.21.62.17.41-.38.05-1.37.55-1.63-.74-2.07.21-1.27.63-.34.65.46h.67l.89.31 1.16-.48 1.1.29.38.75 1.22.41 1.13-.38 1.15.81.24.75.36.48.14 1.17-.5 1.08.22.53.75-.19 1-1.17 1.44-1 .63-.78h.92l1.09.65h1.2l-.14.62-1 1 .54.89.45-.27.24-.85 1-.79.92-.34 1.47.65 1.78.34.58.65-.48.51-.48.07.27.72-.68.58.48.61.58-.48.89-.41.17 1 .58.24.55-.79 1.44-.21.07.72-.51.58.21.72.65.17.38-.44.82-.55h.41l.34.75 1.63 1h.92l.27.45-.46.55-1.78.76-.91 1.16-1.09.15-1.32.7h-.72l-.74-.34-.43.55-1.37.4 2-.09 1.85.26.7.4h.7l.53-.84.44-.34h1l.51-.91 1.32-.69 1.08-.07.22.7-.48 1 .38.5.45-.24.48-1 1-.69.38.39-.46.82v.5l-.46.63.38.46.7-.26.5-.46.14-.82 1.06-.24.79.24-.53 2-.63.36.36.28.32 1-.17 1.27-.79.53-.24.7-1.09 1.5.38.34.63-.26.58-.93.85-.05.21-.22h.65l1.16.74.46 1.08.14 1.46-.36 2.21-1.13 2.11-1.78 1-.43.45-.92-.22-.86.31v.5l-.58.51-2.86 1.39-1.06.79-.92.21-1.3.51h-1.37l-.67-.65-.45.94-.5.27-1.08-.79-1.06-.5-1.47-.27v.67l1.13.22.62.33-.74.41-1.23-.29-.65.1-.62-.48-1.73-.1-.53-.55-.55.31h-.51l-1.42-1.71-1-1 .21 1.06 1 1 .23.6-.84.07-1.34-.51.51.79 3.08.46 1.85.4.53.55-.6.57-4.19 1.65-2.62.43h-1.08l-1.45.34-1.22-.19-.19-.6-.91.38-.7-.21-.94.17-.48.87.94-.09.17.89 1.34-.75h2.63l1.22.21 3.53-.27 2.4-.39 1.51-1.51h1l.75.27 1.09-.21h1.52l-.51 1.31-.7 1.35-1.63.82-.5.4-1.83.34-.72 1-.7.1-1.08 1-1.45.67-1 .09-.67.27-1-.17-.92.84-1.74.36-.56 1-1.91.34-.81.46-.69-.2-.81.74-.79-.07-.34.38v1l-.94.74-.56.8h-2.22l-.63.48-.72-.24-.17-.55.43-.62v-.81l-.63-.53.17 1.3-.46.5-.31.7 1.08.7.22.7-.94 1-.43.07-1-.69-.6.38-1.64-.57-.53.38-.62.07-.1-.82-.39-.31-.36.84-.82.05-.19.53 1.83.38 2.48.05.56.75-.19.81-1 .58-1.22-.2-1.27.29-.34.36.45.36.44-.26.65.39-.12.75-1.52 1.47-1.3-.09-2.36-.05-.32-.48-1-.12-.31-.48-.01-1.46-1.32-.24-.41-.45.07-.86-.58-.45-.55.27-.65-.24-1.52.19-.08.46.62.34.31-.27.77.09 2.05 2-.05 2.64-.34.45-1-.12-.86-.81-.55.09-.05.75-.36.27-.89-.92-.77.07-.64.75-.44-.09-.43-.57-1-.27-.62-1-.5.34-.24-1-.51-.31-1.39-.14-.55-.77-.34.33.12.65.87.58 1.16.29 1.06 1.77-.39.5-2.55-.57-.72-.6-.07-1-.62-.63-.28.48.19.44-.29.64-.85-.24-.5-.55-.84.24.1.6 1.27.5-.05.84h.53l.41-.34h.7l.72.69 1 .36.84.81h.53l.77-.24 2.64.58.51.55-.87.63.29.5-.1.86.21.91-.63.6-.39-.1-.62-.6-1.28-.34-1.23-1-.31-.62.15-1.18-.51-.82-1.4-.05-2.11-.33-.79-.56-.89.12-.15.43 1.22.48 1.87.15 2 .74v1l-.36.12-1-.72h-1.73l-1.42.38v-.51l-.51-.55-1.59-.24-.75-.44.17.51 1.73.79-.22.43v.67h.77l.22-.14.34.24.75-.29.22-.24.49.24.84-.09.68.26 1.37 1.27v.46l-1.16.05-1 .44-.15.5.89-.26h.86l.79-.17.87.84.84.51v.84l-1.11 1.75-.38 1.46-.43.1-1.32 1-.62-.34h-.8l-.7-.38-.14-.48-.7-.41h-1.11l.14.45 1 .43.09.52.67.17 1.18.75.17 1.18-.38.55-.77.15-1 .91-.6.14-1.45-1.25-.84.27-.46-.51-.92-.06-.6.34.2.63 2.81 1.51 1.08.1v.58l-.79.36-.77.89-.82.19-.74-.82h-.72l-.87.67-1.45-.07-.6-.69-1.92-.44-1.2.31-.21 1.75-.91.86h.86l.29.26v.94l-1.35.72-.05 1-1.1.58-.39-.38-.26.29-.15.65-.94.39-.65-.19.43-.53h-.46l-.55.51-.65 1.3-.5.33-2.19-1.18h-1.28l-.17.36-1.16-.24-2-2.42-.43-2.06.53-.39.15-.77-.29-.56.08-.62-.87 1v.65l-.39 1.35-.43.74.77 1-.15.5-.48-.12-1.3.17-.2-.14-.89.14.82.72-.48 1.46h.67l1.07-1.23h.51l.41-.4.63-.24 1.08.77.68 1.06-.41 1 1.08-.79 1.73-.45 1.16.55.19.92-.48.57-.58 1.54-.53.14-.28.63.31.3.86-.07-.14.65-.77.86.89-.05.43-.63 1.15-.67h.63l.43-.22.5.26-.22.94.27.62-.34 1.58-1 1.87h-.91l-.94.6-.56 1-.89.67-.33-.29.33-1.08.14-1.13-.22-.21-.67.43-.67 1.27-.79.21-1.3 1.22-.39-.27h-.91l-1.47 1.17-.43-.24-.85.38-.91-.05-.31-.67-.41-.29.82-.63.62-.87v-.75l-1-1.42-.63.62-1.3-.5-.17-.57.48-1.13.7-.19-.57-.29-.67-.17-.55-1.3.29-.75v-.86l-.41-.75v1l-.67 1.51.79 1.41.1.65-.5.51v1l-.62.38-.73-.33-.81.24-.67-.67-.12-.6.65-1.7-.33-.86.19-.86.89-.94-1 .19-.67.75-.21 1.13.4.89-.79 1.44-.81.26-.85-.52.05-.81-.32-.36.07-.63.39-.75.19-.53-.26-1-.34-.09-.19.43-.15 1-.55.51v.69l-.27.38-.75.05-.17.29-.62.08zm25.6 140.71l-.23 1.45-.26 1 .43.75.29-.36-.14-.64.31-1.08-.14-.94-.33-.29zm-.84-5.09l-.31-.43.38-.38.26.26v.62l-.31-.07zm-1.47-3l.65-1 .72-.34.12.53-.68.53-.34.41-.46-.14zm-7.5-70.78l-.07-.68.36-.38v.91l-.33.15zm1.3.82l-.21-.53v-.65l.5-.31.36.62-.24.75-.41.12zm-1.59 2.43l-.34-.74.2-.43-.07-.93.44-.36.33.65.31-.08.5.32-.7.53-.36.86-.31.17zm14.34 21.08l.48-.53.74.26-.5.51h-.55l-.17-.24zm-1.75-.29v-.6l1-.15.34-.27.28.43-.74.87-.63.05-.22-.33zm-2.79 9.79l.58.41.48-.19-.41-.29-.65.07zm3.88 4.27l.89.57.34-.26-.17-.58h-.51a4 4 0 0 0-.55.29zm7.34 7.28l-.24-1.11.6-.62.56.51.05 1-.5.22h-.48zm3.68 4.47l.09-.89.68-.39.33-.26.44.27-.51.87-.65.21a1.29 1.29 0 0 1-.38.19zm-26.2-101.22l-.08-1.11.48-.29.58-.84 2.12-1.37.84-.17-.55 1-1.35 1.06-.29.72.36.56-.12.5-.48-.12-.36-.6-.43.29-.35.39-.41-.05zm-4.67-4.47a4.85 4.85 0 0 0 .39.46l.48.09.32-.62-.27-.36-.92.43zm-25.6-11.4l-1.1-.38-.1-.93.14-1.75-.32-.46v-1l-.15-.24.94-.39 1.38.62.15 1.08-.63 1.87-.22.53.27.34.17.74h-.49zm-.24-52.39l1-1 .62-1.3.09-.7 1.18-.89.58-1.25-.26-.63-1.13-.07-.7-.26.41-1-.36.05-1.15 1-1.4.44-.17.74-.56.53v.72l1.15.36.84-.31v.85l-.84.81v.74l.43.41.29.77zm-12.24 28.37v-1l.55-.72-.48-.51-.07-1.09-.88-.57.31-.61.31-.68 1.09.14 1 .79h.38l.1-.79-1-1.43-.92-.55-.17-.51h.92l-.55-.92.58-.89.07-1.5.48-1.25.65.07.65-.44.1-1.37.62-.65 1.16-1h.92l1.16 1.47.41 1.06-.1.72.27.61.55.21.07 1 .55.27.07.51.44 1.06.92.1v.44l.41.82.41 1.81-1 .72-.55.55h-.85l-.55.27.41.41h.51l.24 1.47-.17.89-1.64 1.09-.48.48-.58-.1-.07-.75-.44-.34-1.09.79-.75-.34-1.33.41-.68-.07-.14-1.06-.75-.07-.17.65-1 .34zm10.84-1.44l.43-.07.24-.72-.21-1.59h-.51l-.24.51v1.1l.26.75zm3.55 14.35v.79l.65.69h1l1-.43 1-1.61.1-.56-.39-.36.14-.41-.46-.7-.74-.05-.48-1h-.68l-1 .72-.12 1-.29.92.31 1zm-1.25.39l-.15.55.19.81.53.33.29-.34-.09-.53-.39-.26-.14-.65-.24.1zm-14-7.37l-.14-1.4.51-1.47.72-.79h1l.68-.14.72.24.68-.14.51.14.1.51.82.1.34-.27.72.41.72.1 1 1.16.68.38-.38.38.3.47h.65l.68-.38.58.79.58.48-.1.58.21.44-.41.38-1-.27-1.2 1.09-.82.21-1.16-.75h-1.4l-1.3-.92h-1.06l-.92-.48-.61-.82-1 .1-.58-.1zm-11.51-15.75l.17-.39.52-.33.26.27-.26.69h-.47l-.22-.26zm.71 5.47l.48 1.4.51.85h.51l.85-.1.48.41h.62l1.43-1v-.51l.72-.48.79-1 .07-1.16.38-1.47.68-1.2-.48-.37v-.51l.55-.51.61-1.23.65-.1.72-.75 1.09-.75.2-1.3-.07-.72.82-.65v-.61l-.31-.82-.14-1.16h-.55l-.85-.38h-1l-.31-.51.41-.72 1.37-.78v-.51l-.51-.65v-1.16l.24-.79-.85-.92h-.65l-1.13.75-1.37.24-.17.75-.72.75-.68-.07-.17-.85 1-.55.56-.6v-1.26l.38-1.64-.31-1-.58-.58-.27-.79-1.2-.68-.82.34-1.13-.34-1.2 1-.65-.2-.14-1.4-.2-.38-.79.68-.24.75-1 .55-.34 1-1 1.23v.78l.75.51.44-.38 1.09-.24.27.41-1.06 1-1.26.55-.85 1.4.17.38 1.3-.62 1.3-1.13h.44l.68-.38.55.75-.34 1h-.55l-1.13.92-.31.82.38.58 1.26-.27.75.44-1 .72-1.33.48-.75-.24-.07.58 1 .31v.62l-1.43 1.33h-.41l-.4-1.13-.82-.41-.74-1.06-1.84.89v.55l-1 1.61.78 1.2v.89l.72.34.68-.68h.79l1.47.51h1.47l.27.34 1.47-.38-.07.72-.82.21-.31.51.14 1 1.37-.17 1 .82.61 1.5h.61l.41.41-.34.62v1.06l-1.61 2.94zm-5-7l.17-.89 1.2-.61h.82l-.54.38-.17.61-1 .62-.48-.14zm-2 5.23l.41-.92 1.64-.17 1.27.37 1.4 1.67-.1.89.14 1.54-.65.14-1-.58-.85.34h-.48l-.68-1.16-1.09-.85.14-1.26zm-12 8l.68-.55h1.37l-.34.72-1.09.27-.62-.44zm-.62-1.23l-.61-1.26.41-.85.27-1.26v-1l1-.79v-.61l.27-.31v-.62l.68-1.33v-.92l.48-.44.68.55.17 1.26.27.58-.75 1.81.14.79-.62 1 .48.62-.47 2.34-1.13.62-1.13-.17zm-10.6-21.74l-.68-.85-.24-1 .48-.58-.65-.55-.86.14-.58-.24-.61.27-1-.1-.89.27v-.82l.82-.89.21-.65 1-.07h1l2.73-.79.85.17.85.58.55-.1h1.09l1.16-.85 1.54-.07.48.14.48-.44.68.27-.07.65.55 1.06v.75l-.89 1.16.58 1.3-.72 1.91-1.06.55-.85.89-.79-.17h-.85l-.41-.61-1 .27-1.2-1.33.07-1.13-.72-1.06-.41.44v.75l-.64.73zm-13.19 7.38l.79-.92.07-.68 1-1 .07-1 1.06-.41.79-.62h.72l2.25-.48.51.38h.86l.68.34h1l.55-.21 1.44.31.1.34 1.37-.07 1.06.27.31.38 1.16.17.24.44-.84 1.52-.75-.2-2.29.75-.85.07-1.13 1.06v.55l1 .07.34-.17.17.72-1.16 1.4-.33.61-.82.2v.51l-.58.78h-1l-1 .48h-1l-.92-.72-.55.27-1-.17-1 .07-.27-.37.55-.62-.68-1.16-.92-.65-.61-.1-.2-1.13-.24-1zm-1.18-3.38l.65.34 1.23-.38.75-1V44.5l.17-.65-.07-.72.31-1.23-.79.27h-.55l-.75-.41-.61.55-.58.07-.34.85v1.09l-.2 1 .72 1.37zm80 69.93l1 .31.91-.43.19 1h.87l.17.39h.89l1.64-1.1.82-.09 1.46.69.84-.1.53.29.53-.48v-.48l.62-1.2h.58v-.55l-.48-1v-1.06l.54.58v.58l.79 1.13.41-.65.58.1.61-.14.45.24.17-.51-.27-1 .1-.62-.58-.44-1 .34-1.09.07-.24-.78.44-.27.58.24 1-.34.55-.82.51.48.58-.1.51-.89-.14-.55.48-.92-.21-.58.55-.14.14-.44-1.13-.31-.89.2.34-.75.55-.21.07-.89-.82-.55h-1.84l-.38-.58.1-.55.48-.21-.31-.85-1.5-1.23h-.75l-.72.44h-1.23l-1.44.41-1.61-1.13-.24-.72-.51-.27-.85.55-.65-.07-.51.24h-1.06l-.38.89-.48-.58-.9-.52-.89.34-1.09.17v.58l-.38.34v-.62l-.41-.41-.89.27-2.05-.31-.27.27.65.65v.72l.75.65-1-.21-.37-.61-.65-.17-1.23.31-.55-.31 1-.38v-.72l-1-1.13.1-.58-.31-.51-1.13.65.2.65-.24.55-.79-.27.34-.58-.1-.58-.89-.24-.55.41h-.65l.27-.85-.1-.44v-1l-1 .27-1 1.09.1 1.13h-.61l-.38-.85.38-.75v-.53l.55-1.4-.65-.68-1.09.44v-.56l.72-.31.48-1.06-.1-.72-.65.27-.82-.24-.34.27H277l.51-.41-.14-.44h-.75l-.58.58-1.13.21v-.48l.58-.31.44-.75.2-.72h.62l.79.82h1.3l-.14-.55-.82-.92-.85-.1.48-.31-1.05-1.08-.92-.51.51-.14.1-.61h.48l.44.92.92 1 1.13.31.79.79.48-.55.55.65 1.47.34h1l.34-.79-.29-1.1-2-1.44-.82-.89-.58.1-.21-.82-.85-.85h-.44l-.41-.48.31-.55.68.24.65.79h.67l.21.82.55.07.34-.65-.38-1.54-1.06-1.37h-.79l-.24-.21h-1l-1.06.65h-.85l-.82-.61-.65.14-.58-.75-1 1.43-1.3.68-.24.72-.68.41v-.65l.65-.85.51-.21 1.95-1.84.17-.58-.44-.92v-2.09l.27-.27-.68-.82-.41.48-1-.07-.48-.48v-.85l-.14-.58-1.54-.51-.79-.85h-.92l-1-.51-.41.44-1.71.2-.21.34h-.48l-.38.86.62.85.41.89h-.65l-1.06-1.5-.21 1 .31.89 1 .41.89 1.61h.85l-.55.51h-.79l-.17.92 1.16 1.54.92.38v.65l-.34-.38-1.47-.1v.48l-.51.38-.27.72 1.26-.51.61.51 1.5-.55.13.62 1 .2.14.61 1.26 1h.48l.07-.61.38.38.89-.51.65.14.2.61-.38.85v1.67l-.37 1.16v.82l.61.92-.31 1.13V94l-.38 1.09-1.3.92-1.16.27-.17.79-1 1.23v.62l-.82.55-.51.79.07 1 .65.2v.62l-.85.38-.17.68.44.44-.68.89-.24.85.41 1 .58.17v.61l.75.68.51-.1.1-.85.31-.48.44.34h.41l.85-1.13.31.38-.48 1.23-.82.21-.14.44.34.44.1.51.89 1.09.89-.27.24.38 1.16.14.55-.51 1.09-.41-.04-1.15h.55l.41-.41.17.55-.2.31.07.75.48-.2.55-1.37.55-.24.27.44-.24 1-1.23 1.61-.55.58v.72l1 .34.79.65.82-.07.27.31 1 .1.27-.68 1 .1-.31.44.1.48.68.21.65.48.58-.38-.21-.55v-.75l.53-.79.24.68-.24.82.21 1h.65l.24-.92.31-.51.68-.1v.55l-.44.38v.75h1.23l.72-.51.65-1.43.14.75-.39.54v.68l1.09-.21.38-1.3.38-.55-.24 1.95.17.65h.89l1.3.75.82-.31.61-.21.2.55 1.09-.31.65-.38v-1l.89-.82.34-.61-.44-.92.41-.79.38.14.07 1.13.55.1.07.48-.68.61-.48 1.26.17 2zM262.6 73.67l.65-.17v-.43l-.6-.19-.46.41.41.38zm-1.75 5.76l.58-.67.29-.65.05.74-.5.48-.43.1zm-22.74 8.24l-.21.43.34.41.21-.48-.34-.36zm14.8-14.33v.41l.53.79.19.5.46-.21-.19-.84-.58-.62h-.39zm-7.12.33v.53l.41.43.63-.43 1-.21.67.19 1.39-.82h.74l.84-.36-.31-.31-1.39-.17-1 .22a4.32 4.32 0 0 1-.82.5 5.33 5.33 0 0 1-.68-.15l-.89.27-.51.33zm-7.33 2.49l-.5-.57-1.34-.14-.92-.27-.24-1.27.74-.69.14-.67-.22-.52.14-.93.56-.43h1.23l.41.3.36.24.21.45-.58.31-.22.51.38.12h.87v.43l-.34.53.34.67v.94l-.32.74-.6.27zm-1.3 3.45l1.88.19.65-.58.67-1.34-.65-.84-.81.1-1.16-.5-1.18.09-.84-.2-.7-.07-.5.43-.58.29-.14.7.15.4.36.07.29.55.74.15.73.45 1.08.12zm-3.39 1.32l2.17.62.84-.4h.82l.36.27.63-.31.87-.12v-.62l-.67-.17-2.12.22-.89.24-.32-.39-1.16-.09-.74.29.19.45zm-.31 2.41l.65-.24h.72l1.06-.68 2-.41.46.12.57-.24h.56l.19.53-.72.5-.72.12-1.08.1-.26.46-1 .69-.94-.53h-.82l-.39.27-.33-.22.12-.41zm-22.3-28.51l-.39-.26.31-.6 1.09-.1-.44.7-.56.26zm-6.36 2.84l.74-.17.56-.34 1.33.6.69-.14.63.27.14.63.36.48-.55.7-.86.44-.75-.36-.67-.05-.34-.91-.63-.7-.56-.21a1.09 1.09 0 0 1-.09-.26zm-33.34 1.81l-.85-.38-.22-.38.32-.31 1 .31.15.53-.36.22zm3.54 4.64l1-.77v.43l-1 .7v-.36zm1.72-1.42l.4-.37.07-.93.24-.14.41-1.25.51-.09 1.08-.5.5.22-.05.72-.86.53-.56 1.16.38.72-.6.53-.32.79.41.58.46-.51.6.09.07.68.32.05 1.54-.93.6-.81.58.09.6-.86-.07-1h.55l.62-.77.07-1.13.41-.33.34.27-.24.82.17.6-.27 1.11.38.91h.4l.87-1 .05-1 .24-.46.68-.21 1-1.32.21-1-.15-.93.39-.81.56.94 1.61-1 .51-1.23.09-.89.91-.14.5-.36.62.5.79-.77.43.33-.43 1.66-1.18 1.27-.22 1-.6.6-.12.46-.72.43-1.25 1.78v.58l.41.77-.17.81.75.22.87.38.5-.56.92-.46.22-.77-.1-.93.72-.58.46-.81h.73l.43-.29.46.5h.89l.56-.55h1.46l.56-.8.44-1.61.85-1.4v-.92l.14-.38.82 1.09.72.17.34-.41-.07-.61-.89-1.4v-.61l1-.89.92-.07 1-.51.58.31.61-.1.79-1-.17-.75-.17-1.88.31-.48-.2-.44-.21-1.16-.48-.24-.72.34-1.09.51.02 1.13-.1.65.17.58-.82.17-.27-.89h-.27l-.13.58-.31.38-.48-.65-.17-1.37-.89-1h-.48l-.34.41h-1.06l-1-.41-.61.14-2-.21-1.06.51-.27.92-.48.58-.43-.12h-.55l-2.26 1.74-.68.58-.79.07-1.2.85-.82.17-.75.62-.14.62h-1.57l-.44.34-.92-.17-.48.41h-.65l-1.57 1.23-1 .61-1.09-.38-.89.45-2.19.37-1.01 1.44h-.75l-1.26.31-.51 1h.89l.38.41-.75.1-.24.44.58.55-.24.61-1.33.48v.44l1 .31 1-.17.38-.79.68-.24.85.48.68 1.16.07 1 .85.41zm90.35 53.15l.26-.35 1.22.33.15.42-.59.37-.45-.13-.59-.64zm-10.46-20.74l-.77-.6-.72-.05-.34.51h.84l.33.38-.12.38-1.22.15-.41.26.43.91.21.1v.34l-1-.34-1.08.27-.72.67-.4.91-.27.31.17.24.41.08-.2.47-.07.59.21.05.62-.69.21.13-.34 1 .12.42.67.43.39-.21.29.21.1.84.31-.05.34-.51.59.13-.07 1.23.15.46.89-.19.22.93h.87l1.15.7h.86l.27.29.27-.29-.24-.65.79-.26.48-1.25-.22-1 .68-1.29.34-.36.48-1.59V98l.35-.33-.29-.93-.72-.67v-1l-.39-.48-.22-.77-1.25-.56-.92.38-.82-.24-1.15.12-.29.45.55.69v.5l-.38-.05zm6.14-7.46l-.6-.36.17-.41.72-.07a8.26 8.26 0 0 1-.29.84zm-1.15 4.83l-.17-.75-.34-.26v-.45l.38-.33-.01-1.02.26-.43H263l-.58 2-.5.87s-.32.34-.31.34zm-6.55-2.09l-.32-.41.4-.48.93-.16.14.22-.47.3-.22.43-.46.1zm-1.69 1.19l-.19-.37.57-.39h.39l-.42.58-.36.21zm1.28 2.09l.15-.61-.27-.34.15-.78.35-.08.45.43.35.66-.76.65-.42.06zm-1.84.87l-.57-.34-.17-1.23.4-.3.39-.34.58-.11.51.33.27.28-.23.42v.59l-.56.14-.26.41-.33.13zm-2.51.48l-.08-.72.37-.2.19.3-.19.47-.29.15zm-9.72 1.21l-.48-.48-.86.07-.55-.51v-.92l.27-.38-.1-.48.41-.92.34.1.44.61.41-.07-.51-.68.24-.55-.68-.17-.51-.48v-.48l-.14-.34h.34l.48.48.27-.34-.14-.44.55-.34.72.27 1.47.34.45-.27-.51-.44h-.75l.48-.1 1.44-.21.92-.51h1.16l1 .14.68-.48-.51-.41-3.83-.68h-1l-.72-.34-1.26.17-1-.51-.58.14-.61-.27h-.85l-.41.31-.48-.21-.55.07-.38-.38v-1.06l.72.14.55-.51.55.34.55-.2-.38-.51.27-.62.51-.41h.92l.44-.21.1.82.48.27v1.3l.34.21.41-.51-.14-.92-.48-.65.31-.79 1-.34.07-.51-.79-.31.27-1.23.92-.34.2-.58 1-.31-.51-.65h-.48l-.48-.17.14-.55.87-.72.22-.4 1-.41.41.33.14.82.44.44.09.76-.24.34.24.69.57.58.27 2.59-.22.84.09.48.82.52.94-.7-.44-.63.26-1.39.79-.17v-.75l-1.47-1 .19-.43.74.09.84.5-.17-.7-.85-.94-.26-1.18.21-.51.1-1.25.55-.38.79-.1.34-.48.82.05a10.22 10.22 0 0 1 1-.58c.09 0 .63.09.63.09l.24.67.72.38.63-.22.44.5-.27 1.9-.6.72.09.67h.5l.36-.5.44.1.48-.46.05-1.41.67-.58.72.55.7-.21-.07-.84-.21-.34h.67l.31.69-.15.62.19.39-.21.43h-.5l.44.82.87.31.38.84-.24.91-.89.6-.81 1.44.12 1-.26.63-.78.42-1 1.17-.29.55-.91 1v.5l-.29.77h-.65l-.51-.12-.46.36v.41l1.11.6-.09.46-1.13 1.61-.34.51-.07-.61v-.51l-.57-.23-.48.25-.07.62-.56.33-.46.63-.92.16-.33.83.52.24.81-.12-.14.52-.4.55v1.26l-.31.38-.53-.91-.08-.91-.22-.51-.32.46-.14.76.22.6-.67.89-2.48-.14-.12-.77-.31-.43-.65.7-.7-.09-.12-.56.7-.86-1.16.5-.34.65-.37.09zM178.91 70.3l-.41-.31.51-1.06 1.88-1.57 1.3-.41.79-.65.58-.07 1.26-.89 1.4-.24.72-.38.48.07 1.61-.41.41.1-.27.68-1.4 1.06-1.47 1-2.8 2.12-.92 1.16-.75.24h-.55l-.44.61h-.41l-.38-1-.61-.17-.51.14zm45.73 19.37l-.27-.41.24-.29 1-.33.36-.7v-.44l1.4-.77.26-.34h.87v.89l.17.53v1.22l-.24.86-.84.74-.84-.05-.44.29h-.75l-.27-.69-.65-.46zm-36.6-1.33l.27-1-.14-.75.14-1.51 1.44-.27 1.44.41.68-.48 1.09.27.89-.14 1.23-.69h1.5l1.44.55h1.16l.62.27.75-.68 2.33-.07.21-.62.55-.48-.34-.48-.62.68h-1.3l-.07-.55-1.37.62h-1.16v-.75l-.62-.48-.69.55-1 .14-.75.21-.48-.34-.89.2-1.16-.34v-.82l1-.75 1.09-.82-.62-.07-1 .21-.62.75-.48-1-.34.41-.13.89-1.57.82-.27.62-.82.21-1.09-.75.07-.75.48-.68-.82.07-.41-.34-.2 1.2-.62.48-.89-.41.07-1.1-1-.75.27-.75-.55-.2-.14 1-.55-.07-1-1.37-1.64-1v-.41l1.09-.07v-.89l-.41-.62 1.85-1.23 1-.27.48.27 1.71-.07 1.16.75 1.16.14.68-.55 1.16-.07 1.09-.75-.69-.48-.48-.41h-1l-1 .27-1.57-.61h-1l-.27-.34 1.37-1.3 1.1-1.3 1-.13.62.1 1.78-.34 2.05.21 1.16.34.48-.21-.27-.55h-.5l-1-.48h-1l-1.92-.55-.62-.82 1.09-.82.55-.82.62-.48h.62l1.1-.55h.86l.34.48h.82l1 .89.61.27-.41-.89-1-.75-.14-.75-.41-.41.55-.55 2.53-.55.82.2 1.51-.07 1 .82.41 1.44-.75.41-.75 1.16.27.82 1.82-.11.58-.38.58.38h.62l.31.62.14.55.55.55-.07.65-.58.31-.34.65.82 1.06.14 1.95-.34.65-1-.31-.85.34.22.64.85-.17 1.06.44h.65l-.65 1.95-.72.61-.07 1.71.51.27 1.06-.27.55-.65.41.41.21.68 1.06.14.55-.14 1.71.44.68 1.06.61-.2-.14-.61-.31-.27 1.44-.72-.38-1.57-.85-1 .07-.68-.54-.79.44-.48h.58l1.37-.55 1 .1.48-1.33-.63-1.38-.44-.48.07-1.06-.44-1.13.85-1.2.75-.48.48.17h1l-.24-.55.41-.82 1.09-.38 2.12-2 .61.07 1.33.65-.2.55.38.75-.27.58h-.85l-.55.55v.75l-.27.92v1.16l.27.34v2.29l-.44.41h-.48l-1.33 1.2-.75.55v.34h.48l.82-.24 1.37.07.24.48-.68 1.06-1.5.85-1.3 1.16-.31.85.38.48.44-.89 1.64-.75.61-.62.58-.24 1.26.62-.14 1.2-.72 1.37.2.51.89-1 .75.1.17-.55-.21-.24.55-.89.14-1 1.47-1.06h.58l1.16.75.55 1.5.41.72-.27 1.33-1.2 2.22-1.09 1-.89.41-.65.07-.24.41.14.72-1 1.37h-.75l-.89.65v.79l-.34.48h-.54l-.43.26v.51l-.44.24-.67-.57-.82.36-.67-.14-1.54.77-1.39.21-1.13-.48-.26-.63.57-.77-.09-.57-.34.14-1 .46-.21.58-.73.27-1.2-.36v-.57l.39-.5-.26-.69-.62-.22-.07.57-.56.36h-.69l-1.51.67-.44.38h-1l-.34-.33-1.22.14-.58-.41-.38.55h-.7l-.67.31-.14.75-.48.39h-1.11l-.22.5-1 .31-.31-.15-1 .43h-.95l-.33-.51h-1.28l-1.25.39h-1.4l-1.39-.7-1.23-.24-.6-.87-.93-1zm-56.45 29.63v-1.78l.87-1.52-.41-1.16.34-1.3.14-1.09-.62-.55-.75-2.53 1.09.34v-.82h-1.64l-1.58-.55-.07-.82.75.27 1-.75 1.23-.62.14-.75h.55l.75-.89.82-.14.48-1.37 1.78-.41.13-.41.62-.27.75-1.18.14-1.57.27.55 2.6.34.07-1.3-.58-1.38.07-.68 1-.34 2.12-1.57.89-1.3 1.92-.69.41-.89 1.23-1.23h1.09l.62-.75-.68-.89.27-1.92v-1.3l.48-.89-.41-.48.34-.75 1.44-.41.75.2 2.87-.2.68.34h3.15l2.19-.89 2.6.75-.27 1 .62.48.62 1.1 2.46 1.3.14.69-.6.68.75-.14.82-.41 1 .55-.34 1.23-1.3 1.37.07.48 1.85-1.16V88.5l.68-.62 1.3.14 1.17-.35.55.21.25.79 1.78 1.85.21 2.33-.41.89.68 1.57-.06 1.41-.34.48.48.62v1l.21.89-.82 1.1-1.78.41-.75.45-2 .25-1.43-.14-2.6 1.16-1.67.14-2 1h-.82l-1 .69-1.64.07-.65.45-.48-.51-.58.27-1.61.34-.44 1.23-.85.92h-.55l-.34 1.33-1.23.27-1.06 1-1.3-.1-.82-1.23-.51 1.2-.14 1-1.09.41-1.2 1.23-.24.72-1.09 1.2.17.65-1.37 1.3-.85 1-1.4-.1-1.23.62h-.79l-.55-.85.72-.58-.07-1.16-.51-.55-.79.72v.44l-.58.27-1.4 1.26-1.2.31-.81-.23-1 .27-.75.72-.46-.22h-.73l.09-.45zm120.63-14.19l.39.21.36.7-.25.86-.33.24-.32-.45-.27-1.06.43-.5zm-9.31.14l.6-1 1.11-.44.65.46-.29.55h-.67l-.65.48-.75-.09zm-9 5.21l.38.6 1.18.33 1.21.91.41-.5.87.33 1.13-.58.72.27.67-.17.65-.72 1.16.07-.1-.7-1.35-.81-.77.44-1.11.14-.46-.26-.94.55-1.26-.62-1 .7-1.09-.12-.31.14zm-5.31 33.07l-.31-.33.24-.57.41-.15v.89l-.34.15zm-5.63-.94l-.58-.48-.07-1.06-.38-.41-.58.51-.21-.51.24-.92-.21-1-.65-.68.55-1.06-.17-1.37.31-.58-.68-.34-.41-.82v-.75l-.79-1 .07-1.47-.61-1.13h-.48l-.31-.44.07-1.06-.51-.27-.72.44-.38-.38-.68.14-.44-.44-.07-1 1-.51.2-1.33-.48-.65.24-.55v-1.61l-.34-.65 1.13-1.44.92-.34.38-.61.48-.14.27.44 1.4-.44.82.24.41.58-.38.45-.41.13v.48l.79.14.17.55-.1.82 1.16 1.26v.82l.52.85.89.14.41-.34-.17-.79.51-.38.61-1-.17-.61.65-.62.14-.68-.34-.82.34-.41.85-.2.62.24.44 1h.65l-.1-.58-.68-1.13-.21-.89h-.27l-.44.85-1.06.1-.82-1.16v-.72l-.75-1v-1.09l.58-.58.71.1.21-.75.72.41.48.82.31 1.84h.21l.21-1 .34-.44v-1l-.77-.31-.1-.89-.21-.92.41-.24.28-1 .89-.34.41.2.44-.14.68 1 1.1.33.44-.79h-.92l-.41-.45.48-.37.72-.34 1.23.14.27.44-.41.34v.58l.65.44.65.92.75-.27 1 .44 1.13.07.48-.44.72.17h2.22l.72.79.58-.17.17.58-.14.51.24.68-.44.75-1.2.72-.72-.31-.17-.44-.48.48-.58.21.21.51 1 .65-.34.58-.17 1.2-.48.24-.34-.34-.68.07-1 .24-.34.51-1.81.41-1.09.89-.55.07-.75 1.16v.55l.61-.07.24-.41 1.4-.31.51-.21 1.44.82.27 1-.41.31-.61.1.68.31.17.75-.1.89-.72.48v1l.27.41.55-1.06 1-.38.34-.41h.55l-.51.61.1 1.37-.42 1.38v.85l-1.57.92h-.75l-.27.44.31.51-.41 1.26-.51.14-.24-.41-.61.34v.41l1.2.65-.24.48-.92.07.55.85-1 .89-.41-.41-.58.51h-.89l-1.09.51v.72l-1.3.41-1.09-.75-.92.51-.62-.21-.38-1.85.82-1.16.07-.68-1.57 1.5-.14.89.68 1.78.48.48-.24.85-1.09.68-.44 1s-1.23.38-1.26.38zm15.88-22l-.07.43.46.09.19-.46-.58-.05zm-.69 3.86l.46-.14.77-1 .1-.65-.29-.41-.22-.74-.65.28-.24.74-.5.31.1 1.08.46.53zm-.56 2l.43-.33.43-1.12h-.7l-.69.58-.07.62.58.26zm-36.14-20.27v.57l.28.29.56-.24.67.27.32-.36-.39-.55-1.11-.19-.36.21zm6 11.82l-.68-.85-.1-1.95-.55-1v-.75l.17-.51-.27-1.09v-1.09l-.75-1.09-.82-.67v-.51l1.47-1.16.72-.27.89-.85 1.26-.13.72.58h.65l.82.55.55-.17.92.37.55-.17h.68l.85 1.2v.68l-.24.41.55 1v.58l-.41.38v.72l-1.09 1.09h-.48l-1.33 1.26-1.2.75-1.09 1.33h-.89l-.58.41.07.68-.39.27zm34 19.45l-1.44-1.23-.68.27-1.64-.21.64-1 .75-.34.55.24.31-.31-.14-.41h-.82l-.24-.34 1.16-1.57.55-1.55v-.85l.48-.27V128l-.75-.58.48-.65v-1.09l.85-1.91.65-.44v-.85l.79-.58.44-1 .31-.61.13-1 1.2-1.3.27-1.3.79-.14.1-.61-.24-.38.68-1.16.58.21.75 1.13.24.89 1 .1-.17-1-.72-.82.14-.41.68-.24-.75-.92.82-1.3 2.08-.48h1.4l.79-.27.44.34.85-.1.24.68.65-.55h1.2l.61 1.06.92.27.21.24h.44l.51.89-.1.75.38.31.65-.31 1.33.14 2.15.27 1.26.79v.75l.58.41.24.75-.38-.24-.41.07-.44 1.06-1.37 1.26-.72 1-.82.24v.38l-1.95 1.5-1 1.37h-1.06l-.14.44.34.31-.48.68-1.44 1.06-1.16 1.2-1.55 1.19-1.09.51-.56-.28-.19-.43-.6.08-1.25-1-.14-.81-.67-.31-.67.38-.91-.24h-.79l-.67-.39h-.72l-.12.58.38.45 1.8.09-.31.69-.65.7.5.5.05 1-.45.86-.62.41-.53.6h-.94l-.58.48-.45.91-.7.69-.68-.05-.05.86a2.87 2.87 0 0 0-.27.36zm58.33 4l-1.26-.65-1-.27-.41-1.13-.58-.31-.41-.89.31-1.2 1-.58-.1-.72.51-.65-.17-.75-.82-.14-.89-.72.89-1.95.61.1.27-.62-.17-.89.55-.68.31-1.27.82-.31.61.58.21.79 1.81.61.68.72 1.06.27.38-.37 1.76.58h1.36l.58.44.24.85 1.33.82.45 1-.38 1 .07.58.79.58-.21.51.21.82-.07.58.48 1.06-.17.68-.44.65 1.16.34v.48l-.58.44-.31.51-1.78-.38-.27-.34-1.74-.41-.55-.48-1.23-.24h-.48l-.76-.49-1.33.41-.82.07-.92.86-.51.1zm-5.43 1.5l-.08-1 .34-.5.29.41v.58l-.55.46zm1.42.84l-.34-.6.38-.34.34.05.12.65-.5.24zm2.46 0l-.65-.19-.1-.55.41-.09.65.53-.31.29zm-58.8 20.09l-.22-.43.34-.45h.62l.36.24-.22.46h-.39l-.48.15zm2.82 4.78l.07 1.15.53-.48h.24v-.75l-.41-.31-.46.43zm-.87 0l-.29.63.41.48v.45l.24.27.24-.38-.05-1.27-.31-.38-.22.19zm18.23-3.26l-.16-.4h-.68l-.53-.55-.19.39-.58-.14v-.82l-.39-.29 1-.24.17-.29.75.05.51.7 1 .17.15.77-.29.55-.58.14zm10.35 4.15h-.6l-.39-.93.55.22h.55l.15.51-.26.22zm1.08.12l.72.22-.29-.5-.43.27zm1.54.48l.58.08.38.36.51-.09v-.41l-.72-.4-.09-.24h-.74l-.19.44.27.24zm10.94 14.79v-.48l.36-.45-.24-.89.44.17.51.38-.22.58-.1.63-.75.05zm-.87 2.88l-.34-1.11.39-.72.27.19.79.07v.6l-.7.14-.09.62-.31.22zm-6.58-14.32l-.32-.42.43.08-.11.34zm-1.33.15l-.44-.82.5.26.1.34-.15.22zm.27.65l.32.43.5-.07.6.26.05-.53-.51-.34h-.74l-.22.22zm6.13-2.49l.68.15.19.48.24.31-.12.41.22.45.53-.21.07-.63.58.24.72-.17.34.09.51-.51-.45-.62-1.18-.21-.69-.65-.84-.14-.09.5a7 7 0 0 0-.74.51zm10.68-.74l.15-.62.46-.19-.24.69-.38.12zm-3.71 4.37l.58-.6.5-.84h.69l.39-.62.34-.05.38.5-.07.43-.91.41-.77.6h-.67l-.46.12zm-3.49 5.8l1.77-1.47.38-.65h.48l.79-.78.79-.65-.07-.92-.44-.24-.72.17-.17.75H287l-.82.89-.72.34h-1.23l-.68.38-.34.75-.68.48.27 1.06.34-.27.89.2h.62zm7.62-.89l-.16-1.35.34-.38.48-1 .51.1 1.06.1.17 1.06-.41.79-.58.07-.58.78-.75-.13zm6.19 7.74l-.17-1.37.17-1.27-.48-.74-.48.14-.07.81-.46 1 .14.87.34.45.14.67.46-.34.41-.17zm.72-.69l-.2-.74.26-1.06.27.91.31.53-.29.39h-.34zm1.32 2l-.32-.53.31-.62.24.17.05.72-.27.26zm-3.02 1.91l-.17.34.26.86.19 1.17.39.27.51-.22.82.27.46.22.77-.15.85.27.33-.6-.27-.53.05-1-.94-.07-.41-.67-.74-.09-.33.19v-.5l-.05-.51-.34.12-.34.57-.46.09h-.6zm-24.84 34.76l1 .1.34-.24-.44-.44-.65.1-.27.48zm-13.89-23l.7.53.48.1.05-.34-.53-.4-.44-.09-.26.19zm-3.09 5.27v-.65l-.51-.55-.89-.48.14-.58-.27-.85-.58-.48.07-1.23.27-.34.27 1 .85.34.2.61.55.44v1.33l1 .48.65.07-.14 1-.92-.21-.65.17zm-5.5-.31l.07-.85-.2-.51.17-.62v-1.3l.28-.75h.58l.17.79-.38.27.07.58.41.65-.65 1.54-.55.17zm-.41-22.44l-.1.85.27.24h1l.56-.68-.14-.38-.89-.14h-.72zm.21-.38l.44-.82v-1l1.06-.92.65-.58.14.27v1l-.2 1v.84l-.79.27-1.26-.07zm-45.57-9.43l.55-.31v-.82h-.85v.75l.27.38zm-38.81-10.9l.44-.44h.68l-.58.41h-.55zm-3.14 1.4h1l-.14-.38-.58-.14-.31.55zm1.4 3.38l-.1-.55.2-.21.24.79h-.34zm0 .41l-.62-1.2-.24.41.34.48.51.31zm1.5 2.19l.37 1.2.38.14.68-.85-.27-.34.44-.51h-.58l-.31.55-.27-.34-.44.17zm-1.3 5.7l-.31-1.5.44-.51.07-.72.62-1.06.27.51-.2.62.38.41-.27.51.27.58-.62.34-.21.55-.44.27zm35.19-21.6v-.46l.32-.33.12.4-.17.53-.29-.14zm11.73-7.16l-.15-1.2-.31-.34.22-1.13.55-.22.33.4-.07.44.46.51-.48.55-.08.94h-.43zm-13.16 14.28l.09-.36-.17-.53.58-.65v-.39l.44-.55-.05-.62h-.73l-.15-.72.29-.75.74-.14.09-.8-1-.53-.6.21-.07.58-.34.34-.55-.33h-1.15l-1.11 1.15-.91.6v-.41l1-.63.52-.67v-1.06l-.38.61-.41-.2v-.75l.79-.58-.61-1.16.55-.72h.65l-.14.51.41 1.3.61.62.44-.21h1l.44-1.06-.51-.44v-.38h.65l.31.34.48-.14.75-.72.31-1 .17.82h.34l.79-.72-.68 1.5.07 1.2.38-.21.41.24-.41.75h.58l.41-1 .48-.34.72-1.4.58-.24-.2 1-.75.89.2 1.47h.68l.58.38.41-.65 1.06-.92.34-1.37.44-1-.24-1 .34-.41-.14-.48-.55.07-.51-.24-.55.41v-1l.41-.27-.28-.48-.89.1-.14-.41-.86-.7v-.7l-.64-1.53-.13-1.15.44-1-.44-1.38-.55 1.09.07.92-.72-1-1-.55-.23-1.93-.58-.34-.17-1.54-.65-.85v-.92l-.34-.62v-.65l1-.1.31-1h.62l.17.27.61-.41v-.82l.85-1.85v-1.17l.2-.51-.68-1.54.34-1.09.58-.1.07-1.37 1-1.3.1-.79.51-.62v-1.81l.58-.24v-.89l1-1.16-.1-1 .1-.65.62-.17.07-.92-.48-1 .14-.58v-.72l-.82-.44-.41-1.37.31-.45-.65-1.61-.85-.17-.38-.41-.38.07-.26 1.19h-.44l-1-1.81-.61-.1-.65-.75-.62.34.17 1.2-.34.24-.65-.17-.48 1.13v.57l-.58.34-.75 2.29v1l-.51.75-.07 1.13-.31.27-.07.79-.68.44-.1 1.91-.72.48-.41-.17-.65 1.54.31.55-.27.89-.1 1-.68.89.48.72-.14.68h-1l.38.44.82.38v.68l-.58-.27-.61.14-.75.51-.58-.21-.41.44.07.92-.41.41-.65-.38-.1-1 .27-.72-.51-.61v-1.4l.68-1.4.17-1.16.65-.55.07-.79.24-.79.51-2 1.09-.58.1-1.13-.55.1-.44-.1.07-.68.58-.65.1-1.95-.51-.34-.41-1.09.31-.38.07-1.13-.58-.1-.85-1.13-1.33.45-.31 1 .89.68v.82l.48.58v.72h-.61l-.31-.89h-.65l-.34 1 .41.27.24.79.34 1.13-.48.34-.14-.38-.41-.41-.24 1.09-.79-.61v-.79l-.58.1-.54 1.13-.38-.17v-1l.58-.62-.27-.2-1.23.48-1.06 1-.64-1.12-.62.07-.58.58h-1.06l-.2-.51-1.06.17-.48-.38.75-.68 1.2-.14.58.21 1.06-.27.07-.58.62-.21.65.21 1-.82v-.79l.17-.55-.61-.55-.79-1.57-1.06-.34-.14-.65-1.5-1.33-.2-.51h-.8l-1 .75-.61.07-1.5 1.54.38.34v.62l-.58.2-.65.31v-.41l-.72.14-.68-.48-.92.07-.41.38h-1l-.38-.34.34-.34 1.37-.31.34-.82.79-.31.58.14.68-.92.07-1.09.38-.51h.75l.69-1.33-.1-1.4.24-.75-.27-.85h-.78l-1.44.44-1.74.38-1.81.72-3.45.55-4.24 1.64-1.09 1-2.6.61-3.45 1.61-1.2 1.09-.1.72.79.07.48.38-.92.68h-.94l-1.5 1.37-1.3.07-.65.54-.24.86-1.28.95-.56.74-.05 1.17.67-.34.63.55-.36.6.34.07.55-.12.82-.5.89.09.72.48-.29.72-1.08.45-1-.58-.7.39.21.86 1.63.84.55-.34.19-.7h.53l.33.46-.36.67.75-.09 1.56.27 1.47-.41h.91l1.34.58 1-.2.92.41.53.77.72.09-.3.5h-.79l-1.3-.85h-1.81l-.34.34 1.16.41.27.51H158l-.68-.58-2.08.24-.55.51-.61-.38h-.55l-.72.2-.71-.07-2.22.14-.38.31-1.78.34-.31 1 .26 2.6.22.51v1l-.36.24.1.67.43.38.81-.12h.5l.55.41h.84l.22-.39.21-.09.6.31.36.33.48-.17.53.51.08.53.58.17.75-.22h.56l.38.38h1l.67-.12.86.36.77-.38.56.24 1.13.1 1-.26.75.34.31.67.56-.39.14.79.8.65v.38l.31.41h.87l.56.27.2.63.51.15.55.62-.14.33-.07.69.84.89 1.2.77v.51l-.24.28.22.51-.45-.24-1.64-.4-1.37-.4-.7.22-.7-.22-.22.19h-.63l-.67-.77h-.6l-.53-.79-.43-.15-1 .14-.55-.15-.43-.41-1-.4-.17-.72h-.32l-.53-.22-1 .07-.44-.26-2.09.09-1.25-.12-.92-.28-3.72-.05-.62.24-1.09.29-.51.72-.15 1.47-.82 1.29.26 1.44-.31.57.22.5.65.27-.17.51-.36.27.65 2 .7.58.2.46 1.37.79.4.43.77-.19.5.55.63.14 1-.43h.58l.67.7h1l.6 1.06.55.21.21.51-1 .32.1.55-.44.48.05.46-.34.62-1.15.58-.05.46-.34.6.72.51.05 1.13.5 1.1-.08.53-1.1.26.33.38 1.56.31.63-.19.44.07.31.33.39-.53.51-.09.39.26h1.2l1.49.69.56-.69 1.22.05.24.44.26.09.34-.24.68-.17.43.17.14.57.53-.09.34-.22.44.27.17.7h.46l.39-.41 1.18-.12.53-.58.77-.26h.68l1-.94 1.13-.5.79-.19.22-.41h.63l1 .17.63-.1.65.34h1.81l1.86-1.23.31-.57h.34l.31.33.27-.51.72-.43v-.58l.27-.36.38.14.57-.09.32-.48-.07-.48.4.17.44-.09.29.53v.46l.22.42-.68.45v.58l-.39.6-.44.31.05.32.63.12.72.58.27-.22.58-.07.77.38.27.84.39.38.05-.41.27-.29.57.27v.6l-.58.57h-.7l-.51.63.12.45h.48l.58.14.73.62.6-.19.68-.94h.29l-.07.77.51.93.56.17.55-.36.74.19.39.6h.7l.41.5h.33v-.75h.43l.65-.22.36.29v.65l.33.19.72-.21.5-.7.36.22.17.58h.38l.31-.41.22-.1.53-.55.62.07.19.33.38.15.39-.17zm88.5 33.41l.31-1.06-.27-.38.1-1.06.1-1.06 1.23-1.23.51-1.06.72-.48 1.37-2 .92-.58h.44l.38-.41.55.27.92-.48 1 .31.44.62h.51l.65.72.34.92v.72l-.82.68-.41.92-.07 1-1.23 1.91-.41.72-.75.24-1.16.58-.27.31-.68.1-1 .44-.55-.38-1.33.27-.75-.27h-.58l-.13-.31zm-84.07-36.41l-.15-.45.17-.55.63-.21-.48-.65.29-.56.45-.08v.62l.46.43v.53l-.36.57-.38-.09-.31.51-.32-.07zm-8 7.35l.74-.43.21-.55-.07-.52.15-.57-.17-.17-.67.44-.14.33-.92-.05-.21.41.63.82.44.28zm9.48-1.68l-.89.52-.14.55-.36.48-.56-.86v-.53l.89-1.34-.05-.67.43-.51.58.1v.55l.63.77-.53.94zm1.11-1.18l-.12-.6-.32-.37.65-1.28.39-.14.5.87-.48.58-.15.75s-.48.17-.46.15zm17.5.25l.44-1.54 1-.92 1.13.38v.82l-.92 1.54-.65.31.14-.72-.07-.82-.34.48-.14.55a3.69 3.69 0 0 1-.61-.07zm-.72-1.13l.41.14.51-1-.55-1.09-.41.65v1.33zm-.63 8.19l.42-.47 1.33-.89v-.72l-1.09.41-.48-.72 1-2 .27-.92-1.06.61-.66 1.42-.07-.89.69-2.19-.48-3.15-1.3-.89v-1l-.75-.07-.75 1 .07-1.09.69-.62-.41-1 .14-.75v-1l-1.37.41-1.37 1.16-.62 1.64.31 1.44-.75-.27-.34-1.23-.41-.07-.21 1.1-.62.07.48.89-.55.82h-.75l-.55.82-1.51-.14-.62.27-.62-.14-2.12 1.3.21 1 1 1.23.82-.48-.21-.55.27-.68.89.75-.34 1.3 1 .82.55-1 .34.62-.34.82 1.09 1.23.89.21.48 1.37.62.68.75-1.16.07.89 1.23 1 .69-.07h.89l1-1 .68-.14 1.09-.82.41.75zm96.92-6.54l-.05-.74-.31-.48.46-.77.82-.51.7.21.17.65h.62l.43.39-.53.74-.77.21-.39-.26-.56.27-.31.46a2.64 2.64 0 0 1-.27-.17zm-2.12 83.1h-.84l-.82-.51-1.45-.5-.67-.51-.63-.1-1.3-1.11-.24-.55-.69-.39-.55.08-.53-.22-.36.29-1.42-.58-.17-.51-.51-.5h-.65l-1-1.12v-.62l-.44.05-.56-.39-.41-.82.39-.36.46-.31-.87-.36-.29.22-.24.34-.5-.31v-.39h-.77l-1.46-1h-.6l-.48-.45-.87-.72.07-.5-.6-.09-.55-.65-.58-.79-.08-1.11-.87-.44.31-.38 1.26.07 1.71-1.16.34-.48-1.37.17-.65-1-.31-1 .2-.38-.51.24-.44.85-.1.68-.79-.79.55-.68.17-1.44-.58 1-.41-.41v-1l-.75.14-.2-.85.07-.82-.44-1.23-.67-.44v-.72l1-1-.24-.44-1.61 1.37-.07.82-.27-.65.55-1.09-.72-.24-.44.27-.24-.24-.51 1.57-.79.48-.07-1 .65-.79-.07-.92.17-.58-.79.27-.72.72h-.44l-.55.75-.31.55-1.13-.13-.58-.68h-.68l-.92-1.54h-.37l-.27.68v.92l-.44.44-.75-.27-.58.24h-1l-.34.48-.92-.07-.41.44-.85-.31-1.4-.1.17-.58-1-1.09-.44.31-.82-.79-.61-1.81.34-1.06.72-.48v-.89l.68-.72 1-.1.55-.62.89-.17.41.07.14-.75-.39-.61-.05-.57.21-.19.52.15.16-.44-.1-.56.32-.36 1 1.47 1 .17 1 .72.69.77.5.12 1 .51.6-.55h.7l.36.53h.62l1.06.22.65-.72.44-.89h1.19v.38l-.27.38.65.38.89-.75.38-.85.89-.51.38.51v1.3l.27.79.17-1 .51-.41.44.24.44-.41-.24-2.36-.79-1.2-.14-.82-.58-.86.27-1.09.41-.41h.51l1.37-1.09 1.64-1 .65-.38 1.16-1.2h.48l.55.44.68-.2.44-.07-1.23-.68v-.72l1.71-1.37.21-.68.51-.31 1.37.31 1.4-.48.17-.62-.51-.89.48-.68.2-1.71.09-.32-.2-.27v-.71l.5-.89v-.84l-.67-.2v-.39l.41-1.3.65-.12.1-.69.44-.79-.07-.55-.48.09-.5.58v.55l-.39.14-.07-.6.07-.82-.35-.17-1.88-.07-.6-.64.19-.39 1.35-.56-.17-.38-.67-.39.48-.87v-.7l-1-.75-.39.15-.07.56.31.58-.24.51-1.1.27-.38-.84-.41-.15-.15-1.13.75-.72-.24-.6-1.23.15.12-.29 1-.33.07-.39-.51-.21.5-.36.57-.27.08-.5-.46-.4-.82.63-.65 1-.62.39-.32-.29-.14-1.01-.44.29-.46.82h-.7l-.58.4h-.86l-.6.24-.12.31h-.5l-.13-.5.51-.62-.09-.45-.38-.22.67-.94.43-.17.58.29.5.31.48-.24.56-.07.74-.69.27-.82-.31-.55-.53-.55-.91-.29-.39-.67v-.6l-.29-.39v-.63l-.89-.1-.14-.24-.53-.31-.17-.58.7-.31.33.44.38-.22.14-.51.84-.45-1.23-.22-.5-.58h-.58l-.07-.29-.77-.19-.38.81-.29.09v-.53l.65-1.49.8-1.25.07-.38.5-1.24v-.91l.29-.5-.31-.51-.84.46-.51-.36-.33.19-.09.55-.5-.14-1.16-1.23-.07-.65-.43-.57-.41-.21.17-1 .87-.38.19-.44-.29-.53-.07-.94-.53.12-.51.53v1.34l-.51.79-.22-.84-.46-.38-.22.21-.07.58-.44.15-.23.96.75 1 .53-.1.74 1.7.46.51-.29.89-.07.75-.63 1-.63.46h-2.09l-.27-.26-.82.07-.94-.6.26-.42v-.86h-1.49l-1.54-.77-1.32-.12.63 1.7.43 1-.19.21h-.77l-.41-.93-.79-.84-.32-.14-.24-.69-.91-.94-.68-.84-.14-.48-.65-.14-.79-1-.58-.24-.27-.38-.75-.41.17.72 1.81 1.44.41.72.65.79.72.48.27.68-.48.61-.34-.31-.48.48-1.33-.85-.51.14-.44-.72-.85-.31-.34-.79-1.54.21-.79.44-.68-.58-1-.21-.85.07-.48-.65-1.09-.72v-.58l1.33-1.23.55-.27v-.38h-.61l-.82.85-.65.75-.48.17-.75-.61-.89-.17-.38.14.79.55-.44.34-1.23-.07-1.16-1-.31-1.15-.82-.62.14-.78 1.61-.82.37-.58-.3-.21-.72.55-1.13.14-.41 1-.48.1-.17-.68.2-.75-.37-.34-.46.11-.17.6.14.5-.24.5-.67-.21-.52-.62-.77-.19-.63.19-.09.57h-.5l-.62-.75-.26-.75.27.05.48.34v-.34l-.89-.84-1.11-.65-.14-.79.15-1-.14-1.15-.41-1.43.27-.68h.58v-.58l-.34-1.09.14-.38.89.24.34.48 1.54.1.82.65.27.89 1.67.65h1.48l.44-.27h1.33l-.58-.48-.14-.62-1.23-.75-.14-1.26h-1.23l-1.06-.65h-.72l-1.09-.72h-.92l-1.66-.99-.45-.85.34-1.5.78-.51-.07-.68.31-1.06h.75l.48-.92v-1.67l.31-.68.68-.2.24-.82 1.27-.68.75-.07.21-.65h-.31l-.45.17-.1-.75 1-1.44.72-1.37.34-.34.72-.92h.68l.34.1.41-1.47.44.07.34.72.48-.65-.34-.61 1.09-1.71h.75l-.07-.85.79-1.09h1l.58-.82h.72l.58.31-.31-.86.24-.89 1.67-.75 1.61-1.4 2.56-.85 1.71-.1.72-.27 1.23.24.72-.24.51.21h1.5l1 .68 2 1 .14.58-.24.75-1.2.51-1.54.62h-.92l-.45.72-.79 1-1 .27-1.74 1.67-1.73 2.06-1.4.92-.6.27-.89 1.81-.11 1.1.38.92.51.65v.82l-.79.41-.68.92-.85 1-.07 1-.58 1.2-.48.34-.07.72.44.82.19 1.29.34.61v1.23l.82 1.09.17.48.89.51v1l-.38.85-.31-.79h-.48l-.07.44-.58.07-.61.24-.46.19.36.22.58.72.67-.09.19-.19.31.34-.72.7-.36 1.35v.87l-.24.53 1.16-1.13v-.63l1-1.75.46-.43.26-1.73.39-.58.82-.57v-.89l-.26-.58.17-.6-.6-.43-.58-.12-.05-1.18-.19-.29-.05-1.18-.51-.94-.12-.93.41-.24.31.69.43-.38 1-.29.53-.69-.21-.6.5-.79.72.22.58 1.23-.25.55.44.34.61-.72v-.85l.65-.79h.62l-.1-.51.38-.31.85-.27-.31-.51-.65-.1-1.53 1.07h-.65l-.35-.96-.51-.51.07-.55 1-.34-.58-.79.34-1.3.68-1.26.1-.72.72-.72 1.13.1.78.85.1.61 1.26.68.58.85.89.07-.72-.58-.17-.68-1.33-.89-.24-1-.24-.51h-1l-.41-.44.31-.14 1.61-.1.27-.44h.41l1.47 1.61 1.26.72h.44l-1.16-.68-.78-1.34-1.09-.79v-.58l.37-.85 1.37-.27.48.21-.14.82.14.65.41-.41v-.65l.55-.68h1.06l.51 1 .41.34.34 1.2.44-.51v-.72l-.89-1.06.28-.55 2.36-.55 1.37-.61 1.16-.1 1.06-.75 1.37.48 1.5.07 1.36.31.12.57-.26.36-.19 2.07-.22.55-.62.7-.63 1.18.22.5.84.39.36.75-.17.5-1.3 1.44-.24.58-.1.92.75.68v.45l-.62 1-.72.07-.65.75-.82.24-.65.62-.58.82-.61.72.65-.07 1-1 1.2-.92h.48l.41-.07-.61.68-.21.68-1.33 1.23-.89.44-.07.34.07.44-.14.48-.48-.27-.69.18v.51h.41l.38.41-.07.72-.73.55h.77l.39-.55.67-.26.6-.86v-.67l.87-.31.34-.79.37.25v1.2l.53.34v-1.06l-.24-1 .19-.69.43-.29.87.22-.12 1.06.29.51.48-.48 1-1 .27.82.62.68-.27.79-1.16 1.61-.92.72-.44.65.89.2.82.41.61-.41-.51-.61.41-.92.75-.89.65 1.2v.85l.24-.62-.14-1.16-.48-.89v-1.74l.38-.2 1 .44-.21.89-.31.72.51-.24.75-.14 1.54 1.47v.56h1.06l.68.41h.44l-.44-1-.65-.14-.27-.44L301 144l-.65-.2-.31-.44 1-1.43h1.06l.89-.82 1.4-.24 1.16.1.41.44.44-.07 1.3.62.07.58.75.65.58.24.1.75h.48l.2-.38.75.14.34.75 1 .48v.62l-.07.65.24.48.1.61-.82 1-.75-.14-.85-.24-1.33.38-1.43 1.33 1.61-1 1.54-.1.25.41-.65.65-1 .65-1.06 1.54-.75.58-.54.08-.14.72.48.07 1.76-1.79.72-1.13 1.23-.44 1-1 1 .31.41.41.65.07v.78l-.38.72.07.72-1 .34-.48 1-1 .07-.44-.34h-.88l-.48.61h1l.21.51-1.64.89.62.14.55-.55 1-.31.55-.31.14.44-.38.51-1 .2-.89.72.68-.1.27.21-.51.82-1 .85-.68.58.61.1 1.09-.72.75-1.47.62-.75 1.43-1.06.24.34v.48l.79-.38.14-.65 1.16-.75.62.07-.07.58-1.44 1.23-1.61 1.06-.65.17v.44l.41.2-.48.82-.19.85.29.12.55-.77.19-.82 1.28-1.08 1-.64v.62l.12.55-.46.6-1.15 1.1-.14.58-.72 1.27-.5.43.05.24.86-.24.36-.7 1.16-1.58.74-.32.38.62.24.17v.48l-.63.24-.84 1.24-.22 1.18.36.15.22-.72.19-.74.62-.93 1-.43v-.9l.38-.72.72-.38.1-.69.26-.48.43-.17.43-.67.07-.65.38-.19.72 1.46.67.39.82.86.19.84.19.91.87 1 .07.41-.62.62-.91 1.12h-.55l-.62-.51-.81-.67-.44.05-.43.34-.56.21-.43.87-.67.38h-.55l-.51.61 1-.14h.48l.21.55-.72.82-.79.38-.75.39h1.11l.77-.46 1-.15.74.14.82-.67h.84l.55.41.09.43-.15.33.38-.24.24-1-.07-.79.53-.7 1.35-.64.24.24-.12.62.27.77-.45.82-.82 1.11-1 .36-.67.6-.17.39h-.85l-.53-.24h-.55l-.48.6-.14.63-.86.84-.12.55-.26.55.46-.09 1.08-1.17.68-1.18.51-.22.24.27h.36l.1.38-.43.46-.56 1-1.16 1.15-.72.69v.27l1.49-.79 1.56-1.77.63-1.46.15-.63.38-.5h.53l1.35-.94 1.22-.51.62-.19.09.33-.34.57-1 1h-.93l-.55.46-.12.79.22.17.62-.63.94-.1.84-.74.69-.22.44-.38.67-.43.65.09.39.86 1 1.13.53.82.72.36.17.52-.12.79-.92.87-.38-.21.09-.93-.57.15-.17.45-.41.51-.62.57-1.47.1-.67.31-1-.05-1.27.84-.79.07-1.3.74.95-.02.44.24-.26.62-1.18.27-.34.43 1.58-.22.94-1 1.37-1.22 1-.07.72.21.65-.26h.6v.34l-.09 1-.62.44-.82.51h-.51l-.72.33-.53.84-.75.33-.74-.39-.51.22-.8.77.5-.1.8-.29.65.15.44.27 1-.77.6-.86.82-.27.6.24.84.17.6-.72.91-.41.33-.27v-.53l-.31-.29.53-.77v-.5l.62-.17.21.21.38-.14.27 1 .86 1.87.22 1.15.51.69-.17.72-.41.65-1-.05-.62-.45-1.3-.1-.68.36-.74.5h-.57l-.29-.24-.74.05-.58.55-1.44.22.63.24 1.63-.24.84.26 1.27 1.18.65.36.5-.26.53-.14.46.31.75.48.94.36.12.68.45.74v1l-.36.31h-.65l-.45-.75-.32.07-.41.48-.43-.21-.31-.5-.5.26-.58-.15-1.1-1.22-.44-.15-.62.09-.79.09-.7-.34.27.4.91.29.74.15-.24.4-1.13.1-.46.24h-1l-.77.48.14.6.44-.09.22-.4h1.16l.72-.41.72-.12.48.65v.34l.56.26.09.33-.22.12h-.81l-.43.31-.39-.24-.24-.36-.51.05-.24.19.69.51.67.27.36.43v.57l.31.41-.49.08-1.81-.51h-1.13l-1.74-.65-.72.1.24.31 1 .27 2.43 1.2.14.48-.41.1-1.33-.82-.41.14-.65.72.61-.1.41.27.51.44.31-.17.41.21.07.61.31.51.34-.24.1-.51h.79l-.07.48-.31.38v.38h.51v-.85h.65l.92.48.85.27h.72l-.31.75-.13.41-.82-.27-.51-.34-1.06.17-1.44.68v.68l.62-.65h1.13l.82.24-.75.14-.27.58.58-.27h1.16l.41.41-.24.27.79.31.34.58-.27.51-.44 1.06.1.58.31-.27.1-.65.61-.65.65-.07.14.72-.34.51-.87 1.5-.38.84v.67l.43-.26.65-1.15v-.53l.44-.6.87-.41-.07-.24.33-.63.67-.48.24.21-.26.67-.9 1.01-.39.67v.86l.1.86.38-.27-.07-.57.1-.84.6-.51.5-.69 1.09-.89.72-.58.21.34-.05 1-.41.41-1 .24-.14.77-.34.74.27.17.29-.29.43.31.48-.36 1.08-.38.31.51.24 1.2-.07.55-.72.33v.27l.55.12.43.75-.66.21-.58-.1.58.38.75.34-1.81.41-.89-.07.44.45.89-.07 1.23.27.38-.41.85-.17.2.07-.68.92-.37.92.82-.82.72-.24.55-.62.89-.65.68.21-.17.44-.55.62h-.38l-.41.72-.41.92-1.06.41-.45.82v.58l.55.1.68-.72v-.38l.92-1.13.82-.31-.07.65-.62 1-.1 1-.27.62.51-.38.65-1.16v-.58l.34-.17.27.21.1 1.3.48.41h.31l-.14-1 .34-.58 1.16-.61.24.31-.41.55.27.1h.75l.44.58-.34 1 .79-.1.31.44.07.61.55.48.25.5-.24.28-.38.31h-1l.05-.57-.41-.62-.5-.24-.29-.26-.43.36-.48.65.6-.27.48.06.31.4-.31.17.43.24.19.5-.39.17-.67-.17-.53.33.31.26H343.8l.07.34-.45.55h-.74l-.65.15-.91-.14-.75-.15.21-.67-.05-.41-.63-.36-.26-.31-.39.12.09.5.41.31.21.72-.14.38-.63.07-.67-.45-.14-.46-.14.82.48.52h.92l.48.43.53.17.12.53-.27.65-1.34-.05-.31-.55-.84-.55-.39-.41h-.26l.22.39.92.69.36.72v1l-.31.53-.43-.07-.24-.63-.56-.46-.63-.22.14.26.32.29V217.77l-.24.19h-.46l-.29-.31v-.86l-.34.15-.14.51-.63.14-.41-.17.12-.62-.22-.67-.05-.72-.29-.34-.14.51v1.25l-.41.34h-.6l.22.24.5.09.14.38-.39.5-.55-.12-.24-.15-.07.27.51.41h.39l.09.38-.09.57-.38.14-.1.41.29.69v.51h-.31l-.38-.27-.19.08.58.64.1.51-.12.72-.91.29-.22.38-.38-.15-.09-.39-.19-.19v-.38l-.5-.19-.1-.31.33-.48v-.4l-.28.05-.65.27-.2.5-.31-.05-.43-.53.31-.43-.32-.43v-.31l.34-.29v-.36l.12-.43-.15-.09-.48.51-.39.89-.51.58-.15-.2v-.55l-.34-.58-.17-.55.31-.36.84-.34v-.2l.46-.17-.17-.24-.69-.07-.58.15-.62-.15-.15-.31.19-.41.72-.19.62-.79-.41.12-.56.24-.39-.19-.07-.44.46-.2.63-.26.63-.19-.55-.24h-.68l-.46.31-.31-.22.07-.41.72-1 .44-.15 1-.17.74-.63.62-.38.36-.77.69-.75.39-.22-.09-.32-.39.07-.86.69-.48.26-.39.68-1.11.53h-.58l-1.22.87-.89.12-.6-.24v-.34l1.25-1.34 1-.51.26-.45.34-.39-.07-.65-.67 1-1.78 1.08-.58.31-.43-.15-.22-.34.12-.65-.24-.31-.5.14-.44-.27.22-.34.46-.15v-.35l-.34-.26h-.46l-.09-.24.1-.89.33-.19v-.51l-.5-.27-.36-.48h-.19v.63l.15.48-.74.29-.41-.38-.48-.46h-.8l.89.53.51.89.12.79-.58-.14-.15.26.12.22-.7.12-.43-.52-.27-.87-.38-.27-.27.26.5.5.09.62-.27.67.58.12.58.72.29.79-.07.6.38.12-.09.4-.51.19-1-.12-.39-.51-.26.82h-.31l-.89-1-.14-.62.31-.55-.15-.55-.75-.48h-.75l-.14-.5-.36-.63-.46.34-.82.21-1.06-.07.41.48 1.15.09.78.27 1 .31v.94l-.51.63v.55l.51-.12.29.43-.34.5.39.17h.77l.05.43-.53.81-1.23 1.08-.79.63 1.68-.39.51-.62.17-.4h1.32l.39.43v.31l-.82.44-.41.58.34.26.8.1.51.52-.44.29-.86.1-.26.38.46.15.15.56-.12.1.1.31h.33l-.14.74.39.09.17.65.12 1.14.21.15.26-.53.09-.87.41-.26.55.5.12 1 .36.43-.17.32-.7.43.15.34 1.15-.15.26-.22.07.6.4-.63v-.5l.51.07.41.7-.19.79-.6.6-.12.53-.19.29.45.41 1.11-.12.56-.27.39.36-.74.55-.19.33-1 .17.55.63.55 1-.21.69.43.12.18 1.16 1 1.61.31.27-.61.34-.1 1.3-.44 1 .2 1-.27.34-1.15-1.48-.28-1 .14-1-.31-1.33-.1 1.2-.17 1.33.58 1.57-.1 1.47-.31.75.51.89-.28.31-.82-.17-.41-.68h-.75l.51 1.74-.07 1.13.27.27v.61l-.85-.1-.51-.58-.34-1.41.31-.44v-.92l-.41.51-.65.1-.38-.55V238l-.51.31-.07.69-.2-.31v-.58l-.31-.86-.58-.14v.38l.34.44-.27.55-.58-.41-.44-.14-.1-.75.1-.82-.51-1.44v-.58l-.24.82.07 1.4.24.89-.51.55-.65-1.54-.65-.65v-.44l-.65-.14-.44-1.47-.41-.38v-.51l-.41-.68-.48.27-.07.41.44 1.09.07.75-.41-.41-.07-.62-.48-.41-1.06-.51-.62-1.19-.07-.89-.92-.21-.38.62-.62-.34-.1.79.24 1.16 1.3 1.09v.44l.1.65.1 1.13.38-.07 1.09.21.58.79-.24.51.41-.07.62.14-.51.68h.85l.31.62.48.89-.17.79.75-.1.5.21.22 1.06-.75.84h.5l.24.6v.46l.79-.77.22.22-.12 1 .27.36.38-.22.27.53-.26.58-.7-.19-.38.41.36.6.57.65v.53l-.2.24zm-79.21-23.43a3.43 3.43 0 0 0 .42 0l.19-.81.45-.17.32.24.6.34h.74l.36-.21h.45l.51.34.14.55-.7.93.15.75-.55.75v1.27l.2.38.51-.26.34.26h.69l.51-.34h.77l.22-.38.68-.39h.65l.77-.72.26-1 .62-.55.46-.72h.41l.43.43.68-.5.46-.29.56.09.34-1.22-.09-1.15.8-.55.31-.6h.58l.43.39.44-.48.53-.22.46.24.12.75-.6.51-.39.51.74.46h1.34l.63.24.21.67-.56.87-.58.17-.05 1.12.58.27.38-.26h.63l.29.28.56-.12.27.58.84.05.51.48h.53l1.15.69.41-.26.51-1.08.53-.19.74-.77h.79l.19-.44-.58-.28-.44-.58.56-.19.29-.55-.56-.24-.36-.74-.34.15v.57l-.36.26-.38-.24-.8-.38-.05-.6-.32.15-.62.67-1.46-.05-.62-.51.82-.5h.62l.69-.51v-.65l-.29-.27-.08-1 .31-.56v-.48l-.51-.46v-.63l-1.24-1.38-1.16-.48-.1-.41-.31-1.09h-.65l-.24-.58.23-1.08-.31-.68h-1.16l-1.53-.62-.44-.92.38-.48v-.48l-.72-.55-.2-.65-.31-.07-.85 1-.17.82-.51.44-.41-.38.07-1.16-.41-.89.14-.55.48.1h.65l-.24-.61.17-.75-.24-.86-.82.21v-.61l.68-.89-.44-.2-1.81.75-.92.78-.72 1.81-.85 1.26v.68l-.58.79-.07.58-.92 1.5.34.65-.51.27-.24.85-.07.75-1.19 1.06-.41.79v1.3l-.24.51v1.37l-.55.58-1.16.1-1.54.62v.85l-.48 1.61.17 1zm7.69 13.8a.83.83 0 0 0 .21.27l.38-.17.82-1 .61-.1.44.14.14.51h.68l1.3-1.09.68-.21.82-.54.75-1.13h.79l1.09-.79v-.65l.75-.89-.34-.28h-.86l-.41-.27-.62-.01-.72.38-.38-.27-.48.17-.58.69-.75-.38-.27-.85-.34.2-.85.24-1 1.23-.07.44-.38.48-1.67.44-.17.58.41.38.27.92-.27.68v.85zm76.49 6.17l.21.17h.74l.82.77.43-.27.15-.63.26-.36.05-.46-.51-.19-.63.29-.84.22-.67.43zm-23.89-6.38l.2.27 1 .29.15.5-.07.26.05.68.58.29.36.27.56-.05.17-.27.17-.1v-.57l-.58-.53-.62-.29-.21-.22-.84-.48h-.63l-.27.05zm22.95 12.43l-.87-.67v-.57l-.39-.34v-.45l.41-.38.43.6.14.43.41.53.09.7-.21.14zm-.89 2.88l-.34-.34-.05-.53-.44-.34-.5-.1-.58-.69v-.5l.39-.09.45-.26 1.4.22.91.53.05.38-.45.33-.09.53-.34.31-.21.5-.21.05zm-23.58 14.3l-.14.46.27-.24-.14-.22zm.5.14l-.22.48h.24v-.46zm.53-.14l-.26.5.19.79v.4l.31-.09.1-.82-.31-.77zm6.27-7.08l-.15-.53.29-.79.39-.44.07-.43 1-.81 1.08-.12.1.34-.08.5.24.15v.43l-.7.51-.34.51h-.62l-.87.69h-.36zm-20.64-23.42l.74.52.63.67.7.1.94.34-.29-.38-.75-.38-1.06-.84-.58-.12-.33.08zm-7.1-6.39l.19.28h.55l.32.29.43-.21.09-.31.29-.09.1-.45-.51-.33.43-.31v-.24l-.79-.65-.7-.07-.09-.31-.24-.26-.45.05-.43-.26-.6.15-.22.24.22.57h.27l.38.22.27.48.43.5.07.68zm-4.91 2.3l.72-.12.44-.29.51-.09.41-.29v-.48l.09-.34-.05-1.22-.45-.24-1-.09-.48-.44-.58-.6-.31.27-.82.05-.43-.24-.17.48.17.81.69.55.39.94.32.29.14.72.39.33zm-.77 4.1a1.3 1.3 0 0 1 .14-.32l-1-.22-.21.14.24.34.82.07zm-10.56 7.3h.26l.26-.38.12-.36.33-.45.07-.41-.22-.21.15-.41.82-.68.55-.77.5-.12.19-.22v-.34l-.1-.55.43-.46.39-.6-.17-.5v-.56l-.29-.31-.46.21h-.41l-.59-.5-.33-.14-.38.51-.89.86-.38.09-.55.55-.17.84.2.68-.56.38-.24.55.1.82-.39.55.26.34.68.12.26.58.33.19.17.72zm-9.51 39.65l.2.43.22-.22-.14-.27-.29.07zm.58 4l.62-.79.21-.74.27-.07v1.12l-.68.51a3.11 3.11 0 0 1-.38 0zm-5.56-1.23l.43-1h.65l.27-.27h.33l.67-.41.43-.34-.56 1.1-1.22.82-.75.27-.24-.19zm3.82 1.73l1.09-1.51.24-.62.32-.07-.07.6-1.2 1.42-.31.7.53-.38 1.06-1.3.38-.34.15-1-.38-.43h-.31v-.64l-.69-.36-.32.46-.41 1.3-.68.67-.72.48.17-.62.75-.69.27-.82-.17-.27-.6.45-.56 1.13-1 1-.14.5-.69.84.22.58.34-.08.93-1.25.48-.14-.24.6-.62 1 .31.1.63-.39h.5s.68-.91.7-.87zm-.89 0l.14-.7 1.27-1.29-.53 1.13-.57.77-.31.09zm63.92 65l-.38-.05-.19-.35.33-.17.21-.57.71-.58v.12l.06-.24h-.18l-.82.68-.52.77.25.52.3.12.17-.2zm23.39 4.23l-.23-.54.22-.64-.15-.73-.27-.63.29-.4.33-.33-.05.33.31.37v.55l-.31.29v.43l.27.27.18.39-.32.61h-.23zm.83.42l.12-.48.38-.12v.44l-.31.45-.22-.29zm9.22-33.3l.37-.87.57-.45v.59l-.25.62-.46.3a1.43 1.43 0 0 1-.21-.19zm-2.8 6.9v.51l.27.14.17-.19h.31v-.5l-.32-.09-.44.14zm4.87 8l-.2-1v-.25l.33.08.2.26.22-.16.42.29-.01.46-.54.43a4.66 4.66 0 0 0-.5-.05zm-2.27-.21l.49.21.32-.09.22-.51-.1-.22.18.05.13.52-.4.67-.69.33-.39-.27v-.39l.18-.23zm-7.6 12.24l.24-.45.23.32-.2.23-.27-.09zm10-2.79v.34l.46.2h.74l.12-.32-.92-.28-.4.05zm-10.68-18.06l-.43.52-.84.62-.5.27.14.24-.24.32-.38.09v.46l.39.22-.34.31-.6.05-.44.67v.36h.24l.27.15-.48.27-.53.09-.53.8-.22.56-1 1.47v.48l.36.38v.48l-.31.05-.2-.26-.27.07-.86.41-.32.62.05.38.5.09.34.32-.31.26-.1.48-.53.41-1-.29-.22.27-.05.43-.55.57-.48 1-.44.64h-.29l-.05-.69-.29.65-.38-.6.12-.39.55-.39.19-.44-.22.26-.67.48-1.09.65-.48 1.06h.34l.67-.21 1.32-.15h1l-.63.63-.87 1.1-.55.89-1.08.57-.89.81h-.55l-.19.48.21.5-.19.69.15.36.51.07.92.29 1-.15.65-.52.79-.1.62-.53.17-.38.08.29-.44.65 1 .19.72-.27.33.46 1.23.07.75-.21.15.33.34.38.84.05.29-.12.17.27h.55l.39-.27v-.29h.74l.26.26.39-.05.29-.34h.52l.45.22.17-.41-.09-.39.05-.7.26.28.31-.53.32-.1-.22.22-.24.91.17.21.21-.46.51-.55.21-.05v.57l-.31.5v.36l.58-.14.24-.07-.05.19-.92.58-.87.36.26.19.26-.15h.53l.17.27h.53l.22.27.34-.26.55-.14.29-.65-.1-.5.39.26.78.11.38.41.51-.12.46-.29.63.09-.53.34-.05.31-.8.34-.79.09-.44.49-.05.36-.26.12-.14.37h-.62l-.32.12-.21.33-.32.29-.82.21-.68.53-.12.36.17.25.19.31h.6l.26-.36.29-.31.36.1v.39l.29.27.68-.26.41-.45.27-.53h.21l.19-.51.12-.6.34-.12.81-.91.39-.24.39.29.62-.05-.42.38.5-.05.41-.29.36-1.06.44-.93v-.89l.21-.27h.27l.34.32.31.07.34.31.1.93-.15.55-.14.67.24.45-.2.5-.7.58-.51 1.35v.62l-.27.26v.55l.45.15.68-.41.63-1.22h.34l.65-.77.34-.5.14.29h.75v.33l-.56.12-.8.84v.56l-.19.63.21.31.1.84.46.41.14-.64.41-.44h.43a2.51 2.51 0 0 1 .39.62l.41.14.63-.41v-.52l.28-.05.17-.46v-.6l.2-.07.15-.41-.24-.48.19-.75.79-1.08.48-.75-.05-1.37-.1-.5h-.26v.34l-.33.72-.65.43-.57.65-.39.12-.29-.58.12-.67v-.74l.81-.62.17-.33.7-.65h.24l.34-.19-.19-.46-.41.36-.33.07-.58.31-.53.1-.58.53-.12.48-.94.74-.07.34-.46.32-.65-.56-.07-.48-.22-.55-.07-.55.34.52.31-.05.55-.84-.36.09-.7-.26h.46l.7-.07-.75-.15-.38-.34v-.51l.26-.17h.8l.24-.19.7-.58.31-.79h.72l.22.26.88-.53.27-.6v-.67l-.24-.48-.6.65-.48.31-.14-.31-.51-.09v.4l-.09.62-.36.19h-.38l-.6.45-.44.27-.05.48-.32.15.15-.39.05-.57-.31.31-.48-.07.48-.26.46-.48.22-.27-.34-.21.39-.34.27-.67-.32-.15-.36.41.19-.5.07-.51-.3-.1-.56.2-.88-.14h.86l.24-.22.8-.16.62-.29.29-.34.45-.1.46-.31.05-.6.34-.32.1-.46-.56-.33-.79-.75-.77-.07-.8.19h-.38v.46l-.34.67-.17.75-.51.38.32-.41.12-.77-.21-.29.22-.46.33-.65-.29-.07-.65.5-.33.5-.51.33-.27-.27-.26.31-.5.19-.29-.31-.62.41-.14.91-.63.45.46-.5.19-1.15.51-.87-.21-.12-.51.22-.24.46-.51.53-.17-.33.32-.33.12-.5-.08-.19-.6.12-.77.7-.32-.09-.26-.74-.22-.09-.7.58-.36-.07-.05-.22.77-.51.5-.77.21-.62-.31.07h-.36l-.65.51.27-.59.74-.62.79-.05.36-.22.69-.15.41-.46v-.38l-.26.14-.81.24-.48-.15-.7-.55-.38.09-.38.27.36-.81.26-.24-.05-.19-.5.12-.58.45-.38.58-.58.62-.46.29-.17.51-.67.43-.51.56v-.75l.14-.62.43-.67v-.45l.38-.79.6-.62.05-.38.43-.41.29-.31.41-.79.55-.38.36-.53.46-.15.12-.31v-.41l.29-.51.26-.56-.05.51-.12.41.26.4.55-.89.87-.87.24-.5-.31-.43h-.32l-.41.33-.14-.67-.29-.28.22-.43.48-.12.69.15.69.39.38-.19.32-.51v-1.18h-.63l-.53.22.07.32h-.41l.05-.48-.1-.33-.41.26-.46.48h-.58l-.32.41-.56.43h-.77l-.7.6-.84.62-.09.72-.48.1-.41-.12-.1.15.24.29v.37zm-30.43 8.73l.5.07 1.8 1.34h1.33l.94.22.7.55.67.09.87.38 1.13-.38.12-.55-.53-.5-.24-.45-.5-.41-.63-.21-.75-.89-1.06-.79-.41-.07-.91-1-1.13-.43-1.25-.1-2.19-.75-.84-.36-.94.53.41.82.92.43 1.58 1.2.19.86.26.39zm.34 21.63l-1.11-.51-.26-1-2.14-.26-.6-.29-.09-.53-.43-.48h-.38l-.34-.58-.55-.19v-.72l-.43-.39-.51.1-.27-.34.38-.75 1.75-1.23.19.82-.6.6v.34l.36.48v.81l.74.41.14-.6h.7l1.2.94h.51l.45.43h1.37l.36-.43.82.24 1.37.05-.41.31-1 .19-.29.87.14.58-.34.93-.68.26zm6.86 3.19l-.34-.67-1.46-.69-.1-1.28-.33-.62.36-.69 1.32-.75 1-1.47.44-.46.46-1 1.11-.87.41-.74.7-.12.09.4-.43.67.82.08v.62l-1 1.77-.63.58 1 .34.38.68-.44.62.32.39.56-.38v-.7l.55-.15.92.32.19 1.06.24.39-.89.29-.48.39-1.32.17-1.45 1.08h-.84l-.35-.5-.35.15-.18.87-.27.19zm-73.44-57.27l.07 1 .24.31.22-.45v-1.1l-.27.17-.26.07zm-.2 10.72l.32-.74.69-.15.33-.29.24.75-1.06.58-.51-.15zm-8.75-7.54l.94-1.15.77.14.05-.67.48-.38h.89l.22.39.77-.09 1.1.93.2 1 .24.43-.2.7-2.22-.45-.77-.5h-.84v.58l.09.33-.51-.48-.08-.45-.82.09-.29-.39zm-194.06 3.83l1 .79.85 1.23-.27.48-1.37-1.23-.24-1.26zm-1.69-2.13l-.2-1.37.68-.21-.48 1.57zm-5.21-4.53l1.33.58-.07-.72-1.26.14zm-7.91-3.48l.41 1.3.41.07.41 1.16 2.33.27-1 .55-1.16-.07-.69 1 .55.34-.51 1.15.27.31 1.09-.38.14.89 1-.07v.92l.92.65 1-.55-1.17 1.5.58 1.16.68-.24.1-.85 1.23-.34-.31 1.08-.79.72.07.79.48-.17.27 1.13 1.64-.17-.1.79.62.1.34.89-.31.89 1.06 1 .72-.65.44.48h.85l-1.33 1.4 1.76 1.8.61.17.38.68 2.9 1.67.48-.34.85.1-.65-2.43.17-1.23-.34-.75.21-1.85-.79-1.09-2.15-1.47-.21-2.73-1.1-1.73v-1.64l-.51-.55-1-.14-1.67-.89h-1l-1.06-.41-.41-.82-1.5-.82-.68-.82-.24-.89-1.09.07-.58-1-.85-.2-.38.34-1.4-.1zm8.58 2.08h.62l.27-.38.58.41-.72.65-.82.07.07-.72zm-.89-.75l.58-.72.38.82-1-.1zm-5.42-20.91v1.2l.5-.43-.5-.77zm2.48 9.79l-.05-.77.43-.27.26.38-.34.65h-.29zm-.21 3l-.65.68.07.85.51.58.27-1.3-.2-.82zm.78-1.09l.62-1.16-.38-.41-1.13.65-.2.92.41-.07.68.07zm.89-1l1.13-1.61h.72l.68-.82 1.3-.44-.14.51-1.4 1.3-.72.1-1 .92-.55.07zm-.72-5.09v-1.06l.62-.85.31 1-.51.38v.31l-.41.27zm-2-.27l1.09.51.38-.55-.31-.55-1.16.58zm-1.37-2.84l-.12 1.73.58.41v.68l.55-.89-.38-1.06-.65-.89zm.75-.82l.75.14-.24.62v.72l.72.14.92-.92-.42 1.05.14.89 1-1 .17-2.22-1.06-.58-1 .24-1 .92zm0-2.12l.65.72.24-.55-.38-.55-.51.38zm1.75-1.53l.38-1.1 1-.55.46.07-.31.77-.91.34-.6.46zm-5.74-2.74l1.95 2.29.72 1.37-.41.79-.72-.31v-1.06l-1.4-1.54-.41-.92a2 2 0 0 1 .27-.62zm1.84-1l.1 1.2.68 1.13.14 1.33 1 .79.14-1.5-.88-1.81-.44-1.26-.44-.14-.27.31zm-1.67-1.3h1.37v.51h.68l.5-1.07-.82-.65-1.16.51-.55.72zm-10 .58l-.24-1.67 1.47-2.46 1.5.44-.24 1.16.55-.24.62-.55.65.31v.62l-.1 1.09-.82.79-1.78.68.55.44.14.51 1.06-.24.61-1.47 1.16-1.4 1.47-.72.44.1-1.71 1.91-.3 1.56-.85 1-.1 1.57-1.06.85h-.85l-.68.79h.79l.58-.34 1.09.13.1 1.13H13.3l-.58 1.16.31 1-.17 1.33.51 1.61.27 1.2h.68l.41.58-.51.79-1.23-.27-1.53-3.14-.14-1.33.27-.65-1.09-.2-.27-.82.38-.69 1.09.14-.85-1-.58-.24.55-1-.72-.82.14-.51.78.1.44.33v-.82l-.62-.75-.79-.17-.07-.85.55-.92zm11.41-4.92l-.17-1 .72-.44v.89l-.58.51zm96.56-144.58l.58.48.43-.21v-.43l.44-.24-1-.12-.39.51zm-9.02-9.08l.58.33.89-.5v-1l-1 .57-.43.65zm-33.39 2.86l.46.29.51-.75-.41-.14s-.57.62-.57.6zm-.15 1.63l-.22-.46.48-.22.26.46-.51.22zm-1.71 2.89l.07 1.47-.55.79.17.86h.92l.65-.55.82-.07 3.18-2.63 1.4-.75.62-1.16-.58.31-.51-.41-.2-1.64-.68.1-.58 1.16-.92.38.17.75-.75-.07-.34.31-.34.82-.44-.82.38-.48-.58-.55-.58.72-.34-.2-.44 1-.51.62zm-3.42 2.9l.31-.85v-1.91l-1 .89-.17.85-.38.31.34.31s.75.38.85.41zm.21.65l.62-.34.31-.61-.44-1 .07-1.77.55-.58.48.34.14-.61.51-.24.41 1-.19 2.32-.48.72.41.75-1.26.65-1.16-.58zm1.47 4.82l.51-.82-.52-1.57v-1.47h-1l-1.23-1.2-.55.1v.65l1.74 1.47-1.23-.17v.55l1 .79 1.33 1.67zm-10.6-17.19l.7 1.08.6-.19.87.5.34-.24-1-1.32-.92-.32-.62.5zM42.09 320.33l-.72-.14-.31-1.61.89-1.91.27-1.2-.58.55-1.09.38-1.16.65-.85-1.23v-1l.51.1.34.79.44.1.07-.55-.45-.79-.24-.79h-.68l-.62.41-1-.48-.68-1.23v-.44l1.2-.82.51-1.13.62-.62-.27-.27-.89.27h-1l-.24-.38.68-.72.82-1.26v-1.33l.38-.48v-.53l-.58.17-.38.79-.12 1.65-1 1.42-.58.1-.55-.38-.51-.19v-.48l.32-.41v-.43l-.77.5-.43.58h-.29l-.24-.53-.51.14-.5.41-.65-.36v-.34l.67-.74.77-.05 1.12-.3 1.23-.89.44-.89v-1l-.14.82-.85.58-.55 1-.51.34-1.3-.44-.27-.68-.82-.07v-.32l.68-.27-.37-.34-1.2.24-.75-.41-.65.07-.17.72-1.09-.75-.44-.92.34-.34.58.44 1.09.27 1.09-.21.07-.48-.51.07-1.25-.09-.31-.24.17-.24.82.2.92-.2.14-.41H29l-.61-.38-1 .24h-.65l-.44-.37.21-.82.85-.2.58.41.92.07.55-.51h-.95l-.68-.38h-1.13l.1-.34 1.33-.34.51.24.58-.17-.17-.44v-.48l.55-.51h1.2l.82.17.27-.27-1.47-.2-.44-.48-.44-.14-.48.75-.85.41-.62.44-.31-.27.07-.68-.14-.68.34-.75 1.2-.58.51-.65 2.19-1.61.68-.34.38.58v1.3l.51.75.31-.24-.31-1.16v-1.37l.89-.38h1.06l-.85-.27h-1.11l-.65.21-.45-.55.24-.61 1-.38 1-.68.72-1.2-.36-.65-.31.17-.24.82-.79.72-1 .07-.89 1.2-1.33 1-1.33.48-.65-.82.2-.44.75-.2-.72-.17-1.33.48-.48-.44.21-.44 1.16-.79.79-.38.79.14.31-.38v-.44l-.55-.41.17-.38.44-.41-.38-.38-.75.41h-.44l-.34-.75-.14-2-.44-.65-.07-.75.34-.68 1.2.1.89.41 1.16-.07 1 .51-.34-.51-.75-.24h-.89l-.65-.68-.79-.62v-.44l.58-1 .51-.2.44-.85-.07-1-.38.1-.85 1-.82.58-1.43.44-.72.75-.17.72-.55-.14-.68-1.37-.41-1.4.21-2.43.34-1.54-.14-.61-.82-.1v-1.33l.68-.44.44.41.51.2-.21-1 .92-.75.48-1.26.75-.17 1 .17.51-.44-.62-.07-.1-.31 1.3-1.47.51-.82 1.3-.75.1-.44-.62-.14-.17-.48-1.16 1-.17 1-1.57 1.78h-.31l.1-.65 1-1.33.17-1.54 1.23-2.32.44-1-.26-.13.05-.29v-.72l.32-.15v-.44l.21-.38-.21-.51-.5-.24-.05-.94-.48-.93-1-.7-.62-.46-.21-.63-.89-1.2-.65-.26h-.8v-.34l.31-.46-.12-.68-.43-.4-.21-.55.53-.46.32-.12-.12-.41-.55-.36h-.5v-.55l.77-.53-.17-3.47v-3.35l.34-2.73-.27-.82-.1-.85.44-.89-.14-.85-.44-.75-.17-1.71-1.06-1.2-.34-1.74.24-.82-1-2.73.4-.69.72-1.26-.24-.72v-.89l-1-.79-1.44.1-1.64.48-.38.24-1.71.55-1.06 1.06-1.33 2-1.13.62-1.57.2-1.81.31-.34.07v-.75l.85-1.26-.48-1.23-1.44-5.48-.85-2.46-.38-1.16 1-2.08-2.36-.31-1.81 1-1-.51H-.05l54.94-100.24.22.61h.55l2.67 1.95h.82l.85.75.34.68h.38l.92.72v.8l1.06 1.13-.2.55.14.31-.4 1.01.38 1 .44.2.34-.44.27.17v1.47l.34 1.4 1.57 1.64.88.66.34-.27.61.38.14.79.61.31.24-.07 1 1.44.1 1.23.55.24.41.75h.68l1.06 1.44v.66l.48.24-.17.72-.94 1.04-.58.85 2-1.71.72-.38.44.17.24-1.26-.17-2.63.1-1.54.51-.89 1.57-.51 1.23-.68.75-.68.89-.24.44-.61.65-.1.68-.34h1.09l.24.14h1l.41.34 1.2-1.33.44-1 .62-.1.82.2.51-.34-.14-.38h.68l.44.51 2.7-.24 2.22-.72.82-.55h.44l.48.75.62-.34.34-1 1.57-.68h1l.27.37h.48l.24.51.79-.17v-.65l.31-.48.68.41v.89l.45.41-.38.44h-.44l-.24.89-2.12.58-1.85.55-.62.82-1.13.31-.75-.1-.68.51h-.48l-.34-.65-1.47.68-1.44-.07-.27.34-1.67-.14-1 .41-.72 1.09-2.19 1-.14-.41-1.13.82-.17.68-.72.34-.48-.48-.89.75-.58.92h-.65l-.48.79.82 1.06.92.48-.95-1.09.14-.34.89.27.48-.34.82.27-.34-.82 1.16-1.23 1.57-.41h.89l2.46-1.57.21-.75.75-.21.62.69.61-.48.69-.14.14.41 1.44-1 .34.55-1.15 1.58.14.75 1-1.64 1.51-.34 2.74-2.05h1.44l1.09-.68 1.71-.07.82-.48h.82l-.27 1-1.23.41v.75l.75.55 1.16-1.3 2.19-1 .48.07-.07-.61.89-.69.75.34.07-.75.27-.55.62.62.75.2.21-1.44-.41-1 .48-.55-.55-.62.82-1.23 1.37-.55v1.23l.27 3.63-.55 1 .14 2.94-.82 1.71-.07 4.24.41 1.16 1 .34.62 1.37 1.51-.82-.48-.69h-.89l-.27-.62.89-.55.89.34.27-1-.55-.21 1-.82 1.23.07.14.75.75-.69-1-1.78.89.14 1.78-1.09v-.75l1.09-.27.2 1.1v.68l-.89.85.12.5-.92.77-.12.57.36.38.7-.21.24.51-.22.38-.72.34-.84.86-.56-.09-.32.46-.69.89.55.55 1.37.21.76.48.89-.07.82-.75 1-.21 1-1.71 1.09-1.09 1-.34.62.55 1 .14.75.62.82.07 1.16.89h.82v.89l.82 2.26v1.23l1.09 1.64 3.83 2.39.27.89 1.31.63 1.4 1.5h.48l1 .65.23.82.58.38.48-.44.31.58 1.4.92h.79v.92l.65.85.34-.85-.41-.58.2-.51-.85-.72v-.55l1.36.72.31.72h.41l.27-.72.38-.1 1.26 1.23.2.65.62.27.51 1.2.48.82.1 1.16.44 1.09-.44.92-.1 1.06-.85 1-2.08-.75-1.16-.1v.38l-.41.31-1.2-.48h-.79l.24.72-.79.55-.1 1-1-.1-.85.31.34.48.92.41.27 1.06.79.65.58-.38 1.09.89.07.82h1.3l1.47.89 1.57.1 2 .89 1.2.07v-.51l.48-.07.85.48-.07.75 1.37-1.09.47.4.58-.07.65-.75h.41v.44l.51.2 1.5-.79 2.6-1 .79-.17v.89l-.24.48v.34h.45l.07 1-.13.72.24.51.31.21.55-.58.58.51-.14.82-.61 1.5.2 1 .27.21.68-.68.14-1.16.34-.58h.25l-.1 1.26-.65 1.54-.68 1-.07 1.67.65 1v1.64l-.34 1.16 1 .72v.58l-.41.79.41.48.51 1.4.17 2.94.07-2.94-.56-2.18.27-2 1.09-2h.65v.85l-.34.14-.14.75.34.24.62-.41.24.38.41-.44v-1l-.55-.85v-.55l.89-.24.24-.48-.85-.68.07-.65.44-1.78.82-2.39-.2-.7v-.8l.62-.48 1.33-.14.07-.31.41-.55.65-.1.41.48.68-.31.58-.79h.44v.65l.48-.24 1-.17.48-.92h.55l.3.68.44.1.24 1.2v-1.2l-.31-1 .75-1.43h.65l.43.33h.79l.51-.34.58.44 1.06-1.16-.34-.62.62-.65-.85-.07-.1-.27h-.72l-1.91.68-.55-.07-.27.65-.82.07v.58l-.21.48-.79-1 .1-.75-.55.44-.2.82-.65.27-.89-.58h-.72l-.14-.44-.61.17-.1.55.65.65v.55l-1 .31-.27-.44-1.26-.17-.17-.48.58-.51.27-.85h-.38l-.55.34-.72-.38.37-.75.85-.51 1.2-1.71h.85l1 .27 3.45-.14 2.43-.75.65.14 1.2-.41.44.68.58.51h.44l.27.75-.17 1.91-.24.61.44.27-.14.38-.75.48.1.34.34.27.24 1.85h.72l.58.27v.48l-.75.55-.07.72-.38.61h.92l.85.38.17.34.38-.1.65.72h1l.82-.48.34.2-.07.65.24.27.44-.17.48.58-.24.44v.58l.41.17.17.58 1.3 1.23v.68l1-.72.34.27.14.82.24.1 1 .82 1.06-.55 1.57.07.48-.75 1.26-.68h.27l.27.55 1.84-.1 1.57 1.23.72.2.72.68.41-.34 1.71-.38.62.82.48-.31-.14-1-.72-.82-.27-1.3.34-.41.55.1.51 1.54.24 1.23 1.3 1.57.65.51.31 1.06.07-1.95-.48-.65-1.3-.55-.31-1.37-.4-1.8.24-.65.38.1v.61l.38.38.51-.41v-.65l-.41-.79.31-.51-.27-.51.17-.58h.72l.51.72v.62l.41.24.17-.38 1-.55.34-1h.82l.44.78-.31.55v.55l.24-.61.48-.14.72.61-.14 1.06-.31.61.55.65.75-.2.61.34-.24.75-1.09.44-.17.38.65.27 1.06-.72.58-1 1.16-.31 1 .1v.38l-.65.2-.58.51-.1 1.13-1.4.85-.1.58-1.37 1.26v.61l-.38.51-.21-.79-.58.85-.38 1.57.1.55.75-.38h.55v.85l-1 .68-.07.55 1.26-.38.65-.62.68.07-.61 1-.65.48.58.17.75-.31-.41 1.2-.1.75-.65.55-1-.41-.44-.85-1.13.55-.41-1.3h-.38l-.31 1.3.61.92.38 1.23-.34 2 .82-1.88-.27-1.47.58-.51.58.58 1 .07.79.58.65-.55.1-1.06 1.23-.38.82-.92h.92l.65-.85-.79.55-.92-.14-.44.68-.61.27h-.32l.44-1.06.6-.48-.35-.59v-.65l.54-1.37-.07-.68-.48-.55.31-.41.78-1.2.34-1.2 1-.79.27.38-.24.41.55-.17.51-.75.24.44h.38l.27.48.85-.17.55-.79 2.15-.89.44-.82v-.48l.58-.17.89-1 1.33-.14.65-.75-.07-.58.08-1 .65-1.13.17-.85-.34-.44-.54.41-.75.14.17.38-.44.79-.89.17-.48-.38h-.61l-.21-.34.65-1.23h.58l.55-.68 1.23-.55.07-.61-.51-.44.82-1 1.08-.24 1.06.31-.79.51-.14 1 .31.21 1-.48.82-1.78v-.75l-1-.24h-.82l-.58-.44-1.33-.31-.53-1.31.2-1.06-.68 1h-.52l-.48-.85-.85-.51-.24-1.06-.43-.24-.68.1-.2-.75-.31-.41.44-.79v-.75l-.38-.89.14-2.29.65-.78 1.57-1.4.92-.36h.77l.09-.36.75-.6.09-.57h-.51l-.75.48-.48-.22v-.58l-.34-1 .14-1 1.2-1.33.75-1.67.58-.24.65-1.23h.61l.68-1.06 1.13-.48.65.55-.34 1 .51.51-.21.68 1-.51.14-.62 1.09-1.64v-.41l-.75-.1-.79-.34-.62-.85.82-.75h1.26l.34-.55 1.3-.85v-.79l.68-.34 1.06.38 1.54.34.1.89-.2.41.58.24.75.75.72.48-.34.92-.44.21.17.82-.14.72.79.75.27.75-.17 1.64.58.41v.48l-.68.92v.72l-.72 1.09v1.2l-.48.31.44.85-.34.92 1 1.13v.75l-.27.34.27.82-.27.85v.65l.61.17.62.85-.1.79-.68.62-.58-.31-.82.17-.48-.89.31-1-1.09.48-.44 1-.82.34v.41l1.2-.31.46.63-.14.48-2.53 1.78-.65.1-.14.51-.58.27-.24.92.48.51.92-.24.58.21.1.89.85.85 1.2-.38.17-.72.72-.17.26.39-.44.38v.27l.82.31.58.61.85-.65.65.38-.62.68h-.89l-.95 1.12-.34.31-.2-1.13h-.44l-.38-.21v.48l.51.85v.72l.87 1.39-.14 1.13.15.21-.1.94-.65.4-.05.91-.14 1-.91 1.13.24.51.07 1-.58.28.09.63h.56l.75-.85.34-.65 1.2-.62.21-.41-.17-.27.55-.65.55.44.44-.44v-1.64l.21-.92 1.2-1 1.09-1.67.34-1 .41-.07.41.41.17.85.74 1.64.17 1.23.83 1.07v1l-.34.89.31 1.91-.58 1-.68.31-.55-.48-.55.48-.41.82.24 1-.68.85-.41 1.16.31.61v1.57l.75 3.28.72 1.37-.27.92.72.72h.68l-.17-1.16-.31-.34.68-.68.58-.07.48 1.13.48-.1.21-1.06.68-.75.14-1.47.75-.34.89-1.23.34-.07.51-.82 1.67-1.23 1.13-1.91.82-2 .79-1.67.89-.65.68 1 .58-.55.51.38.89-.13v-.55h-.51l-.79-.79.38-.55 1-.14.51.45.41-.34.68.07.38-.27-.44-.89-.41-.07-.44-.82h-.51l.07-1.4.55-.62.1-.85h.65l-.48-.75.1-.62.68-.72-.31-.34v-.27h.9l.31-.85-.72-.41-.24-.48 1 .14.41.68.72.07.61-.41 1.47.1 1.3 1 .1.48.41.58 1.78.89.82-.55.92.65 1.16.48v.51l-.48.31.55.61-.58.31-.65-.62-.65-.07.1.51 2 1.26.1 1-.79.31.48.27.82-.27 1.4.33.29.56.53.19.13.2-.58.93-1.47 1.15-.89.17-.67.32h1.28l.46.29.1.72h.34l.31.27-.58.92.34.34-1.13.75-1.3.45-.68-.14-.44.58-.72-.24-.75-.89h-.85l-.27-.48-.58.07v.75l-.41.27.79.17.58.48-.27.65-.55.58.79.07-.55.82.07.58.31.07.58-.58h.31l-.24.68-1.12.45-.51.8.18 1 1.09.82-.17.65 1 2-.1 1.24-.34.24-.14.68-1.26 1.09.24.85-.44.62-.82-.34h-1.47l-.65.44-.24 1.09-.88.62-.44.61h-.75l-1.36 1.39-.48-.17h-.79l-.48.92-2.29.65-.44-.41.34-.58-.31-1.04-.65-.72v-.51l.55-.21v-.75l.75-1.3-1 1-.34.1-.1-2-.44-.17-.55-.89-.89.51-.31-.31-.82.07-.85 1.3.44.1 1.23-.82.48.24-.07.82.82.38.58 1.43-.18 1.36.45.27.2 1.3-.37.58.31.34-.07.75h-.48l-1.5-1.3-.14-.79-.65-.24-.2-.75-.55.79.89.82-.21.79-1.09-.61-.72-.17-.17-.44-.65.31v-.65l.44-1.37.2-.24-.51-.24v-.44l-1.37.55h-1.16l-.79-.58-.79.14-1-.68-.17.72.27.58-.44.31.07.92.44.68 1.16.21.51.85-.75 1.3-.61.21-2.2 1.61-1 1.23-1.09 1.37-.68-.27-.72.48-.38 1.13-.85.34-3-.65-.65-.92-.41-1-1.47-.65v-.44h.48l.38-.31-.48-.51-.83-.33-1-1.88-1.16-.92h-1.91l-1.37-.82-2.19-.14-.85-.27v.65l.58.65.34-.44.58-.1 2.12.75h1.95l.62.41-.21.55h-.38l-.31.38.27.27.14 1.57h.41l1 2 .62 1.4 1.74.58 1.85.34 3.38 1 .14 1-.41.34-1.06.79-.85.44-1.34 1.78-.2-.38-.41.31-.14.58-3 3.11-1.23.58-.86 1.47-.82.17-.44-.34h-.55l-.2.51-1.15-1.4-.72-.31-.55.68-.24-.65-.38-.17.68-.92-.31-.24-.2-.48-.92.51-.72 1.88-.07-.85-.51-1.5-.41 1.33.48.58-.1 1.78-1.13 1.57-.62-.17-.21-.58-.68-1.13-.24.85.65.51-1 .51-.1 1-.34-.34-1-.34-.14-.68-.79-.51-.92-1.23-1.88-.68-1.78-1-.58-1.4-.75-.27-1.3-1-.44-.75-.07 1.4-.82-.2.51 1.37.82.72.31-.38-.38-.68.17-.41h.38l1.91 2 1.71 1.06.17.41-1.13.75-1.13.17-.61-.17.21.58v.31l.48-.24 1.84-.14 1-1 .44-.1.58.68.2 1.2 1.78 2.08-.15 2.18-1.23 1.3-.79.07-.55.44-1.09-.07-.79-.55-2.12-.41-1.23-1.61-.44-1.54-.68-.65-.24.38.14.62v.92l.82 1 .68 1.95 1 1.64-.55.48-.55-.27-.89.14-.31-1.23-.17.61-.38.27.31.58.79.34.27.58-1.67-.41-.41-.34-.07.82.55.48v.72l-.72.92-.17-1.09-.58-.1.31.41-.17.72-.31-.24-1.16-.07-.44.58-1.4.55.75.48.17.68-.41.17-.17-.41-1.06-.79-.75-.14-.07.58-.48.27 1.16.85-.41.51v.51h-.92l-.75 1.23-1.16.62.48.61-.24.55h-.61l-.55.72.17.79-.91.3-1.39 1.56-1 .27-.07.82-1 .89-1-.68-.07.55.48 1.1-.89.89-.34 1.71-.55.89-.41 1.23-.75.41-.69 1.91.38.45v1.37l-.85 1.47-.31.82-.85.28-.41.44 1 .21.24.72-.27.85.48.58v1.23l.38.2-.89 2.22-1.23 1.2-2.56.58-.38 1 1.26-1.06 2.19-.27 1.64-2 1.2-2.36 2.73-.1.82.38v.89l-.38 1v1.13l.49 1.22v1.91l-.72 1.84.58.82.34 1.84-.38 1-2.9 2.77-1.4.48-1-.17 1.06.44h1.4l3.38-1.09 3.42-1.13 1.67-.17 2.15 1.4 1.4 1.26 2 .62.55.48.92.24 1.5 1.54.72.31.75 1.4.82.51v.82l.61.68.65 1.61v.44l.65-.27.44.51 1.95 1.3.68.17 1.4 1 .72.24 1.64 1.4.17.68 1.2 1.16-.17.44.31.31h1.5l.44.17 1.06-.24 2 .07.48.44h.38l1.47.44 1.61.31 1.16-.38h.68v.34l.31-.17h.4l.17 1.4-1.17 2.38-.07.82-.65.89-.68 1.26.17 1.06.31.27.07 2-1.23 1.91v.82l-.38 1.23-.92.79-.51 1.88.41.79 1 .75v1.16l.72.38.55.79-.2.79.14.41-.07.68.89.34 1.13.58h.24l.14.65.58.79.17 1.5.24.61-.37 1.33-1.81 1.61 1.37-.68 1.16-.85 1.26.44.82.79.79.07.27-.79v-.82l1.61-2h.38l-.2.79.14.51.55.14.34 1.67-.17 1.3 1.09.85 1.61.17-.89-.41-.92-1-.17-1.13.21-1.47.48-.65-.6-.57-.07-.92.38.2.51-.17.44-1.36 1.13-1.09-.34-.38-.14-1.4-.55-.31v-1l.89-1.09-.35-.48v-.55l-.48-.17-.14-.62.75-2.32-.24-.92.24-1.57.51-.51-.21-.89.44-.31-.34-.78.55-.41-.51-.14-.31-.61.48-.27-.38-.72v-.85l-.41-.75-.1-1-.31-.51 1.26-.58 1.88-.31.92-.72h1.09l.51-.41 1.84-.92 3.06-1.06v-.34l.61-.58 2.22-1 .14-.82 1.09-.51 1.3-2 .58.07.44.44 1-.07.72-.79-.85-1.09-.07-1.2-.58.51-.21 1-.41.1.34-1.23.85-2.29.34-.38v-1.64l.14-1.16-.75-1.43.14-2.87-.31-2.53-1.45-2.29-1-.68-.27-1-1-.27-.27-.75.55-1.85.93-.4 2.49-2.6.79-.1.62-.72v-.65l-.34-.21v-.38l1-1.3h.51l.58 1.13.62.31-.34-.51.07-1.09 1-.44 1-1.81-.17-.61h-1.3l-.1-.41.85-1.09-.51-.41-.31-.68.65-.75.92-.31-1-.17-.07-.51.41-1.33.72-.44-.55-.1-1.57.14-.44-.21.07-.72 2-1.61 1.26-1.81.2-1.09.62.1.41-.51v-1.09l-.51-.2-.07-.41-.48-.1-.58-.92v-1.81l.65-1.4v-1.2l.75-.41.38.27h.55v-.58l.65-.65.58-.07.58-.24.58.38 1.57.1 1.59.87 2.12 1.16h1.16l-.27.89-1.23.48 1.57-.07 1.3-1 .89.07.48.55h.68l.68 1v-1l1.07.42.48-.55.75-.07 1.23-.75 1.64 1.3v1l1.09.89h.81v1.51l-.55.75v.69l.62-.41 1 1 .48 1-.75.21.82.62.68-.62.82 1.16-.14.55-.82-.62-.41.89h-.75l1.16 1.16v.89l.84-.8v.75l.75-.48 1.5 1.3.55-.2.34.48 1-.48 1.23.41-.21 1.71.48.75 1.1-.82.26-1.42.75-.07.07 1.64-.27 1.57-1.23.27-.89 1.37.2 2.33-.41.82-.2-1.23-.41.55-.27 1.44-2.05-.27-2.46-.75 2.17 1.13 1.78.34 1.28 1.08-.1 1.64-.82 1.2-.14.58-1 1.26.27.14 1.18 1.83.77.26-.48.21-1.64-.79 1.09 1.64.85.61h.31l-.31-1h.85l1 .82.51 1-.2 1 .07 1.06-1 1.61-.21 1-.68.89 1-.51 1.23-2.49 1.23-1.23.16.05-.14.92.1 1.91-.27.38.07.79-.38.92 1.06-1.2.14-1.09 1-.82.85-.1.82-.75.75.04.14.44.41-.48.85-.21.14-.89.61-.85 1.26-.92.62.62.27 1.37-.17 1.09.65-1.47-.07-1.4.41-.1-.1-.44.55-.89.79-.14.24-1.23.72-.48.58-.89.31-.61h.51l.79.82v-.58l-.41-.72h-.79v-.58l.59-1.46.48-.24.55.58-.07-.89.58-.41.1-.72 1-1.13.44-.79-.2-.65.82-1.09 1-.31.38.38-.75.65.77-.38.31.41-.58.41-.1.65.61.41-.55.75-.51.1v.2l.58.14.58.1-.27.79-.27.38h.68l.07.82-.61.41.2.93.86.8.07 1.18-.36.36-.46-.4-.63.26.63.56.2.57h.39l.6-.6.1.65.65.4-.7 1.16-.84.26-1-.19-.48.58.72.43 2.17-.6.72.15-.27.84-.83.95.68.31.79-.48v1.06l-.79 1.13h-1.47l-.68-.51-.38.65.2.65-.34.75 1.3-.58h1.47l1-.44.27.27-.55.62v.44l-.82.51h-.89l-1.31 1.76 1.5-.68h1l.68-.24.85.17v.85l-.75.1-1 .65-.27.92.58-.58.89.27.51-.58.89.82.44 1.57-1 .79-.65-.24-.48.41h-.92l.68.61.65-.13.41.27h1l.41.41-.27.75-.65.44.85.31.68-.14.89.79-.21.82-.72.38-1.16 1-.72-.27-.27.41 1 .32.07.58-1 .1-1.23-.72h-1.33l1.23.68v.89l1 .89.41.55-.17.44-1 .14-.38.55-1.3-.1 1.67.48.61-.14.1-.34 1.3-.27.51.1v.65l.38.44-.44.41.58.07.17.27-.17.72.27.34.89-.58.31.17.62.17-.07 1.2-.34.55v.44l.44-.07.92-1.26.21.14-.14.79.55.61-1.13.72-1.43 1.88-.82.65-1-.27.92.55.82-.24 1.74-1.67h.68v.51l-.79.58-.44.85.48.17 1-1.09.82-1 1-.17v.44l-.72.41-.41.41.31.2 1.26-.54.41.38-1.37 1-.58.72.44.1.75-.61 1.78-1.54.34.14-.48.41-.1.48 1.3-.89-.14.48v1.5l-.55.17.14.58 1-.14 1.1.74.72-.86 1.33-.34.61.24-.44.89h-.58l-.34.38 2.26.65.89.78-1.5.21v.34l-1.84.34-.38-.34-1.47.58-.79.85-1.81.07-2.46.44-.14.65 1.81-.41 1.81-.55.61.17.14.41-1.81.27-1.74.34-1.57.82-.62.58h-1.09l-.14.85-.38.48-1.67-1.13-1-1.71.08.79-.27.48.7.31.18.4 1.88 1.57-.28.58-.54-.17-.62.55.38.72.48.1.34-.41h.62l.79-1.64 1.4.07 1-.85.72-.07.38-.89.92-1 1.09-.14 1.5-.65 1.23.14 1-.07-.41-.27h-1.09l-.31-.27.68-.27 2-.24 1.61.41.68 1.5-.14.85-1.06 1h-.51l-.68.72 1.2.07.34.79.48-.44.31-.82 1.37-.72h1l.17.38-.34.14-.14.58 1.3.07 1.2.55.2.55-.85-.44-.45.14.24.85 1.3.55.24.68-.75.61-.75-.24-.75.68 1.4.45-.38.89-.61.2-.3.82-.75.39-1.13-.74.48.76 1.32.58.77-.07.67.75-.69.22-.85-.14h-.46l.65.53.77-.22.58.31-.48.89-.14.85h-.68l-.34.75-1.3 1-1.06.07-.92.78h-.41l-.72.75h-.55l-.21.51-.82.14-.51-.51-.68.41-.75-.1-.24-.34-1 .68-1.06-.14-.44-.68-.31.27.1.58-.89.2-1-.07-.31.38.38.14-.13.57-.7.65-.57-.09v.82l-.65 1.33-.75-.14-.27.41-.82.44-.61.92-.38-.14-.55.34h-1l-.2.62-.85.37-.62-.37h-1.5l-.38-.31-1.06.34h-.51l-2.15.75-.89-.24.2-.51-.68-.17-.85.34h-.72l-1.37-.61-.44.14-1.09-.14-.79-.58h-.48l-.65.51-1.4-.14-1.13-.72-.75.48h-.85l-.72-.58-1.06.58-.55-.17h-.61l-1.44-.58-1.95.31-1.16-.34-.85-.85-.75.38-.48.55.44.44-.41.41-.85.17-1.71 1.57-1.09.51-.07.72-.41.51-.14 1.16-.58.79h-1.43l-.75.38-1.64.1-.75 1.06-.55.13-.38-.38-.79.48-.38 1-.92.21-1 .75-.24.48-.51.17-1.13 1.71-1.88 1-.48 1.64-1.26.65-1.06 1.09-1 .24-.34 1.2-.65 1-2.19 1.3-.14.73-2.5 1.07-1.42.35h1.14l2.45-1.07 2.12-1 1.61-1 1.26-1.61 1.06-1.13.79-.38 2.36-2.19 3.21-2.22 2.12-1.37 1.37-.17 1.23-.72 2.43-.41 3-1 1-.07.92-.51 3.21.07 1.71.65 1.88 1.13v.44l-1.44-.27.1.2-.14.31.75-.07 1 .41.38.58-.58.24.44.34-.62 1.68-1 .24-1 .79-.75.07-1.26 1h-1l-.79-.65-1-.38-.69.44-1 .21-1-.21-1.26.58 1.33-.17 1.3.14 1.85.51.27.89.34.62 1.06-.48.92-.65h.92l.27.41.68-.07.21.62-.89.75-1.2 2.39-.58.1-.61.61h1.78v.44l-.55.79.65.72-.14.85.1 1.3.44.34.51 1.2h1l.41.38 1.37.07-.24.68-1.06.34 1.3.89h1.31l.89.41.41-.28 1.3.48.24.51 1.61.27.31-.44 1.37-1 .14.79-.24.38 1.16.17 1.61.82v.48l-.65.17-.41.1.89.51.92-.07.44.51-.75.34-.58-.24-.89.1-1.37.38-2.15 1.2h-.85l-1.64.44-1.47.34-1.47.82h-.75l.1.44-1.26-.14-.41-1-.44-.07-.34.55-.55-.07-.7 1.15.34.48-1.44 1.16-1.26 1.67-.92.17-1.06.82-.55-.07-.37.24-.1.85-.41.38-.48-.44-.51.38-.75-.55-.1-1.09-.48-.31-.48.31-.14-1-.31-.89.07-1.09.68-1.47 1.16-.92.17-.75 1.78-1 2-.51 1.57-1.09 1.5-.38.62.24.17.85.58.44-.1-.44.14-.55.92-.17 1.26-.17 1.06-.51-1.43.1-2-.17-.68-.45h-.89l-.61.79-1.09-.31 1-1.2.92-.21 1-1v-.51l-.61.34-.1-.55-1 1.44-.79.2-1 1-1.2.1-.34.58-2.12.55-.38-.24.2-.48h-.31l.58-1-.82.89-.48.89-1.13.27-.72-.34-.48.62-.55-.14-.21-.68-1.06.14-1.38-.3h-.05l-.22-.31.24-.41-.1-.44.1-.48v-.79l-.32-.49-.31-.55-.41-.1.24-.68 1-6-.07-1.54-1.84-1.78-.41.38-1.3-.34-1 .27-.67-.63-.57-.4-.29.09-.8.79-.36.75-1.69 1.88-.82 1.06.05.81-1.2.63-.15 1.06-.4 1.13-1.21 1.49-.6.21-1.52 1.65-.26.7-.55.38-.86-.26h-.6l-.43.33-.39.09-1.06 1-13.84-.24-1.66.25-.8.8-1.17.5-.93.77-2.12 2-1.3.24-.89.65-4 3-8.91 2.61-.39 2.33-2.06.67-16.29 4.38-.8-1.38.93-1.16 1.81-.87.74-1 .52-1 .47-1.15.4-6.34-3.09-14.54-2.89-2.31-1.23-1.5-18.93-8.89-.74-.51-1.13-.26-.5-.46-2.24-.14-.38-.87-.49-.45-.75.48h-1.54l-.72-.33-.65-.72-.94-.26-1.63-.52-.48-1.06h-.6l-1.11-.87-.89.08-.74-.24-.89.24-.38.1-.46-.62-1-.26-.15-.24-1-.33-.19-.15-.62-.67-.09-.35-1.06-.89h-1.09l-.9-.11z" fill="#00d5f3" fill-rule="evenodd"/></svg>