<svg data-name="Layer 20" xmlns="http://www.w3.org/2000/svg" width="40.214" height="46.904" viewBox="0 0 30.15 35.19"><title>etc</title><path fill="none" stroke="#bf3aa5" stroke-miterlimit="10" d="M22.52 34.69H2.96l-1.45-18.3H24.7l-2.18 18.3zM23.87 24.82h3.1a2.71 2.71 0 0 0 0-5.42h-2.28"/><path d="M10.08 13.51a3.2 3.2 0 0 0 1.77-3.12c0-2.62-4.21-2.68-4.21-5.89s2.15-4 2.15-4M15.28 8.32a1.2 1.2 0 0 0 .67-1.17c0-1-1.58-1-1.58-2.21a1.51 1.51 0 0 1 .81-1.51M0 34.69h25.54" fill="none" stroke="#70706e" stroke-miterlimit="10"/></svg>