<svg data-name="Layer 20" xmlns="http://www.w3.org/2000/svg" width="14mm" height="16.7mm" viewBox="0 0 39.7 47.35"><title>germany</title><path fill="#aa2358" fill-rule="evenodd" d="M11.05.06L12.3 0l1.74.48.51.24.84-.15.91.99.94.1-.5 1.08-.47.47.25.53.75.22.29.79.73-.54.25-.5.45-.27.36.51 1.2.85.24-.34.76-.58.37.21.02.8-.62.75-.58-.09-.84.58 1.2.36.43-.2.86.09.3.52.98-.09.17-.68.66-.91 1.73-.27.05-.43.95-.48.11-.49.41-.21 1.23.12-.98.4-.36.37-.16-.12-.49.5.36.35.97-.68 1.04-.11.43-.21.32.5.82.15 1.19 1.18.97-.18.54.82-.18.9.86.68.79-.11.57.51.86-.05.5 2.13-.13 1.57-1.34.68v.65l1.47 1.57-.17.96.69.89v.72l.41.99-.38.82.85 1.94.63.35.57.74.07 2.52-.45.7-.68-.34-.61.41-1.48-.34v.85l-.78.48-.68-.17-1.57.03-.52.79-1.02.03-.92 1.06-.82.07L28.49 30l-.78-.38-.46-.38-.41.31.05.7 1.25.76 1 1.54-.07 1.15.25.7.93.52 1.63 1.11.92.62 1.9 2.19-.17.89.05.95h-.76l-.54.94-1.1.54-1.26 1.6v.62l1.16.58.14.89-.48.34-1.06-.62-1.06.31-1.09-.31-.75.11-1.51.99-.82.17-.75-.24-.82.2-.68-.44-1.3-.21-1.26.18.1.65-.31.37-1.2-.31-.64-.71-.85.31-.55.27-.25.01-.47-.32-1.3-.96-.65-.03-.48.44-.58-.17-.34-.92-.96.34.1.58-.34.58-1.16-.41-.85.48-.78-.23.03-.01-.45-.92-.82-.51-.07-1.37.48-1.64.65-.62v-.71l.51-1.44 1.06-1.09-.92-.61h-.89l-1.13-.52-.85.27-.61-.23h-.83l-.78.27-.82-.68v-.58l-.89-.69-.02.01.09-1.51-.51-.45-.21-1.02-1.13-1.4h-.3l.54-1.3-.58-.89.04-.58L0 26.61l.31-.68-.12-.04.4-1.04.31-1.57-.29-1.38.62-.75.58-.96 1.26-.31 1.2.28.69-.38-.52-.89.62-.44.13-1.03.28-.58-.48-.44-1.16.03-.14-.61.41-.93.99.45.62-.51.01-.93.38-.82.06-.54.28-.34.02-.2.09.03-.21-.9-1.04-.18-.43-.82.18-.94 2.11-.57.61-.29 1.04.76v1.07l.79.94.47-.51-.43-.82v-.68l.43-.18.68.61-.07 1.07 1.04 1.19-.43-.9-.04-1.36-.18-.79.57-.93.76-.15.75.4 1-.4 1.5 1.65 2.05.4-1.95-.82-1.49-1.55-1.15-.07-.64-.4v-.68l.75-.57-.86-.54V3.96l-.82.36-.04-.83h.79l.86-.32-1.04-.97.07-.68-.5-.04-.64-.43.07-.78-.06-.21z"/></svg>