<svg data-name="Layer 16" xmlns="http://www.w3.org/2000/svg" viewBox="0 0 38 32.3"><title>germany-city</title><path fill="#00dbb6" d="M1.01 9.61H38V32.3H1.01z"/><path fill="#00ab8a" d="M38 9.61H1.01L3.97.94h30.85L38 9.61z"/><path fill="#00ab8a" d="M12.91 8.78h6.6V32.3h-6.6zM0 12.94h6.6V32.3H0z"/><path fill="#003026" d="M12.5 8.56h7.43v1.43H12.5zM19.93 8.56H12.5L16.21 0l3.72 8.56zM17.6 28.79a1.43 1.43 0 0 0-2.78 0v3.51h2.86v-3.51zM17.19 15.13a1 1 0 0 0-2 0v2.48h2v-2.48zM4.28 15.13a1 1 0 0 0-2 0v2.48h2v-2.48z"/><path fill="#00ab8a" d="M21.57 11.55h4.24v7.47h-4.24z"/><path fill="#003026" d="M25.81 11.48h-4.24l2.12-7.47 2.12 7.47z"/><path fill="#00ab8a" d="M21.99 18.28h3.41v13.86h-3.41z"/><path d="M24.47 14.61a.8.8 0 0 0-1.56 0v2h1.6v-2z" fill="#003026"/><path fill="#00ab8a" d="M26.73 11.55h4.24v7.47h-4.24z"/><path fill="#003026" d="M30.98 11.48h-4.25l2.12-7.47 2.13 7.47z"/><path fill="#00ab8a" d="M27.15 18.28h3.41v13.86h-3.41z"/><path d="M29.63 14.61a.8.8 0 0 0-1.56 0v2h1.6v-2z" fill="#003026"/><path fill="#00ab8a" d="M31.9 11.55h4.24v7.47H31.9z"/><path fill="#003026" d="M36.14 11.48H31.9l2.12-7.47 2.12 7.47z"/><path fill="#00ab8a" d="M32.32 18.28h3.41v13.86h-3.41z"/><path d="M34.78 14.61a.8.8 0 0 0-1.56 0v2h1.6v-2z" fill="#003026"/><path fill="#00ab8a" d="M5.74 12.56h.85v.6h-.85zM0 12.56h.85v.6H0zM1.44 12.56h.85v.6h-.85zM2.87 12.56h.85v.6h-.85zM4.31 12.56h.85v.6h-.85z"/></svg>