<?xml version="1.0" encoding="utf-8"?>
<!-- Generator: Adobe Illustrator 18.1.1, SVG Export Plug-In . SVG Version: 6.00 Build 0)  -->
<svg version="1.1" id="Layer_1" xmlns="http://www.w3.org/2000/svg" xmlns:xlink="http://www.w3.org/1999/xlink" x="0px" y="0px"
	 viewBox="0 0 85.6 191.2" enable-background="new 0 0 85.6 191.2" xml:space="preserve">
<g>
	<polygon fill="#003026" points="0.8,189.5 4,154.5 78.4,161.2 75.8,189.9 70.2,189.9 56.5,189.8 52.8,189.8 39.5,189.7 35.4,189.7 
		21.9,189.7 18,189.6 	"/>
	
		<rect x="6.4" y="127.1" transform="matrix(0.9959 9.005715e-02 -9.005715e-02 0.9959 13.0042 -3.2554)" fill="#00DBB6" width="72.3" height="30.8"/>
	
		<rect x="10.4" y="96.4" transform="matrix(0.9959 9.005715e-02 -9.005715e-02 0.9959 10.2524 -3.6299)" fill="#00DBB6" width="70" height="30.8"/>
	<path fill="#00AB8A" d="M13.7,163.5c-3.6-0.3-6.9,2.4-7.2,6l-1.7,19.2l-0.1,0.8l13.3,0.1l1.7-18.9C20,167.1,17.4,163.8,13.7,163.5z
		"/>
	<path fill="#00AB8A" d="M31,165.1c-3.6-0.3-6.9,2.4-7.2,6l-1.6,17.6l-0.3,0.9l13.4,0.1l1.6-17.5C37.3,168.6,34.6,165.4,31,165.1z"
		/>
	<path fill="#00AB8A" d="M48.3,166.6c-3.6-0.3-6.9,2.4-7.2,6l-1.5,16.2l-0.1,0.9l13.3,0.1l1.4-16C54.6,170.2,51.9,167,48.3,166.6z"
		/>
	<path fill="#00AB8A" d="M65.5,168.2c-3.6-0.3-6.9,2.4-7.2,6l-1.4,15l-0.1,0.6l13.3,0.1l1.3-14.5C71.8,171.7,69.2,168.5,65.5,168.2z
		"/>
	<path fill="#00AB8A" d="M18.7,127c-3.5-0.3-6.6,2.3-6.9,5.8L10,152.5l12.7,1.2l1.8-19.7C24.8,130.5,22.3,127.4,18.7,127z"/>
	<path fill="#00AB8A" d="M35.4,128.5c-3.5-0.3-6.6,2.3-6.9,5.8L26.7,154l12.7,1.2l1.8-19.7C41.5,132,38.9,128.9,35.4,128.5z"/>
	<path fill="#00AB8A" d="M52.1,130.1c-3.5-0.3-6.6,2.3-6.9,5.8l-1.8,19.7l12.7,1.2l1.8-19.7C58.2,133.5,55.6,130.4,52.1,130.1z"/>
	<path fill="#00AB8A" d="M68.8,131.6c-3.5-0.3-6.6,2.3-6.9,5.8l-1.8,19.7l12.7,1.2l1.8-19.7C74.9,135,72.3,131.9,68.8,131.6z"/>
	<path fill="#00AB8A" d="M22.3,97c-3.4-0.3-6.4,2.2-6.7,5.6l-1.7,19l12.3,1.1l1.7-19C28.2,100.4,25.7,97.4,22.3,97z"/>
	<path fill="#00AB8A" d="M38.4,98.5c-3.4-0.3-6.4,2.2-6.7,5.6l-1.7,19l12.3,1.1l1.7-19C44.3,101.8,41.8,98.8,38.4,98.5z"/>
	<path fill="#00AB8A" d="M54.5,100c-3.4-0.3-6.4,2.2-6.7,5.6l-1.7,19l12.3,1.1l1.7-19C60.4,103.3,57.9,100.3,54.5,100z"/>
	<path fill="#00AB8A" d="M70.6,101.4c-3.4-0.3-6.4,2.2-6.7,5.6l-1.7,19l12.3,1.1l1.7-19C76.5,104.7,74,101.7,70.6,101.4z"/>
	
		<rect x="14.3" y="65.7" transform="matrix(0.9959 9.005715e-02 -9.005715e-02 0.9959 7.5006 -4.0044)" fill="#00DBB6" width="67.6" height="30.8"/>
	<path fill="#00AB8A" d="M25.1,66.4c-3.4-0.3-6.4,2.2-6.7,5.6l-1.7,19L29,92.1l1.7-19C31,69.7,28.5,66.7,25.1,66.4z"/>
	<path fill="#00AB8A" d="M41.2,67.8c-3.4-0.3-6.4,2.2-6.7,5.6l-1.7,19l12.3,1.1l1.7-19C47.1,71.1,44.6,68.1,41.2,67.8z"/>
	<path fill="#00AB8A" d="M57.3,69.3c-3.4-0.3-6.4,2.2-6.7,5.6l-1.7,19L61.2,95l1.7-19C63.2,72.6,60.7,69.6,57.3,69.3z"/>
	<path fill="#00AB8A" d="M73.4,70.7c-3.4-0.3-6.4,2.2-6.7,5.6l-1.7,19l12.3,1.1l1.7-19C79.3,74,76.8,71,73.4,70.7z"/>
	
		<rect x="18.3" y="35" transform="matrix(0.9959 9.005715e-02 -9.005715e-02 0.9959 4.7488 -4.3789)" fill="#00DBB6" width="65.3" height="30.8"/>
	
		<rect x="29.2" y="6.7" transform="matrix(0.9959 9.005715e-02 -9.005715e-02 0.9959 2.1087 -4.7918)" fill="#00AB8A" width="49.9" height="28.5"/>
	
		<rect x="29.3" y="4.5" transform="matrix(0.9959 9.005715e-02 -9.005715e-02 0.9959 0.8373 -4.9648)" fill="#00DBB6" width="52.3" height="4.7"/>
	<path fill="#00AB8A" d="M27.9,35.7c-3.4-0.3-6.4,2.2-6.7,5.6l-1.7,19l12.3,1.1l1.7-19C33.8,39,31.3,36,27.9,35.7z"/>
	<path fill="#00AB8A" d="M44,37.1c-3.4-0.3-6.4,2.2-6.7,5.6l-1.7,19l12.3,1.1l1.7-19C49.9,40.4,47.4,37.4,44,37.1z"/>
	<path fill="#00AB8A" d="M60.1,38.6c-3.4-0.3-6.4,2.2-6.7,5.6l-1.7,19l12.3,1.1l1.7-19C66,41.9,63.5,38.9,60.1,38.6z"/>
	<path fill="#00AB8A" d="M76.2,40c-3.4-0.3-6.4,2.2-6.7,5.6l-1.7,19L80,65.7l1.7-19C82.1,43.4,79.6,40.4,76.2,40z"/>
	<path fill="#00DBB6" d="M42.7,17.2c-2.9-0.3-5.4,1.9-5.7,4.7l-1.1,11.7l10.4,0.9l1.1-11.7C47.7,20,45.5,17.4,42.7,17.2z"/>
	<path fill="#00DBB6" d="M66.8,19.3c-2.9-0.3-5.4,1.9-5.7,4.7l-1.1,11.7l10.4,0.9L71.6,25C71.8,22.2,69.7,19.6,66.8,19.3z"/>
	<path fill="#00DBB6" d="M55,18.3c-1.4-0.1-2.7,0.9-2.8,2.4l-0.5,5.9l5.2,0.5l0.5-5.9C57.5,19.7,56.5,18.4,55,18.3z"/>
</g>
</svg>
