<svg data-name="Layer 20" xmlns="http://www.w3.org/2000/svg" width="72.038" height="81.071" viewBox="0 0 54.01 60.8"><title>italy</title><path d="M4.01 19.42l-.32-1 .62-1.44H2.87l-1.5-1-.2-2.46-1.16-1.23.68-.75 1.1-.14.27-1.57-.89-.82-.14-1.16.41-.48 1.09.41 1.85-1.37 1.23.55 1.71-2.94 1.09.69-.14 1.1 1.5.75.48 1 1-1.71v-1.3l2.05.55.82-.07.82.69.21-1.78L17 3.53l-.48-1.5 1-1.16 1.57.68L21.55.11l1 .27 1.64-.14-.14 1 2.33 1.37 2.87.55 1.57-.14.68.62-1.09 1.57.34.75-.62 1 .23 1.62-1.07-.27-.64.32-.68.68h-1l-1 .86-1 .14-.36.72.5 1 .64.83-.72 1.07-.43.36.54 1.18.15 1.36.5.72 2.08 1.11 1.15.61.58.79 3.08 3.12.07.83.39.21v1l.65.93.86.88.68 1.06 1.39 1.07.67.69.88.17.61.37h1.79l.75.21 1.15-.18.83.43-.18.65-1.18.82v.43l.34.55h1l1.79.43 3.73 2 1.45 1.09.95 1 1.54.4.78.55.36.64-.14 1.22-.4.58.12.77-.26.21v.27l-.84-.35-.66-.83-.4-.87.12-.71-.52-.31h-1.46l-.29-.43-1-.47-.64.09-.43.27-.32 1.15-.54.57.05.61-.16.72-.68.47v.7l.32.48.75.11 1.33 1.25.26.54-.15 1.22.25.43-.32.68-.82.21-.79.83-.11 2.19-1.29 1-.18 1-.68.93-1.36.11-1-1v-.72l.23-.36.57-.32.56-.64.12-.9-.12-.93.27-.16h.38l.5-.61v-.86l-.54-.79-.4-1.69-.5-.65-.22-1.43-.43-1.51-.68-.43-.54.32-1.22-.29-.39-.79-1-.07-.47-.46.21-.4.11-.93-.61-.79-.86-.07h-.82l.07-.65-.79-.29-.54.21-.61-.39-1-1.86-.93-.07-1-.39-.61.57h-.86l-.18-.79-.79-.54-.9-.14-1.87-1.4-1.94-2.47-.61-.22-.18-.75-.86-1.15h-1.36l-.14-.86-1.29-1.22-.72-.9-1.11-.54v-1.33l-.75-.47v-.82l-.86-1.4-.38-.73-.27-.51-.4-.75-1.39-.41-.93-.61-3.16-.82-2.44 1.36v.79l-.82 1-2.27.4zm3.47 16h.31l.08-.43.4-.45-.38-.33-.15.46-.29.16v.62zm12.07-7.72l.55.26-.19-.43-.36.17zm-3.77-2.71l-.41.43.51.21 1-.34h.75l-.12-.51-.44-.53-.23.31-1 .41zm-5.85 23.2l.36-.22.47.22.68-.29.07-1.08.29-.65.9.07.58.57h.54l.36-.68v-1.76l.18-.5-.21-1.9.36-1.72-1.22-1.08 1-.68.14-.72-.25-1.11-.61-.68-.68-1.26-.36.36-.82-.65-.72.07-1.72 2h-.75l-1.08-.65v1l-.18.68.75.75.18.72.61.54v1.11l-.68.72.29.57.93.07v.39l-.57.68-.43 1.65.4.61.47 1.94.72.75zm30 12.48l-.07-1.18.47-.58-.11-1-.86-1.18.86-2.3.86-.79.18-1.26-.72-.86-1.18 1.15-.5-.07-1-.57-1 1.08-2.15-.14-1.76.54-1.25-.25-.9-.61-1 .11-.57.46-.32-.43-1.15.54-.14 1.54 1 .93 1-.18 1.79 1.22 1 .25.9 1 2.12.79.43-.28.93.68.18.75 2.19.86z" fill="#ff8f6b" fill-rule="evenodd"/></svg>