<svg data-name="Layer 20" xmlns="http://www.w3.org/2000/svg" width="99.817" height="50.83mm" viewBox="0 0 74.87 144.08"><title>japan</title><path d="M29.91 69.15l.42.46-.34.19-.24-.12.16-.52zm.83 0l-.29-.36.38-.63.57-.07.15.74-.38.36h-.43zM.98 143.8l-.24-.59H.19l-.19.87h.65l.32-.31zm.62-.81l.51-.53.44.4-.26.87-.5-.14-.2-.6zm4.44-3.24l-.1 1 .38.34.65.07.17-.89-1.09-.51zm10.32-8.33l-.38-1.26.89-.62.13-.44-.2-.34.82-.48.48-1 .41 1-.44.58v.82l-1.16.72v.85l-.48.17zm4.32-9.58l.62.5.16.77-.27.2-.69-.56v-.58l.24-.32zm2-1.75l-.39-.31h-.77l-.26-.21.32-.67.82-.38.27-.07.15-.29h.53l.29-.19.69-.19-.53.94-.86.57-.05.58-.22.27zM47.2 25.8l-.39-.46-.1-.72.75-.69.51-.17-.19.86v.79l-.55.39zm5.72 4.68l-.79-.48-.38-.79.29-.21-.29-1.7-.58-1.63-.72-.67-.81-.55h-.56l-.12-.63.1-1.29-.24-.94.34-.77.55-.31.15-.43.63-.12.41-.94.34-.46-.1-.41-1-.72-.36-.05-.27-.34.34-.72.69-.15 1.49.82 1.59.26.53-.43.07-.7.29-.31-.29-.69-.43-.24-.17-.46-.53-.84-.28-.87.72-.82.39-.05.1-.39-.36-.93-.47-1.44.17-.65-.1-1.78-.38-1.09-1.64-2.53-.27-1.13-.41-.61.24-.31h.44l.48-.58-.1-.41h1.06l.34.72 1.54 1.26 1.3.27.65 1.26 2.15 2.12 1.2.85.37.68.92.2.82.89 1.4.68 1.16.14.92.89.72-.14.34.24 1.2-.17 1.53-1 .77-1 .19-.84.22-.27.26.39v.81l-.5 1.4v1.29l.32.45 1.15.72.79 1 .07.72-.1.48h.72l.44-.72.68-.65.58-.07-.31.68-.44.27-.07.92-.58.44-.82.34-.17.72-.34.51h-.65l-.34-.27-.65.51.07.48h-1.15l-.92-.24-.79.24-1.26 1.78-.48 1.91-.21 1.57.27 1.06-.17.79.07.72-.82-.34-.48-.65-1.47-.38-1.44-.75-1.3-1.1-.82-.92-.85.14-.75-.17-.38-.38h-.89l-1.06.79-1.13 1.54-.48-.31-1.2-.75-.65.07-.62.55v.92l.31.75 1 .55 1-.27 1.2 1.33 1 .27h1.09l.38.55-.71 1-.24.68-.65-.51-1.26-.07-.48.34.1.68-.34.79-1.12 1.27zM51.38 56.8l.05-.91.29-.55-.2-.14-.58.34-.08-.6.41-1.58.32-.32.15.67-.07.69.65.21.16.51-.24 1-.51.51-.35.17zM16.43 88.91l.51.39.31-.19-.58-.39h-.27v.17zm-.24.63l.19.26.16-.22h-.31zm-.57.57l.38.17.19-.27-.57.1zm-.58.48l.1.43.55-.31-.65-.12zm-.68 2.35l-.32-1v-.62l.5-.24.07.57.55.29.34.65-.55.44-.62-.08zm7.2.58l-.07-.51.29-.31.34.19-.08.58-.48.05zm-.81 1.49l.38-.41.27.14-.34.56-.31-.29zm-.36-2.45l-.36.45.14.91.34.65h.45l.19-.79-.53-.91v-.29h-.2zm20.4-11.47l-.43-.94v-.76l.33-.51.5-.09.19.6-.12.69.16.39-.14.6h-.5zm-3.37-.84l.75-.72.6.14v.46l-.6.31-.72-.19zm-4.3 10l.38.17.31-.35.58.21.44-.14-.07-.58-.85-.92.41-.82.41-1.37 1.13-.68.31-.51 1.06.14 1.33.85.37.65.58-.27.44-1.67 1.06-1 .1-.61-.34-.34-.2-.65-1-.82h-.72l-.68-.51-1.23-.07-1.16 1v.58l-.44.68-.85.27-.72.51-.44-.14-.55-1.27h-.44l-1.26 1.44v.85l-.82.58-.2 1 1.33.34.24.92-.27.27v.48l.75 1.13 1.16.13-.07.58zm-6.17 16.08l-.58-.72-.6.12-.22.57.53.94.81.15.24-.43-.17-.63zm.79-1.06l-.2-1.53v-.63l.53.46.09.81-.22.64-.22.26zm-1.68-2.66l.88-.54.92-1.3-.85-.86v-.51l.44-.2.68.2.41.31.24-1v-1.5l-.27-.75.07-2.7-.1-1.44.51-.85.89-.89-.2-.71-.48-.14v-.89l-.51-.1.17-.62H27.3l-.22-.34.75-.46.26-.6-.24-1.24-.62-.38-.75.14v.31l-.63.46-.67-.1-1-1.13.15-.67 1.45-.74 1.3-.24 1.4.5.72.33.14-.4v-.65l.07-1-.14-.65.11-.46.65-.05.38.56h.62l.79-.43 1.56-.29 1.49-.48h1l.38.15.51-.24v-.31l1-.55.24-.51 1.09-.91 1.13-.38 1.42.26.82-.22.38.34v.79l-.7 1-.21.8.43.29.1.86.07.89-.14.36.24.89 1 .43 1.32 1.23.89.26.58-.31.92-1.39.09-.91.51-.33.14-.46-.19-.63.62-1.15.82-.12h.74l.26-.48-.22-.34-.2-1-1.7-.74-.22-.48.38-1.27.55-.48.36-.12-.19.4.1 1 .33.27.43-.29.21-.27.65.15.48.32.5-.15.32.09-.19.39-.85.22-.1.24.31.15.72-.21 1.17-.62 2.39.2 1.23-.13-.34-.31-.24-1 .24-1.09 1-.51.79.14.17 1-.27.89.38.68.72-.07.72-1-.55-1.64.27-1 1.16-.89h.65l.2-.44-.44-.55.24-1.13.58-.38.89.17.2.51-.44.65-.24 1.3.27 2.7.45.21.62-.41.41-.89.78-.07.89-1 .34-1.23-.2-.79 1-1-.14-.62-.51-.48-1.09-1.5-.38-1.13-.31-2.29.34-2.66.07-1.81-.82-3.31-1.16-1.57-.1-1.23.27-1.54 1.47-.68h.72l.38.65.27-.34-.24-1.09-.17-.72-.31-.37-.24-.94.07-.48v-.72l.34-.58v-.29l.1-.74-.27-.41-.07-1.17.21-.58-.38-.68-.27-1.84-.85-1.5h-.59l-.51-.27-.1-2-.89-.82-1.92-2.17-.53-1-.38-1.48-.1-1.44.07-.48-.55.34-.43.05-.22-.28-.84-.38-.46-.05.07.29-.46 1.16v.81l.41.4.44-.21 1.06-.94.48 1.18-.36.86-.57.36-.62-.46h-.22l.29 1.11-.43.45-.67-.26-.15-.82-.16-1-.29-.48-.58.19-.51-.29-.19.75.34 1.39v1l-.57.22-.56.84v.53l1.18 1.2.4.72-.41 1.29-.63.41-.74-.15-.15.51.69.87.72-.17.62-.69.92 2.08.34 2.29-.2 1.26.1 2.26-.73 3.5.24 1.26-.38 1.44-1.16.61-.51 1.4.07 1.57-.58.92-.17 1-1.14 1.07-2.26 1.35-.89.26-.44.91-1.15-.65-1.11-1.37v-.58l.5-.24.49-.87-.08-.5.58-.6-.05-.24-1.1.26-.79.81-1 .4-.19.91.67 1.13.14 2.23-.14 1.08-1.09 1.13v.62l-.39.44-.15 1.66.41.46.07.69-.31.26.2.27-.24.58-.46.05.31.43-.72.29-.5-.38-.69.52-.41-.15-.17-1-.27-.12-.62.45h-.58l-.29-.21-2.05.72-1.08.41-1.08.38-1.22.09-1.16.36-.41-.26-1 .12-1.78 1.23-.32 1.11-.65.45-.15.69-1.3 1.48-.8.31-.69.94-.21.62-.7.72-1.26.26-.45.65.31 1.49.48.26.15.53-.29.51-.79.05-1 .77-.26.55-.62.48-.89 1-.34.74h-.77l-.86.48h.43l.45.05.32.84.41 1.12-.33.31-.15-.74-.39-.57-.22.76.24.86.6.25.1.55-.31.6.46-.26.32-.63.72-.24.46.17-.36.35.34.26.74-.22-.08-.87-.51-.46-.86.22.05-.38.24-.41-.2-.72.39-.51.79.31.82 1.41.12 1 .4.48.07 1.61-.68 1.51-.82.09.2.53.72 1.25.31 1.64.79.93v.81l-.39.5.6.74.75-.1.63.38.31-.36v-.5l-.7-1.08v-1.53l.43-.48.48.39-.27.41v.45l.72.75.29 1.27-.24.76z" fill="#008a8e" fill-rule="evenodd"/></svg>