<svg data-name="Layer 27" xmlns="http://www.w3.org/2000/svg" viewBox="0 0 49.4 49.85"><title>japan-city</title><path fill="#ff2323" d="M14.04 31.88h20.67v16.74H14.04z"/><path fill="#e61313" d="M31.76 15.12h.72v11.11h-.72zM15.65 15.12h.72v11.11h-.72z"/><path fill="#ff2323" d="M12.6 15.12h1.44v11.11H12.6zM34 15.12h1.44v11.11H34zM23.8 4.24h1.46v.99H23.8z"/><path fill="#ff2323" d="M24.48 4.7L9.84 12.24v2.88h29.27v-2.68L24.48 4.7zM25.77 4.43h-2.63a1 1 0 0 1-1-1 1 1 0 0 1 1-1h2.63a1 1 0 0 1 1 1 1 1 0 0 1-1 1z"/><path d="M25.16 2.46h-1.39a.51.51 0 0 1-.51-.51.51.51 0 0 1 .51-.51l.67-1.45.67 1.45a.51.51 0 0 1 .51.51.51.51 0 0 1-.46.51z" fill="#ff2323"/><path d="M14.05 34.32v12h3.11a7.19 7.19 0 1 1 13.73 0H34v-12H14z" fill="#e61313"/><path fill="#850202" d="M32.49 34.32h3.22v12.01h-3.22zM12.34 34.32h2.76v12.01h-2.76z"/><path fill="#e61313" d="M7.55 34.32h1.71v12.01H7.55zM39.9 34.32h1.71v12.01H39.9z"/><path fill="#850202" d="M6.89 45.55h12.34v3.02H6.89z"/><path fill="#850202" d="M0 47.62h49.4v2.23H0z"/><path fill="#850202" d="M30.01 45.55h12.34v3.02H30.01z"/><path fill="#e61313" d="M21.2 15.12H7.15l-4.46-4.9 18.51 4.9zM28.28 15.12h14.05l4.46-4.9-18.51 4.9z"/><path fill="#ff2323" d="M42.33 31.02l.01-.02-1.78-5.51H8.79l-1.9 5.42.03.06-5.81-1.54 4.47 4.89H43.9l4.47-4.89-6.04 1.59z"/><path fill="#fb8f04" stroke="#e61313" stroke-miterlimit="10" d="M24.48 5.47l-12.29 7.72M24.48 5.47l12.72 8.02M24.54 5.47l-9.49 8.61M24.54 5.47l9.7 8.61M24.54 5.47l6.3 9.15M24.64 5.47l-6.3 9.15M24.48 5.7v9.42M24.48 5.7l3.6 9.13M24.41 5.7l-3.22 9.13"/></svg>