<?xml version="1.0" encoding="utf-8"?>
<!-- Generator: Adobe Illustrator 21.0.0, SVG Export Plug-In . SVG Version: 6.00 Build 0)  -->
<svg version="1.1" id="Layer_1" xmlns="http://www.w3.org/2000/svg" xmlns:xlink="http://www.w3.org/1999/xlink" x="0px" y="0px"
	 viewBox="0 0 92.7 45.5" style="enable-background:new 0 0 92.7 45.5;" xml:space="preserve">
<style type="text/css">
	.st0{clip-path:url(#SVGID_2_);}
	.st1{clip-path:url(#SVGID_4_);fill:#231F20;}
	.st2{clip-path:url(#SVGID_6_);}
	.st3{clip-path:url(#SVGID_8_);fill:#231F20;}
	.st4{clip-path:url(#SVGID_10_);}
	.st5{clip-path:url(#SVGID_12_);fill:#231F20;}
	.st6{clip-path:url(#SVGID_14_);}
	.st7{clip-path:url(#SVGID_16_);fill:#231F20;}
	.st8{clip-path:url(#SVGID_18_);}
	.st9{clip-path:url(#SVGID_20_);fill:#F69320;}
	.st10{clip-path:url(#SVGID_22_);}
	.st11{clip-path:url(#SVGID_24_);fill:#F69320;}
	.st12{clip-path:url(#SVGID_26_);}
	.st13{clip-path:url(#SVGID_28_);enable-background:new    ;}
	.st14{clip-path:url(#SVGID_30_);}
	.st15{clip-path:url(#SVGID_32_);}
	.st16{clip-path:url(#SVGID_34_);fill:#F69320;}
	.st17{clip-path:url(#SVGID_36_);}
	.st18{clip-path:url(#SVGID_38_);fill:#231F20;}
	.st19{clip-path:url(#SVGID_40_);}
	.st20{clip-path:url(#SVGID_42_);fill:#231F20;}
	.st21{clip-path:url(#SVGID_44_);}
	.st22{clip-path:url(#SVGID_46_);fill:#231F20;}
	.st23{clip-path:url(#SVGID_48_);}
	.st24{clip-path:url(#SVGID_50_);fill:#231F20;}
	.st25{clip-path:url(#SVGID_52_);}
	.st26{clip-path:url(#SVGID_54_);enable-background:new    ;}
	.st27{clip-path:url(#SVGID_56_);}
	.st28{clip-path:url(#SVGID_58_);}
	.st29{clip-path:url(#SVGID_60_);fill:#231F20;}
</style>
<g>
	<defs>
		<path id="SVGID_1_" d="M65.8,28.1c-3.3,0-5.9,2.6-5.9,5.9c0,3.3,2.6,5.9,5.9,5.9c3.3,0,5.9-2.6,5.9-5.9
			C71.7,30.8,69.1,28.1,65.8,28.1 M65.8,37.9c-2.2,0-3.9-1.7-3.9-3.9c0-2.2,1.8-3.9,3.9-3.9c2.2,0,3.9,1.7,3.9,3.9
			C69.8,36.2,68,37.9,65.8,37.9"/>
	</defs>
	<clipPath id="SVGID_2_">
		<use xlink:href="#SVGID_1_"  style="overflow:visible;"/>
	</clipPath>
	<g class="st0">
		<defs>
			<rect id="SVGID_3_" x="0" y="-0.4" width="92.8" height="46"/>
		</defs>
		<clipPath id="SVGID_4_">
			<use xlink:href="#SVGID_3_"  style="overflow:visible;"/>
		</clipPath>
		<rect x="54.9" y="23.1" class="st1" width="21.8" height="21.8"/>
	</g>
</g>
<g>
	<defs>
		<path id="SVGID_5_" d="M49.7,28.5c0.8-0.1,1.9-0.2,3.5-0.2c1.6,0,2.7,0.3,3.5,0.9c0.7,0.6,1.2,1.5,1.2,2.6c0,1.1-0.4,2.1-1,2.7
			c-0.9,0.8-2.2,1.2-3.7,1.2c-0.3,0-0.6,0-0.9-0.1v4.1h-2.5L49.7,28.5L49.7,28.5z M52.3,33.6c0.2,0.1,0.5,0.1,0.9,0.1
			c1.4,0,2.2-0.7,2.2-1.9c0-1-0.7-1.7-2-1.7c-0.5,0-0.9,0.1-1.1,0.1L52.3,33.6L52.3,33.6z"/>
	</defs>
	<clipPath id="SVGID_6_">
		<use xlink:href="#SVGID_5_"  style="overflow:visible;"/>
	</clipPath>
	<g class="st2">
		<defs>
			<rect id="SVGID_7_" x="0" y="-0.4" width="92.8" height="46"/>
		</defs>
		<clipPath id="SVGID_8_">
			<use xlink:href="#SVGID_7_"  style="overflow:visible;"/>
		</clipPath>
		<rect x="44.7" y="23.2" class="st3" width="18.2" height="21.4"/>
	</g>
</g>
<g>
	<defs>
		<path id="SVGID_9_" d="M74.2,37c0.7,0.4,1.8,0.7,2.9,0.7c1.2,0,1.8-0.5,1.8-1.2c0-0.7-0.5-1.1-1.9-1.6c-1.9-0.7-3.1-1.7-3.1-3.4
			c0-1.9,1.6-3.4,4.3-3.4c1,0,2.3,0.3,2.3,0.3l0,2.3c-0.5-0.2-1.3-0.5-2.4-0.5c-1.1,0-1.7,0.5-1.7,1.1c0,0.7,0.6,1,2.1,1.6
			c2,0.7,3,1.8,3,3.4c0,1.9-1.5,3.5-4.6,3.5c-1,0-2.7-0.5-2.7-0.5L74.2,37z"/>
	</defs>
	<clipPath id="SVGID_10_">
		<use xlink:href="#SVGID_9_"  style="overflow:visible;"/>
	</clipPath>
	<g class="st4">
		<defs>
			<rect id="SVGID_11_" x="0" y="-0.4" width="92.8" height="46"/>
		</defs>
		<clipPath id="SVGID_12_">
			<use xlink:href="#SVGID_11_"  style="overflow:visible;"/>
		</clipPath>
		<rect x="68.9" y="23.1" class="st5" width="17.7" height="21.7"/>
	</g>
</g>
<g>
	<defs>
		<polygon id="SVGID_13_" points="86.8,30.5 83.8,30.5 83.8,28.3 92.5,28.3 92.5,30.5 89.4,30.5 89.4,39.7 86.8,39.7 86.8,30.5 		
			"/>
	</defs>
	<clipPath id="SVGID_14_">
		<use xlink:href="#SVGID_13_"  style="overflow:visible;"/>
	</clipPath>
	<g class="st6">
		<defs>
			<rect id="SVGID_15_" x="0" y="-0.4" width="92.8" height="46"/>
		</defs>
		<clipPath id="SVGID_16_">
			<use xlink:href="#SVGID_15_"  style="overflow:visible;"/>
		</clipPath>
		<rect x="78.8" y="23.3" class="st7" width="18.7" height="21.4"/>
	</g>
</g>
<g>
	<defs>
		<polygon id="SVGID_17_" points="68.7,26.6 64.8,26.6 63.7,17.8 60,26.6 58.4,26.6 54.9,17.8 53.6,26.6 49.7,26.6 52.3,11.4 
			56.2,11.4 59.3,19.5 62.5,11.4 66.4,11.4 		"/>
	</defs>
	<clipPath id="SVGID_18_">
		<use xlink:href="#SVGID_17_"  style="overflow:visible;"/>
	</clipPath>
	<g class="st8">
		<defs>
			<rect id="SVGID_19_" x="0" y="-0.4" width="92.8" height="46"/>
		</defs>
		<clipPath id="SVGID_20_">
			<use xlink:href="#SVGID_19_"  style="overflow:visible;"/>
		</clipPath>
		<rect x="44.7" y="6.4" class="st9" width="29" height="25.2"/>
	</g>
</g>
<g>
	<defs>
		<path id="SVGID_21_" d="M82,22.2c0,1.4-0.5,2.5-1.5,3.2c-1,0.7-2.3,1.1-4.1,1.1h-6V11.4H76c3,0,4.5,1.3,4.5,4
			c0,1.5-0.6,2.5-1.7,3.1C81,18.8,82,20.1,82,22.2 M76.9,15.9c0-1-0.7-1.5-2-1.5h-0.6v2.9h0.5C76.3,17.4,76.9,16.9,76.9,15.9
			 M78,21.9c0-1.1-0.7-1.6-2.2-1.6h-1.5v3.3h1.1C77.2,23.6,78,23,78,21.9"/>
	</defs>
	<clipPath id="SVGID_22_">
		<use xlink:href="#SVGID_21_"  style="overflow:visible;"/>
	</clipPath>
	<g class="st10">
		<defs>
			<rect id="SVGID_23_" x="0" y="-0.4" width="92.8" height="46"/>
		</defs>
		<clipPath id="SVGID_24_">
			<use xlink:href="#SVGID_23_"  style="overflow:visible;"/>
		</clipPath>
		<rect x="65.4" y="6.4" class="st11" width="21.6" height="25.2"/>
	</g>
</g>
<g>
	<defs>
		<rect id="SVGID_25_" x="84.1" y="11.4" width="8.7" height="15.2"/>
	</defs>
	<clipPath id="SVGID_26_">
		<use xlink:href="#SVGID_25_"  style="overflow:visible;"/>
	</clipPath>
	<g class="st12">
		<defs>
			<rect id="SVGID_27_" x="0" y="-0.4" width="92.8" height="46"/>
		</defs>
		<clipPath id="SVGID_28_">
			<use xlink:href="#SVGID_27_"  style="overflow:visible;"/>
		</clipPath>
		<g class="st13">
			<g>
				<defs>
					<rect id="SVGID_29_" x="84" y="10.6" width="9" height="16"/>
				</defs>
				<clipPath id="SVGID_30_">
					<use xlink:href="#SVGID_29_"  style="overflow:visible;"/>
				</clipPath>
				<g class="st14">
					<defs>
						<polygon id="SVGID_31_" points="92.7,26.6 84.1,26.6 84.1,11.4 92.7,11.4 92.7,14.7 88,14.7 88,17.3 92.5,17.3 92.5,20.6 
							88,20.6 88,23.2 92.7,23.2 						"/>
					</defs>
					<clipPath id="SVGID_32_">
						<use xlink:href="#SVGID_31_"  style="overflow:visible;"/>
					</clipPath>
					<g class="st15">
						<defs>
							<rect id="SVGID_33_" x="84" y="10.6" width="9" height="16"/>
						</defs>
						<clipPath id="SVGID_34_">
							<use xlink:href="#SVGID_33_"  style="overflow:visible;"/>
						</clipPath>
						<rect x="79.1" y="6.4" class="st16" width="18.7" height="25.2"/>
					</g>
				</g>
			</g>
		</g>
	</g>
</g>
<g>
	<defs>
		<polygon id="SVGID_35_" points="17.9,38.5 18,25.2 6.5,27.2 		"/>
	</defs>
	<clipPath id="SVGID_36_">
		<use xlink:href="#SVGID_35_"  style="overflow:visible;"/>
	</clipPath>
	<g class="st17">
		<defs>
			<rect id="SVGID_37_" x="0" y="-0.4" width="92.8" height="46"/>
		</defs>
		<clipPath id="SVGID_38_">
			<use xlink:href="#SVGID_37_"  style="overflow:visible;"/>
		</clipPath>
		<rect x="1.5" y="20.2" class="st18" width="21.5" height="23.3"/>
	</g>
</g>
<g>
	<defs>
		<path id="SVGID_39_" d="M24.4,23c-0.1,0.5-0.3,0.7-0.3,0.7c-0.4,0.6-1,0.7-1,0.7l-1.9,0.3l-0.2,13.7L38.5,21l-13.8,0.2L24.4,23z"
			/>
	</defs>
	<clipPath id="SVGID_40_">
		<use xlink:href="#SVGID_39_"  style="overflow:visible;"/>
	</clipPath>
	<g class="st19">
		<defs>
			<rect id="SVGID_41_" x="0" y="-0.4" width="92.8" height="46"/>
		</defs>
		<clipPath id="SVGID_42_">
			<use xlink:href="#SVGID_41_"  style="overflow:visible;"/>
		</clipPath>
		<rect x="16.1" y="16" class="st20" width="27.4" height="27.4"/>
	</g>
</g>
<g>
	<defs>
		<polygon id="SVGID_43_" points="23.7,7.9 7.9,23.7 21.4,21.4 		"/>
	</defs>
	<clipPath id="SVGID_44_">
		<use xlink:href="#SVGID_43_"  style="overflow:visible;"/>
	</clipPath>
	<g class="st21">
		<defs>
			<rect id="SVGID_45_" x="0" y="-0.4" width="92.8" height="46"/>
		</defs>
		<clipPath id="SVGID_46_">
			<use xlink:href="#SVGID_45_"  style="overflow:visible;"/>
		</clipPath>
		<rect x="2.9" y="2.9" class="st22" width="25.8" height="25.8"/>
	</g>
</g>
<g>
	<defs>
		<polygon id="SVGID_47_" points="25.3,18 38.6,17.8 27.3,6.5 		"/>
	</defs>
	<clipPath id="SVGID_48_">
		<use xlink:href="#SVGID_47_"  style="overflow:visible;"/>
	</clipPath>
	<g class="st23">
		<defs>
			<rect id="SVGID_49_" x="0" y="-0.4" width="92.8" height="46"/>
		</defs>
		<clipPath id="SVGID_50_">
			<use xlink:href="#SVGID_49_"  style="overflow:visible;"/>
		</clipPath>
		<rect x="20.3" y="1.5" class="st24" width="23.3" height="21.5"/>
	</g>
</g>
<g>
	<defs>
		<rect id="SVGID_51_" width="45.6" height="45.5"/>
	</defs>
	<clipPath id="SVGID_52_">
		<use xlink:href="#SVGID_51_"  style="overflow:visible;"/>
	</clipPath>
	<g class="st25">
		<defs>
			<rect id="SVGID_53_" x="0" y="-0.4" width="92.8" height="46"/>
		</defs>
		<clipPath id="SVGID_54_">
			<use xlink:href="#SVGID_53_"  style="overflow:visible;"/>
		</clipPath>
		<g class="st26">
			<g>
				<defs>
					<rect id="SVGID_55_" x="0" y="-0.4" width="46" height="46"/>
				</defs>
				<clipPath id="SVGID_56_">
					<use xlink:href="#SVGID_55_"  style="overflow:visible;"/>
				</clipPath>
				<g class="st27">
					<defs>
						<path id="SVGID_57_" d="M22.8,0C10.2,0,0,10.2,0,22.8c0,12.6,10.2,22.8,22.8,22.8c12.6,0,22.8-10.2,22.8-22.8
							C45.6,10.2,35.4,0,22.8,0z M22.7,41.5c-1.8,1.8-4.7,1.8-6.5,0L4.1,29.4c-1.8-1.8-1.8-4.7,0-6.5L23,4c1.8-1.8,4.7-1.8,6.5,0
							l12.1,12.1c1.8,1.8,1.8,4.7,0,6.5L22.7,41.5z"/>
					</defs>
					<clipPath id="SVGID_58_">
						<use xlink:href="#SVGID_57_"  style="overflow:visible;"/>
					</clipPath>
					<g class="st28">
						<defs>
							<rect id="SVGID_59_" x="0" y="-0.4" width="46" height="46"/>
						</defs>
						<clipPath id="SVGID_60_">
							<use xlink:href="#SVGID_59_"  style="overflow:visible;"/>
						</clipPath>
						<rect x="-5" y="-5" class="st29" width="55.6" height="55.5"/>
					</g>
				</g>
			</g>
		</g>
	</g>
</g>
</svg>
