<svg data-name="Layer 20" xmlns="http://www.w3.org/2000/svg" width="32.15mm" height="42.935" viewBox="0 0 91.13 32.21"><title>malaysia</title><path d="M55 23.35v.75l-.16.09-.11-.28.33-.62v.05zM0 8.7l.17 1 .51.7.38-.26-.17-.65-.5-.67-.39-.1zm46.2 18.42l1 1.73 1.52 1.08.15.39 1.08 1 .39.79.7.09 1.37-.38.15-.55 1.18.09.67-.35 2.6.14 2.63-1.06.7-.62 2.3-.07 1.2.58.38.58h1.13l1.89-1.04 2.26-.34-.14-.72 1.88-2.84.75-2 1.43-2.15 1-3.66v-.72l.48-.82-.07-.62 1-1.19.79.34 1.5-.14h2.09l.51.38h1.33l1 .31.08-.42 1.13.75.79.21 1-.51 1.23-.24v-.62l-1.26-1.06v-1.23l.58-.41 1.91.17 1.57-.38 1-.75-.2-.75h-.75l-1.1-.21-.82-.75-.82.07-1.15-1.1h-.65l-.75.72-.45-.41 1-.89-.51-.62-.41.14-.65.89-.41-.51-.38-.17v-1.4l.82-.31v-.61l-1.13-.75-.41.27-.89-.82v-1.3l-1-.62-.44.28.27.85-1 1-.41-.07.31-.86-.17-.78h-.61l-.65 2.12-.68.17-1 2.28-.17 1.23-1.71 1.81h-.82l-1.37.51-.48.62H72l-.34.51.44.17 1.1-.31-.45.68-.75.38-.13.18.09.37.58 1.65-.41.81-.63-.36-.08-1.18-.2-.85h-.17v-.2l-.42.05-.51.77.33 2.11-.5.24-.93-.72-.82-1.39-.5-.05-.71-.31-.64.81v1.12l-1.23 1.06-.44 1-1.33 1.27-.31.85-1.16 1.44-1.27 1.09-3.86.93-.43.2.26 1.23.45.51-.59-.22-.66.35-1.12.13-.52.64-.31 1v1.36l-.82 1.13v.38l-1.88-.24-1.95-.72h-1.37l-.51-.75-.82-.93-.35.11zM79.97 0l-1.22.71h.6l.59-.35V.03zm1.23 0l-.86.81.22.31 1-.3v-.7L81.13 0zM54.91 24.89l-.77.33.54-.79.23.46zm.7-.26l-.52.23-.19-.41.18-.23.53.42zm.52-1.48l.31 1.1-.59.29-.69-.68v-.47l.28-.07h.06l.63-.16zM.13 4.58l.31-1.09.62-.78.89.78 1.3.38.24.55h1l.62.62-.14 1.36-.54.68v.69l1.26.31 1.06-.92.85-.1.65.55.65-.48v-.86l.22-.24h.68l.44-.51.39-.11.72 1.29 3.44 3.51 1 1.65.47 1.93-.39.5.12 2.34-.23.41v.83l.36.62v2.36l.61 1.24 1.09 1h.75l.21.41-.12.36.18 1.43.32.27.2.36v.29l.28.14 1 2v1.18l-.71-.12-.18-.36v-.54l-.52-.38.29.36-.07.52-.3.1.45.07v.22l-.95.59-.34-.5-.31.32-.93-.45-.61-.72-1.56-.3-1.43-.75-.71-.78-.5-.41-.68.16h-.68l-1.14-1.21.09-.88-1.45-1.14-1.7-.66-.59-.53.11-.65.71-.68-.56-.87-.86-.5-.82-1.29-1.29-.75-.57-.83.25-.43-.72-.68-.11-1 .29-.26.18-1.54-.58-1.18-.54-1.29-.5-3.91z" fill="#008a8e" fill-rule="evenodd"/></svg>