<svg data-name="Layer 27" xmlns="http://www.w3.org/2000/svg" viewBox="0 0 55.58 61.91"><title>malaysia-city</title><path fill="none" stroke="#00dbb6" stroke-miterlimit="10" stroke-width=".5" d="M28.05 35.16l7.34 8.79M28.04 35.07l-7.35 8.79"/><path fill="#00ab8a" d="M20.1 32.78h15.41v2.63H20.1z"/><path fill="#00dbb6" d="M36.24 51.8h19.33v10.11H36.24z"/><path fill="none" stroke="#003026" stroke-miterlimit="10" stroke-width=".5" d="M38.08 55.33h16.58M38.08 60.74h1.58M40.58 60.74h1.58M43.08 60.74h1.58M45.58 60.74h1.58M48.08 60.74h1.58M50.58 60.74h1.58M53.08 60.74h1.58"/><path fill="none" stroke="#00ab8a" stroke-miterlimit="10" stroke-width=".5" d="M38.08 58.41h1.58M40.58 58.41h1.58M43.08 58.41h1.58M45.58 58.41h1.58M48.08 58.41h1.58M50.58 58.41h1.58M53.08 58.41h1.58"/><path fill="#00dbb6" d="M19.33 61.91H0V51.8h19.33z"/><path fill="none" stroke="#003026" stroke-miterlimit="10" stroke-width=".5" d="M17.5 55.33H.92M17.5 60.74h-1.58M15 60.74h-1.58M12.5 60.74h-1.58M10 60.74H8.42M7.5 60.74H5.92M5 60.74H3.42M2.5 60.74H.92"/><path fill="none" stroke="#00ab8a" stroke-miterlimit="10" stroke-width=".5" d="M17.5 58.41h-1.58M15 58.41h-1.58M12.5 58.41h-1.58M10 58.41H8.42M7.5 58.41H5.92M5 58.41H3.42M2.5 58.41H.92"/><circle cx="17.56" cy="2.46" r=".56" fill="#00ab8a"/><path fill="#00ab8a" d="M15.48 5.38h4.16v25h-4.16zM17.34 3.84l-1.35 1.54h3.14l-1.39-1.59-.4.05z"/><path fill="#00dbb6" d="M15.06 9.2h5.01v25h-5.01z"/><path fill="#00ab8a" d="M14.63 17.15h5.86v25h-5.86z"/><path fill="#00dbb6" d="M14.21 26.75h6.71v25h-6.71z"/><path fill="none" stroke="#00ab8a" stroke-miterlimit="10" stroke-width=".5" d="M17.56 3.81V0"/><circle cx="38.44" cy="2.46" r=".56" fill="#00ab8a"/><path fill="#00ab8a" d="M36.36 5.38h4.16v25h-4.16zM38.22 3.84l-1.35 1.54h3.14l-1.4-1.59-.39.05z"/><path fill="#00dbb6" d="M35.93 9.2h5.01v25h-5.01z"/><path fill="#00ab8a" d="M35.51 17.15h5.86v25h-5.86z"/><path fill="#00dbb6" d="M35.08 26.75h6.71v25h-6.71z"/><path fill="none" stroke="#00ab8a" stroke-miterlimit="10" stroke-width=".5" d="M38.44 3.81V0"/><path d="M36.74 51.8a15.34 15.34 0 0 1-17.41 0 23.18 23.18 0 0 1 8.7-2.71c4.17.32 7.15 1.19 8.71 2.71z" fill="#003026"/><path fill="none" stroke="#003026" stroke-miterlimit="10" stroke-width=".5" d="M21.39 34.1h12.9"/><path fill="#00ab8a" d="M19.33 51.8h17.41v10.11H19.33z"/><path fill="none" stroke="#003026" stroke-miterlimit="10" stroke-width=".5" d="M21 60.74h1.58M23.5 60.74h1.58M26 60.74h1.58M28.5 60.74h1.58M31 60.74h1.58M33.5 60.74h1.58"/><path fill="none" stroke="#00dbb6" stroke-miterlimit="10" stroke-width=".5" d="M21 58.41h1.58M23.5 58.41h1.58M26 58.41h1.58M28.5 58.41h1.58M31 58.41h1.58M33.5 58.41h1.58M21 55.33h14.08M18.5 24.53h.83"/><path fill="none" stroke="#003026" stroke-miterlimit="10" stroke-width=".5" d="M14.67 44.93h.83"/><path fill="none" stroke="#00ab8a" stroke-miterlimit="10" stroke-width=".5" d="M19.26 47.41h.84"/><path fill="none" stroke="#00dbb6" stroke-miterlimit="10" stroke-width=".5" d="M15.46 22.2h.83"/><path fill="none" stroke="#003026" stroke-miterlimit="10" stroke-width=".5" d="M18.33 18.41h.84M17.15 20.28h.83"/><path fill="none" stroke="#00ab8a" stroke-miterlimit="10" stroke-width=".5" d="M17.29 15.45h.83M18.71 12.45h.84"/><path fill="none" stroke="#003026" stroke-miterlimit="10" stroke-width=".5" d="M16.59 10.24h.83"/><path fill="none" stroke="#00ab8a" stroke-miterlimit="10" stroke-width=".5" d="M15.87 13.78h.84"/><path fill="none" stroke="#003026" stroke-miterlimit="10" stroke-width=".5" d="M18.3 8.53h.83"/><path fill="none" stroke="#00dbb6" stroke-miterlimit="10" stroke-width=".5" d="M16.29 6.12h.83"/><path fill="none" stroke="#00ab8a" stroke-miterlimit="10" stroke-width=".5" d="M18.33 28.28h.84"/><path fill="none" stroke="#00dbb6" stroke-miterlimit="10" stroke-width=".5" d="M15.87 25.49h.84"/><path fill="none" stroke="#003026" stroke-miterlimit="10" stroke-width=".5" d="M18.92 42.58h.83M18.92 38.08h.83"/><path fill="none" stroke="#00ab8a" stroke-miterlimit="10" stroke-width=".5" d="M16.04 39.46h.83"/><path fill="none" stroke="#003026" stroke-miterlimit="10" stroke-width=".5" d="M14.89 35.41h.83"/><path fill="none" stroke="#00ab8a" stroke-miterlimit="10" stroke-width=".5" d="M17.08 36.74h.84M18.75 33.74h.83M19.68 31.16h.83M18.33 29.45h.84M16.25 32.08h.83M15.87 27.66h.84M17.08 48.35h.84M17.92 49.85h.83M15.63 49.1h.83M15.46 41.93h.83M17.5 41.05h.83"/><path fill="none" stroke="#003026" stroke-miterlimit="10" stroke-width=".5" d="M17.58 45.8h.84"/><path fill="none" stroke="#00dbb6" stroke-miterlimit="10" stroke-width=".5" d="M39.32 24.53h.83"/><path fill="none" stroke="#003026" stroke-miterlimit="10" stroke-width=".5" d="M35.48 44.93h.84"/><path fill="none" stroke="#00ab8a" stroke-miterlimit="10" stroke-width=".5" d="M40.08 47.41h.83"/><path fill="none" stroke="#00dbb6" stroke-miterlimit="10" stroke-width=".5" d="M36.28 22.2h.83"/><path fill="none" stroke="#003026" stroke-miterlimit="10" stroke-width=".5" d="M39.15 18.41h.83M37.96 20.28h.84"/><path fill="none" stroke="#00ab8a" stroke-miterlimit="10" stroke-width=".5" d="M38.11 15.45h.83M39.53 12.45h.83"/><path fill="none" stroke="#003026" stroke-miterlimit="10" stroke-width=".5" d="M37.4 10.24h.84"/><path fill="none" stroke="#00ab8a" stroke-miterlimit="10" stroke-width=".5" d="M36.69 13.78h.84"/><path fill="none" stroke="#003026" stroke-miterlimit="10" stroke-width=".5" d="M39.11 8.53h.84"/><path fill="none" stroke="#00dbb6" stroke-miterlimit="10" stroke-width=".5" d="M37.11 6.12h.83"/><path fill="none" stroke="#00ab8a" stroke-miterlimit="10" stroke-width=".5" d="M39.15 28.28h.83"/><path fill="none" stroke="#00dbb6" stroke-miterlimit="10" stroke-width=".5" d="M36.69 25.49h.84"/><path fill="none" stroke="#003026" stroke-miterlimit="10" stroke-width=".5" d="M39.73 42.58h.84M39.73 38.08h.84"/><path fill="none" stroke="#00ab8a" stroke-miterlimit="10" stroke-width=".5" d="M36.86 39.46h.83"/><path fill="none" stroke="#003026" stroke-miterlimit="10" stroke-width=".5" d="M35.71 35.41h.83"/><path fill="none" stroke="#00ab8a" stroke-miterlimit="10" stroke-width=".5" d="M37.9 36.74h.83M39.57 33.74h.83M40.5 31.16h.83M39.15 29.45h.83M37.07 32.08h.83M36.69 27.66h.84M37.9 48.35h.83M38.73 49.85h.84M36.44 49.1h.84M36.28 41.93h.83M38.32 41.05h.83"/><path fill="none" stroke="#003026" stroke-miterlimit="10" stroke-width=".5" d="M38.4 45.8h.83"/></svg>