<svg data-name="Layer 45" xmlns="http://www.w3.org/2000/svg" width="467.15" height="280.57mm" viewBox="0 0 350.36 795.32"><title>map_mask_right</title><path d="M179.52.5a40.51 40.51 0 0 1-1.74 12l.12 5.52c-5 .77-5.7 7.66-9.26 11.1-5.36 5.17-8.64 7.75-5.73 14.6q-7.54 12.37-14.11 25.3c.15-1.17-2.46-2.18-3.38-.84-1.06 1.55-.31 3.63.06 5.47 1.21 6-2.2 12.12-7 15.89s-10.75 5.65-16.57 7.45l-.64-4.43c-16 2.56-14.62 15.66-24.91 15-4.22-.26-8.79-1.47-12.81-.89a7.42 7.42 0 0 0-1.27 1.76c-1 1.95-.89 4.24-1.42 6.35-1.62 6.45-8.59 10-15.08 11.44-2.32.52-4.82 1-7.22 1.61a42.73 42.73 0 0 0-10.77 6.78c-.11.21-.23.41-.34.62a21 21 0 0 1-11.74 11.73l-.43.49c3.23 2.57 1.6 8-.7 11.59s-5.11 8.45-2.61 12l4.15-2.72c3 1.75 1.34 6.22.24 9.5-1.62 4.82-1.23 10.22-3.39 14.82s-9 7.65-12.23 3.75c-5.38 2.6-5.23 10.09-7 15.8-2.5 8.27-10.09 14.14-13 22.25a53.31 53.31 0 0 1 11.25-.92l-1.2 3.73c5.09.37 7.48 6.34 8.72 11.3l4.47 17.82c.51 2.05 1.07 4.19 2.48 5.77 1.66 1.87 4.22 2.65 6.23 4.14s3.43 4.54 1.79 6.43c7.43-.15 15.46-.12 21.44 4.3 7.05 5.21 8.83 16.29 3.77 23.45.22 1.48 2.21 2.1 3.59 1.5a7.44 7.44 0 0 0 3-3.23l3.91-6.39 5.32 2.73c1.13 10.94-8.31 11.07-.25 18.55a203.56 203.56 0 0 1 14.57 14.8c13.42-2 10.07-6.48 11.2-13.05a25.9 25.9 0 0 1 3.39-9.05c2.84-4.67 8-8.63 13.37-7.7a65.14 65.14 0 0 1-4.48-17.84 42.55 42.55 0 0 1 17.27 2.27l-.43 3.35q1.2.77 2.32 1.64c5 .77 10.2 2.69 11.06 7.41.64 3.51-1.55 7.61.57 10.48q-1.42.5-2.8 1.08a16.26 16.26 0 0 1-6.13 11.47 71.1 71.1 0 0 0 9.91 12.52c-2.15 3.76-4.2 7.54-4.79 11.79-.92 6.53 1.76 13 4.38 19l7.9 18.27c6.53 15.11 12.3 34.78.49 46.24a248.54 248.54 0 0 1 23.36 97.3c.25 7.73-1.29 17.48-8.73 19.58 9.39 9.92 9.88 25 9.83 38.7 0 5.29-.34 11.26-4.3 14.76 5 13 8.93 7.47 9.39 13.09a31.44 31.44 0 0 1-1.07 9.22l-2.95 13.54c-1.67 4.68-3.27 9.66-2.86 12.56v.39l-.7 3.22q-.18.82-.35 1.65c-1.31 2.63-2.95 5 .1 11.08 1.38 3.57 4.38 6.36 6.17 9.73l-17.41 1.18q0 4.07.06 8.15c-10.48 5.85-18.19 15.73-27.73 23.09s-22.34 2.15-33.27 5.84c.51 10.3-16.45 12.5-19 22.48-1.15 4.53 1.13 9.43 0 14-1.94 7.79-11.67 9.51-18.93 12.61s-12.53 15.12-5.14 17.89a14.71 14.71 0 0 0-8.91 8.34h299.11V.5H179.52z" fill="#406ab1" stroke="#1d1d1b" fill-rule="evenodd"/></svg>