<svg data-name="Layer 20" xmlns="http://www.w3.org/2000/svg" width="47.88mm" height="35.44mm" viewBox="0 0 135.73 100.47"><title>mexico</title><path d="M0 .2L11.35 0l.24.41-.17.38 16.13 7.38 13.56.41.09-1.73 7.67.24.89.55.75 1.08.41.5.09.43h.5l.43.63-.15.47.74.27.72.6-.05.43-.24.36.58.17.65.43.43.69.1 1 .33.39.27.05.15.36.55.51v.72l-.27.2-.55.14v.34l.82 1 .65.77.21.67v.26h.29l.39.39h.3l.45.18.17.34.06.3.32.32h.54l1 .49.13.32.8.26 1 .49.28.32.4.07.45-.18.09-.3.68-.54.47-.12.1-.4-.09-.25.41-.52.69-1.28.5-.49.55-.2.35.09.09.15.38-.07.27-.57h.85l.81.12.9-.07.36.18.21.27.61-.11.63.32.41.7.92.77.74 1.13.36 1 .26.41.12.72.07 1.12.51.26.24.65.62 1.73.39.26.21.6.74.39.22.93.45.79.79.82-.09.84-.09.88v.24l.08.29 1 2.77-.05 1.24.4.48.11.13.56.21.6-.09.6.34.77.76 1.56.52.89.45.86.21.29.58.41.21-.23.68.82-.55.27-1.37.65-.55-.14.48-.14 1.23-.37.41-.27 1.06-.72 1-.14.82-.54.07.17-.48.14-.85-.82-.07v1.33l-.58.71.62.48-.2.45-.31 1.33-.48.48v1.13l.31.41-.34.65.07.68-.51 2.36.24 1.47-.24 2.26-.75 1 .24.75.31 1.81-.14 1 1.23 1.95v1.4l-.31.28-.14-1.67-1.06-1.37-.14 1 .72.65.55 1.95.24.65-.34.65.55.82.21.92 2.6 2.8.43 1.06.87 1.28-.07.72.26.77 2 2.33.63.67.45-.1h1.3l.31.36 1.39.58 1.08 1.49.36 1.2 1.14-.52 1.61-.34.41.48h.55l2-1.13.27-.41 1.67-.14h1.09l.85-.72h1.26l1 .31.41-.55 1.33.38-.92.48-.24.58 1.09.48.55.55.2-.51h.55l.92-1.09v-1.36l.24-.82-.92.62-.17-.17 2.12-1.13.72-.17.91-1.09v-1.64l1.71-1.85-.13-.34.13-2.94 1.78-2-.75-.07v-.68l3.08-.75 4 .07.69-1 1.16-.13.41.41 1.16-.55-.07-.48 1.85-.07 2.19.55.55-.21-.21-.55.89-.07 1.38 1.74.07 1-.75 1.2-1.06 1.78-2.08 1.88-.41.69-.1 1.26-.92.58-.31.34.61.51h.79l-.17.69-1.06 1.13v.37l.41.21.48-.48.44-.07-.48.78-.75 3-.89 1.54-.2.21-.38-.89-1.06-.65v-.27l.44-.44.1-1-.55.17-1 1.2-.82.72h-.34l-.57.2-.2.38-.19.71-.6.82-.05.2-.36.09-.18.25-.21-.15v-.37h-.68l-.51.35-.07.69-8.23-.12-.19 2.49-2 .17.7.58.26.48.75.94.75.5h.53l.36.64.1.68.32.36.81.05.51.29v.62l-.48.55h-6.06l-2.84 4.49.09.76.08.24-.08.48.2.38.13.12v.41l-.43.33-.19.52-.16.13-.74-.91-1.33-1-.14-.55-1-.31-3.28-2.73-.41-.55v-.41l-.82-1-.82-.71-.92-.17-.17-.17h-.34l.07.28 1.54.68 1.09 1.1v.27l-.65-.58-1.44-.92-.85-.31h-.68l-.34-.17.21-.21h.48v-.41h-.62l-.58.31v-.51l-.34-.17-1.06.62v.45h.79l.92.13v.27l-.48-.07-1.2.1-1 .17-1.3.86-1 .07-2.43 1-1 .07-2.36-.86-1.26-.69h-1.64l-1.74-.68-.89-.55-.38.1-.79-.07-1.2-.55-.65-1.06-.27-.21-.68.28-1.23-.59-1.33-.1-.58-1-1.13-.58-2.36-.34-2-.82-1.37-1.4-.62-.1-2.32-2.25-.43-.55h-.53l-.24.36-.72-.05-1.83-.71-.6-.05-.94-.39-.39.14-1-.36-.68-1.06-.82-1.3-1.2-1.13-1.16-.41v-.41l.44-.58-.58-.1-1 .2-1.5-.38-.27-.55h-.72l-.45-.38-.34-1.16-.89-1.16v-.48l-.62-.62-.65-1.67v-.44l.58-.34H47l.41-.48-.55-.51-.48-.07.14-.55 1.09-1 .51-.85-.07-1.06-1-2.6-.51-1.37-.34-.65.34-.89-.17-.92-1.74-2.19v-1l-1.54-1.57-1.06-1.95-1.43-1.88-1.26-1.09-.44-.31-.07-.58-1.4-.58-.79-.45-.07-.34.58-.24.38-.82-.38-.58-.34-.89-.24-.55h-.58l-1.09-.27-1.88-1.47-.55-.48-.86-.07-.78-.55-.14-1 .48-1.33.82-.89.61-.21.48.51.38-.44-.14-.62-.24-.31-.31.31-.65-.34-.14-.72-.82-1-.75.1-.82-.21-.41-.78.2-.86-.58-.2-.58.07-1.64-1.47-.17-1.3.38-.58v-1.09l-.51-.41-.65.28-.34-.28h-.62l-.2-.44-.62-.51-.27-.82-.51-1.1-.62-.17-.37-.41-.1-1.09-.27-.75-.65-.31-.51-1.53-.34-.51h-.38l-.31-.65.27-.44.07-.48-1.16-1.64-.34-.82.21-.62-.14-1.13-.41-.75-.24-1.64-.48-1.13-.07-.82.65-.75v-.48l-1-.55h-.92l-.27-.55-.79-.75-.44.34-.79.14-.55-.48-.85-1.33-1.26-.58-.61-1.09.34 1.09.17.89-.44 1.64-.41 1.06.24 2 .14 3.31-.41.78.51.55.65 1.37v.92h.51l.44.68 1.3.89.27 1.26-.17.62.24.85.79.38.62.65.1 1 .38.41.61.13.79 1.23-.1 1v1.13l.89.82.38.13.79 1.26.27 1.91h.41l.27.48-.31.68.07.61.85 1.3.34-.31v-.93l.34.07.27.65.58 1 .27 1.78-.2.69.1 1.19.27.45v.92l.55.62v.68l.46.53v.58l-.2.65.72 1v1l-.48 1 .1.57.82 1 .72.58.14.55.41-.17v-.65l.27-.2.44.24.48.62.31.61.72.41.27.89.44.44.27.86.58.37-.07 1.2-.85 1.29-1.43.65-.58-.17-.41-1-.07-.71-.55-.45-.1-1.26-.44-.62-1-.1-.72-.85-.34-.65-.72-.31-2-2.19-.45-.92-.92-.21-.24-.64-.41.1-.92-.75-.14-.75.79-1.33.31-1.54-.14-1.95-.58-1.81-.48-.72-.48.13-.68-.31-1.64-1.57-.24-1.5.31-.79-.38-.1-.82 1h-.62l-.62.28-.34-.68.14-.34-.61-.24h-.62v-.48l-1.09-.51-.82-.28-.48-.85-.07-.92-.85-.38-1-1.26.24-.27 1.23-.1.72.28 1.16.2.65.41.34-.48.14-.58-.79-.14-.1-.24.48-.51.55.24.24-.75-.34-.55v-.51l.55-.72-.62-1-.41-.17-.48-1.44-1.16-1.16-.21-.75-.68-1-1.33-1.33h-.55l-.82-.79-.44-1.3v-1.61l-.27-.54-.58-.51.07-1 .31-.44-.14-.92-1-.89-.21-.58.31-.31v-.51L1.81 7.19 1.5 6.3l.14-.75.38-.28-.51-.68-.55-1-.65-2.42L.17.02zm24.53 45.52l.51-.34-.14-.68-.55-.75-.24.41.24.41.17 1zm.89 2.08l-.07.62h.41l.14-.51-.48-.14zm60.66-1.39l.29-.12.15-.55h-.32l-.12.64zm-.19 1.15l.12.15.24-.81h-.26l-.1.66zm-.56 2.09l.44-.82v-.72z" fill="#aa2358" fill-rule="evenodd"/></svg>