<svg id="Layer_40" data-name="Layer 40" xmlns="http://www.w3.org/2000/svg" viewBox="0 0 56.46 70.17"><title>obj1</title><path d="M2214.17,1624l0.19-9a11.08,11.08,0,0,0-3.71,0l0.17,9A1.74,1.74,0,0,0,2214.17,1624Z" transform="translate(-2165.8 -1576.23)" fill="#005d80"/><polygon points="56.46 48.75 56.46 41.97 32.08 35.8 32.08 47.52 56.46 48.75" fill="#2eafe5"/><path d="M2173.88,1624l-0.19-9a11.08,11.08,0,0,1,3.71,0l-0.17,9A1.74,1.74,0,0,1,2173.88,1624Z" transform="translate(-2165.8 -1576.23)" fill="#005d80"/><polygon points="0 48.75 0 41.97 24.38 35.8 24.38 47.52 0 48.75" fill="#2eafe5"/><path d="M2189.49,1638.23l-2.69-51.88c0-2.88,5.14-10.11,7.49-10.11s6.88,7.23,6.88,10.11l-2.05,51.88c0,2.88-2.22,6.52-4.83,6.52S2189.49,1641.11,2189.49,1638.23Z" transform="translate(-2165.8 -1576.23)" fill="#009de2"/><path d="M2192.42,1644.73l0.66-11.76a1.59,1.59,0,0,1,.9-1.56,1.69,1.69,0,0,1,1.09,1.56l0.47,11.76s-1.17,1.56-1.56,1.56S2192.42,1644.73,2192.42,1644.73Z" transform="translate(-2165.8 -1576.23)" fill="#005d80"/><path d="M2193.29,1645.71l0.29-5.18a0.7,0.7,0,0,1,.4-0.69,0.74,0.74,0,0,1,.48.69l0.21,5.18A0.69,0.69,0,0,1,2193.29,1645.71Z" transform="translate(-2165.8 -1576.23)" fill="#ff2323"/><path d="M2189.49,1585v-0.9c0-1.8,3-3.27,4.81-3.27h0c1.8,0,4.81,1.47,4.81,3.27v1a42.37,42.37,0,0,1-4.81.5A36.85,36.85,0,0,1,2189.49,1585Z" transform="translate(-2165.8 -1576.23)" fill="#005d80"/></svg>