<svg id="Layer_40" data-name="Layer 40" xmlns="http://www.w3.org/2000/svg" viewBox="0 0 17.44 92.5"><title>obj2</title><path d="M2246.62,1668.57v-77.37c0-7.62,8.72-15.12,8.72-15.12s8.72,7.75,8.72,16.13v76.38h-17.44Z" transform="translate(-2246.62 -1576.07)" fill="#00181e"/><path d="M2247.46,1658.17v-6.87l3.08-.79h9.62l3.08,0.79v6.87a3.09,3.09,0,0,1-3.08,3.08h-9.62A3.09,3.09,0,0,1,2247.46,1658.17Z" transform="translate(-2246.62 -1576.07)" fill="#ddebef"/><path d="M2253,1657h5.56a1.5,1.5,0,0,1,1.5,1.5v1.87a1.5,1.5,0,0,1-1.5,1.5H2253a2.44,2.44,0,0,1-2.44-2.44v0A2.44,2.44,0,0,1,2253,1657Z" transform="translate(1668.16 -2171.97) rotate(90)" fill="#00adcd"/><line x1="13.32" y1="75.5" x2="3.94" y2="75.5" fill="none" stroke="#0083bc" stroke-miterlimit="10"/><rect x="2254.26" y="1598.11" width="11" height="4.42" transform="translate(1613.46 -2235.51) rotate(90)" fill="#fb8f04"/><rect x="2249.85" y="1598.11" width="11" height="4.42" transform="translate(1609.04 -2231.1) rotate(90)" fill="#ff2323"/><rect x="2245.43" y="1598.11" width="11" height="4.42" transform="translate(1604.62 -2226.68) rotate(90)" fill="#fb0"/><rect x="2254.26" y="1609.11" width="11" height="4.42" transform="translate(1624.46 -2224.51) rotate(90)" fill="#850202"/><rect x="2249.85" y="1609.11" width="11" height="4.42" transform="translate(1620.04 -2220.1) rotate(90)" fill="#00dbb6"/><rect x="2245.43" y="1609.11" width="11" height="4.42" transform="translate(1615.62 -2215.68) rotate(90)" fill="#764300"/><rect x="2254.26" y="1620.11" width="11" height="4.42" transform="translate(1635.46 -2213.51) rotate(90)" fill="#fb8f04"/><rect x="2249.85" y="1620.11" width="11" height="4.42" transform="translate(1631.04 -2209.1) rotate(90)" fill="#00ab8a"/><rect x="2245.43" y="1620.11" width="11" height="4.42" transform="translate(1626.62 -2204.68) rotate(90)" fill="#003026"/><rect x="2254.26" y="1631.11" width="11" height="4.42" transform="translate(1646.46 -2202.51) rotate(90)" fill="#fb0"/><rect x="2249.85" y="1631.11" width="11" height="4.42" transform="translate(1642.04 -2198.1) rotate(90)" fill="#ff2323"/><rect x="2245.43" y="1631.11" width="11" height="4.42" transform="translate(1637.62 -2193.68) rotate(90)" fill="#00ab8a"/></svg>