<svg id="Layer_40" data-name="Layer 40" xmlns="http://www.w3.org/2000/svg" viewBox="0 0 17.38 125.48"><title>obj3</title><polygon points="9.56 49.71 7.69 49.71 6.31 42.35 11.06 42.35 9.56 49.71" fill="#00181e"/><rect width="17.38" height="44.16" fill="#ff0202"/><polygon points="15.12 3.63 2.25 3.63 1.42 0 15.96 0 15.12 3.63" fill="#80ffff"/><polygon points="15.12 40.54 2.25 40.54 1.42 44.16 15.96 44.16 15.12 40.54" fill="#80ffff"/><line x1="1.42" y1="7.5" x2="1.42" y2="11" fill="none" stroke="#80ffff" stroke-miterlimit="10"/><line x1="1.42" y1="12" x2="1.42" y2="15.5" fill="none" stroke="#80ffff" stroke-miterlimit="10"/><line x1="15.96" y1="7.5" x2="15.96" y2="11" fill="none" stroke="#80ffff" stroke-miterlimit="10"/><line x1="15.96" y1="12" x2="15.96" y2="15.5" fill="none" stroke="#80ffff" stroke-miterlimit="10"/><line x1="1.42" y1="29.28" x2="1.42" y2="32.78" fill="none" stroke="#80ffff" stroke-miterlimit="10"/><line x1="1.42" y1="33.78" x2="1.42" y2="37.28" fill="none" stroke="#80ffff" stroke-miterlimit="10"/><line x1="15.96" y1="29.28" x2="15.96" y2="32.78" fill="none" stroke="#80ffff" stroke-miterlimit="10"/><line x1="15.96" y1="33.78" x2="15.96" y2="37.28" fill="none" stroke="#80ffff" stroke-miterlimit="10"/><rect x="5.88" y="8.75" width="5.63" height="4.5" fill="#00181e"/><rect x="5.88" y="31.03" width="5.63" height="4.5" fill="#00181e"/><polygon points="9.56 84.36 7.69 84.36 6.31 77 11.06 77 9.56 84.36" fill="#00181e"/><rect x="1.13" y="50.5" width="14.92" height="29.16" fill="#39a600"/><rect x="15" y="50.5" width="2.1" height="29.16" fill="#3b8900"/><rect y="50.5" width="2.25" height="29.16" fill="#5cba00"/><line x1="2.25" y1="53.88" x2="15" y2="53.88" fill="none" stroke="#003700" stroke-miterlimit="10"/><line x1="2.25" y1="57.5" x2="15" y2="57.5" fill="none" stroke="#003700" stroke-miterlimit="10"/><line x1="2.25" y1="61.13" x2="15" y2="61.13" fill="none" stroke="#003700" stroke-miterlimit="10"/><line x1="2.25" y1="64.75" x2="15" y2="64.75" fill="none" stroke="#003700" stroke-miterlimit="10"/><line x1="2.25" y1="68.38" x2="15" y2="68.38" fill="none" stroke="#003700" stroke-miterlimit="10"/><line x1="2.25" y1="72" x2="15" y2="72" fill="none" stroke="#003700" stroke-miterlimit="10"/><line x1="2.25" y1="75.63" x2="15" y2="75.63" fill="none" stroke="#003700" stroke-miterlimit="10"/><polygon points="9.56 125.48 7.69 125.48 6.31 118.13 11.06 118.13 9.56 125.48" fill="#00181e"/><rect x="1.13" y="91.25" width="14.92" height="29.16" fill="#0074b5"/><rect x="15" y="91.25" width="2.1" height="29.16" fill="#00669b"/><rect y="91.25" width="2.25" height="29.16" fill="#008fcb"/><line x1="2.25" y1="94.63" x2="15" y2="94.63" fill="none" stroke="#004777" stroke-miterlimit="10"/><line x1="2.25" y1="101.88" x2="15" y2="101.88" fill="none" stroke="#004777" stroke-miterlimit="10"/><line x1="2.25" y1="109.13" x2="15" y2="109.13" fill="none" stroke="#004777" stroke-miterlimit="10"/><line x1="2.25" y1="116.38" x2="15" y2="116.38" fill="none" stroke="#004777" stroke-miterlimit="10"/></svg>