<svg data-name="Layer 20" xmlns="http://www.w3.org/2000/svg" width="8.33mm" height="46.753" viewBox="0 0 23.6 35.08"><title>pencil</title><path d="M1.64 6.7a.32.32 0 0 1-.19-.24c0-.71 4.85-1.29 10.82-1.29h2.92M15.2 5.22c4.56.15 7.9.65 7.9 1.25" fill="none" stroke="#f9c41c" stroke-miterlimit="10"/><path fill="none" stroke="#70706e" stroke-miterlimit="10" d="M16.95 28.13l.16 4.34-3.31-2.81L1.59 4.39l3.15-1.53 12.21 25.27z"/><path fill="none" stroke="#70706e" stroke-miterlimit="10" d="M.22 2.69L4.66.54l1.37.53 4.16 8.61M2.1 4.14l-.93-1.91M4.18 3.14l-.92-1.92M17.11 32.47l.9 1.88"/><path fill="none" stroke="#f9c41c" stroke-miterlimit="10" d="M1.45 6.47l2.29 28.11h17.34L23.1 6.47"/><path d="M17.09 5.3c3.56.21 6 .65 6 1.16 0 .71-4.85 1.29-10.82 1.29S1.45 7.17 1.45 6.46" fill="none" stroke="#f9c41c" stroke-miterlimit="10"/></svg>