<svg data-name="Layer 20" xmlns="http://www.w3.org/2000/svg" width="58.091" height="49.096" viewBox="0 0 43.58 36.83"><title>poland</title><path fill="#f74b96" fill-rule="evenodd" d="M26.16 36.64l.26.14.88-.03.57-.86.75-.26.74.09h1.13l.67.46.6-.61.77-.11.73.35.6-.28 1.78.07 1.97 1.16 1.03.07.07-1.44-.21-1.3 2.91-3.24.41-1.44.71-.75.79-.03.26-1.41-.34-.58-.14-.74.42-.53-1.15-.72-.55-1.39-.6-.62-.05-2.18.1-1.26-.96-1.54-.37-1.4.71-1.16.96-.34-.03-2.97-.55-.48-.2-1.16-.65-.99-.72-2.19-.82-1.33.07-1.13-.51-1.74-.65-.07-1.07-.86-6.25.62-6.02-.34-.55.21-1.61 1.44-1.36.32-.36-.32 1.36-.76 1.26-1.29-.43.04-1 1-1.76.82-2.05-.57-.43-1.11.33-.79 1.07.14.5.33.04-.33-1.33-.64-2.4-.61-1.86.97-1.37-.11-1.4.54L10 2.58l-1.36.04-.86.96v.76l-1.47.03-2.22 1.22-1.51.11-.54 1.15L1.68 8l-.32.18.07.46-.47.03.51 2.12-.14 1.58-1.33.68v.65l1.47 1.57-.17.96.68.89v.71l.41.99-.37.82.85 1.95.63.35.56.74.07 2.52-.26.41.35.75.41-.48.82.16.46-.24 1.93.29-.06.55.82.84.77-.11.7.6-.46 1.05.37.56.35.19-.05.91.65.27.45-.48h.61l-1.09-1.43.44-.31 2.22 1.23 1.41-.17-.25.82 1.03.82 1.77-.41 1.41.44 2.87 2.09.89 1.54.81.03.41-.48 1.27.04.72.75.26 1.21z"/></svg>