<svg data-name="Layer 16" xmlns="http://www.w3.org/2000/svg" viewBox="0 0 29.75 46.54"><title>poland-city</title><path fill="#ff2323" d="M0 11h14.88v35.54H0z"/><path fill="#850202" d="M12.5 0H1.63L0 11h14.88L12.5 0zM2.94 16.74h2.75v5.03H2.94z"/><path fill="#c61111" d="M2.37 21.38h3.88v.76H2.37z"/><path fill="#850202" d="M9.19 16.74h2.75v5.03H9.19z"/><path fill="#c61111" d="M8.62 21.38h3.88v.76H8.62z"/><path fill="#850202" d="M2.94 26.49h2.75v5.03H2.94z"/><path fill="#c61111" d="M2.37 31.13h3.88v.76H2.37z"/><path fill="#850202" d="M9.19 26.49h2.75v5.03H9.19z"/><path fill="#c61111" d="M8.62 31.13h3.88v.76H8.62z"/><path fill="#850202" d="M2.94 38.9h4.37v7.64H2.94zM9.19 38.9h2.75v3.82H9.19z"/><path fill="#ff2323" d="M3.44 6.75h1.75v2.88H3.44zM9.69 6.75h1.75v2.88H9.69z"/><path fill="#e61313" d="M14.88 22.97h14.88v23.57H14.88z"/><path fill="#850202" d="M27.38 15.5h-12.5V23h14.87l-2.37-7.5zM17.81 26.49h2.75v5.03h-2.75z"/><path fill="#ff2323" d="M17.25 31.13h3.88v.76h-3.88z"/><path fill="#850202" d="M24.06 26.49h2.75v5.03h-2.75z"/><path fill="#ff2323" d="M23.5 31.13h3.88v.76H23.5z"/><path fill="#850202" d="M17.81 38.9h4.37v7.64h-4.37zM24.06 38.9h2.75v3.82h-2.75z"/><path fill="#ff2323" d="M18.31 18.75h1.75v2.88h-1.75zM24.56 18.75h1.75v2.88h-1.75z"/></svg>