<svg id="Layer_12" data-name="Layer 12" xmlns="http://www.w3.org/2000/svg" viewBox="0 0 27.22 27.22"><title>rulers</title><polyline points="13.57 8.89 21.76 0.71 26.52 5.47 18.41 13.57" fill="none" stroke="#f3a713" stroke-miterlimit="10"/><polyline points="13.57 18.41 5.47 26.52 0.71 21.76 8.82 13.57" fill="none" stroke="#f3a713" stroke-miterlimit="10"/><line x1="7.46" y1="24.52" x2="3.93" y2="20.98" fill="none" stroke="#f3a713" stroke-miterlimit="10"/><line x1="9.23" y1="22.75" x2="7.46" y2="20.98" fill="none" stroke="#f3a713" stroke-miterlimit="10"/><line x1="10.88" y1="21.1" x2="9.11" y2="19.33" fill="none" stroke="#f3a713" stroke-miterlimit="10"/><line x1="12.53" y1="19.45" x2="10.76" y2="17.68" fill="none" stroke="#f3a713" stroke-miterlimit="10"/><line x1="19.29" y1="12.69" x2="17.52" y2="10.92" fill="none" stroke="#f3a713" stroke-miterlimit="10"/><line x1="20.9" y1="11.08" x2="17.36" y2="7.55" fill="none" stroke="#f3a713" stroke-miterlimit="10"/><line x1="22.67" y1="9.32" x2="20.9" y2="7.55" fill="none" stroke="#f3a713" stroke-miterlimit="10"/><line x1="24.32" y1="7.67" x2="22.55" y2="5.9" fill="none" stroke="#f3a713" stroke-miterlimit="10"/><rect x="710.3" y="912.64" width="6.73" height="29.77" transform="translate(-1146.89 -137.61) rotate(-45)" fill="none" stroke="#717170" stroke-miterlimit="10"/><line x1="2.7" y1="7.46" x2="6.24" y2="3.93" fill="none" stroke="#717170" stroke-miterlimit="10"/><line x1="4.47" y1="9.23" x2="6.24" y2="7.46" fill="none" stroke="#717170" stroke-miterlimit="10"/><line x1="6.12" y1="10.88" x2="7.89" y2="9.11" fill="none" stroke="#717170" stroke-miterlimit="10"/><line x1="7.77" y1="12.53" x2="9.54" y2="10.76" fill="none" stroke="#717170" stroke-miterlimit="10"/><line x1="9.46" y1="14.22" x2="13" y2="10.69" fill="none" stroke="#717170" stroke-miterlimit="10"/><line x1="11.23" y1="15.99" x2="13" y2="14.22" fill="none" stroke="#717170" stroke-miterlimit="10"/><line x1="12.88" y1="17.64" x2="14.65" y2="15.87" fill="none" stroke="#717170" stroke-miterlimit="10"/><line x1="14.53" y1="19.29" x2="16.3" y2="17.52" fill="none" stroke="#717170" stroke-miterlimit="10"/><line x1="16.14" y1="20.9" x2="19.67" y2="17.36" fill="none" stroke="#717170" stroke-miterlimit="10"/><line x1="17.91" y1="22.67" x2="19.67" y2="20.9" fill="none" stroke="#717170" stroke-miterlimit="10"/><line x1="19.56" y1="24.32" x2="21.32" y2="22.55" fill="none" stroke="#717170" stroke-miterlimit="10"/></svg>