<svg data-name="Layer 27" xmlns="http://www.w3.org/2000/svg" viewBox="0 0 29.7 81.79"><title>russia-city</title><path fill="#e61313" d="M6.83 36.61h16.13v12.32H6.83z"/><path fill="#c61111" d="M2.41 47.9h24.94v17.72H2.41z"/><path fill="#ff2323" d="M29.65 81.79H0V60.14h4.24v4.24h4.23v-4.24h4.24v4.24h4.23v-4.24h4.24v4.24h4.23v-4.24h4.24v21.65zM8.5 28.14h12.86v8.47H8.5zM14.93 7.86L8.5 28.14h12.86L14.93 7.86z"/><circle cx="14.88" cy="42.26" r="3.57" fill="#fff"/><path fill="none" stroke="#850202" stroke-miterlimit="10" d="M14.88 39.61v2.89h2.69"/><path fill="none" stroke="#ff2323" stroke-miterlimit="10" d="M14.93 1.13l1 2.03 2.25.33-1.63 1.58.39 2.24-2.01-1.06-2.01 1.06.39-2.24-1.63-1.58 2.25-.33 1-2.03z"/><path fill="#ff2323" stroke="#ff2323" stroke-miterlimit="10" d="M14.93 6.34V10"/><path fill="#e61313" d="M.05 75.97h12.1v5.82H.05zM18.45 75.97H29.7v5.82H18.45z"/><path d="M14.83 69.37c-2.4 0-4.34 1.06-4.34 2.38v10h8.68v-10c0-1.32-1.95-2.38-4.34-2.38z" fill="#850202"/><path fill="#c61111" d="M4.32 41.05L2.4 47.9h3.82l-1.9-6.85zM25.44 41.05l-1.91 6.85h3.82l-1.91-6.85z"/></svg>