<svg data-name="Layer 20" xmlns="http://www.w3.org/2000/svg" width="834.255" height="133.1mm" viewBox="0 0 625.7 377.28"><defs><linearGradient id="a" x1="1139.89" y1="628.43" x2="1764.79" y2="628.43" gradientUnits="userSpaceOnUse"><stop offset="0" stop-color="#878787"/><stop offset=".05" stop-color="#7f7f7f"/><stop offset=".16" stop-color="#757474"/><stop offset=".28" stop-color="#717070"/><stop offset=".67" stop-color="#565655"/><stop offset=".89" stop-color="#393938"/><stop offset="1" stop-color="#171714"/></linearGradient></defs><title>russia</title><path d="M1624.64 786.06l-.09-.14-.8-.75.2-.5v-.54l-.36-.23-.16-.82.05-.36.55-.33 1.13.12.33-.09v-.82l-.14-.48v-.63l.24-.45v-.86l-.07-.84-.55-.41v-1.63l-.1-.79-.1-1.15v-.86l-.62-.81-.31-.58-.22-.7-1.11-1.73-.34-.79.2-.43.58-.38.55-.05.46-.6.2-.64.87-1.35.37-.09.76.2.59.24 3 .54.46.15h.53l.38-.46-.12-.7-.29-.53-.07-.5.17-.36-.17-.5-.12-.53.48-.9.31-.34-.15-.74-.28-.48.14-.27.65-.33-.24-.45v-.53l-.31-.5.19-.63.46-.34V757l-.26-.5-.36-1-.07-1.11.31-.12.21-.21v-.36l-.21-.33.05-.53-.43-.29-.29-.43.27-.69.07-.79-.22-.24-.41-.58v-.43l.65-.79.72-.14.19-.37v-.82l.21-1-.58-.34-.44-.48-.1-.68-.79-.85-.17-.48.48-.44-.48-.85-.27-.51h-.79l-.51-.41-.9-.34-.48.48-.77.1-.53.46-.12.72-.48.15-.5.1-.26 1h-1l-.6.09-.29.69v.75l-.62.33-.22.87.07.51-.5.22-.6.55-1.33.24-.46.17-.67-.17-.39.39-.58.22-.24-.63-.43-.62h-.67l-.63.46-.74.21-.24-.48-.75-1-.41-.26-.91-1.13v-.69l.22-.27.16-.89-.29-.77-.19-.84-.79.05-.08-.55v-.65l.41-.58.1-.62-.36-.17-.38.09-.5.38-.56.05-.5.15-.65-.12-.48-.38-.46-.05-.24-.22-1-.46-.12-.46-.43-.45h-.26l-.5-.41-.14-.46-.51-.07-.49-.56-.19-.53-.36-.34-.48.07-.19.56-.5-.14-.47.19-.14.38-.58-.38-.31-.38-.48-.24-1.06-.1-.31-.27.38-.41v-.27h-.65l-.51.41-1-.14-.41.23-.48-.27-.48.17-.62-.1-.34-.61-.78-.27-1.06-1.09-.51-.92.1-.65-.2-.82-.51-.1-.55-.31-.07-1-.34-.31-.17-1-.31-.89-1.71-1.09-.91-1.22-.06-.52-.44-.74-.46.22-.27-.15.14-.53v-.41l-.6-.45-.31-.79-.48-.24-.17-.69-.58-.74-.39-.79-1.08-.65-.1-.51.28-.63-.14-.53-1.21-.07-.19-.3v-.46l-.24-.57-.05-.65-.33-.55-.46-.26v-.45l-.32-.31-.46.07-.79-.22-.22-.41.26-.46-.15-.44-.65-.12-.48.38-.22-.36h-.53l-.15-.48.12-.5-.29-.43-.62-.24-.48.06-.49-.54-.34.16h-.68l-.43-.22-.45.27.07.58-.37.17-.86-.41-.31-.31-.62.21h-1.09l-.17-.41-.61-.51-1.5-.14-.65-.48-.75-.07-.55-.14-.24.14-1.37.17-.27.72h-.38l-.41.38h-1l-.58.1-1-.17-.55.61h-.82l-.37.72-.72.31-.68-.07-.17.17h-.62l-.58.2-1.23.14-.51.44v.58l-.69.82-.27.89-.38.48v.48l-.31.41v1.16l.31.38.48.07 1.06-.65.65-.27.58.14.68 1.13.38.89.68.51v.72l.21.58-.07 1.13-.58.44-.62.92-.2 1.09-.58.48-.55 1-.07.79.48.79-.17.51.14 1 .56.58-.1.89-.57.31-.17.55.34.84v1.37l-.26.4.08 1.32.48.09.34.27.38-.27.36.22.19 1-.27.91-.74.72-1.69.29-1.08.75-2.26 2.14-.53.09-.68-.58-1.39-.19-.86.15-.15-.33-.67-.1-.53.17-.45-.48-1.78-.55-1.57.27v.48l-1.06.62h-.86l-.48-.38-.89.48-.72-.27-.55-.82-1.13-.72-.89-.1-1.4.38-.31-.27h-.82l-.67.68-.38 1-.69.72-1 .44-.58 1v.41l-.31.92-.92.85h-2.19l-.79.1-.75.89h-1.09l-1.78 1-.75 1.16-.55.07-.89-.48h-1.06l-.48.38-1.2.17h-2.84l-1.88-.55-2.15.2h-.72l-.82-.89-.62-.14-.58-.34-1-.65-.51-1.5-.48-.44-1 .24h-1.37l-1.68-.65-1-1.37h-1.84l-1.4-.14-1.07-.59-1.18.34-1.23.05-1 .58-1.88.14-1.35.43-.82.89-.62.19-.58-.21h-.7l-.65.45-1.44-.07-.34.33h-.67l-1.46-.75-1.4-.4-.27-.51-1-.85h-.58l-.58-.48v-.85l-.48-1.06-.44-.51v-.68l-.48-.65v-.62l-.34-.75-.75-.31-2 .07-.82-.14-.67-.32-1.22-.12-.44-.43-.65-.43-1.71.05-1.18-.1-1.09-.38-.17-.33-1.26-.6-1.25-.33-.63-.43-.93-.05-.6.53-.14.74.28.79-.34.79-.48-.17-.78.27-.48.79v.72l-1 1.09v2.32l.34 1.16 1.4.38.48.62.89.31.17.62-.27 1.54v1.44l1 .65.51.58-.89 1.43-1.61.21-.89-.17-.21.24-.89.1-.79-.38h-2l-.75.24-.72-.51-.89-.24-.82.1-1 .75-1 .34-.62.34-1.71-.79-.89-.72-2.32-1.33-.27-.62-.17-.79-.31-.75-1.5.1-.72.48-.86-.07-.51.17-1 .07-.55-.58-.1-.55-.58-.79h-.24l-.72.44-1.09-.07h-.78l-.92.24-1.68.2-.75.31-.48 1.23-.65.34-1.57-.44-.31.41v.68l.51.38-.41.38-.65.92-.79.2-.79.75v.65l-1.23.58-.34 1-.07 1-1.5.55-.82.89-.31.48-2.19-.1-.86.44-.75 1.74v.12h-.41l-1-.34h-.59l-.23-.27-1.4-.48-1.06-.92-.68-.17-.27-.79.41-1.16-.51-.24-.92.51-.48.82-1 .31-2.24.15-.75.41-.26.43-.72-.34-.94-.39h-.43l-.21-.24-.46-.45-.26-.63v-.75l.17-.46-.05-.55-.7-.33h-.35l-1.11-.7-1-.27h-.46l-.49-1.1-.77-1.37-1.4-1-1.44-.38h-1.68l-1.57.22-.17.5.31.5-.24.43-.93.36-.79-.17-1 .46-1.22-.67-.79.14-.65.43h-.84l-.69-.7-1.08-.29-.08-.65.13-.65-1.37-.65-.74.36v1l.24.21-.2.56-.77.5-1.16.2-11.63-14.58-8.53-6.4-.38-.7.75-.19.79-.87v-.84l-.53-.33-1.22.38-1 .27-.73.76-.75.27-1 1-.09.7-.72.58-.39.82-.89.6-1.39.19-.89.33.19 1.08-.58.41-.46-.31-1.9-.46-1.08.29-.55.67-.65.05-.63-.84v-1.23l.58-.51.39-.93-.53-.29-.7.58h-.62l-1.78-.86-1 .22.26.53.53.24-.68.74-.56.05-.62-1.18-.19-1.53-1.63-1.18-.31.21.36 1-.12.74h-.58l-.31-1-.6.26-.17.91-.53.19-.74-.6-1 .63-.56-.41-.43-.89.74-.21.05-.36-.08-1.13.24-.82-.1-.53-.63-.34-.65-.82-.35-1-.37-.29-.39-1.16-1-.09-1 .45h-1.13l-1.14-.77-1.3.14-1.16-.48-.72.24-.58-.1-.86.48-.27.92-1.26.07-.51.27.44.72v.68l-1.26.27-.62-.17-.65.85-1.13.21-.44.31h-.44l-2 1.37-1.06.34-.89.51-.69-.14-.51-.48-.61.51-.14.62h-1l-.55.48v1l-.38.34-.65-.27-.68.07-.75.51h-1.16l-1.26.79-.24.41-1.26.1-1.2.58-1.09.1-1.64.51-.1.68-.44.62-.55-.86h-.85l-.82.51v.58l-.38.48-.86-.62-1.09.14-.31-.51h-.68l-.48.58-1 .07-.34.31.51 1.13-.44.48.85.24 1.2-.17.38 1h-1.26l-.41.38.1.62h1.2l1 .41.58-.44h.75l.75.75.92.27v1l-.55.38-.78-.27-2 .21-1.09 1-1.06 1.54.07 1 .72.1.24 1.09-.72.85-.17 1-.85.1-.14.48.31.58.07.61h1.13l.65.62 1.06.24.17.51.89.72h1.4l.45.34.24 3.72-.44.79-1.61.54-1.33-.14-1.47-.89-.48.44-.07.92-.48 1-1.06.2-1.68-.92-1.44.07-.65-.38-.41.27-.85-.27-.92-1.09.72-.38.31-.65-.69-.34-1.13-.61-.51.65-1.06-.1-.75.24.17 1.16-1.33.14-.27-.51-1.37-1.26-1.09.17-.41.79-.55-.72-.75.24-.07.89-1 .1-.1 1.78-1.16.89-.75-.31-.55-.89-1.81-.27-.65-.92-.92.55.1 1.2-.62.92-.55-.17-.07-1.09-.38-.65-.75-.07-1.33-1-.75-1h-1l-1-1.23h-.55l-.48-.72h-.78l-1.71.55-1.06-.72-.51-1.26h-.86l-1 .68-.92.1-.14.58-.61.65v-.82l-.65.41-.24.72-.89.51-.48-.48.65-.79.13-.61-1.13-.48-1.4-.82-.24.62.24.85-.13.85-1-.27-.72.55-.44 1.26h-.65l-1.4.89-.31 1.09.69.85v1.13H1247l-1.47.17 1.09 3.79-.58.48.17 1.44-1.47.14-1.43-.89-.31-.85-2.53-2.29-.69.89v1.2l-1.26 1.57-.92.44.24 2.32.72.72-.41 2.94-.72 1.64 1.95.75.82 1.33-.31.72 1.54 1.3.38-.72 3.07.85 2.19 2.05 1.91 3.21h-1.81l-.1.79 1.74 1.16 1.23-.41 1.16.75-.05.38-.05.5-.72.14.41.36v.53h-.51l.44.29v.57l-.75-.19-.34.12-.87-.24-.62.14 1.37.79.19.53-.34.31-.45-.45a6.42 6.42 0 0 1-.73.19 1.47 1.47 0 0 1-.43-.19h-.44l.68.26.14.39-.65.48h-.63l-.46.36-.39-.4-.2.55-.38.21-.46-.38-.48-.17v.6l-.42.75-.2 1.06-.51.34-.31 1-.38.75v1.74l-.51.38-.31.85.45 1.64.78.1.58-.17.61.75.89.27v1.57l1.09.68.48-.44h.55l-.38.79-.24.89-.48-.21-.1.82h.65l.14.51.27.65.1 1.37.72.82.31 1.37L1250 809l2.53 2 .43.3v.09l-1.6 1.94-1.37.75-.41.82-2.19-.21-.62-1.16-2.19-1.78-1.37-.14-.48 1.71 1.23.75.68 1-.27 1.71-1.71-.89-1.78-.07-2.67-1.51-1.78.69-.08.79.9.85-1.16-1.09-2.67.07-.62-.14-2.12.48-1.47.51-.08-.08-.85-.21-2-1.67-.79-.2-.68.58-.58.1-1.23-.48-.44.58-.55-.17-.2-.85-.59-.07.14-.19-.21-.83.32-.54-.83-1.51-.25-2-.57-.72-1-1.58-1.15-.14-.07-.61-1.22-1-.5.32-.47-.25-.93-.14-.75-1.11h-.5l-.9-.36-.29-.65h-.75l-.75-.64-.28-.57-.86-.29-.61-1.15-3-2.22-1.25-.32-1.83-1.11-1.76.14-1-1.08-.07-.72-1.29-1.08h-.54l-1.11-.14.64-.54.72-.32-.36-.68v-.43l1 .25.75.57.22-.14.93.14.21-1.36-.47-.32v-1l1-1v-.36l.39-.36.65.11.39-.57.61-.14v-.4l-1-.29-.25-.5-.5.43-.68-.68-.64-1.4 1.61-.22 1.15.22.61-.68h-.61l-.47-.47 1-.72 2.47-1.33.25-.72-.29-.5-1.25.18-1 .72-1-.18-.19.07.27-2.14.61-.27 1-1.64 2.29-.14.85-.65-.17-1.2.58-1.74-.21-1.37-1.37-1 .31-2 1-.21.79-1.06v-1.26l-.65-.38-.41-1.09-.72.72-1.43-.27-1.23-.75-1 .17-.89-.55h-1.26l-1.71-.38-.65.65-.44-.92-1.47-.92-1.06-2.32-.75.1-1.61 1.23-1-.21-1.09.31-1.33-.72-.86 1-2.15-2.08-.51-1.54v-1.3l-.89-.14-.14-1-1-.82-2.63.38-1.3-1.71.55-1.06-1-.82-.72-2.19-1.09-.07-1.19.65h-2.43l-2.36-.79-.72.65.1 1-1.09.24-.76-.18v-1.2l-1.09-1.23.13-1.3-1-1.51-.07-1.16.41-.75 1 1 2.46-.34 1-1.57.55-.48-1.23-.82-.14-.89-1.78-1.57-1.57-.41-.41-1.57-1-.68-1.15-1.92-.55-1.3-1.09-1.16v-1.44l-.82-1 .34-1.23-.27-1.09-2.05-.75h-.68l-.55-.68-1.37.41-1.23 1-.89-1.58-1-.14-1.16.55-1-1.5-1 .62-.82-.55-.38.09-.16-1.34-.65-.89-.51-1.37-.31-.44-.61-1.16.13-.62-.27-.79-.41-.38.2-.44-.13-.82-.94-.14.71-1.06-.14-.89.75-.65v-1l-2.19-4 .34-3.55.55-.38.32-1.35.74-.95.13-.3-.06-.15-.43-.74v-.09l.3-1-.43-.72v-.54l.43-.14.39.79.86-.29-.07-.93.54-.43.93.57 1.15-.86.25-.82.57-.22 1.4.47.57-.72-.82-1.18h-.75l-.43.18h-1.08l-.61-.9-1.11-.07-1.11-1.22.18-.61 1 .86v-.77l-.32-.61.68-.57-1 .18s-1.11.64-1.33.72a.63.63 0 0 0-.22.25l-.17-1.3 2.19-2.08 1.13-.55 1.26-2.26 1.33-2 1-2.36 1.91-3.25 1.37-3.38-.31-1.44-2-2.36-1.23-.41-2.19-3.08.38-1.4.89-1.23-.1-1.4-1.44-1-.51-1.09-.07-1.74.38-.44-.41-.89-1.16-.2-.62-.79v-1.57l.65-.85-.92-.24v-.82l.2-3.08.86-.2-2.12-4.92-2.11-3.54-.41-1.33-1.13-1.23.79-2.25 1-1.54.45-1.4-.58-.55-2.15-1.37-.38-.89-.72-1.09-1.3-.72-.65-.1-.82-2.15-.65-.79.34-1.61.2-1.26-.76-.26.77-.53 1.25-.5.57-.1v-1.66l1.27-1.22 1.13-.15.74-1-.1-1.36.79-.07 1 .39.58-.74v-1l1 .12.39.36v.93l.41.59.12-1.18.38-.62.63.07.41-.21-.81-.56v-.36l.54.11.57-.13v-.36l-.29-.09-.32-.54.2-.3.9.09.95.45.5.7.49.41.38-.36.71.3.23.32.57.36.07.5-.82.65-.71-.32-1.11.14-.71-.73-.05-.59-.5.66v1l.27.84.65-.63.37.27.23.84.75-.64.78.27.09.7.25-.07.42-.57.25.29-.11.36v.61l.79-1 .43-.43.39.21-.25.36-.18.54h.72l.32.39-.57.36-.57.9 1-.11.61-1.15-.18-.61.36-.36 1-.11.65.47.14-.43-.5-.68v-.25l.9.4.61.82 1.36.07.93.36.72-.39-.11-.47 1.15.25 1 .61.15-.39 1.11.47 4.84 2.58 3.27 2.15.68.79.9.29 1.11 1.65.72.18-.18-.54v-.39h.47l1.36 1.25.75.07 1.18 1.08.68-.29-.75-1.11-.21-.47h.5l1 1-.07.9 1.9 1.33-.11.61 1.08.5.21-.43.82.18 1 1 .32 1.18.57.36.75 1.18.36-.11.36.36v2.29l-.21 1.4-.32.72v.65l-1 1.33-.18.65-1.79 2.44-1.29.68-1.54.29-.68.54h-1.4l-.29.39-2.15.25-2.74-.15-1.56-.44-1.13-.81-.7.5-.79-.23h-1.3l-.18-.47-.79-.25-.71.5-1.18-1.15v-.57l-.93.14-.83-.11.4-.21h-1.51l-.43.47h-.93v-.54l-.36-.29.57-.39-.61-.68-.18.39h-1.54l-1-.68-.18.32-.65-.07-2-1.69-.18-.9-1.22-.11-.25-.29h-.86l-.21.29 1 .68.21 1.36 1.11.72.25.72 1.4.32.29.32-.94.47-.43.57.21.25 1.54-.39.65-.43.64.47-.68.29v.29l1 .11-.25.72-.93.14-.4.54 1.11.18.39-.29h.75l.47.5.57-.43 2.15.9 1 1.44.5.11-.32.57-.07.64.32.11.07.93-.14 1.51-.72.25-.18.82.75.22.07 1.07 1.29 1.26v.79l.93.68v.9l.18 1.1-.39.75.45.46.43.77 1.9.7.87-.71.38.05.64.88.82.52.11 1.16.43.34h1.49l.61.52h1.36l.84.79h.52l1-1.11.79-.07.57-.25.07-1.48-.72-.63.32-.46-.05-.36-1-.4-.11-.75-.75.54h-.54l-.9.39-1.15-.57-.83-1.11-1.29-.61-.25-1-.68-1.29.93.07.61-.61-.32-.5.21-.54-.29-.61.22-.61h1.07l1.08.72 1.33.25.65 1 .86.72 1.65.07.32.61 1 .11 3 1.43 1.26 1.22.5-.79.82-.68v-1h.72l.72-.82-1.25-1.87-2.08-2.15-.5-1.4.11-.82 1.29-1 1-1.4.29-1.22.79-.75 1.11-.21 1.54-1.26 1.07-2.29.65-.5 1.18.18 1.06.63 1.36-.18 1.47.18.5.65-.14 1 1.15-1.07 1.18.9.36 1.18.61.54-.14-1.72-.65-1.26.4-.54v-2.19l.32-.68-.43-.32v-.54l.18-.47-.18-.64.18-.47-.68-.75-1-.61-1.4.07-.39-1.18.36-1.22v-2.18l.36-.29-.22-.68v-.9l.39-.32-.5-.65v-1.08l-.72-2-1.36-1-2.33-1.9v-.5h1.08l1.94 1.29h1.15l.75-.4 1.76-.14 2.55.25 1.18.75v.86l1 1.18 1.08.14.18.75 1.33 1.68-.18.72h-1.69l-.43.64h-1.47l-.47.5.14.54-.39.68-.5-.29-.25.54-.07 1.4.68.36 2 1.65 1.9 2.47h.86l1.25-.9.57 1 .43-.57h1l.25-.5 1.69-.75.32-1-.43-1.43.61-1.08v-.86l-.71-.9.5-.36 2.55-.32.4-.54 1.54.57-.21-.72-1.25-.93-.39-.93h.46l.72.68.79-.43 1.76-2.15.54-.14 1.94-2.37v-.54l.57-.3 1 .2 1.29-.61.23-.61 1.84-.57.11.71h.34l.18.73-.34.55.52.36 1.09-1.07.11-.68-.55-.25-.7-.72-.06-.43 1.75-1.72h.29l.15.6-.33.19-.32.44.88 1 .58-.17.52-.69-.35-.57-.29-.88-.34-.43.75-.61 2.5-1.07 1.7-.25.18.38-.95.48-.71.05-1.75.82.32.45.64.14.54-.29 1.09 1-.61.34-.22.38.64 1-.39.68h-.95l-1 .93.2.77.79.16.63-.18h.63l.66-.43 1 .38V624l.47-1.16 1-1.14.47-.07.41.64.77.57.3-.39-.2-.55.23-.59-.7-.5v-.43l.81-.88 1-.16.27-.5 1.25-.79.56.43h.62l.43-.23.7.27h2.06l.73-.54v-.61l.5-.55 1.18-.11.09-.52.87-.77.74-.16 1.25-1.23h.5l.72-.38.18.32-.72.82.73.29 1 .93v.52l-.77.71.45.95-.2.73.55.7 2.4.11.5-.55v-.57l-.36-.34-1-1.2.07-.54.67-.53 1.29.58.9-.61.39-1.58.71-.07.43.39 1.26.22-1.29-1.4-1.08-.29-.11-.86-.79-1.54-.57-.07-.18.82-.47-.79-.5-1.72-.65-.36-.68-1.08v-.39l1-.36v-.79l-.46-1 .57-.54.79.18.39-.21.79.54.93-.14.9.29 3.59-.5 4.31.28 1.36.93 3 1.11.25.64-.32.5.47 1 .9-.79 1.36-.5.79.72.72.07.18.9 1.58.21 2.62 1.51 2.51.21 1 .82.61 1.33 1.47.29 1.29 1 1.11 2.12 1 .21.07-.61-.25-1.33h.57l.22-.5-.65-1 .29-.64v-2.55l.86-.68-.86.07-.14-.39h-.9l-.72.47-1-.29-1.94-2.29-.54-.11-.72-.9v-1.69l-.5-.47-.9 1.26-1-.68h-1.11l-.86-.57-.46.75-.33-1.61-.72-.64-.79-2V600l.64.5.75-.68v-1.08l-1.44-1-.11-1.18.68-.9.68.18-.86-.79-1.07-.07-.68-1.72-.65-.61-.61.39-1.15-1.04.14-1.58.54-.83-.61-.93-.18-.79.64-.43 1.65-2.58 1-.72.29-.57-.43-1.18-.11-.9.64-1.18-.72-1.11-.11-1.44.36-.75-.32-.72v-1.11l-.57-.57.47-1.76.32-.36-.7-1.09.29-1.62-.14-2 .75-.22.79.4-.32.43.32.39 1.08-.46h1.33l1.18-.61h.82l.82.39.54-.47h1.11l2.84 1.15h1.32l1 .22.27 1-.75.32.61 1.08v1.15l.5.54v1.69l.61 1.47-.43 2.58.5.75-.21.64.43.79-.25.9-.57.32.36 1.11 1 .93.64 1.22 1.11.32v.19l.72-.29.5.39.39 1.79 1.15.79.61 1 .36 2.9.79.83v.65l-.29.68 1 1.11v1.43l1.47 2.15-.36 1.26.58 1 1 .61-.5.82.54.5.4 2 1.9 2.44 1.51.5.64.79.68.14 1.43 1.4v.75l-.47-.18v1l-.25 1.29.61 1.79 1.08 1.08.14 1.47-.86.75.07.47-.64.79.4.54v2l-1 .54.21.39.72-.18.14.54-1.11.64-.07 2-.43.61-1.18-.57v.64l1 1.08.11.72-1 .47-.72.93-1.76.11-.9-.75 1.43-.79v-.72h-1l-.25.61-.68.07-2.15-1.22-.47.61-2.69.36-1.4.11-.68 1.25.64.11.32.36.54-.9 1.47-.29.43.93 1.25 1.18 3.52.58 1.51.43 1.76-.29h1.65l.32.5 1.83.39 1.43-.82v-.93l-.58-.68v-1.18l.61-.83.9-.43.07-.68 1.33-1.33.11-.86.82-2.22-.82-1.4.25-1.58 1.47-2.58.15-.86-1.44-3.48-2-1.15-.57-.82-.14-2.73 1.47-1.15.75-1.11 1.26-.18 1.94-1.86 1.29-.07 1.51 1.47V607l1.54.75.39.72h.43l1.18 1.47-.18 1.15.82.54.25 1.08.89 1.11.18 1.18-.47.43.72 1.07 1.15.07 1.25.9 1.29-.29.79-.25 1.43-.14.32-.54.54-.32-.64-.25-.93.25-.32-.72-.72 1.22h-1.36l-.61-.86h-1.08l-.57-.86.32-.79-.57-.36-.68-1.36.11-1.58.93-.25.75-.64-.68-.54-.21-.75-.29-.18-.32-.75-1.43-.83-.07-.75-1.08-1.43h-1.61l-2.26-.93-.58-1.08-1 .36-1.72-1-.83.29-1.18-.36L1315 603l-.32 1.29-.64.54-1.68-.54-1.4.86-1.33-.4-.5-.64.15-1.22-.15-1-1.79-1.87-.58-1.11.18-2.12-1.07-1.68.25-1.18.29-3.08-.86-1.94-1-1.11h-1.22l-.46-1.33-2.19-1.86-1.79-1v-1.18l.65-1.83-.29-1.47-.72-.68v-.54l1-1 1.58-1.83.5-2.08-.61-2.55-2-3.84.61-.36 1.36 1 .21 1.26.64.18.43.5.11 1.51 1 1-.11 2.08.75 1.29-.43 1.18.57 1 1.44 1.25v.79l.82.68v.68l-.82.57.47.75 1.15-.22 1.29.83h1.69l.89-.4.86.61.32.75.86-1 1.08-.11.9-.47.82.22 1.29 1.43.9.11 1.26.72 2-.32.68-.9-.82.57-1.94-.18-.25-.93-.61-.21-.54-1.4h-1.61l-.18-.75-.43-.07-.57.64-2.33-.18-.89-.72-1.58-.11-1.65-1.43-.36-1.18-.58-.07-1.43-2.15.68-.25.43-.54 1.33-1h.72l1.29 1.51 2.15.9 1.33-.29 1-1.9-.86-1.72-1.76-.43-1.58 1-.61-.68.25-.57.47.32.54-.36.11-1.08 1.15-1.79 1.08-.65.93.43 3.3-.07 1.15 1.22 1.18.79 2.76.32.21.93 1.08.57 2 2 1.36.07 2.51-.36 2-1.22.53.8.4-.11 1.11.11-.25 1.69.18.93v.72l-1.4.82v1.26l.61 1.08v1.58l1.54 1.22.11 1.08-.65.82.43 3 .61-.07.29-1-.29-.64.57-.72-.14-1.18.72-.29.54-1.51.75.54.57 1.65.14 2.22.25.75-.65.43v1.11l-.43.36 1.72 1.14 1.51-.09 1.47.36.9 1.22-.07 1 1 .79h1.93l1.9 2-.18-.68v-1.33l1.44-1.51h1l2 1.61h1.43l.76.93.46 1.76-.21-1.9-.58-1.22h-.86l-1.29-.47-1.8-1.18-1.54.29-1.54 1.22-.72-.25-.18.18-1.65-.68-1.76-1.9-.93-.68-1.61-.14-.9-1.4.75.29.58-.11 1.08-2.08-.36-1-1.29-1.15-.57-2.12-1.51-2.19-.93-.65-1-1.29.25-1.11-.32-1-.25-2.44-1-1.15h-.65l-1.65-1.08-2.47-.07-.75-1.33-1.44-.75v-1.22l-.43-.79v-.72l-1.15.72-3.26-.14-1.11.11-1.36-.9-.18-1.29h-.43l-.39-.79.11-1.69-1.22-2.15-1.69-1 .36-.72-.21-.57h-.75l-.57-.61.29-1v-1l-1.11-.86.72-.57h1.33l1.18-1.18h1.15l2.58-.57 3.62-1.33 1.36-1.18 1.15-.25.93.36 1.15-.47.5-1.15 1.72-.65 3.3-1.4.32.4-.54 1 .11.72-.72.5-.9 1.94v1l2 1.58h1.76l-1-.47-1.65-1.65v-.65l.75-1 1.9-1.15.68-1.72-.68-1.36h-1.15l-1.36-.93.29-.83-1.47-.07-.47.57-.57-.47-.47-1.29-1.58.07-.75.32-1.11-1.33.47-.32.14-.75.54-.29.9.83h1.15l1-.5-.36-.57-.5.25-.9.25-.93-.72-.18-.9-1.08-.14-1.5-.47-.93.43-.61-1 .54-.61-.07-.86-.61-.58.21-.36.68.14 1 1.4.86-.25 1 1.47.14-.9-.18-.68 1.06-.73.18-1.9-.72-.57.22-.36 1 .18.5-.72-2.22-.54-.47.64h-.72v-.93l.9-.75 1.61-.07 1.18-.4-.15-.86.93-1v-.9l.32-.36-.14-.47.9-1.29h.36l.43.65.5-.25.29-.86h.39l-.57-.83.36-.54 1.22-.39.54-.25.25-.86.5-.11.86.36 1.61-.36-.36-.57.14-.75 2.08-.32 1.15-.68.46-1 2.66-1.11.21-.93-.57-.14-1.61 1-.54-.54-1.07 1.08-.58-.57v-2.08l.54-.36.39-.86.36.14.15.47.32.18.72-.72-1.08-1 1.22-.18.83.54.82.18 1.36-1 .93.32 2.51-.9 1 .18.39.75-1 2.22v.39l1 .72.36-1.36.86-1.43-.22-.9.22-.39.75.9.18 1.47h.79l.36-1-.36-1 .68-.54.39.11.18 1 1.4-1 .18-.57-.64-.79h1l.54-.57-1-.36 1.08-1 1.22-.07.89-.54.54.22v.61l.36.25 1.47.11v1.36l.54.57-.79 2.19 1.33-.65.93-2-1.07-1.94-1.22-.75-.9-1.26-1 .65-.57-.43-1.11.22-.22-.79-1-.32-.18-.36.68-.75h1.94l.65-.72h.86l.93.21.93-.39.64.43 2.15-.9 1.15.57.72-.11.83.18.79-.57-.36-.57-1.51-.11-1.47-.61-1.18.47-1.72-.14v-.72l-.43-1.15 1.36-.9-1.29-.29-1.08-1.4-.93.07-.9-1.15-.14-1.15h.86v-1.11l-1.15-1 .14-4.38 1-1.18-.36-1.15.21-1.58.9-.9-.61-1 .86-.25.21-.79 1.33-1.15h.65l1.15 1.33.9-.9h.83l.5 1.36 1.29.22 1.26-1.08.43.14.11 1.36.36.43 1.44.36.11.39-.93.57v.43l-.47.83.29 1-1 1.54-1 .21-.76 1.26.76.21 2.19-.86 1.54-2.3.68.14v.68l-.68 1 .07.68h.9l.83-1.26.93-.5.46.43 1.19-.11.25-1.08.5-.07.75.42.75-.43 1.26 1.26v.93l.57 1.43-.36.57v.9l-.65 1.36 1.15 1.9-.11 1.08-.75.29-.79.64.65.14 1.83-.43 1.11-1.11 1.44-.07.64-1.33-.14-1.7-.48-1.29-.52.09-.71-.29-.07-1 .41-.34h.7l.45.34.64-.23 1.61-.41 1.18-1.25.68.14h1.29l.34-.93.86-.79.34.21.68-.68 1-.22.39.36 1-.22.16.59-.32.5.18.77 2.09-.16.25.29.95.34 3.56 2.06.82.18.52 1-.05.7 1.64 1.91.41-.21v-.7l.54-.36.14-.5-.61-.43-.86-.05v-.89l.77-.54h.64l.5.75.72.63v.8l1.36 1.25.2 1 .63.27.52-.32.38-.07.61.39.63.91.11.89.77 1-.11.72-.36-.05-.12-.52-.39-.56h-.36l-.43.48-.75-.7-1.63-.64-1.27.07-.2.29.64.86 1.23.14.45.32-.2.27.57 1.13.52.38.39-.34.52-1.07h.29l.45.73.66.39.48-.29.54.16.21.66-.29.52.86 1.48.32 1.63v1.82l-.66 1.52-.39.14-.38.77.23.89-.71 1.18.07.45.61.64.05.77-1.2.57-.38.95.25.48-.72 1.52-.54.63.1.69-.43.95-.84.41-1.11.93h-1l1.07.34h.75l.57-.64h.31l.5 1.36-.77 1.61-.73 1-.55 2.27.52 1 .14.79-.84 2.09-1.27.45-.38-.16-.63.09-.34.59.29.54.54 1.88-.36.84-.93.57-.45 1.27.45 1.32.09 1.14-.41.5.11.77.64.45-.64 2.5-.77.61-.21.88.32-.59.9-.07.89-.91.43-.88-.21-.39.32-.64 1.25-.05.68-.21-.72-.2-1.59-1.65-.47-1.26.54-1 1.61-.14 1.69-.22 1.4-1.22h.72l.54-.47-.54-.79 1.4-1.11.68-1.11-.5-1v-.36l1 .57 1.15-.36.68-1-.54-.72 1.76-1.33.11-1-.4-.72-1.76 1-.15.64-1.4 1-1-.5-.68-1.22.75-1.08-.21-1.58.93-.79 1.36-.07 1.61 1.08.64-.75-.11-1.25 1.29-.54.15.75-.54.61.07.93 2.58 2.08 1.26.11.64-.4 1.79-.32.79-.86-.14-1-1.47-1.69v-.57l.5.11 1.83 1.79.64.11 1 .9-.22.72.22.68 1.25 1 .18 1.79.36.32-.07-.5.86-.93.5-.11.47-.72-.39-.29-.75.36-.68-.21-.61-1.18 1.22-1.15 1-.57.47-.65h.61l.4-.68 2-.36 3.12-.82 3.77-.14 2.9-1.29h1.43l1.33.5-.07.75-.36.18-.61 1.11.54 1.79 1.25 1 4.2.18.82.25.32-.18h1.52l1.14.37 2.93-.48 2.08-1.13.73.25 1-.07.55-.91-.38-.66.89-.22.84.23 1.29-.38.3.73.47.14.61-.93-.3-.72-.79-.75.11-.93-.47-.72-1.06-.21-.16-1.23-.5-.21-.23-.95-.64-.73-.14-1.2.5-.89.16.55.45.29 1.05-.86-.21-.38-.21-.82.75-.09 1.11.88.57-.41.2-.79.36.55 1.23-.05.72-.16.3-.57.86.91.81.27.59.77.57-.45v-.88l.84.18.54.91-.59.5-.41.8.32.27 1.06-.23.28.14V514l.43-.23.63.16-.32-1-.52-.43.22-.43h.86l1.4-.41.46.43.55-.3h1.29v.66l.28 1.25.23-.59.45-.05.82-.79.36 1.32h.55l.88-.66.9.75.3 1.82.63-1.14.57-.47.43.41-.52 1.23.7.57.32.41h.88l.27.89.39-.36.38-.11.32 1-.72.79.11 1.11 1.29-1.29.79.05.14.7-1.79 1.61.12 1.29 1.52.21.41-.52.64-.41.56.3.2.81.68-.41 1.05 1.14-.33 1.42.9-.14.22.72.75-.32.11.72-.83 1.47-1 .43-.86-.65-1.83-.47h-2.08l.83.54.36 1 1.83.22.36.72 1.76 1.33 1.76.47 1.11-.75.07-1-.89-.86-.29-.61h.29l1.07 1.08 1.11.54.64.43-.82-.07-1.87 1.76.43.57.82.11.61-.47h.61l3.08 2.83.79.32 1 1.26 2.26.22 1.36 1.58 1.4.32.32-.61-.36-.65.5-.36.82.86.21.75.58.86h.57l.25-1.08-1-5-1-2.26-1.33-2.83-.29-2.51-.72-1.54-.11-.72.86.36.58 1.22 1 1.11 1.15.29 1 1.15 1.76.18 3.73-.43.82.32.72-.36.93.79.18-.25-.72-1.08.21-.61-.72-.68.4-.47.14-.9 3.19-1.33.5.25.79-.14 1 .57h1.47l1.11 1.11 1.11.32.61 1h1.58l.5.93h2.11l-1.33-.75-.07-.47 1.29.36.86-.68-1-.54.75-.65-.83-.86-1.22.65-1.08-.29-.14-1.51-.43-1.07.57-.47.57.5.83-.54-.5-.75.72-.25 1.47 1.11.39 1 .61-.21.54.47.58-.32-.32-1.11 1-.39.72.5.25-.86-1.47-1.72-1.15-.11-1.15-1.18.21-1.08-.5-.75-1 .43-1-.25 1.18-.68-.43-.82.21-.25-.75-1.15h1.61l.32-1.72-1.76.54-1 1-.18 1-1.69-.47-1-1.83.54-.9.18-1.33 1.61-.61 1 .14 1.65-1.54.11-.68-1-1.15-.9.14-.9-.36h-1.61l-1-1.25 1.36-.54 1.86-.29 2.12.93 2-.4 3.19-.07 5.49-.4.9-.54 4.05-.07 1.83.21 1.36-.21h2.3l-1.22.39-3.15 1.4-1-.54-.5.18-1-.4-.61 2 1 1.08-.79.32-.22.72.94.57 1.4-1 .07-1 2.47-1.69 3.19-1.26.47 1.72.14 2.44-.29.54-.58-1.54-.93-.9v-1l-1 .86-.65-.25.61 1.69 1 .4.36 1.9-.68 1.51-.65-.29-.68.57 1.11.75-.07.65.43.47h.79l1.22-1v-.99l.93-1.4-.36-.9.11-1.29-.36-4.84 1.65-1.33 2.51-.54 2.76-.72 2.54.32 3.01 1.2 1.58 2.08-.14 1.08-.79.57-1.72-1.33-.18.29.32 1-.07.93.21.9-.82.68.68.29 1-.64 1.61-.11 1-1 .43 1.4.54 1 .15 1.18.57.61.61-1.08-.18-.64 1.15-1 1.15.57.43 1.18-.43.65-.36 1.33.28.47.68-.36.5-1.18.5-.21.39.72v-1.07l.93-1.9.4-.39.72.36 2.22 1.51 2.4.57 1.33 1.58-.22.83-1.54.93-1 1.07 1.36-.68 2-.43 1.33.47 1.58-.39 1.15-1 1.07-.5 1.9-1.58.93-.36 1.54-1.54 1.33-.32 3.55-1.79 1.76-.61 1 .22.11-.4 2-1.33 1.11-.22 2.44.07 4.63 1.54 2 2.08 2 1 1.69 1.94.9 1.69.11.9.43.5-.07 1.36 1 1.86.11.9-.68 1 1.07-.25 1.11-1.33h1.21l.61.61.07-.68 1.29-.18 1 .61.43 1.15.22-.9-.39-1.47.82-.11.72 1.25 1.58 1.51.29 1.72h.86l1.4 1.76v-.54l-.47-1.51-.93-.43-.18-.86 1 .58.79-.11 1 1 1.29 1.79-.25-1.43-1.76-2.47.07-2.22v-1.8l1.14-1.32 1.89-.2.88-.7 1.63-.66-.11-.71.32-.38h.64l.95.89.81.25 1.38-.29 1.27-1 .7.23 1.7-.63 2 .16.88-.59h.45l.12.57.61.62.41-1 1.11-1.54-.18-.68v-1.27l.11-1.06.5-.45 1.5.36.49 1.08.22.58 1.22.14.86.68v1.15l1.37 1.51.68.47 1.44-.21 2.26.5.32-.29.68.11 1.58 2.15v1l.61.57 1.58.21.75-.54 1.18-.14-.14-.75 1.11-.72.64.21.39-.4-.64-.9.43-.4-.29-.57.11-.64-.93-1.18-1.36-.47-.32-1.51-1.72-1.69-.68-.18-.43-.72-1.68-.79-.86.75h-.54v-1.22l.39-.57-.72-1.43-.29-1-.58-.43-.61-1.54-1.31-1 .21-.27 2.13-.34.63.39 2.58-.26h2.15l.11-.68 1.11-.4 1.25.83.79-.36.64.07v-.9l1.33-.14.36.65h.36l.5-1.08.9.32.07-.93 3.8-1 .47.9.21-.75.61-.79.36.25 1.33-.18.65-.11.83.72h1.76l.9-.39.46.61.68.25.54-.64 1.54-.18 2.94.93 1.07.5.68-.22-.32-.29 1-.25.75.54-.54.5.47.32 1.4-.36 3.26.36 2.76 1.86-.14.43-.86-.43-1.65-.61-.11.36 2.84 1 1.43.07.32-.75 1.22-.11 1.36.07-.25-.79.58-.29.86.68.9.29.5.32v-.5l.14-.25 1.4.36v.61l1.54.54 1.11-.43 4.05.79-.43-.75h1.36l.39.82.79.25-.18-.9.36-.14 1.54.29-.29.47.75.93 1.33-.36v-.5l-.5-.32 1.51.07.47.32-.22.68.77.94 1.65.68 1.29-.5-1.79-.65-.82-.47-.19-.63 1-.21 1.11.12 1.88 1 .43 1 .41.29.29-.79-.27-.36.77.16.61.55-.16.41 1 1.09 1.5 2.72 1.65.54.28 1 .86.75.57 1-.43.48.3 1 .73.3.95-.86 1.23.18.77 1.34.82.22.16-.3-.43-.3-.27-.88.54-.8.59.25.54 1.2.86.89-.05-.41-.63-1.52-.05-.84-.7-.81-1.2.64-1.25.23-.2-.77.64-.73-.28-1.11-1.7-1.2-.89-.81-.43-1h-.69l-1.23 1-.16-.5 1-.8.7-1.4 1.22-1.73.63-.16-.13.54.73 1.75 1 .27.25-.38-.86-.71-.32-.84.48-.07 1.09-.7.34-.68h-1.18l.5-.41.45-.25.93-.21.82-1.36.82.11.38.56.48-.16.84.21.12.45.82.79 1.38.27.65-.36 2.92.52-.21 1 .25.45.57-.23.07-.7.84.09v1.2l.79-.59.91-1 .91.32-.05.7-.52.71-.2.57.81 2.54-.34 1.23.11.55.89-.21.59 1 1 .47.38 1-.52.59-1.5-.05-1.59.27 2.13.48.57.84-.23.81-1.07.25-.89 1.59-.32-.52-1.14.93h-1.27l-1 .89 1.34-.21.71.34.48.73.73-.75h.45l.09.82.89 1.22-.79.5-.21 1.49 1.13-1.16 1.18-.13 1.26 1.07-.14.68.72 1.22-1.11.79.57.29.25 1.43-1 .47-.07.68.39.61.07-.75.82-.21.58.64-.18 1.22 1.08-.25.36.68.07-.79.57-.5.68.36 1 .14v1.18l-.72.32-.86-.54-.61.83 1.08.64.79-.14.65 1.29v.64l-1.33.61-1-1.54-.32-.22.5 1.76-.72.68-.47-.07-.25-.4-.75.09-.61-.39-2.2-.18-.81.46h-.93l.25-.68-.37-.64-.72-.13.21 1.23h-.57l-.18.29.45.77-.75.89h-.28v-.4l-.36-.25-2 .48-.52-.29.07-.54-.39-1.2-.34-.23-2.29-1.68-.29-.36.23-.34-1.61-.54-.21 1-1.61.43-.81.82-.55.11-.11-1.22-.5-.93.27.91-.2 1.89.41 1.05-.34 1.11-1.73 2.45h-.88l-.05-1.7-1-.39-.86.52-2.33-1.77.14-.75-.34-2.29-.87-.32-.32-.64-.52-.59-.48.46.32.73-.09.79.59.66-.25.66-1.48-.84-1.05-1.29-.2.11.54 1.23-.61.47.43.38h1.13l.63.75-.37 1-1.4.09-.14.61.63.32 2.63 3.13 1.91.52 1.09-.45 1.2.61.34 1.32h-.2l-.86-1.14h-.45l.61 1.43 1.36 1 .36 1.18.89 1.06v2l-.78 3.12.47 1.83v1.29l.28.65-1.15 1.76v1.15l-1.03.67.25-.9-.25-.36-2.19 1.65-.54-.65-1 .72-.72-.18-.5-.9-1-.11-1.36-1.43-1.11-.78-1.22-.15-.78-.51-.83.22-.85 1.15h-1l1 .48h1.33l.62-1 2.52 1.06.47.86-1.26.86-.83-.54h-1.07v1l-.9-1-.86.11.43.07.47 1.26 1.44.75-.36 1.36.57 1.65.9.47-.54-.54.11-2 .65-.4.82.21v-.54l1.47-1.33.79-.21.61.5v.61l1.18 1.83 1.18.32 1.15 1.11 1.33-.18.4-.79-.25-.68.43.11 2.47 2 .43.79-.93-.14-.11.9 1.72 1.69.64-.07v-.39l.07-1.4 1.36 1 1.9 3-.72-.64h-.61l-.21.32.72 1-1 .68-.11 1 .36.61 1-.32.18-1.07.36-.29.68.29.25-.9.79 1.4 2.11 1.4 2.15.5 1.25 1.11-.68.72 1.22 1.72 1 .25 1.25 1.94.11 2.83-.64.21v.47l.93.57.5 1.22-.47.18-.61-.54h-3.48l-1-.65-.68.43-.86-.29-.18-.82-.54-.32-.32.43.43.72-1.5.93h-1.18l-.36.39.68.43-1.61 1.47h-.86v.86l.61.21-1.43 1.83-.54.54-.15-.25h-.79v1.36l.61 1.36-1 .93-.54-.57-.18 1 .43.68-1.08 1.11-.79.22.5.47-.25.5-.36.83-.57-.29-.72.36.57.68.07.75-1 .75.46.68-.21.75-.64.14-.5-.5-.61.22.5.75 1.4.65-.46 1-1.33.11v.5l.64.36.68 1.54-.58.47.36.65-1 1.43.25.75-.64 1.65-.36 2.22-.54.83-.11.86.61.21.29.57-.36.57 1.4 1.83v.79l-.75-.25-1.11.18-.82-.82-.5.47-1.36-1.54.43-.32-.47-.25-.82.18-.72-.11-.12-.84-2.51-1.47-1.33-.25-1.58 1-.5-.39-1 .29-1 1.29h-.93l-.47 1.76-.64.61-.93-.5.72 1.29-.54.79.21 1.08-.32.82-.32 2.51-.47.39-.61-.75-1.15-3-.07-1-.86-.47-.7-1-.11 1.08-1.15 2-.75.47-.18.93 1 .4-1 2.12-.72-1h-.5l-.47-.68-.72.11-.39 1.36-.54.18-1-.53h-.68l-.13.61.63.91-.48.36-.3.82-.13.81.86 1 .23 1.13-.47.18.23.64 1 .3.72.75.18.61h-.36l-.3.64.75.68.7.59-.07.39-.86-.57-.66.23-.12.38.93 1 .5-.3v1l-.27 1.07.09.84-.57.77.48 1.43-.34.66.48 1v1.55l.77 1.7-.38.46.73.5.86.88 1.27 1.68 1.16.54.39-.32.15-.84-1.18-1.34-.07-.66.68-.55 1 .07 1.61 1.22.79-.16.66.34.05.84-.23.56.61.71-.57.88.25.79-.34.29-.68.82.88 1.76.68 1-.07 1.69 1 .72.5-.36v-.5l.75-.57.29-.39.25.25 1 .5v2.19l2.12 1.86.75 1.51-.43.61-.07 1.29-.69.11-1.22-.9-1.44-.54-.11-1.36.43-1 .11-1.18-.25-.9-.61.57.32.36v.72l-.93.18-.9 1.33.25.57 1.11-.25v1l-.68 1.08.39 1.51-.22.43.11 3.33.68.68-.07.79 2.44 3.62h.72l1.61 2.26 1.07.61-.64.75.11 1.22-2.8 1.08-.21-.5-1.54 1-.72-.18.39.47-.86 1.83-.18 1.25-.61.58.79.82-.57 2.4.89 2.73 1.29.72-.07 1.18 1.36.68.68.93-1.07-.11-.32-.32-.9.57-.79.75-.72-.14-1.4 1.29-.93-.75-.5.93.57.5 1-.07-.25 1-.22.61.93.93-.36.47-.54-.18.65 1.36-.32.72.61.14.54-.29.86.9-.79.72-.11 1.4.54.86-.32 2-.4.79.21.43-.21.86-1.15 1-.11 1-.29.18-.5 2.08-1 2.19.18-1-.25-.72v-1l-.29-.65-1.87-.22-1-1.47-.21-1.68-1.83-4.05-1.22-1.94.68.07.79-.43.36-.79-.75.36h-1.25l-1.69-.86-3.65-6.62-3.35-3.92-.07-1.44-1.22-1.36-2.62-4.13-2.51-5-2.08-4.74v-1.65l-1.29-2.08-.43-3.3-.79-1.65.21-2 1.06-1.27.25-1.62.75-.29-.54-.64.39-.57.11-2.33-1.79-2.48h-1.22l-.07-.68.93-.86 1.86.9 1-1.15-.25-.75v-1.83l1.61-.21.9.25-.79-1.11 1.47-2.83-.61-1.76v-1.86l-.58-1 .79-.86v-1.18l-.32-.54.3-1.59h.73l-.88-.88-.2-.75.3-.43.23-1.82-.41-.38.3-.9 1.09-.41.45-.66-.3-1.52.32-2-.5-.3-.18-.61.82-1.48.07-1.31-.68.23-.37-1.18.5-.73.11-.91.73-.27.2-.46 1.09-.66.11-.91 1.18-1.13h.3l.89-.68h.56l.2-.61-.23-.38-.89-.13-.61.39-.73-.55v-1.82l.55-1.43-.36-.59-.54-1-.34-.07-.34.64-.34-.12-.21-2.25.39-.48v-.54l-.25-1.13-1-.41.23-.39-.12-.11-.05-.5-1.05-1.22-.14-.72-.59-.54-.07-1-.52-1.18.11-.72 1.27-1.32 1.09.25 1-.34-.59-.46 1.2-.7-.57.14-1-.11-.52-.25-1.31.05-1.38-1.13-.38.34-1.22-.05-.86 1-1 .07-1.22 1.26.43.48-.12.79 1.05.84.21 1-.38.39.31 1.38.89.68.07.52.63.36.48 1.95 1.39.68-.18 1 .61.68-.36.57-.72-.59-.34-.75-1.29.3-.73.55-.52 1.43.57.57-.25 1.43-.34.25v.32l.34.23-.05.75-.79.75.66.61-.62.66-.05 2.4-.36.57v.57l-.68.43-.57 1.41-.29-1.11-.84-.75.78-1.39-.41-.52-.64-.07-.84.77v.73l-.48.37-.16-1.68-.95-.23-.32-.66-.82.77-.31-.46.27-.38.41-.61-.27-.39v-.73l.27-.07-.27-1-.43-.27.63-.68-.3-.86-.41-.48.29-.41-.07-1.14-1-.7-.27-.79-.41.07-.2 1.15-.63.18.09 1.18-.79 1h-.36l-.56-1.16-.36-.09-.43.3-.2-.89h-1.11l-.32.32h-.41l-.2.91-.72.2-.12.45-1.73.09-.5.71-.66-.23-.56.41-1.13-.16-1 1.68-.59.34.13 1.29-.84.64-.07.46.64.47.18 1.23 1 1.34-.77.66-.48 3.33 1.18 1.34-1 .36.27.16v1.06l-.91 1-.09 1.45-.7.86v1.06l-.45 1.65.88 1.22-.75.59 1.27 1.74-.45.25-.25.82.75.41.38-.34h.89l-.09-.48.25-.14.84.45h.54l-.07-.39.11-.2.54.36 1 .39.07.5-.18.34.82.89-.18.46-.63-.11-.59.39-.66-.27-.73.46-.11.3.59.52-1.25 1.22-.64-.34-.12-.73-.5-.45-.66.39-.56-.41-.64.25.16.62-.05.82h-.29l-.46.63-.63.46.43.43-.43.61-.68-.11-1.18-1.22h-.57l.72 1-1 .47.21.36-.61.79-1.44.43-.39.47-1.25-1.72h-.75l-.4-.25.25-.47h.79l-.11-1 .36-.5h1.47l1.65-1.22-.21-.57-.75-.14-.82.79-1.18-.22-.07-.43-.9-.68-.86-.11-1.36-.25-1.4.07.39.68-.61.18-.61-.43.11-.47-1.29.11-1.69-.43-.75.4-.72-.54-1.36-.07-1.26 1.51h-.61v.61l1.26.79-1.36.54-.21-.68-.72 1.11 1.15.61.4-.32.57.32v.74l-1.83.72-.64-.79-1.54-.07-.58.43.25.79-.72-.11-.54.57h-.47l-.32-.68-1.94-.11-.79.47-1.83-.25-1.08.57v.46l1.36 1-.75.65-.47.93-.86-.83-.68-.25.4-1-.83-.54-.43.72-.82.11h-.82l-1 .68-1-.07-1.4.86-1.4.07-1.65 1.33-1 .18-.65-.68-.61.07-.25.93-1.72 1.29-.25 1-.9.82-.18 1.08 1.22 1.9-.32 1.83-1.4 1.58-.68 1.51.29 1.18-.07 1.87.43.72v1h-.43l-.61.36v1.11l-.47.36.54 1.61-.93.68-.15 1.22-1.29 1.58.21 1-.75.39-.25 1.76h-.36l-.54 2.3.07 1.72-.32.57.4 1.08-.68 1-.18 1.07-.9 1.4.07.5-.46.18v1.22l-1.43 1.18-.07 1.58-1.33 1.22v.72l-.92 1.44-.27 1-.48.84.52.88.88.59.92-.34.79.72.93.07 1.18-.86.72-.25.79-.54.43.11 1-.29v2.44l1.07 1.43.39 1.47-.18 1.22 1.22 1 .64-.79.25.07.57-.4.43-.93.65-.25.36.54.54-.5 1 .11-.39.39-.43.72.11 1.36h-.54l-.75.72.29.43 2.11-.32 1.11-.68.4-1.43-.18-.93.36-.68.57 1.29-.18 1.18.07 1.18.61-.4.36-1.29-.52-1.59.39-.82-.81-.88-.46-1.61h.93l.89.52-.07.43.36.43h.54l.39-.59.91-.11 1.09-.84 1.07.88 1.09.09.7.63.54 1.14.57.39 1.3.18.48.64 2.06.75.27.63.77.13.61.75h.55l.79 1.51-.5.79-.07.79-.64.39.93 1h.68l1.26 1.61.07.86-.54.65v1l1 .83.79.22.61-.54.18.82-.43.54.15 1.15.79.72-.57.47-.11.68.39.83-.5 1 .39.32-.07.65-.21.47.5.32-.58.68.75 2.26-.32.65.18 1.76.14.68v.79l1 3.12.75.14.86-.61.11.43-.72 1.22-.39.43.47.83h.43l1.33 1.47-.11 1.79.32.64-.11.61.32 2.29.72-.07v1.11l-.32.36.07 1.43.47.9.07 1.25-1.37 1.44-.11 1.36-.61 1.51.18 1.58.25.14-.11 1.4-.9.86v1.22l-.68 1.54.39.07.07.72-.83 1 .5 2.12-1 1 .32 1.26.47.14-.07 1-1.15 1.4-.21 1.11-1 .86-.07.86-1 1.26-.89 4.05-.54.32-.18 1.11.39.36-.18.47-1.29.86v1l-.86.47.11 1.47-.5.14.47.9-1.11 1.58-.07-.25-.72-.21.36 1v1.11l-1.11.5.29.5-1.58 1.94-.72 1.22h-.68l-.18.65-1.33.21-1.08 1.11-.57-.61-.54.54-1.47-.93-1.47-.4-.11-1.69-.54-.47-1.15.5-1-.65-.29.5v.86l-.86.68-.11 1.72-.61.43-.4 1.58-.39-.43-1.22.21-.32 1.4h-.31zm-327.34 3.27l-1.17-.83-5.6 1.06 6.77-.24zm397.24-20l.43.15.84-.57.16-.7-.7.29-.72.82zm-523.43-280.9l-.61-1-.14-1.37-.51-.62-.55-.2-.41-.92 1-.89.75-1 1.37-.14.55-.55.62.27.51 1 1.06.48 1.06-.14.19-.35.51-.27-.58-.65-1.09-.24-2.42-1.47-2.09-.34-1.33.1-1.77 1.57-.65 1.33-1.06.31-1.16 1 .07 2.46.72.51 1.16-.68.85.65.44.62.55.31.41-.72V487l.55-.51.62.65.48 1.4.79.51.17-.65zm7.47-13.9l.19-1 .63-.79h.39l.08.87.43.53-.19.69h-1.22a2.41 2.41 0 0 1-.32-.26zm-2 18.92h.43l.55-.36.44-.77-.07-.68.17-.43.41.29.67-.38.21-1.27-.17-1.28-.75-.74-.12-.39 1-.45.79.05 1.42-.31.38-.24v-.38l-.29-.27-.31-.6-.56-.05-.19-.27v-1l.38-.36.5.09.15.34.53.15.58-.21.87-.93.64-.45.08-.36-.51-.94-.05-.45-.94-.63-.21-.82-.41-.09-1 .53-.63 1-.5.29-.05-.48.22-.87.67-.62.41-1.12.12-1.16-.13-.34-1.06 1.17-.56 1.29-.31.12-.09-.45.19-.91-.24-.5-.32.38-.45 1.15-.75.29v.86l.33.27.72-.15.46.18v.58l-.72.27-.68.65.14 1-.34.65-.68.17-.69 1-.78.48-.89-.44-.75.14-1-.44-.48-.55-.48.41v.65l-.2.48v.79l.79.17.65-.62.75.51.2 1.09.79.13.38.34-.62.31h-1.09l-.82.68.34 2.29.45.75-.21.55.24.55.65-.31h.79l.41-.68.07-1h.51l.72.82.07 1.78zm6.18-1.74l.2-.82.45-.79v-.89l-1.06-.34-.82-.48-.21 1.2-.2.55.31.82 1.37.75zm1.4 2.49l.82-.1.72-.44h1.4l.38-.55-.24-.68-1.06-.17-.1-1-1-1.54-.24.44v1.57l-.31.58h-1.13l-.34.27 1 .72.2.82zm12.27-33.6l.91-.74h.86l.29-.39.36-.27-.29-.5-.23-1.06-.6-.38-.62.43-1.22.31-.82.46v.34l.5.41.32.77a4.29 4.29 0 0 0 .53.62zm.94 1.66l-.1-.65.39-.36.21.58-.5.43zm.24 3l.44-.75.5-.33.27-.53-.43-.33-.41.12h-.91l-.58-.45-.69-.09-.8.5-.89.77-.09.55.29.53.82.36.89-.5.46.55.56.07.55-.48zm2.21.19l-.19-1.1.43-.58.51-.1.57.41.24.62-.19.63-.67.33-.7-.21zm-3.84 4.95l1-1.43.58-1.23.82-.72v-.38l-.72-.38-1.09.68-.92-.44-1.13-.1-.24.79-.44.72.31.21.72-.1.34 1.16.24.34-1.13.17-1.57.61-.27.51.34.55 1 .17 1-.82a9.74 9.74 0 0 0 1.26-.31zm2.7.1l-.92-.07-.48.38-.65-.34.51-.82.89-.61.24-.65.78.82-.24.48-.13.82zm2.8 1.81l-1.43-.89-.34-.89.34-.61h.38l.34.68h1.06l.69.58-.1.89-.92.27zm-1.33 2.8l-.72-1-1.84-1.33-1.54-.61h-.92l-.55-.38.24-.34.92-.31 1.27.07 1.53.72 1.4 1.26h.55l.58-.51.24.31-.2.68-.27 1.09-.69.34zm.69 2.49l.2-1.33-.65-.92h-.82l-1.47-.48-1.47-1.09h-.48l-.58-.44h-1.2l-.79-.41h-2.22l-1 .31.2.82-.1.41.62.38 1.33.48.51-.65.44-.07.75.68.38.82h.51l.51-.21.51 1 1.13.27 1.09-.2 1.23.55.92.31.45-.24zm-7 1.63a3 3 0 0 1-.56-.31l-.56-.38-1 .07-.62-.74-.1-.46.53-.33 1-.29 1.1.14.39-.29.46.91h.58l.24-.26.51.15.22.5-.22.43-2 .84zm-2 5.07l-.55-.82-.07-1.33-.51-.21-.2 1.4-.31.31.38.58.86.38.41-.31zm.92-.34l.44.07.24-.55-.34-.86-.69-1-.51.1v.89l.85 1.33zm1.91-1c-.1 0 .89.27.89.27l.1-.44-.61-.79-.79-.17-.31.31.72.82zm-.31 2.36l.38-.27.27-1-.07-.55-.75-.31-.2.41.07.51-.27.65.58.55zm-1.2 2.43l-.16-.75h-.68l-.75-.85h-.55l-.68.44.48.75v.68l-.82.62.41.55 1.4.34 1-.68.44-1.09zm.72-1.57v.79l.31.82.58.24v-.92l-.41-.72-.55-.2zm7.57-10.58v-.65l.34-.38.33-1.06.46-.39.41.07.5.81.1.65-.36.24-.12.63-.48.38h-.86l-.36-.29zm-5.65 10.4l.24.62 1 .27.68-.15.29-.53-.13-.74-.41-.55-.46.19-.55.69-.65.21zm.48-1.73l.36-.12.36-.53.05-.63-.57.31-.2 1zm1.37-.77l.1.34.6.17.68-.22.29-.51-.31-.36h-.63l-.19.34-.55.22zm.21-3.82l-.51.65-.69.05-.51-.38-.08-1 .79-1 1.08-.31.72.21.43.51.85.33v.74l-.45.43h-1l-.6-.27zm3.59-.39l.68.68.67.12.74-.5.12-.58-.46-.5-.55.19-.44.58h-.75zm2.12 9l.07-.61-.58-.82-.14-1.09.14-.79-.72-1.2-.68-.55-.45.44-1.16.14-1.06.68-.24.75.79 1.13.27 1.57.62.58.65.24 1.37-.55 1.13.07zm2.43-.79v-.51l-.65-.58v-.51l.68-.41.38-1 .17-.61 1.23-.68.58-.07.2-.38-.72-.27-.75.24-1.78-1.06-1.06-.92-.58.34-.85.24-.27-.07-.07.82 1 1.95v1.33l.65 1.54 1.06.58.75-.07zm3 0l-.07.58 1.06.58.79.82 1.16.1.79-1.4-.38-1.4-.82-.44-1.2.31-1.33.85zm-.31 2l-.1.65 1 .31.44.24.41-.31-.86-.89h-.85zm.18-30.37l.48-.31h.62l.75-.74h.67l.32.36.77.07.09.62-.82.77-.6.07-.62-.38-1.39-.1-.27-.38zm1.83 13.29l.5-1.13.5-.45v-.44l-.7-.52-.41-.7-.85-.09-1.27.43-1.23.74-.32.65.15.53 1.61 1.13 1 .24 1-.39zm2.33-1.6l-.31.62v1.06l-.85.68-.27-.27-.65.07-1.3 1.09h-.89l-.58-.51-.62.31v.82l.34 1-.07 2.63.58 1.44 1.16 1.61h.89l1.5-.58 1.16-.1.88-.69 1.4-.27-.07-.65-.75-.72-.58-.92-1-.41-.58-1.16.1-.65.79-.55h1.09l.86-.51v-.61l-.82-1-.89-.55-.51-1.2zm4.44 1.91l-.79-.55-.1-.72-.62-.65-1 .1-.78-.75v-.68l.38-.72-.51-1.26-.24-1.13.31-1.26.82-.55.85-1.13v-.63l.28-.68.65-.1.65.34.85.24.34.92-.07 1.54.27.48.82.34 1.09 1.13h.62v.51l-1.5.89-1.47.61-.31.65.27.85-.13 1.13-.69 1zm406.81 26.7l.36-.12.2-.56-.49-.41-.34.41.27.69zm-3.59-.74l.58-.09.34-.53-1.16-.31-.22.45.46.48zm-3.58 1.27h.39l.34-.31-.2-.82-.7-.21-.41.63.58.74zm82.29 100.68l-.29.15.32 1 .41-.53v-.57l-.29-.27-.19.26zm-1.26-1.85l1 .94.43-.14.05-.43-.65-.89-.64.05-.19.46zm-469.27-57.6l.36-.1.26-.48 1.28-.87.17-.65h-.31l-1 .74-.6.19-.51.63.38.58zm-5.79 30.44h1.4l1.37-.68 1.13-.51.89.21.44.55 1.06.24.72-.41-.41-.51.07-.68.41.14.44.92.79.41h1.37l.24-.51.72-.17.48-1.16-.07-1 .62-1 .13-.85-.65-.58-.51-1.16-.89-.21h-.65l-.34-.44.55-.27.75.2.61-.2.51.75v.58l.48.27.44-.61-.38-1.4-1-1.33-.92-1.3.27-.51.65.75.14.68.89.41.82.24.24-.55-.1-.62-.38-.38.07-.58.55-1-.1-.89-.72-.89-1-1.23.68-.1.75.68.65-.17.38-1-.24-.27h-.62l.07-1.2.58-.17.82.58 1.23.48.38-.55-.68-.44-.1-.51h.75l.55.27.68-.62.07-1-.31-.34.17-.38 1.23-.58.24-.68-.78-.51-.38-.68.48-.82.44.82.58-.48 1.33-1.71.34-1.06.55-.51.13-1.16 1.37-.85.75-1.33.55-1.71.75-.07 1.74-1.3 1.91-2.19 1.54-1.23.55-.1 1.27-1.09 1.5-.44.89-.72 1.33-1.64.75-.48.51.1.72-.31.07-.62-.27-.44.44-.89-.13-.79v-1.3l-.31-.24-.62-.1-.1-1.2.48-1.16-.27-.41-1-.14-.48-.51-.89-.14-.51-.68v-.77l-.36-.5-1.08.69-.19.48-.58-.21-.74-.34-.78.22-1.17.75-.26.82-.56.45-.68.14-.55.58-.1.67-.7.77-.08.48.56.94.05.63h-.81l-.41.48v.68l-.46.33-.55.7-1.64 1.08-.58.48-.38-.17h-.79l-.72.53-.77 1.18-.7.46-.38-.26-.31-.69h-.38l-.14.62.14 1-.31.32-.31-.8-.44-.79-1.44.15-1.78.48-.36.34-.69.13-.27.49.54 1.21.39.39-.1.41-.45.17-.58.82-.38-.14.05-.53.34-.38v-.67h-.6l-.77 1.06-.69.5v.67l.6.31-.37.38-.38.75h-1l-.58.48-.13.57-.86.29-.53.55-.19 1.32.26.31.56.1-.69.67h-1.4l-.51.41-.19 1.23.14.72h.44l.69-.12.29.4-.15.48.1.79-.63.51-.58-.2-1.13-.26-1 .53-.26.65v.67l-.41.81-.86.72-.67-.36-.5-.63-.24-.65-.36.19-.26 1.2.19 1 .84.69.6-.19.31.12.05.62-.44 1 .13.45.58.31.48-.57h.41l.38.29h.94l.6-.41.27.24-.32.65-.74.17h-1.13l-.43.55-.55-.22-.34.6.31 1 .74.41.62.14.63-.26.29.29-.22.36-1 .45h-1.11l-.55.4-.08.51.44.33.82-.12.94.09v.33l-.58.22-.94.15.05.5.31.19 1.16.15 1.32.84.75.29v.3l.09.6-.63-.72-.94-.41-.84-.05-.77-.48h-.82l-.55.53-.15.62-.38.34v.51l.34.41-.12.43-.44.17-.43-.08-.55.68-.29.75.15.34-.37.36-.79.21v.31l1 1 .86.44.39-.26.24-.55.65-.36 1.21-1 1-.34 1 .1.44.45v.46h-.41l-.58-.48h-.53l-.32.55-1.26.75-.51.77-.19.82.25.79-.21.38a2.68 2.68 0 0 1-.07.46zm4.27 25.66l.38.17.07-.55-.44-.58.44-.75-.31-.72-1.06-.34-.2-.62-.62-.34-1.09.1-.65.65.14.51.65.34.48-.17.68.27.07.85.78.17.68 1zm17-.1l-1-.75-.55.27-.75-.21-.68-1.23h-1l-1.57-1.23-.55-1h-1l-1.16-2.05-1.64-2-.62-2.05-.89-1.51-.07-2.33-.68-1.37-.41-2.6-.21-.62.43-.79-.1-.58-.82-.2-.72.34-.58-.44.21-.31 1.3.1 1.06-.65.17-1.81-.2-.82-.82.17-.85.24.34-.41 1.26-.48.24-.55-.38-.41h-1.74l-2.29-.34-.89-.58h-.75l-1.67 1.09h-1.61l-.58.48-1.23.89-.1 1.06-.31.62.24.92.82.1.34.34-.2.51h-.85l-1 .31-.78 1.37-.07 1.06.44.51.75-.24 1.2-.65.2.41-.85.75-.17.79h.51l.62-.75.61-.17.21.41-.75.68-.17.68.68.75h1l-.55.31h-.65l-.61.58v.65l.51 1-.41.34-.48-.24-.85.24-.69-.38-.62.07-.82 1v1l.27 1.2-.2 1.06.24.85 1.26 1.06v.58l1.26 1 .85.34.48-.27.75-.21.79-1.2-.31-1.26.2-.92.58-.85-.44 1.09v.68l.41.65.34 1.23.58.17.62-.44v-.65l.51-1 .24.48-.14.41v.85l.92 1.44 1.09.65h.75l.65-.44.44.24-.24.38h-.45l-.31.58-.65.41-.17.55.85.75.07.68h-.55l-.55-.17v.58l.51.51 1.4.14 1 .44 1-.24 1.19.48-.07-.85.54.17.31.58.37 1.3.74.6.63-.05.65-.77-.21-1-1.23-.55-.43-.27.41-.24.69.15.93.57.41.69.43.94h.34l.22-.81.38-.15.55.75 1 .51.67-.07v-.57l-.79-.65v-.39l.39-.17 1 .51.36.44h.27l.31.89.57.39.43-.24.17-.75-.38-.72h-.58l-.48-.38.17-.33.44.16h.53l.62-.79.24-.58v-.51zm-71.28 59.31l-.44-.8.32-.4-.11-.57-.62-.14-.6.64v.65l.71.65.21.41h.39l.11-.45zm24.57-15.6l.46-.07-.07-.5-.51-.6-.48.09v.5l.62.58zm19.07-20.58l1-.07 1.27-1.06.85-1.06v-1.64l.58-.62.34.82-.28 1.3.69-1.2v-1.09l-.89-1-3.41-1.43-1.57-.27-1 .62-.58 1.95v2.36l.58 1.06.27 1.2.31-.24.72.41-.27.65h.68l.72-.65zm8.52 1.77h.32l.24-.29 1.06-.21.5-.34-1.2-.12-.87.45-.05.52zm13.67-.29l.31.38.67-.89v-.69l-.62.12-.38.62v.46zm-1.83.21l.69.09.43-.55-.33-.48-.46.19-.33.75zm11.3-4.78l.39.12.51-.4 1.34-.43.39-.52-.86-.24-1.25.63-.48.77zm-4.55-1l.41.51h.6l.14-.48-.7-.36-.44.31zM1241 616l.63.19.41.43.87.21-.38-.93-.84-.36-.7.46zm-1.44.07l.14.27h.56l.39-.5-.45-.17-.65.38zm101.39-30.84v1.06l.46.58.2-.91-.33-.67-.36-.07zm-1.86-2.85V584l.46 1-.12 1.54.29.34.53-.86-.24-2.57-.62-1.18h-.32zm-1.3-1.8l.46 1 .51.24v-.75l-.62-.63-.38.15zm-86.3 28.56l.38-.17.14-.72-.48-.27v1.16zM1256 613a6 6 0 0 1 .58-.72l-.75.14.17.58zm-.82-1.4l-.17-1.06-1.5-.79-.62-.65-.21.48 1 .92 1.54 1.09zm2.42-4.58l.48-.92-.24-1.5-1.74-1.09-1.09-1.23-1-.1-1-1.06-1-.55-.31-.65-1.2-.89h-.65l-.51.41.07.51-.65.55.55.79.78.14-.17.44-.48.17-.68-.58-.38.07.34.79 1.64 1.84.92.51.62.85.44.07.07-1.06.69.31.82-.1.27.38.31 1.16-.17.41.55.55 1.23.2.48-.65 1 .27zm22.55-40.27l.36.07-.22-.55.07-.55.55-.05.39.87.51-.22.38.19.7-.17.34-.77.89-.77.94-.33.14-.5-.48-1-1.26-.65-.17-.74-.82-1-.55-.33-.7.31-.84.81-.77.07-.94.81.05.72.62.89.14.89-.14 1.32.82.7zm2.87 39.9l.21.41.66.21.53-.68-.1-.71-.46-.5-.58.37v.46l-.25.44zm17.75 22.53l.07.43.63.19.07.58 1 .67 1-.33.36-.41-.36-.89-.75-.21-.74.21-.67-.24h-.63zm-3.22-63l-.19-.93-.5-.51V564l.48-.41-.31-.63-.84-.24-.72.38-.27 1.61.34.67.79.09.51.6h.69zm-1.59-6.87l.86-.91.56.27.84-.62-.19-.52.16-.51.51-.29-.26-.26-.7.07-1.3 1-.51 1.08v.72zm4.13 1.1l1 .84 1.23.19.63-.15v-.55l-1.35-.19-.89-.38-.55.24zm9.14 6.79l.1.91-.62.86-.55.39-.16.87.46.6.51-.09.94-.82.6-.29.65-1.06.75-.34.82-1.06-.09-.74-.46-.26-1-.12-1.39.38-.63.77zm3.41-8.65l-.82 1.09-.24 1.5-.58 1.16.14.69 1.09.17.38.48 1 .1.79.34.78-.27v-.62l-.75-1.37-.21-1.3-1.09-1-.48-1zm-6.49-15.85l-.24-.77.07-.58-.67-.28-1 .19-.22.45.5.32.19.7.75.36.63-.39zm2.84-11.86l-.43-.19-.39-.45.09 1.78.62.22.5-.43.38.27.1 1 .46.53.09-.94-.31-1.06.65-.43v-.53l-.67-.63v-.6l-.24-.79-.67.41h-.43l-.31.39.7.74-.13.7zm-1.49-5.62l-1.22-.31-.32-.57-.56-.17-.41.39.13.6 1.1.48.93.05.36-.48zm.15-1a3.29 3.29 0 0 0 .43.22l1.1-.19.7.07.84-.34.12-.36-1.45-.22-.64-.39-.58.17-.51 1zm10.78 22.78l.74-1.06-.38-.43-.8.05-.6.55.34.77.7.12zm2.82-.74l.63-.58.17-.62-1-.17-.41.32-.74.29.34.43 1 .33zm4.21.62l.43-.31-.94-.48-1.16.45.36.27 1.32.07zm6.81-2.18l.39 1.18.48.26.43-.51-.57-.63-.74-.31zm-4-.67l1-.05.55-.72-.82-.29-.56.17.08.44-.27.45zm-3.08-4v-.43l-.53-.05-1.12.84v.53l.88.39.23-.33-.18-.32.12-.27.6-.34zm2.5-.67l-.19-.58-1-.05-.27.43.17.81h.69l.5-.32.1-.31zm.39.46l.22.22.38-.15.89-.75.07-.64-.44-.53h-.86l-.1.69.16.55-.31.58zm-2.86-2.85l.7-.91-.22-.38-.62-.17-.7.29-.79.19.05.26 1.16.36.41.36zm4.47-2.21l.41-.19-.07-.33-.36-.53.74-.15v-.39l-.62-.69-1.13-.15-.48.31.09.62-.26.07-.7-.41-.27.19.46.81.53.34h.92l.69.48zm-3.41-40.8l.45-.1v-.63l-.65-.27-.39.26.63.75zm-5.29 8.3l.17.57.48.07.84-.38.31-.62-.08-1.25-.69-.58-.6-.05-.46.5.1.82-.07.93zm21-1.71h.46l.86-.31.63-.72.43-.07.07.43-.29.51 1-.67.82-.94.07-.82.53-.36v-1.08l-.32-.31-.5.21-.32.45-.87.74-1.15.58-.93 1.29-.43 1.06zm9.3.72l1-.21.48-.69-.69-.17-.77.33-.26.48.21.26zm1.47 2.11h.41l.39-.22.19-.53-.78-.29-.41-.7h-.38l-.07.41.48.55.17.84zm-8.22 2.23l1-.36-.09-.5-.62-.44-.41.62-1 .38.27.39.87-.09zm4.71.15l.41-.46.08-.74-.34-.27.07-1.06h-.47l-.44.43-.26.74-.79.6.17.34.51-.19.58-.53.32.27.24.87zm.41 4.73l.7-.14.49.45h.87l.6-.22 1 .14.72-.17.34-.62v-.38l-.29-.09.17-.44-.26-.82h-.75l-.5.48.16.48-.34.19-.46-.14-.32-.43h-.36l-.41.57-.48.24-.7-.1-.43.65.29.36zm-85.13-28l1 .17.69.6h.5l1.34-.62.12-.51-.51-.22-1.23.31-.77-.24-.56-.39-.58.14-.17.5.24.29zm-2.26-20.18l-.34-.41v-.69l1.2-1 1.57-.1 1.32.34.41.94-.55.74-1.18.36h-1.76s-.74-.17-.7-.15zm29.49-15.21l.89-.94.53-.81 1.37-.12 1.15.31-.39.6-.12.65-.81.77-1.15.24-1-.24-.51-.46zm21.24 13.35l1.61-.92.65-1 .1-.92 1.16-1.13 1.85-1.33 1.26-.72.44-.82-.1-1-1.6-.89-1.37-1.32-.86-1.54.07-1 .51-1v-.79l-.44-.27h-2.36l-1.78-.55-1.23-.89-1.91-2.32-1.4-1.09-1.57-.79-.68-.07-.26.43-.22.77.2.72v1.29l-.81 1.13-.84 1.42-1 1.23-.15 1 .16 3.76.65 1 .85.51.12.93-.32 2.61-.48 1-.29.82.28.65.48-.15.56-1 1.23-.46.41.33.27.93 1.39 1h.75l.44-.46.79.15 1.23.74 1.2.19 1.07-.16zm-4.39 6.59l.07.41.87.51 1 .09.94-.7 1.08-.94.65-.36.41-1.3.55-1.41-.21-.65-2-1.06-1.68-.27-1.44.29-.85.35-.87-.36h-.58l-.84.69h-1.16l-.27.26.36.63 1.18.26.48.79 1 .48.6.93 1.2.43 1.74-.05.63.22-.39.29-1.33.38h-1.13zm32.13 2.89v.77l-1.13 1.5-1.37.37-1.13 1.09-.89.68-.85.1-1-.79-.58-.55-.89.1-.75-.27-1 .27-2.29-.17-1.19-.68-.58-.44-1.3.44-1.13.58-.86-.24-1-.65-1.16-.14-.65-.68-.62-1.81-.69-.92-.62-.1-.82.44-.82-.65-.79-.38-.24.48.24.68-.51.2-.34-.38-1-.62.17-.48 1.06-.68.17-.62-.38-1.47.24-.89 1.13-1-.38-.61h-.62l-.92-.55-.1-.79.48-1.47.82-.75 1.26-.31.1-.75.41-.68 1.2-.48 1.54-1 .37-1.13.38-.27 1.81.17 1.26.92 1.6 2.15.41.92-.51 1.5.48.41-.27.85-.48.79.14.72.48-.38.58-1.26.2-1.16v-.82l.38-.75-.1-.62-1.23-1.43-.17-.65.17-.62 1.61-.24 1.93.27 2.9 2.46.48.1.51.38.11 1.06.79.51.24 1.3v1.26l1.4 1.43 1 1.4-.07.55h-.89l-.62-.41h-.55l.14 1.13 1.06.72 1.26.21 1.13 1.24.68.21 1.17 1.3zm173.41-26.49l.44-1.81 1.3-1.3.31.27.07.82.31.38-.75.51-.58.72-1.09.41zm10.21 16.23l.41 1.74 1.64 2.12.48.92 3.25 1.13 2.42.24 1.68.79 1.6.07 1.23-.41 1.4.44.85-.34 1.85-1.16.38-1.23.72-1-.38-1.33-.82-.34-.65.1-.27-.72.07-.55-.48-.55-.74.41-1.44-.37-2.29.44-1.44 1-1 .24-.34-.55-.24-.79h-.65l-1.06.24H1529l-.72-.27v.79l-.65.68-1.74-.41-.65-.65-.1-.65-.79-.14zM1487.81 476l-1-2.29-.24-1.16-.82-.61-1.68-.14-.79-1.23-.82-.65-.55-.2.21.75.89 1.4 1.33 1.26 1.33 1.95.75 1.95.89.44.55-.38-.07-1.09zm18.55 2.08l-.62.09-.57-.45-.09-.69.22-.5.51.34.39.58.91.33.38.67-.05.43.75-.1.82-1.28.89-1.78 1.57-1.61 1.13-.21.86-.65.41.24-.38.68 1 .14.72.41.75-.41v-.82l1.44-.75.75-.82-.44-.38-1.23.1-1.47.65-1.26-.82-1.6-.41-.51-.65-1.16-.1-.17-.48-1.47-1.44-.75-.44-.39-1.56-.17-.74-.72-.84-.2-1-1-.51v-.46l.53-.24-.48-.65.53-.39.29-.21-.05-.7-.44-.29-.79-.55h-1.74l-1.13-.27-.85-.79h-1l-1-.37-.31.27 1.44 1.26.75.21.41.51h-1.16l-.31-.2h-.78l-.51.72.24 1.06.55 1 .31 1.33 1.5 1.5.31.62-.44.34-1.09.17-1.06-1.13-.48-1.37-.72-.41-1 .24-.48.31-.38-.31-.89-.2-.07-1-.31-.75-1-.14-1-.89-1.37-.14-.55-.34-.41-.85-1.06.41-.75.62.07 1.4-.31.27.1 1.3-.34 1.13-1.06.85-.1.58 1.16 1.64.62.07.65.51-.38.34-.62.1.17 1 .72.2.41.85v.62l.55.51 1.09.34.34.55-.2.38.44.44.44-.24.65.1.38.51-.65.48-.31-.2h-.68l-.27.51.34.85 2.84 1.91 1.54.61 1.37-.13.82.65.85.58.31.92.89.82h1.3l1.43-.51 1.23.1.92.58.85-.17.41-.85v-.85l-.55-1.09.07-.79zm.46-18.43h1.38l1.5-.07 1 .14 2.29 1.16 1.09.1.82-.21 2.25.27 2.39.72v.48l-1.06.27-.62.68v1l1 1.09 1.13.31v1.19l.19.72-.48.82-.22 1.27-.81.79-.32.64-.91-.7-.51.05-1 .74-1 .05-2.12-1-1.13-1-2.12-1.77-.31-1.29.27-.84.08-.87.24-.5-.5-.84-.53-.33-.17-.94-.58-.29-.63-.79-.63-.94zM1349.1 484.2c-.1 0 1.23-.41 1.23-.41l.62-1.26 1-1.44.72-.41-.17-.58.13-.79 2.08-1.4.79-.14.55.48.68-.1.44-.89.41-.72 1.06-.38 1.54-1.23.24-.79.65-.44.82-1.84-.27-1-1.23-1.47-.55-1.13-.07-.85-1.5-1-.92-.1-.41.27-.72-.44-1.13-.44-1.16-1.13-.51-.14-.24.41-.68-.24-.24-.68-.72-.82h-.61l-.17.85-.44-.07-1-1.2-.55-.38v.48l.68.82.1.61-.65.51.07.89-.51-.07-.38-.65-.17-3.11-1-.41-.92-.21-1.23-.58h-.65l-.55.75.21.89 1 .61.68.85-.41.41-.75-.07-.34-.58-.65-.51h-.38l.17.65.31.79-.27.27v1.06l.48.51.72.17.38.55-.17.79 1 2.39.72.72h.86l-.58.55-.89.17-.48 1.61.82 1.67.34 1.23-.07 1.16.51.41.14.89-.34.51.62 1.4.51 1.47.82.75v.92l.58.55zm18.31-10.49l.79-.72v-.44l-.38-.27.34-.48.48-.17-.24-.55-.72.1-.68.82.1.51-.55.17-.17.75.48.38.51-.17zm1.2.07l.44-.68 1.23.14.55-.92h.82l.35-.32.65.17.38 1.09-.51.92-.65-.58-.51.58-1.26.17-1.4-.1v-.55zm9.6 9v.75l.89 1.13-.2.37.1.41.89-.38.31-1-.61-1.37-1-.14-.41.21zm88.35 28.68l.46-.27.17-1.06-.1-.77-1.27.58-.29.29.21.82h.44l.38.38zm-11.83 13.17h1.27l.36-.31.39.07.05-.39-.6-.6-1-.69-.74-.05-.46.34.05.43.65.43v.72zm-33-5.87l1.06.24.55.31.68-.38.17-.75.48-.41v-.58l-.51-.55v-1.61l-.58-.61-.44-1v-.61l-.72-.17-1.74.51-1.67 1h-.89l-.24.44.27 1 .79.48.2.79-.41.48-.89-.07-.17.27.44.55 1.33.07 2.36.55zm96.58-28.77l.44-.38-.2-.34.34-.92.51-.79-.2-.92-1.26-1.3-.44-1.13-.68-.14-1.09.27-.89.89.16.77.65 1-.14.51.34.58.78.24.85 1.16.89.41zm2.77 7.07l.62-.34.72-1.09 1.43-.85 1.44.31h1.91l1.3-.27h2.18l.89-.58 1.5-.14 1 .24.85-.75-.85-.72-.41-.89-1.13-1.47-1.91-1.54-1.26-.1-1.3-.34-.92-.92h-.85l-.62.41-1.33-.55h-.72l-.75 1-1.06 1.5.31 1v2l-.62 2.25-1 .82-.07.82.68.1zm-22.62-4.68l.34.85.55.72h1l.89.68 1.09.1 1 .89h.58l.07-.65-1.33-1.3-1-.34h-1.09l-1.16-1-.68-.17-.21.27zm30.17 30l.85 1.13.75.27.1-.51 1.26-.38.27-.44-.34-.61-.38-1.06-.38.17-.17.79-.89.61a5.66 5.66 0 0 1-1.09 0zm105.92-8.21h.34l.19-.75-.31-.77-.48-.05-.16.38.41 1.23zm-.7.76l.46.22-.05-.72-.43-.75h-.6l-.07.45.68.82zm-.81.48l.77 1 .46.91.27-.41-.34-1.24-.86-.69h-.38l.07.38zm-2.39-.58l.51 1 .6.41.27-.51.27-.12-.27-1-.57-.29-.13.26-.69.27zm26.41-10.86l1 .51 1.09-.27.55-.92-.17-1-.75-.89.31-.31-.38-.89-1-.68-.2.41-.79-.07-.85-.44h-1l-.13.41-.58.1.13.34-.72.07-.31.82.07 1.61.44.27.89-.14 1.16.24 1.19.89zm5.86-2.19l.58-.55.15-.7-.82.24-.31.46.39.55zm6.54 254.22l-.13-1.06.17-1-.41-.89-.31-1.09.2-1.54.85-.75.44.21v.68l.55.38 1.84-.17.2-.44.44-.1.31.48-.24.34.07.72 1 1.06.14.85.55.58v-.65l-.2-.51.07-1V751l-.89-.75-.21-1.25-.34-.79-.68.34h-.62l-1.3-.82-.2-1.4-.62-1.09-1.16-1-.72-.17-.75-.92-.41-1.64-.71-1.23-.34-1.16v-1.54l-.17-1.85-.58-1 .22-1.59-.09-.94-.67-1.2.45-.62.17-.7v-.55l.44-.07.53.12 1.11-.26 1.11.14 1 .67.65 1.35 1 .38.87.57.86 1.34.53.24-.48-1.21-1-1.21-1.37-1-.75-1.3-.82-1.16v-.61l-.55-.48-.89-1.67-.41-1.09-.65-.34-.14-.92-1.4-1.67-1.3-2.32-.31-1.16-1.68-2.22-.73-1.65-.68-.48v-1l-.55-.89-.62-.24v.41l-.58-.07-.2-.38.2-.79-.27-.68-.89-.55-.85-1-.48-1.3-.48-.72-.14-1 .24-.75.21.17-.24-1.37-.21-1.54-.24-1.06-1-.41-1-1.09-.1-.62-.51-.51v-.48l.41-.1.89.89.89 1.3-.41-1.2-1.09-1.64-1.09-1.16h-.41l-.28-.82-1.91-1.54-.65-1.06.07-1.57-.55-.62-1.43-.55-.65-1.33-.34-.41-.34.48.34.41v.68l-.55.21-.68-.48-.79.07 1.23 1.3 1.64 1 .48.75-.14 1.06.44-.41.55-.07.24.65-.37.44-.65.27.17.61h.72l.24 1-.75.44-.72-.14-.58-.79-.61.58-.51 1.26.86 1 .27 1.13 1 1.16.82 1.5.11 2 .34.44.2 1.5.61 2.26.75 1.5 1 .55.1.44-.44.31 2.32 2.29.79.27 1.09 1.61.31 1.57-.1 1.23.75 1.26v1l.79.55.89 1-.27.27.1.72 1.06 1.67.24 1.06.48 1.3.13 1.74.34.62-.13.92.2 1.57.75 1.85-.2.68.14 1.26.92.82 1.74 2.19v.92l.72 1.3-.17 2 .24 1.57.79 1.47.24 1 1.26 1.64.14.72-.27 1.5-.14 2 .41 1.2 1 .72.69 1.43 1.19.72zm-48.37-67.12l.31-.12.12-.46.29-.31.43.12.6.67.77.22.53-.53.27-.55-.32-.51v-.58l.55-.51.15-.45h-.77l-.16.41-.51.33-.19-.26.39-.6.05-.36-.26-.21-1 .21-.65-.34-.51.46-.25.86-.6.53v.7l.75 1.27zm-3.12-.72l.34-.15v-.21l.29-.33.55.34.32-.24-.29-.67.38-.55-.21-.58h-.29l-.53.6-.92.36v.77l.39.65zm6.47 3.14l.19.24.55-.41.2-.58-.51-.43-.14.22.08.34-.38.62zm-1-1.11v.55l.38.62.21-.46-.05-.7-.24-.22-.27.22zm.23 4.36l.55-.89.51-.14.31-.75-.21-.27.24-.58-1.4.34-.78 1.09.1.68.68.51zm36.33-55.42l.43.05.65-1 .05-.67-.58.12-.48.72-.07.74zm58-6.05l.31.12-.12-1-.44-.89.29-.45v-.67l.48-1.11.74-.84 1.16-.86.46-.24-.26-1-.5-1.18-1.1-1.25-.53-.17-.5.52-.14.48-.39.26-1.16 1.37-.46.21-.57.91.53-.05.87-.33.12.14-.27.84.32 1.51.5.7.07 1.06-.43.6.17.53.84.87zm34.15 30l.48.75h.89l1 .92 1.44.44.51.44 1.26-.27-.37-.34-1.44-.58-.61-.51-1-.1-.65-.79-1.16-.31-.41.31zm-9.84-2.32l.75.34h.78l.51.55-.07.34.92 1.16.68.14.79.89.44.07.41-.2.89.89 1 .14.21-.38-.55-1.06-1-.34-1.3-1-.34-.89-.89-.07-.86-1.3v-.34l.44-.41-1-.1-.58.2h-.65l-.69.82v.55zm-23.35 49h.39l.38-.45-.19-.82-.51-.58-.67.53v.56l.6.72zm-5-1.25l-.07.75.41.38 1-.07.17-.65-.92-.75-.55.34zm2.63 7.91l.34.05v-1.08l.14-.74.77-.4.55-.86-.05-1 .14-.75.53-.46-.29-.93-1.51-1.32-.2.75.13 1.66-.12.94-.8.29-.53.89-.58.05-.09.27.72.84v.72l-.55.31.22.29.86-.05.31.5zm-.89 5.82a2.61 2.61 0 0 1 .44-.58l-.44-.92v-.82l-.27-.14v.85l-.31.92.62.68zm.22 1.84l.45-.21-.16-.58-.68-.26-.28.19.17.41.5.45zm-1.69 1.35l.26-.12-.17-.31-.36-.12-.19.41.46.14zm.65 2.21l.35-.22.36-.46.05-.84-.29-.36-.27.7-.19 1.18zm-1.26 5.8l.38-.27-.44-.31-.31.17.37.41zm-.27 3.35l.27-.72-.2-.51-.31.44.24.79zm-.24.72l.17.58.31-.55h-.48zm-.86 1.64l.1.34.43.14.12-.5-.46-.21-.19.22zm-.77 4l.36-.51.16-1.64-.32-.07-.1.81-.39 1.22.32.12zm-8.2 10.77l.5.17 1-1 .69-1.13.6-.45v-.94l.29-1 1-1.32-.46.26-1 .17-.46 1-.38.34-.27.86-.36.39-.17.57-.7.75-.31 1.39zm-8.87 10.44l.46-.19.27-1 .65-.58-.13-1.22.44-.43.05-.5.44-.36.5.22.65-.62.7-1.41.93-1.13 1.06-.1.74-.46-.07-1-.31-.93-.6.17-1 1.15-.21.74-.58.05-.67.46-.5-.19-.32-.72-.22.1-.32.81.29.51-.36.63-.57 1h-.41l.07.53-.26.93-.75.41-.1.55.45.48-.38.33-.17.74.24 1zm-3.92 6.28v-1.33l.51-2.31.41-.21 1.16-1.09.2-1h-.27l-.68.17-.51-.17-.48-.44-.27.34-.17 1.13-.24 1-.17 1.4-.48.92.2.58.86 1zm-540.85-76.06a8.79 8.79 0 0 0-.34.84l.94.5.31-.48z" transform="translate(-1139.34 -439.85)" stroke="#fff" stroke-miterlimit="10" stroke-width=".5" fill-rule="evenodd" fill="url(#a)"/></svg>