<svg data-name="Layer 27" xmlns="http://www.w3.org/2000/svg" viewBox="0 0 52.12 58.52"><title>spain-city</title><path fill="#764300" d="M22.11 8.21h-4.8l-1.05 7.84h7.15l-1.3-7.84zM11.26 30.63H8.15l-2-7.1h5.11v7.1z"/><path d="M35.73 25.6c-2.54-.8-6-3.68-8-6.22a14.53 14.53 0 0 1-3.09-6.9H22.7v.93a1 1 0 0 1-1 1 1 1 0 0 1-1-1v-.91H19v.9a1 1 0 0 1-1 1 1 1 0 0 1-1-1v-.88h-1.68a15.26 15.26 0 0 1-1.56 5c-1.77 4.46-7.58 5.95-7.58 5.95a9.38 9.38 0 0 1 5.17 1.7c.27.19.74.62.74.62l2.53-1.3 3.35-2.55 6.4.54 10.6 8.12.17-1.94s.79-2.99.59-3.06z" fill="#e28201"/><path d="M43.73 34.5h-8.81s-1.47-7.21 1.2-11.07 7.61-4 7.61-4v15.12z" fill="#764300"/><path d="M43.52 33.45h-7.59s-1.27-6.21 1-9.54 6.56-3.48 6.56-3.48v13z" fill="#e28201"/><path fill="none" stroke="#ffb400" stroke-miterlimit="10" stroke-width=".5" d="M45.72 6.13l.69-2.6M47.07 6.13l-.69-2.6"/><path fill="#764300" d="M43.41 21.9h6.07v11.36h-6.07z"/><path fill="#764300" d="M43.01 21.53h6.86v.82h-6.86z"/><path fill="#ffb400" d="M43.27 19.51h6.33v2.36h-6.33zM45.52 6.44h1.84v.63h-1.84z"/><path fill="#ffb400" d="M45.36 5.82h2.16v.63h-2.16zM36.49 58.02H.5v-25.5l3.17.55 7.64-6.05 8.46-6.33 5.41 2.52 11.31 9.31v25.5z"/><rect x="19.34" y="30.34" width="2.77" height="7.32" rx="1.22" ry="1.22" fill="#764300"/><rect x="23.09" y="31.23" width="2.1" height="5.54" rx=".93" ry=".93" fill="#764300"/><rect x="16.26" y="31.23" width="2.1" height="5.54" rx=".93" ry=".93" fill="#764300"/><path d="M31.03 53.8a53 53 0 0 1-22.53 0V43.65a49.33 49.33 0 0 1 22.53 0V53.8z" fill="#764300"/><path fill="#fb8f04" stroke="#fb8f04" stroke-miterlimit="10" d="M35.93 33.26h13.54v24.76H35.93z"/><path d="M47.92 13.73a39.35 39.35 0 0 1-.63-6.89h-1.7a39.35 39.35 0 0 1-.63 6.89c-.63 2.92-1.43 5.73-1.43 5.73h5.82s-.83-2.73-1.43-5.73z" fill="#ffb400"/><rect x="44.08" y="23.72" width="2.1" height="3.22" rx=".93" ry=".93" fill="#ffb400"/><rect x="46.77" y="23.72" width="2.1" height="3.22" rx=".93" ry=".93" fill="#ffb400"/><rect x="1.24" y="46.06" width="2.1" height="5.26" rx=".93" ry=".93" fill="#764300"/><path fill="none" stroke="#764300" stroke-miterlimit="10" stroke-width=".5" d="M44.58 20.24v.89M45.82 20.24v.89M47.06 20.24v.89M48.3 20.24v.89"/><path fill="none" stroke="#ffb400" stroke-miterlimit="10" stroke-width=".5" d="M46.44 3.75V0M45.36 1.17h2.16"/><path d="M50.26 29.55v1.5a1.06 1.06 0 0 1-2.12 0v-1.51h-1.62v1.53a1.06 1.06 0 0 1-2.12 0v-1.54h-1.61v1.56a1.06 1.06 0 1 1-2.12 0v-1.57h-1.61v1.58a1.06 1.06 0 0 1-2.12 0v-1.6H35.7a4.37 4.37 0 0 1-4.37-4.37v-.42a6.35 6.35 0 0 0-6.43-3.06c-2.41 0-4.37-3.15-4.37-3.15s-2 3.15-4.37 3.15a4.34 4.34 0 0 0-5 3.3 4.36 4.36 0 0 1-1.42-.24v.42a4.37 4.37 0 0 1-4.37 4.37H3.89v1.6a1.06 1.06 0 0 1-2.12 0v-1.58H.48v5.71h4.68a5.22 5.22 0 0 1 4.94-5 5.39 5.39 0 0 1 5.15-4.06 5.55 5.55 0 0 1 10.56 0 5.39 5.39 0 0 1 5.15 4.06 5.22 5.22 0 0 1 4.94 5h15.62v-5.55s.56-.11-1.26-.13z" fill="#fb8f04" stroke="#fb8f04" stroke-miterlimit="10"/><path d="M22.99 6.17c0-2.33-1.42-5.52-3.16-5.52s-3.16 3.19-3.16 5.52 1.42 4.23 3.16 4.23 3.16-1.9 3.16-4.23z" fill="#ffb400"/></svg>