<svg data-name="Layer 20" xmlns="http://www.w3.org/2000/svg" width="78.161" height="15.6mm" viewBox="0 0 58.63 44.22"><title>spain</title><path d="M33.22 2.19l.82.45.1.24.58.1.17 1-.14.75 1.4-.17 1.88.75.89 1 1-.44 1.06 1.09h1.3l.65.34.82-.85 2.15-.07.82.44 1.3-.14 1.37.75 2.22-.2 1.57 1 .6.2.05.41-.75.5.25 1.51-.12 1.17-.48.89-1.79 1.07a11.65 11.65 0 0 1-.8 1l-1.5.61-1.83-.09-1.18.84-1.07.57.5.43-.23 1.11-.66.41-.11-.11.17-.15-.5-.18-1.36 2.33-1 .47-1.83 3-.54.68.79 1.36.22.93.72.4 1.18 1.61-1 1-1.58.39v1.11l-1.5 2.14-.18 1.4.39.39-.39.61-1.61.07-2.87 1.36v1l-1.11 1.79-1-.46-.9-.79-.47.83-.75.65-.79-.61h-.83l-.32.39-1.29-.14-1.94-.54-.79.43-1.7.21-1.48 1.48-1.75.21-.66.59v.77l-1.39.75-1.54-.25-1.57-1.56-.91-2.18.2-.3-1.93-1.86-1.39-.16-.77-.21V36.6l-.68-1.09 1.09-2.05 1.16-1 .14-.89-1-.07-.68-1.37 1.51-1.51-.07-1.92-1.09-.68-1.23-2.33 1.16-.27.82.14 1.23-1.71-.82-.82 1-1 .14-3-.21-1.23 1.78-1.71h.69l.27-1-1-1.37-.14-1.16-2.26-.27-.89.89-2.6-.55-1.57.82-.41-.69.14-1-.8-.22-2.1.33V9.6l1.11-1-.79-.14.54-.57-.36-.36.21-1-.75.72-.36-.14.25-1.33-.4-.18v-.54l-.61.21-.43-1 .5-1 1.79-.64.61.29 1.51-.18.72-.54-.57-.39-.11-.65 1.72-1 .25.32.72-.5L8.4.23l1 1.25.86-.72h1l1.11.47 1.22-.5L15.1.3l.32.43 1.22.68 3.37.54 1.54.36 2.29-1 1.72.14.32.75 1.69.32.86-.86h.83l2.51 1.47.47-.68.68-.07.41-.24zM56.1 22.95l1.54.14.75.41.24-.48-1-1-1.37.27-.21.65zm-2.73 3.18l.41-1.23 1.06-1-1-.07-1.09-.17-.92.61-.21.82 1 .31.75.68zm-5.77 3.14l.55-.75.51-.51-.38-.61-1.23.38-.14.85z" fill="#dd4050" fill-rule="evenodd"/></svg>