<svg data-name="Layer 27" xmlns="http://www.w3.org/2000/svg" viewBox="0 0 64.15 45.7"><title>thailand-city</title><path fill="#e61313" d="M27.8 17.42h8.64v2.49H27.8zM27.8 17.42a19.81 19.81 0 0 0 2.39-3.75C31.1 11.67 32.12 0 32.12 0s1.12 12 1.9 13.67a25.07 25.07 0 0 0 2.42 3.75H27.8z"/><path fill="#ff2323" d="M26.37 22.18h11.5v3.96h-11.5z"/><path fill="#ff2323" d="M26.78 19.24h10.68v3.96H26.78zM22.92 25.77h18.11v4.98H22.92z"/><path d="M60.5 34.42H37.42v-5s16.41.25 20.43 0a20.49 20.49 0 0 0 6.3-1.24z" fill="#c61111"/><path d="M57.38 32.05H38.85v-5s11.86.25 15.88 0a20.49 20.49 0 0 0 6.3-1.24z" fill="#850202"/><path d="M53.41 30.76H40.26v-5s6.48.25 10.5 0a20.49 20.49 0 0 0 6.3-1.24z" fill="#ff2323"/><path d="M33.89 31.3a22.43 22.43 0 0 0 8.35-11.48V31.3h-8.35zM3.69 34.42h23.28v-5s-16.61.25-20.63 0a20.49 20.49 0 0 1-6.3-1.24z" fill="#c61111"/><path d="M6.78 32.05h18.78v-5s-12.11.25-16.14 0a20.49 20.49 0 0 1-6.3-1.24z" fill="#850202"/><path d="M10.75 30.76H23.9v-5s-6.48.25-10.5 0a20.49 20.49 0 0 1-6.3-1.24z" fill="#ff2323"/><path d="M30.27 31.3a22.43 22.43 0 0 1-8.35-11.48V31.3h8.35zM7.81 43.69H6.37v-9.85h1.44zM15.06 43.69h-1.44v-9.85h1.44zM49.37 43.69h-1.44v-9.85h1.44z" fill="#c61111"/><path fill="#850202" d="M40.97 43.69h-1.44v-9.85h1.44zM25.27 43.69h-1.44v-9.85h1.44z"/><path fill="#c61111" d="M29.36 43.69h-1.44v-9.85h1.44zM37.05 43.69h-1.44v-9.85h1.44zM58.49 43.69h-1.44v-9.85h1.44z"/><path fill="#850202" d="M2.58 43.69h59.08v2.01H2.58zM20.46 35.58a41.1 41.1 0 0 0 6.42-7.55l5.17-8.39s3 5.07 5.09 8.39a52 52 0 0 0 6.5 7.55H20.46z"/><path d="M25.36 33.76a24 24 0 0 0 3.75-4.41l3-4.9s1.75 3 3 4.9a30.39 30.39 0 0 0 3.8 4.41H25.38z" fill="#e61313"/></svg>