<svg data-name="Layer 20" xmlns="http://www.w3.org/2000/svg" width="53.896" height="99.704" viewBox="0 0 40.41 74.77"><title>thailand</title><path d="M11.38 0l.54 1.12 1.26-.31.92 1.09.24 1.64-.75.55.68 1.2.75.28.82-.69h1.74v.82l-.55 1.09.55.93v.75l-.55.72.41 1.16v1.64l.08 2.48 1.3-.69 1.16-.27.14-1 1.51-.69 1.57.82 1-.07.82 1 2-.21 1-2.12 1.57-.34 2.12.55.68 1.37 2.05 1.48 1.16.85.48 1-.17.82-.34.58.51 1.12-.07 1.33-.24.72.85.61 1 1.09.89.07.82.34-.31.51 1.2.79.2.65-.31 1.06.07.62-.34.89.34.75-.07 1.71-.62.68-1.13.55-.82-.65-1.33.17-1-.28h-1l-1.33.48-.41-.41H31.1l-2.29.84h-.92l-1 1.4-.31 1.4-.78 1.06-.1 1.85.41 1.88.82.44.44.92-.1 1.74-.13.73h-.42l-.05.66-.18.07-.14-.23-1-.82h-.37v-.43l-.59-.31-1.25-1.21-.68-.25-.54.45.11.21-.09.18-.41-.29-1-.25-1 .23-.66-.23-.71.07.25-.75.3-.32-.43-.75.07-1.25.27-.28-.25-.63-.82-.16-.16-.12-.3.09-.34-.25-.73.34-.57.06-.34-.29-.31.38h-.53l-.29-.14v.21l-.17.59.79.4.14.86-.5.82v1l-.18.57.36.29-.14 1.33-.68.86-.15 1-.68 1-.25 3.6-1.13 1.45v1l-.45.95.48.09.14.23-.44.57.07.43.23 1v.55l.93 1.36-.47.91.29.36.52-.15.12-.39.47-.52.23.16.71.14.41.4.11 1 .43.57-.09 1 .5.18.48 1.05h.52v-.52l.07-.4.23.74.54.79v.78l.45.25.38 1.95-.18.27-.16.34-.1-.27-.75.5-.12.68 1.37.52.16-.7.28.2.06.8.63.52 1.35 1.33.57.44.39-.28 1 .11.88.34.61 1.37.52.68.86.55.11.46-.22.24v.86l-.65.48-.65-.55-.85.1-1.06.92-1.26-.31v-.69l.54-.68.14-1.36-.62-.62h-1l-.24-.55-1.3-.38-.89-.78-.62.78-.31 1.09-.39-.64-2-1.47-.07-.38.39-.47v-.5l-.5-.07-.32-.79-.93-.14v-.61l-1.08-1.44h-.68l-.54-1.72-.86-.15v-.69l-.54-.39v-.46l-.9.43v.9l-.61-.07-.43-.64-.25-1.61.21-.43-.14-1.36.71-.37v-1.83l.5.11.36-.72-.54-.11.68-1-.21-.4.61-.9-.54-.07.2-1.56.25-.71.44-.75.14-1.19 1-.75 1.13-3 .55-.34.07-1.57-.62-1.06.07-1.37-.41-.85-.2-1.4-.55-.58.1-1-.21-.92.34-.79-.62-2-1.3-1.27-1.44-1.13-1.23-1.54v-.85L5.7 27l1-.58.14-.72-.55-2.43.38-.68.89-.48-.1-1-1-.48-.17-1-.55-1.23-.75-.27-1.13-2.46-1.23-.85-.27-.72-.69-.65-.78-1.36-.72-.21-.1-.75 1.23-.51.89-.65-.38-.78v-1.4l.69-.65-.24-1.64.75-1 1.77.72 1.1-.89h1l.31-.5V2.65l.6-.55 1.2.17.36-.51-.51-.7V.53L9.9.15l1.39-.07v-.09zm2.61 69.92l.36.75.34-.13-.13-.59-.34-.17-.22.14zm-3-4.65l.17 1 .14-.52-.07-.41-.24-.05zm-3.37-2.4l-.2.62.2.4v1l.62-.8v-1.15a4.73 4.73 0 0 0-.57 0zM24.88 42.5l.07.81.67.57.5-.1-1.24-1.27zm-9.32 11.69l-.86.32.62.19.24-.51zm.22 1l-.69.44.07.62.69.58.2-1z" fill="#aa2358" fill-rule="evenodd"/></svg>