<?xml version="1.0" encoding="utf-8"?>
<!-- Generator: Adobe Illustrator 18.1.1, SVG Export Plug-In . SVG Version: 6.00 Build 0)  -->
<svg version="1.1" id="Layer_1" xmlns="http://www.w3.org/2000/svg" xmlns:xlink="http://www.w3.org/1999/xlink" x="0px" y="0px"
	 viewBox="0 0 233 217" enable-background="new 0 0 233 217" xml:space="preserve">
<g>
	<polygon fill="#00AB8A" points="233,154 227.7,136.5 6.8,136.5 1.5,154 6.8,154 6.8,217 227.7,217 227.7,154 	"/>
	<polygon fill="#003026" points="112.8,17.7 111.6,21.1 122.9,21.1 121.6,17.7 	"/>
	<polygon fill="#003026" points="114.8,9.9 114.6,8.9 119.9,8.9 119.7,9.9 	"/>
	<path fill="#00DBB6" d="M124,39V22.8l1.2-3.3h-15.7l1,3.3V39c-15.7,5-19.4,26.8-19.4,26.8v28.5h52.4V66C143.4,66,139.7,44.1,124,39
		z"/>
	<polygon fill="#00DBB6" points="150.5,70.6 84,70.6 84,74.3 86.1,74.3 86.1,108 148.3,108 148.3,74.3 150.5,74.3 	"/>
	<polygon fill="#00AB8A" points="155.7,89.2 78.7,89.2 78.7,94.4 80.9,94.4 80.9,136.5 153.6,136.5 153.6,94.4 155.7,94.4 	"/>
	<rect x="33.2" y="116.2" fill="#00DBB6" width="168" height="100.8"/>
	<path fill="#003026" d="M88.3,96c-0.3-0.9-1.2-1.6-2.2-1.6S84.3,95,84,96h-0.1v17.2h4.7V96H88.3z"/>
	<path fill="#003026" d="M148,96c-0.3-0.9-1.2-1.6-2.2-1.6s-1.9,0.7-2.2,1.6h-0.1v17.2h4.7V96H148z"/>
	<path fill="#003026" d="M98.3,96c-0.3-0.9-1.2-1.6-2.2-1.6c-1,0-1.9,0.7-2.2,1.6h-0.1v17.2h4.7V96H98.3z"/>
	<g>
		<path fill="#003026" d="M93.8,78.6c-0.2-0.5-0.6-0.9-1.2-0.9s-1,0.4-1.2,0.9h-0.1v9.1h2.6L93.8,78.6L93.8,78.6z"/>
		<path fill="#003026" d="M99.2,78.6c-0.2-0.5-0.6-0.9-1.2-0.9s-1,0.4-1.2,0.9h-0.1v9.1h2.6L99.2,78.6L99.2,78.6z"/>
		<path fill="#003026" d="M104.7,78.6c-0.2-0.5-0.6-0.9-1.2-0.9c-0.6,0-1,0.4-1.2,0.9h-0.1v9.1h2.6L104.7,78.6L104.7,78.6z"/>
		<path fill="#003026" d="M110.2,78.6c-0.2-0.5-0.6-0.9-1.2-0.9s-1,0.4-1.2,0.9h-0.1v9.1h2.6L110.2,78.6L110.2,78.6z"/>
		<path fill="#003026" d="M115.7,78.6c-0.2-0.5-0.6-0.9-1.2-0.9c-0.6,0-1,0.4-1.2,0.9h-0.1v9.1h2.6L115.7,78.6L115.7,78.6z"/>
		<path fill="#003026" d="M121.2,78.6c-0.2-0.5-0.6-0.9-1.2-0.9s-1,0.4-1.2,0.9h-0.1v9.1h2.6L121.2,78.6L121.2,78.6z"/>
		<path fill="#003026" d="M126.7,78.6c-0.2-0.5-0.6-0.9-1.2-0.9s-1,0.4-1.2,0.9h-0.1v9.1h2.6L126.7,78.6L126.7,78.6z"/>
		<path fill="#003026" d="M132.1,78.6c-0.2-0.5-0.6-0.9-1.2-0.9c-0.6,0-1,0.4-1.2,0.9h-0.1v9.1h2.6L132.1,78.6L132.1,78.6z"/>
		<path fill="#003026" d="M137.2,78.6c-0.2-0.5-0.6-0.9-1.2-0.9c-0.6,0-1,0.4-1.2,0.9h-0.1v9.1h2.6L137.2,78.6L137.2,78.6z"/>
		<path fill="#003026" d="M143.1,78.6c-0.2-0.5-0.6-0.9-1.2-0.9c-0.6,0-1,0.4-1.2,0.9h-0.1v9.1h2.6L143.1,78.6L143.1,78.6z"/>
	</g>
	<path fill="#003026" d="M138,96c-0.3-0.9-1.2-1.6-2.2-1.6c-1,0-1.9,0.7-2.2,1.6h-0.1v17.2h4.7V96H138z"/>
	<path fill="#003026" d="M128.1,96c-0.3-0.9-1.2-1.6-2.2-1.6c-1,0-1.9,0.7-2.2,1.6h-0.1v17.2h4.7V96H128.1z"/>
	<path fill="#003026" d="M118.1,96c-0.3-0.9-1.2-1.6-2.2-1.6s-1.9,0.7-2.2,1.6h-0.1v17.2h4.7V96H118.1z"/>
	<path fill="#003026" d="M126.2,198.8c-1-3.2-4-5.6-7.5-5.6s-6.5,2.4-7.5,5.6h-0.5v18h16v-18H126.2z"/>
	<path fill="#003026" d="M173.2,199c-0.7-3.2-2.7-4.7-5-4.7s-4.4,1.4-5,4.7h-0.3v18h10.7v-18H173.2z"/>
	<path fill="#003026" d="M71.5,199c-0.7-3.2-2.7-4.7-5-4.7s-4.4,1.4-5,4.7h-0.3v18h10.7v-18H71.5z"/>
	<path fill="#003026" d="M108.2,96c-0.3-0.9-1.2-1.6-2.2-1.6s-1.9,0.7-2.2,1.6h-0.1v17.2h4.7V96H108.2z"/>
	<path fill="#003026" d="M121.6,17.7h-8.8c0,0,1.7-1.7,2-4.2s0-4.2,0-4.2h4.7c0,0-0.3,2.1,0,4.2S121.6,17.7,121.6,17.7z"/>
	<path fill="#003026" d="M117.4,2.5L117.4,2.5c-0.9,0-1.7,0.8-1.7,1.7v4.7h2.4c0,0,0.4-0.3,1-1.5s0-3.2,0-3.2
		C119,3.2,118.3,2.5,117.4,2.5z"/>
	<ellipse fill="#003026" cx="117.4" cy="1.7" rx="0.7" ry="0.7"/>
	<path fill="#003026" d="M95.9,68.9h-1.2c-0.1,0-0.2-0.1-0.2-0.2V65c0-0.1,0.1-0.2,0.2-0.2h1.2c0.1,0,0.2,0.1,0.2,0.2v3.6
		C96.1,68.8,96,68.9,95.9,68.9z"/>
	<path fill="#003026" d="M101.3,68.9h-1.2c-0.1,0-0.2-0.1-0.2-0.2V65c0-0.1,0.1-0.2,0.2-0.2h1.2c0.1,0,0.2,0.1,0.2,0.2v3.6
		C101.6,68.8,101.5,68.9,101.3,68.9z"/>
	<path fill="#003026" d="M106.8,68.9h-1.2c-0.1,0-0.2-0.1-0.2-0.2V65c0-0.1,0.1-0.2,0.2-0.2h1.2c0.1,0,0.2,0.1,0.2,0.2v3.6
		C107.1,68.8,107,68.9,106.8,68.9z"/>
	<path fill="#003026" d="M112.3,68.9h-1.2c-0.1,0-0.2-0.1-0.2-0.2V65c0-0.1,0.1-0.2,0.2-0.2h1.2c0.1,0,0.2,0.1,0.2,0.2v3.6
		C112.5,68.8,112.4,68.9,112.3,68.9z"/>
	<path fill="#003026" d="M117.8,68.9h-1.2c-0.1,0-0.2-0.1-0.2-0.2V65c0-0.1,0.1-0.2,0.2-0.2h1.2c0.1,0,0.2,0.1,0.2,0.2v3.6
		C118,68.8,117.9,68.9,117.8,68.9z"/>
	<path fill="#003026" d="M123.3,68.9h-1.2c-0.1,0-0.2-0.1-0.2-0.2V65c0-0.1,0.1-0.2,0.2-0.2h1.2c0.1,0,0.2,0.1,0.2,0.2v3.6
		C123.5,68.8,123.4,68.9,123.3,68.9z"/>
	<path fill="#003026" d="M128.8,68.9h-1.2c-0.1,0-0.2-0.1-0.2-0.2V65c0-0.1,0.1-0.2,0.2-0.2h1.2c0.1,0,0.2,0.1,0.2,0.2v3.6
		C129,68.8,128.9,68.9,128.8,68.9z"/>
	<path fill="#003026" d="M134.3,68.9h-1.2c-0.1,0-0.2-0.1-0.2-0.2V65c0-0.1,0.1-0.2,0.2-0.2h1.2c0.1,0,0.2,0.1,0.2,0.2v3.6
		C134.5,68.8,134.4,68.9,134.3,68.9z"/>
	<path fill="#003026" d="M139.7,68.9h-1.2c-0.1,0-0.2-0.1-0.2-0.2V65c0-0.1,0.1-0.2,0.2-0.2h1.2c0.1,0,0.2,0.1,0.2,0.2v3.6
		C140,68.8,139.9,68.9,139.7,68.9z"/>
	<polygon fill="#00DBB6" points="206.6,132.3 27.9,132.3 33.2,116.2 201.3,116.2 	"/>
	<g>
		<rect x="37.4" y="136.5" fill="#00AB8A" width="6.2" height="79.4"/>
		<rect x="46.7" y="135.9" fill="#00AB8A" width="6.2" height="80"/>
		<polygon fill="#00AB8A" points="54.5,137.2 35.2,137.2 34.4,132.3 55.3,132.3 		"/>
		<polygon fill="#00AB8A" points="54.5,212.1 35.2,212.1 34.4,217 55.3,217 		"/>
	</g>
	<g>
		<rect x="81" y="136.5" fill="#00AB8A" width="6.2" height="79.4"/>
		<rect x="90.4" y="135.9" fill="#00AB8A" width="6.2" height="80"/>
		<polygon fill="#00AB8A" points="98.1,137.2 78.8,137.2 78,132.3 98.9,132.3 		"/>
		<polygon fill="#00AB8A" points="98.1,212.1 78.8,212.1 78,217 98.9,217 		"/>
	</g>
	<g>
		<rect x="181.9" y="136.5" fill="#00AB8A" width="6.2" height="79.4"/>
		<rect x="191.3" y="135.9" fill="#00AB8A" width="6.2" height="80"/>
		<polygon fill="#00AB8A" points="199,137.2 179.7,137.2 179,132.3 199.8,132.3 		"/>
		<polygon fill="#00AB8A" points="199,212.1 179.7,212.1 179,217 199.8,217 		"/>
	</g>
	<g>
		<rect x="139.3" y="136.5" fill="#00AB8A" width="6.2" height="79.4"/>
		<rect x="148.6" y="135.9" fill="#00AB8A" width="6.2" height="80"/>
		<polygon fill="#00AB8A" points="156.3,137.2 137.1,137.2 136.3,132.3 157.2,132.3 		"/>
		<polygon fill="#00AB8A" points="156.3,212.1 137.1,212.1 136.3,217 157.2,217 		"/>
	</g>
	<rect x="27.9" y="128.6" fill="#00AB8A" width="178.6" height="3.7"/>
	<rect x="63.6" y="146.3" fill="#003026" width="6.1" height="4.7"/>
	<rect x="165.2" y="146.3" fill="#003026" width="6.1" height="4.7"/>
	<rect x="115.7" y="146.3" fill="#003026" width="6.1" height="4.7"/>
</g>
</svg>
