<svg data-name="Layer 20" xmlns="http://www.w3.org/2000/svg" width="94.74mm" height="55.83mm" viewBox="0 0 268.55 158.25"><title>usa</title><path d="M23.41 0l123.15 12.34.9.11h1.09l1.06.89.09.35.62.67.19.15 1 .33.15.24 1 .26.46.62.38-.1.89-.24.74.24.89-.08 1.11.87h.6l.48 1.06 1.63.52.94.26.65.72.72.33h1.54l.75-.48.44.28.38.77 2.24.14.5.46 1.13.26.74.51 18.91 8.91 1.23 1.5 2.89 2.31 3.09 14.54-.4 6.34-.47 1.15-.52 1-.74 1-1.81.87-.91 1.24.81 1.43 16.28-4.43 2.06-.67.39-2.33 8.93-2.6 4-3 .89-.65 1.3-.24 2.12-2 .93-.77 1.17-.5.8-.8 1.66-.25 13.84.24 1.06-1 .39-.09.43-.33h.6l.86.21.55-.38.26-.7 1.52-1.65.6-.21 1.21-1.49.41-1.06.15-1.06 1.2-.63-.05-.81.82-1.06 1.69-1.88.36-.75.8-.79.29-.09.57.4.67.63 1-.27 1.3.34.41-.38 1.84 1.78.07 1.54-1 6-.24.68.41.1.28.52.41.51v.79l-.1.48.1.44-.24.41.22.31h.05l1.78 1-.32 1.06.67.72.39-.65.91.53-.63.79-.84.12-.4-.51-1.15.66-.72-.07-.85.58-.51.27-.72-.31-.79 1.06h-.65l-.27-1.06h-1.06l-.82.89-.89.13-.24-.75.27-.92-1.24 1.52-.89 1.47-.55.38-.27-.44-.55 1.06h-.55l-.14-1-.51 1-.44.58-.65-.2-.07-.61-.55.85h-.51l-.58 1.26-1.74 1.37-.61 1.67-.58.72-.21.68-.48.38-.1.58h.62l.07.72-1.67 1.5v.44l1.2.68.51 1.54.14.79h1.37l.38-1.06-.1-.82.44-.14.44 1.61-.58 1-2.2 1.04-.58-.21v-.65l-.44-.89-.89 1.64-.85.89-.61-.1.1-.65v-.92l-1-1v1.09l-.14 1.26.38.45-.55.2-1.95.14-1.2.27-.89-.24-1.88.14-.38-.31h-.55l-1.5 1.06h-1l-1.47.79-.84.27-.76.72v.63l-1.26.72.36.65.6.49.14.58-.53.67v.34l-.41.89.14.43-.36.6-.38 1h-.41l-.46.53-.43 1.38-.67.21-.36.55h-.39l-.1.6-.75.94-.09-.26-.7.51.51-1.27-.39-.43-.69.17-1.09-1.1-.39-.69.27-.7 1.54-1.66-1 .52-.85.78-.45.89.12 1 .43.46.12 1.28.46.5.61 1.58v1.2l-.79 1.78-1.06.62-.75 1.91-.55.92v.58l-.27.38-.07-.38-.1-.34-1 1.71-.1.44-.24.37-.1-.92.25-1 .54-.91-.14-.6.58-.75-.15-.22.82-.45h-1.13l-.32-.67.29-.45v-.21h-.43l-.12-.39-.31.38-.77-1v-.89l.67-1 .22-1.35-.75-1.25.53-1 .79-.48-.24-.31.22-.89-.26-.36v.27l-.26.89-.94.75-.62.44-.39-.05.45.67-.17.55-.15 1.38.21.55-.14.65.07.92-.1 1.84-.27.07-1.09-1.32-.92-.14-.58-1.06h-.44l-.17-.48.41-1-.68.92v.82l.68.31.55.89 1.06.41 1.06 1.3.68.41.14.82-.27 1-.68-.07-.31-.82-.44-.2.41 1.16 1 .65.27.65-.31.27-.07.45-1-.2 1.2 1-.38.65-.58-.27-.48-.85h-1.16l-.79-.38.65.79.76.26h.57l.38 1.16.82.2.65-.17.44.39.24.87-.36.91-.49-.24v.46l.39.4.17 1-.29.5h-.62l-.22.26-1.27.34-.48.44-.6-.2-.46-1-.33.21v1.42l-.17.55.94-.29 1.92-.29.38.17.14 1.4.46.2.05-.6.5-.94.24-.07.36.81-.22 1h-.31l-1 .84-.34.7-.4.33-.65-.41-.65.11-.38-1-.1.65-.65.27-.65-.31h-.65l.51.62 1.13.21.31.48-.48.41.21.34-1.26.54-.85-.34.72.69 1.2.1.85-.79.2.34.34.14-.89 1-.96.03-.1-.31-.58.07-.32.24-1.16.1-2.22 1.33-2.39 1.95-.79 1.47-.41.07-.48-.31-1.37.17-.92.82-1.78 2.36v.54l-.75.65h-.48l-.07.61-.82.93-.55-.24-.51.14-.24.44-1-.1-.51.68-1.43.17-.24.51-.92-.07-.17.58h-1.13l-.27.24.34.24-.1.79-.65.92-.41.07-.41.58-.79.2-.82 1.33-.68 1.37v1.6l-.18 2.86.14 1.33-.27 2 .51 1.3.2 2.05.41.85.48 2.29.61.82.34.85-.41 1.09-.14 1.44.34.48.51 3 1 .61.31 1.4-.55.55.24.35-.17 1.67-.24.44.1.82-.82 1.67-.44 1.13-.58.86-.14 1.19-.79.28-.89.31-.89-.24-.44-.58-1-.28.55-.24-1.15-.93.12-.81-.34-.63h-.81l-.36-.33.05-1.25-.14-1-1.16-.89-.09-.56.38-.45.17-.79.7-.69-.89.24-.38-.27v.39l-.31.43-.24-.87-.38.1-.19-.46-.58-.69-.07-.91-.28-.58 1.16-1.66v-.87l-.68-.29-.36.29.17.4-.55.77-.26.24-.57-1v-.7l.92-1.73.63-2.21.09-1.1-.62-1.18-.7-.12-.43-.69v-.34h-.41l-.68-.5-.12-1-.33-.1-.5-.5-.48-1.65-1.08-.38-.62-.34-.94.16-.63.5v.22l-.15.15-.39-.17-1.18 1.42-.87.1-1.37.21-.22-.34.12-.36.14.31.22-.08-.24-.44-.46-.67-1.16-.81.15-.05.62.29.15-.31-.89-.63-.17-.5-.41-.05-.12.43.46.63-.72-.41-.74-.65h-1.19l-1.23-.17.17-.24 1.11.07.56-.17-.22-.29-1-.07-1 .74-.43-.22-1.42.19-.55-.39-.68.28-1.33-.07-.75.31-.92-.79v-.55l.13-.62-.58-.1-.41.82-.44.75-.68-.14-.58.21-1.06-.17-2.8.51-.79.68-1.57.65-.85.89v.65l.62-.24.55-.55.31.07.34.44.82.34-.31.34-1.5.58v.82l.19.66 1.5.51 1.13.85-.07.31-.72.21-.31.58v-.93l-.48-.31-.55.07-.48-.65-.68-.28-.68-1-.85.07.41.79v1.16l-.72.41-.37-.6-.79-.57-.7.52-.48.55-1.18-.36-.65-.4-.79.14-.5-.22.38-.48.63-.5-.33-.51-1 .1-.29-.36v-.7l-.31-.34-.65.24-.51-.17.36-.55-.51-.22-1 .36-.07.48.15.58-.85.12-2.73-.27-.38-.44-2.22-.55h-1.23l-1.61.34-.65.44-.68.07-.79 1.13-1.06.13.17-.85-.24-.72.55-.75-.34-1-.07.58-.92.78h-.44l-.51-.68.55 1.4v1l.21 1-.62.51h-.62l-1.5 1.37-2 1h-.62l-.89.75-.65.07.82-.72-.72-.51-.44.24-.34-.24-.89.51.51.48-1 .38-.51-.41.07 1.2-.85.41-.48-.31-.92.93.55.62-1 .75-.68.31.31 1.81-.65.92-.41 1.36-.55 1.16.41.72-.1 2 .24.65-.31 1-.48 1.4-.41-.21-.29-.58-.86-.21-.89-.45-1.56-.52-.77-.76-.6-.34-.6.09-.56-.21-.11-.13-.4-.48.05-1.24-1-2.77-.08-.29v-.24l.09-.88.09-.84-.79-.82-.45-.79-.22-.93-.74-.39-.21-.6-.39-.26-.62-1.73-.24-.65-.51-.26-.07-1.12-.12-.72-.26-.41-.36-1-.74-1.13-.92-.77-.41-.7-.63-.32-.61.11-.21-.27-.36-.18-.9.07-.81-.12h-.85l-.27.57-.38.07-.09-.15-.35-.09-.55.2-.37.58-.69 1.28-.41.52.09.25-.1.4-.47.12-.68.54-.09.3-.45.18-.4-.07-.28-.32-1-.49-.8-.26-.13-.32-1-.49h-.54l-.32-.32-.06-.3-.17-.34-.45-.18h-.3l-.39-.39h-.29v-.26l-.07-.65-.65-.77-.82-1v-.34l.47-.09.27-.2v-.72l-.55-.51-.15-.36-.27-.05-.33-.39-.1-1-.43-.69-.65-.43-.58-.17.24-.36.05-.43-.72-.6-.74-.27.15-.47-.43-.63h-.5l-.09-.43-.41-.5-.76-1.18-.89-.55-7.67-.24-.09 1.73-13.56-.41-16.13-7.38.17-.38-.24-.41-11.35.2-.1-.77.24-1.16-.2-1.44-1.64-2.49-1.06-1.09-.62.14h-.48l-.31-.17v-.82l-.21-.51-1.16-.34h-.79l-1.26-.69v-.83l-.58-.65h-1.26l-.7-.13-.75-.46-1-.27H9.51l-.48-.34-.26-.79.21-.14.24-.77.46-1.45-.29-1-.77-.87-.07-.26.19-.33-.4-.31-.72-1-1-2.12-.2-1.64-.75-.55-.14-.58.07-.89-.24-1v-.41l.41.07.62-.68v-.75l-.51-.51-.72-.44-.2-.92-.44-.24-.1-.75.24-.85-.1-.44.44-.44-.1-.58.34-.48.41.27.41.85.79.41-.31-.41-.31-.72-.14-1.23-.37-.27.07-.65h.41l.34.31.82-.24.85-.2-1.2-.14-.24-.34h-.75l-.1-.38-.24.21-.62-.38v2.06l-.24-.14h-.38l-.17-.48-1.09-1-.24-.68.27-.58-.14-.92-2-3-.21-.55.17-.61.41-.72-.1-1-.41-.82v-.44l.55-.85.17-1.06-.07-1.91-.8-1.67-.82-1.13V59.9l.51-1.09 1.4-1 .48-1.26-.31-.21-.14-.62.51-.51.51-1.06.21-1.95-.34-1.16v-.75l.41-.55-.65-1 .07-1.23.48-1.81-.14-1.81.34-.83 1.23-1.57.27-1 .48-.48.55-1.57.89-1 .62-1.23.34-2.53 1.16-2.26.2-2.12 1.3-2.87.48-1 .75-1.3-.1-.68v-.72l1-1.23v-.75l.31-.24.55.41 1.61.07.68.48.58-.1.85.51.44 1.06-.17-1.16-.48-.61-1-.17-.79-.65-1.3-.1-1.3-.34-.1-.51.34-.38.31.14.55-.65v-.92l.27-.72-.75-.31-.29-.42.24-.75h.48l.38-.55-.07-.34-.62-.17-.07-.62.21-1.2-.24-1.23.48-2.43-.51-1.74v-.85l.75-1.74.14-1 .34-.1 2.19 1.91 1.16.75 2.12.14.75.38.44.85.44-.21h.44l.31.58-.27.55-1 .38-.89.89v.48h.75l.34-.58 1-.82.48-.1.1.75-.72.61-.55 1.13v1.16l-.31.34-.14-.72-.61.51-.2-.38-.69.85.27.48.78.41 1-.68.3-.74.51-.58V10.7l.55-.48.27-1.2.79-.51.79-1-.44-.55-.07-.65-.31-.27.55-.75.31-.38-.68-.48-.14-.79.82-.62.1-.65-1-.75-.37-1.69zm222.92 67.41l.19.36h.52l.41-.4h.66l-.43-.46h-.79l-.19.25-.38.27zm-14.38 3.93l-.39.36.68-.21.31-.31 1-.05 1-.29h1.56l.72-.41 1.35.05.34-.31.4.08 1.28-.4.51-.48-.79.28-.5-.23-.92.4.34-.5.36-.41v-.24l-1.33.74h-1.49l-1.22.36-1-.24-1.35.56-1 .15-.53.67.13.42h.6zM23.44 4.75l-.91.77v1.3l.65 1.42.38-.31-.53-1.77.17-.79.53-.22-.27-.41zm89.94 138.34l.39-.28 1-1.22.68-.91-1 .72-1.1 1.68zm-1.08 2.47l.33-.22.44-1.17v-.46l-.74 1.85zm-.42 6.45l-.44-1.6.14-2.12.58-2.26-.85 2.12-.1 2.15s.71 1.7.67 1.7z" fill="#008a8e" fill-rule="evenodd"/></svg>