<svg data-name="Layer 20" xmlns="http://www.w3.org/2000/svg" viewBox="0 0 25.91 57.96"><title>italy-city</title><path fill="#003026" d="M0 57.84l.98-10.83 22.95 2.08-.8 8.87-1.72-.01-4.23-.02-1.14-.01-4.1-.02h-1.28l-4.14-.02-1.22-.01-5.3-.03z"/><path fill="#00dbb6" d="M2.112 37.672l22.23 2.01-.857 9.473-22.23-2.01zM3.33 28.23l21.503 1.946-.857 9.47-21.502-1.944z"/><path d="M3.98 49.81a2 2 0 0 0-2.22 1.85l-.54 5.93v.26h4.12l.53-5.84a2 2 0 0 0-1.89-2.2zM9.31 50.29a2 2 0 0 0-2.22 1.85l-.49 5.45-.08.29h4.14l.49-5.39a2 2 0 0 0-1.84-2.2zM14.64 50.78a2 2 0 0 0-2.22 1.85l-.45 5v.27h4.1l.45-4.93a2 2 0 0 0-1.88-2.19zM19.98 51.26a2 2 0 0 0-2.22 1.85l-.42 4.63v.19h4.1l.4-4.48a2 2 0 0 0-1.86-2.19zM5.53 38.55a2 2 0 0 0-2.14 1.79l-.55 6.08 3.93.36.55-6.08a2 2 0 0 0-1.79-2.15zM10.68 39.02a2 2 0 0 0-2.14 1.79l-.55 6.08 3.93.36.55-6.08a2 2 0 0 0-1.79-2.15zM15.83 39.49a2 2 0 0 0-2.14 1.79l-.55 6.08 3.93.36.55-6.08a2 2 0 0 0-1.79-2.15zM20.98 39.95a2 2 0 0 0-2.14 1.79l-.55 6.08 3.93.36.55-6.08a2 2 0 0 0-1.79-2.15zM6.64 29.3a1.9 1.9 0 0 0-2.07 1.72l-.53 5.86 3.79.34.53-5.86a1.9 1.9 0 0 0-1.72-2.06zM11.61 29.75a1.9 1.9 0 0 0-2.07 1.72l-.53 5.86 3.79.34.53-5.86a1.9 1.9 0 0 0-1.72-2.06zM16.57 30.2a1.9 1.9 0 0 0-2.07 1.72l-.53 5.86 3.79.34.53-5.86a1.9 1.9 0 0 0-1.72-2.06zM21.54 30.65a1.9 1.9 0 0 0-2.07 1.72l-.53 5.86 3.79.34.53-5.86a1.9 1.9 0 0 0-1.72-2.06z" fill="#00ab8a"/><path fill="#00dbb6" d="M4.55 18.8l20.774 1.88-.857 9.47-20.775-1.88z"/><path d="M7.5 19.83a1.9 1.9 0 0 0-2.07 1.72l-.53 5.86 3.79.34.53-5.86a1.9 1.9 0 0 0-1.72-2.06zM12.46 20.28A1.9 1.9 0 0 0 10.39 22l-.53 5.86 3.79.34.53-5.86a1.9 1.9 0 0 0-1.72-2.06zM17.43 20.73a1.9 1.9 0 0 0-2.07 1.72l-.53 5.86 3.79.34.53-5.86a1.9 1.9 0 0 0-1.72-2.06zM22.4 21.18a1.9 1.9 0 0 0-2.07 1.72l-.53 5.86 3.79.34.53-5.86a1.9 1.9 0 0 0-1.72-2.06z" fill="#00ab8a"/><path fill="#00dbb6" d="M5.777 9.358l20.06 1.814-.858 9.472L4.92 18.83z"/><path fill="#00ab8a" d="M16.363 5.62l15.41 1.386-.79 8.78-15.41-1.387z"/><path fill="#00dbb6" d="M8.803.092l16.075 1.455-.13 1.434L8.674 1.527z"/><path d="M8.35 10.36a1.9 1.9 0 0 0-2.07 1.72l-.53 5.86 3.79.34.53-5.86a1.9 1.9 0 0 0-1.72-2.06zM13.32 10.81a1.9 1.9 0 0 0-2.07 1.72l-.53 5.86 3.79.34.53-5.86a1.9 1.9 0 0 0-1.72-2.06zM18.29 11.26a1.9 1.9 0 0 0-2.07 1.72l-.53 5.86 3.79.34.53-5.86a1.9 1.9 0 0 0-1.72-2.06zM23.25 11.71a1.9 1.9 0 0 0-2.07 1.72l-.53 5.86 3.79.34.53-5.86a1.9 1.9 0 0 0-1.72-2.06z" fill="#00ab8a"/><path d="M12.91 4.64a1.62 1.62 0 0 0-1.76 1.47l-.33 3.61 3.22.29.33-3.61a1.62 1.62 0 0 0-1.46-1.76zM20.37 5.32a1.62 1.62 0 0 0-1.76 1.47l-.33 3.61 3.22.29.33-3.61a1.62 1.62 0 0 0-1.46-1.76zM16.73 5.02a.81.81 0 0 0-.88.73l-.16 1.81 1.61.15.16-1.81a.81.81 0 0 0-.73-.88z" fill="#00dbb6"/></svg>