<svg xmlns="http://www.w3.org/2000/svg"><defs><style>.land{fill:#CCC;fill-opacity:1;stroke:#fff;stroke-opacity:1;stroke-width:.5}</style></defs><path id="VA" class="land" d="M298.99 371.87l-.11-.11-.1.03-.17.04-.16.26-.03.06.06.08.06-.02.26.06.2-.08.02-.06-.04-.08z"/><path id="SM" class="land" d="M300.77 231.65l.82-5.31-5.36 2.51.28 3.61.04.1z"/><path id="FR-H" class="land" d="M143.42 295.38l2.08 1.75 1.51 12.62-2.38 9.33 4.52 9.28 1.01 28.6-7.31 11.7-1.17 20.28-5.52 3.51.34 2.1 1.57-2.06 2.55.92-4.82 4.16.24 4.51-3.18 3.74 2.21-.29-4.09 3.38-4.43-2.03 1.3-3.3-17.01-7.72.17-4.98 6.29-4.26-6.75-.58-.35-2.83-5.95.06 5.79-4.88 1.6-5.75-1.06-1.88-8.95 1.99-.77-4.91 2.86-.24.6-3.01 4.47-2.56-2.43-4.32-2.09.81-5.22-3.1 1.19-4.13-2.1-2.19 7.94-2.02-4.64-2.69.61-3-2.96 1.18-.79-2.48 5.75-3.28 1.27-3.71-1.6-.67 3.96-7.35 3.23 2.16.68-3.38 10.92-2.69 5.62-6.27 4.98-.26 3.94 4.07 2.36-4.12-1.81-6.76 2.66-6.34-1.08-4.88 4.24-1.23z"/><path id="MT" class="land" d="M397.03 760.26l.74 3.2 2.3-.96 4.71 3.57-1.02 1.49 3.57.4-.43 3.34-7.19-.37-4.42-3.34-.9-5.78 2.64-1.55zm-6.95-5.45l5.23 3.1-7.56-.12-.18-2.54 2.51-.44z"/><path id="IT_65" class="land" d="M373.96 303.76l9.87 23.03 15.25 13.86 4.87 7.21 10.72 5.53.21 4.85 3.43 2.43-15.06 21.11-2.04-.37-1.38-6-4.06-.52-3.16-3.32-6.98 5.65 2.35 5.47-3.76.15-.63 2.64-1.95-1.98-2.48 3.91-3.97-.46-2.49-3.27-6.72-.97-1.75-3.31-4.17-.94-5.11 3.44-5.53-4.6-3.13.66-.72-7.33-11.54-6.22-4.43-.12-1.41-2.25.15-4.92 2.86-1.42.05-2.39 8.29 3.4 6.8-3.71-11.63-11.99 2.08-2.33-3.99-3.74 3.18-2.42-1.1-4.24 1.79-3.34 5.29 1.29 5.11-1.63.76-3.43-3.14-2 .54-1.68 7.08-3.15 1.88-5.42 6.47.79 3.15-3.53 9.88-2.66z"/><path id="IT-77" class="land" d="M457.12 429.87l1.01-2.46 10.56.55 5.26-3.61 8.61 6.71-3.03 5.5 7.18 3.89 4.14-1.31 2.94 6.46 7.34 7.79 5.01-3.62 2.04 2.47 1.87-2.56 4.58 1.04 2.92 2.22-.13 15.72 4.33 1.58 2.89 4.95-11.04 17.67-11.49-1.74-3.56 16.43-4.14-2.57-2.95 2.41-8.62.07-2.03-3.96 1.24-2.23-5.19-.73-5.56.09-3.3 5.13-5.71-7.93 8.19-15.37-13.78-14.76.07-5.11-4.35-2.63 2.44-3.84-5.93-3.85.17-4.85-2.66-2.52 2.1-.15-.47-3.32 4.79 1.08 3.37-2.8 2.26-5.87z"/><path id="IT-78" class="land" d="M468 505.76l3.31-5.13 5.55-.09 5.19.73-1.24 2.23 2.03 3.96 8.62-.07 2.95-2.4 4.14 2.56 3.56-16.42 11.49 1.74-2.25 5.07 1.36 5.79-7.1 10.46 1.49 8.71 5.08 3.01 8.04.12 4.72 5.33 15 9.22-2.36 5.88 1.93 6.86-1.96 6.55 4.91 5.42-5.74 8.77-5.93-3.02-4.69.74-14.47 7.55-3.65 6.55 2 18.52-5.65 5.88-7.24 3.06-8 10.12-3.55 11.61-5.03 2.64-12.22-.17-6.42-6.48-.02-13.9 8.56-3.2 5.86-12.41.75-4.87-5.32-4.76.48-1.82 7.77-4.94 7.61.22 4.39-8.38-.29-5.12-6.11-7.07-5.16-26.8-6.3-7.6-3.03-8.1-3.06-16.55z"/><path id="IT-72" class="land" d="M389.63 463.3l2.01.24-3.62 1.33 1.61-1.57zm-18.31-13.47l4.41 1.2-.16 2.84-5.11-.42.86-3.62zm5.6-47.67l3.3 4.74 3.45.38-1.65-4.09 2.2-4.03 2.29 1.91 3.84-1.31 18.41 9.03 3.2-2.95 4.79-.07 1.72-2.89 4.01 1.7 7.2-3.91 4.67 3.63-1.38 6.75 10.53 5.68-3.6 6.59 2.3 2.66 5.94 1.73 1.7-1.29 7.27 3.46 1.37 3.97-2.26 5.87-3.37 2.8-4.79-1.09.47 3.33-2.1.15 2.67 2.52-.17 4.85 5.93 3.85-2.44 3.84 4.35 2.63-.06 5.11 13.77 14.76-8.19 15.37-3.64-2.34-7.82 5.81-7.63-2.01-.02-3.51-7.3-6.43-4.68.06-6.33-4.44 4.08-11-6.05-12.56-5.33-5.6-10.14 3.98-4.78-.92-8.06 3.87.78-4.1 7.17-4.56-1.08-3.17-9.4-6.72-4.49 3.49-4.75-2.58-.25 3.47-2.25-.76-1.12-8.45-13.29-20.86 6.62-5.05-1.54-8.19 5.93-3.11z"/><path id="IT-45" class="land" d="M314 227.91l-.94 7.21-3.06 3.09-2.92-.36-1.31-3.87-2.72 1.13-2.28-3.46.82-5.31-5.36 2.51.28 3.6 1.21 2.22-3.95-.04-3.81 7.73-.04-.03-4.51 2.49-1.55-2.31-4.58 1.54-8.27-4.98-4.66-.21-5.58-4.41.27-3.06-3.66-4.93 5.2-9.66-8.12.74 1.26-3.14-4.83.21-4.79-5.7-7.43 5.79-3.99.14 3.07 3.72-11.72.4-1.33-3.1-4.86 5.46-8.26-6.69-5.57-.13-2.6 3-5.35-7.58-9.63-4.68-2.38 1.19-5.63-5.95-6.72-2.43-.59-3.89-3.99-2.32-5.35.59-7.01 7.45-4.12-5.31-8.45 1.35 2.86-4.72-.37-5.51-4.02-2.84-2.44 1.79-8.2-2.89.47-4.89 1.75-.11-.32-2.02 1.31 2.51 3.23-.85-2.01-5.68 3.85-3.88-4.52-5.28.65-2.65 6.49-10.91 4.39-1.35 1.57 1.86.5-3.76 2.33 2.03 1.93-2.45.76 3.75 4.18 1.79 2.24-3.78 3.05 4.35.93-3.21 2.9 1.12-.94-2.75 1.8-1.46.35 2.8 3.77-2.12 5.31 7.77 3.33-1.56 10.19 5.54 2.45-1.34 6.04 5.15 3.94-.17 6.55-5.42.97 3.12 7.26 2.5 9.41-3.55 3.87 2.19 7.94-2.16 6.23.92.16 1.49 5.7-.37 3.25 3.28 10.09-6.49 15.17.37 2.29 3.08 6.98-1.05.53 5.22 3.23 3.64-3.03-2.03-1.73 2.28-.98 8.85 6.36 31.27 8.46 11.35 11.35 9.22zm-26.65 11.33l-3.04 1.1 1.37 1.59 1.88-2.23-.21-.46z"/><path id="IT-36" class="land" d="M316.33 34.01l2.64 2.44 16.36 1.37 3.66 2.76 6.87-2.04 17.56 4.34-1.5 6.1-4.82.09-11.16 10.42 1.89 6.28 3.58-1.04 9.26 3.31-9.64 12.95 3.05 2.85 5.55-1.38-3.41 9.54 1.04 3.26 10.22 4.55 6.39 8.32-4.12 3.68-6.12-.79 4.6-1.45-3.49-1.95.51-3-6.15-6.59-4.19-1.16-1.56 3.14 1.76 1.42-6.28 3.41-9.79-2.9-4.23 1.12-2.88 4.42-4.73-6.17-2.33-8.73-1.69 2.16-3.49-2.47-2.73 2.13-1.33-2.56-6.53 5.01-1.29-3.03-3.92-.1-2.43-6.99-3.96-1.56-1.66-6.87 4.67-4.77.45-3.58-9.01-8.4 10.73-14.67 6.69-.03-1.5-3.48 6.01-2.24-.96-6.89 3.41-.23z"/><path id="IT-62" class="land" d="M324.19 439.19l2.24-1.01-2.05 3.84-.19-2.83zm52.73-37.03l-5.95 3.1 1.54 8.19-6.62 5.06-6.84-2.57-3.98 3.78-13.28-6.25-12.61 4.76-6.59-10.63-15.32-4.3-10.4-14.3-9.89-5.95-4.06-11.66-11.61-8.44-4.27.63-9.25-17.22-10.57-6.87 1.86-4.15 6.8-.08-.09-3.43-2.79-1.91.92-3.7 3.24.07 8.42-5.68-1.54-4.18 2.27-2.35-3.78-2.96 1.16-2.44 1.9 1.79 2.13-3.08 2.48.14 4.4 5.68-2.85 3.03 1.29 2.11 4.14 2.56 8.49-1.28 4.8 12.05 6.56-.42 1.12 7.05 3.64-.52.82 2.68 4.33-3.36.22-3.88 3.29 1.73 2.99-1.97-1.37-2.04 9.22-4.4-.04-3.72 13.29-2.25 2.08-5.73 4.92-.49 3.68 3.16-.54 1.69 3.14 1.99-.76 3.44-5.11 1.62-5.29-1.28-1.79 3.34 1.1 4.24-3.18 2.42 3.99 3.74-2.09 2.34 11.64 11.99-6.8 3.71-8.29-3.4-.05 2.4-2.85 1.42-.15 4.92 1.4 2.25 4.43.12 11.55 6.22.72 7.34 3.13-.66 5.53 4.6 5.11-3.44 4.17.95 1.75 3.31 6.72.97 2.5 3.27 4.18 8.82-2.46 6.31zm-77.9-30.03l-.04-.08.01-.18-.11-.11-.09.03-.17.04-.16.26-.03.06.07.08.06-.02.26.06.2-.08v-.06z"/><path id="IT-42" class="land" d="M55.67 221.16l2.35-1.4-2.22-1.42 2.41-2.62 9 2.88 3.6-.18-1.44-2.22 1.84-1.52 2.95.53-.47-11.11 1.88.11 2.34-5.62 3.19-1.76-.62-5.21 2.89-3.59 5.91 4.32 5.28-3.95 4.55 1.48 3.18-5.87 3.56.2 4.35 6.24 2.63-4.88 4.59.11-1.74-5.28 3.81-3.16 9.07 7.44 3.46-2.92 8.2 2.89 2.44-1.79 4.02 2.84.37 5.51-2.85 4.72 8.45-1.35 4.12 5.31 8.95 6.57.47 6 2.08-1.75 1.47 1.02-1.99 2.04 3.93-.13.65 4.98 1.78-1.5 2.37 1.47-2.5 3.93-2.77.6-6.24-5.13-.52 4.27-30.67-21.22-.97 3.44-3.64-1.69-.17-2.74-18.16-4.58-14.62 7.21-3.08 3.62-.77 5.6-8 4-5.4 10.33.52 2.77-5.2 4.55-20.61 8.15-6.95-.28-2.07-6.71 7.95-7.16 3.06-6.39z"/><path id="IT-25" class="land" d="M185.79 35.38l-.13 3.14 2.55 1.93 8.14 1.45 1.15 2.7 6.4 2.07 1.64 4.94-6.04 4.22 2.64 1.27 1.04 5.89-2.15 10.17-4.73 8.75 2.93 5.34-.39 6.41 3.29 3.34 4.12-1.4.47-2.15 9.64.08-11.09 16.5.73 13.73 4 .5-.98 7.69 2 1.37 2.41-2 10.43 8.62 4.25 6.98 3.73-1.99 3 1.12-1.45 3.65 4.55.31.01 2.46 8.2 5.32-6.23-.92-7.94 2.16-3.87-2.19-9.41 3.55-7.26-2.5-.97-3.12-6.55 5.42-3.94.17-6.04-5.15-2.45 1.34-10.19-5.54-3.33 1.56-5.31-7.77-3.77 2.12-.35-2.8-1.8 1.46.94 2.75-2.9-1.12-.93 3.21-3.04-4.35-2.24 3.78-4.18-1.79-.76-3.75-1.93 2.45-2.33-2.03-.5 3.76-1.57-1.86-4.39 1.35-6.48 10.91-.65 2.66 4.52 5.28-3.85 3.88 2.02 5.68-3.23.86-1.31-2.51.32 2.02-1.75.11.26-4.85-2.74-4.61-4.62-.16-.82-5.11-7.81-8.52-.29-3.2-6.42 3.05-2.97-2.17-.46 1.76-3.32-1.92-1.36-6.11-3.69-3.22 1.79-2.57-2.67.57 1.58-3.02-2.98-3.69 2.98-5.12 3.96.89 3.09 4.09 3.54-3.89-2.17-2.32 6.39-1.16-2.97-6.63-3.51-1.81-3.49-15.11-3.05-.91-2.02-3.82 2.14-3.85-1.28-4.95 8.05-8.76-.38-6.16 1.21-1.33 5.68 3.46-3.51 6.18 5.77 2.5 2.51 6.55-1.75 2.63 6.41.99 2.78-5.83-5.1-5.19 1.89-1.73-1.13-3.27 3.57-2.13-.19-4.04 9.09-8.55 2.51-6.76-2.59-8.57 1.52-4.03 4.4-.99 2.5 3.1 2.7-3.12-.07 9.95 4.41 5.46 8.27.73 1.41-4.28 2.11 1.1 8.98-3.27 2.26 2.05.15 5 2.92 1.49-.53 2.56 3.94.37 2.76-2.36-3.65-5.61 3.14-5.72-6.48-2.62.23-7.05 2.97-5.29 7.44-.59z"/><path id="IT-57" class="land" d="M352.87 251.97l-2.9 1.26-7.56-4.21-20.49-17.97-7.92-3.14-.94 7.21-3.06 3.09-2.92-.36-1.31-3.87-2.72 1.13-2.28-3.46-4.22.92-.04-.1 1.21 2.22-3.95-.04-3.81 7.73.13.1 4.44 3.93-2.72 2.14-.61-3.72-.44 3.12-5.74 3.06 1.45 2.23 4.16 1.69 3.95-1.8-2.95 4.92 4.06 2.42 1.42-2.09 3.95 1.16 6.36 7.29 7.76-2.61-1.23 5.37 5.96 12.03-1.76 4.45 3.31 3.67.02 8.98 4 2.6.12 4.04 1.22-3.07 2.69-.61 5.51 6.24 3.92-2.43 1.16 5.43-3.47 3.91 4.92-.49 3.68 3.16 7.08-3.15 1.88-5.42 6.46.79 3.15-3.52 9.88-2.67-14.78-45.89-6.03-5.67zm-55.14 2.42l-.74-.26-.19-.06.89-.37.1.53-.06.16z"/><path id="IT-67" class="land" d="M418.76 361.06l10.43 3.82 7.13 5.57-2.06 10.86 3.11 4.08-6.94 5.9-3.24-1.5-1.25 1.52.2 6.38 3.55 2.97-7.21 3.91-4.01-1.71-1.72 2.9-4.79.07-3.2 2.96-18.41-9.03-3.84 1.31-2.29-1.91-2.2 4.03 1.65 4.09-3.45-.38-3.3-4.74 2.45-6.39-4.18-8.82 3.97.46 2.48-3.91 1.95 1.98.63-2.64 3.76-.15-2.35-5.47 6.98-5.65 3.16 3.32 4.06.52 1.38 6 2.04.37 15.06-21.11z"/><path id="IT-21" class="land" d="M92.94 46.87l1.67 5.06-1.47 10.96 4.47 2.27 4.13 7.06 5.47 1.36.38 6.16-8.05 8.76 1.28 4.96-2.14 3.85 2.02 3.82 3.05.91 3.49 15.11 3.51 1.81 2.97 6.63-6.39 1.16 2.17 2.32-3.54 3.89-3.08-4.09-3.97-.89-2.97 5.12 2.98 3.69-1.58 3.03 2.67-.57-1.79 2.57 3.69 3.22 1.36 6.12 3.31 1.91.46-1.75 2.98 2.16 6.42-3.05.29 3.21 7.81 8.51.82 5.11 4.62.16 2.74 4.61-.25 4.85-.47 4.89-3.46 2.92-9.07-7.45-3.81 3.16 1.74 5.28-4.59-.11-2.62 4.88-4.36-6.24-3.55-.21-3.18 5.88-4.55-1.49-5.28 3.96-5.91-4.32-2.89 3.59.62 5.2-3.18 1.76-2.34 5.63-1.88-.11.47 11.11-2.95-.53-1.84 1.51 1.44 2.22-3.6.19-9-2.88-2.41 2.62 2.22 1.42-2.35 1.4-2.38-4.78.9-3.11-16.78 4.23-8.68-6.11-9.25-2.45-6.12-9.04.28-4.23 2.86-.56-4.73-7.26 5.72-6.29-.27-4.13 5.87-.69-3.94-7.35.3-3.61-7.28-.81L6.4 161l-.35-7.86-3.63-.41-2.42-6.2 7.26-3.94 6.43 1.66.01-2.3 2.69-.1 2.83-3.63 3.49.6 2.87-2.52-.74-5.91 3.96-5.68-4.36-4.46 1.77-3.56.36 2.85 3.97.39 13.73-8.1 12.45 2.33 4.89-3.47 3.65.45 1.77-9.84-3.69-4.9v-9.11l2.29-5.89 5.26-1.05 1.15-6.45 6.19-3.3-.7-5.91-3.18-2.61 11.9-8.72-.2-3.44z"/><path id="IT-75" class="land" d="M481.43 368.91l8.76 4.49.5 5.53-1.75 3.33-13.41 9.49 2.65 10.42 32.34 17.33 26.06 9.75 19.83 15.95 27.84 12.53 2.94 7.83 17.63 15.51 4.74 10.71-5.56 10.63-.85 10.56-2.32 1.88-15.36-9.26-2.72-4.74 1.02-2.45-2.08-1.12 1.92-3.62-7.82-11.93-17.84-.64-15.65-7.56 2.44-3.24-7.07-4.23-7.32 2.47-5.69 6.67-2.89-4.94-4.33-1.58.13-15.72-2.92-2.22-4.58-1.04-1.87 2.56-2.04-2.47-5.01 3.62-7.34-7.79-2.94-6.46-4.13 1.31-7.19-3.89 3.03-5.5-8.61-6.71-5.25 3.61-10.56-.56-1.02 2.47-7.27-3.46-1.7 1.29-5.94-1.73-2.3-2.66 3.6-6.59-10.53-5.68 1.38-6.75-4.67-3.63-3.55-2.97-.2-6.38 1.25-1.52 3.24 1.5 6.95-5.9-3.11-4.08 2.06-10.86 14.87 1.78 30.21-3.34z"/><path id="IT-88" class="land" d="M89.46 559.47l2.81.31 2.12 3.57-2.7 6.51-2.8-5.35.57-5.04zm-3.19-4.53l-.13 5.46-1.62.38-2.84-3.56 4.59-2.28zm.69-129.37l.61 4.65-2.73-1.27-2.18 3.03 1.01 2.8-2.3-.29.52-3.67 5.07-5.25zm59.04-8.33l.48 3.84-2.3.35 1.82-4.19zm-12.4-1.11l2.83 5.07 3.97-1.59 3.1 1.99.99 5.79 1.21-3.42 2.79-1 2.4 2.81-2.99 7.27 2.71-1.92-.53 2.25 2.24-1.26 3.55 1.83-4.25.82-.37 3.71h-3.63l4.47 2.41 2.74-1.81-1.48 1.88 1.71 2.47 3.77 1.08-2.6 3.65 4.2 7.56.03 5.11 3.78 4.57-3.14 9.17-7.18 8.9 1.37 7.48 4.08 3.91-2.4 7.48 1.6 3.18-1.83 1.85-1.81 29.15-2.47 7.5 1.78 3.31-2.63 2.16-.16 5.91-2.9 5.41-11.62-7.8-4.44-.93-2.6 3-2.56-2.06-4.67 4.09.17 10.93-8.37 6.96-6.97-4.13-4.1 4.93-3.99-11.77-4.57-1.02-.25-3.41-5.26-6.65 3.42-5.16-3.18-5.59 4.97-15-1.27-10.25 3.24 2.18 2.36-9.11-1.52-2.77-4.32 1.82-2.19-2.07.78-7.45-1.82-1.06 3.93-1.04 1.92-3.47-1.77-4.92 1.33-7.34-5.12-3.51-.47-10.18-3.76-6.69-4.9 1.51-.36-3.42-2.38 2.66 2.84-7.1-3.72-3.13L82 441.33l-2.4-3.34 1.4-2.4 1.72 1.24-.25 2.86 4.13 4.43 12.71.86 6.83-5.52 5.01-.74 11.22-13.46 7.99-3.05-1.23-5.25 4.47-.83zm9.68-.66l1.03 3.51-2.96.46 1.93-3.97z"/><path id="IT-82" class="land" d="M302.68 789.79l4.91.51.32 1.67-5.23-2.18zm-29.42-82.98l4.95 2.53-1.3 4.02-5.19-4.21 1.54-2.34zm18.1-71.64l2.99 3-4.13-.56 1.14-2.44zm-12.51-2.44l1.33 2.86-2.49-.75-.7-2.16 1.86.05zm179.1-20l5.16 2.28-4.27 2.01-4.05 10.31-14.54 20.68-1.84 11.51-4.66 5.82.59 10.6 8.16 5-1.69 1.76-1.61-1.47-.33 3.21 2.44 4.56 3.17.73-1.07 4.24 3.11 2.37-3.09-.28-6.3 5.99-2.96 7.3 2.31 7.29-3.04 2.34-3.2-3.39-7.2-1.85-4.95 1.71-14.74-5.24-5.81-11.15-6.02-6.1-9.89-3.44-8.46.97-7.9-3.51-10.05-8.65-5.38-.55-9.08-6.2-5.49-6.69-7.47-.07-5.26-5.24-12.44 1.08-3.42-5.2-6.71-3.8-2.63-6.56 3.09-4.74-1.42-2.15 3.1-5.46-1.48-1.6 11.32-6.02 1.05-5.19 8.7 10.68 9.07-4.08-1.28-3.3 2.86-3.53 4.26 1.51 6.48-3.56 3.35 7.56 7.92-.32 1.58 4.78 10.22 4.46 13.11-4.65 13.51 2.2 9.85-1.71 8.22-2.63 5.6-5.98 8.5-1.71 9.48 4.55 6.14-4.69.27-5.01 1 3.57 2.25.63 13.86-5.98zm-30.68-7.75l2.19 3.16-2.74-.91.55-2.25zm.11-6.72l-.46 5.36-2.89-3.04 3.35-2.32zm-7.23-4.01l2.57.12-.03 2.87-3.86-1.59 1.32-1.4zm20.74-14.85l-.64 2.56-1.31-1.3 1.95-1.26z"/><path id="IT-52" class="land" d="M189.13 341.23l.86 1.8-1.77.56.91-2.36zm29.33-2.75l1.75 5.05-2.8-2.57 1.05-2.48zm-41.31-15.88l.43 3.59-2.22-.98 1.79-2.61zm17.33-17.27l.88 6.2-2.52 1.36 1.9 3.57-4.16-3.89-1.14 1.91-.9-1.6-7.46 2.37-2.84-2.86 1.93-2.99 5.39 1.48.92-2.94 4.77 2.18 3.23-4.79zm93.01-65.78l.08.16-1.88 2.23-1.37-1.59 3.04-1.1.13.3zM156.74 199.9l7.01-7.45 5.35-.59 3.99 2.32.59 3.89 6.72 2.43 5.63 5.96 2.38-1.19 9.63 4.68 5.35 7.58 2.6-3 5.57.13 8.26 6.69 4.86-5.46 1.33 3.1 11.72-.4-3.07-3.72 3.99-.14 7.43-5.79 4.79 5.7 4.83-.21-1.26 3.14 8.13-.74-5.2 9.66 3.67 4.93-.27 3.06 5.58 4.41 4.67.21 8.27 4.98 4.58-1.54 1.55 2.31 4.51-2.49.17.13 4.44 3.93-2.72 2.14-.61-3.72-.44 3.12-5.74 3.06 1.45 2.23-3.25 5.72-2.75.38 2.34 3.8-5.94 4 4.66 3.51.81 4.9 4.67-.13-6.67 4.18-3.02-.86-.49 4.06-5.18 3.05.06 4.98 2.89 1.88-2.42 9.85 1.25 2.56-3.22 2.42-2.48-.14-2.13 3.08-1.9-1.79-1.16 2.44 3.78 2.96-2.27 2.35 1.54 4.18-8.42 5.68-3.24-.07-.92 3.7 2.79 1.91.09 3.43-6.8.08-1.85 4.15-9.54-2.9-2.73.72-1.1 3.18-4.8-2.07-.44-2.58 4.07-.56 1.32-5.18-5.37-8.14-4.14-1.77-3.14-6.01-10.9-4.2 2.87-6.07-2.46-2.81-6.06-1.8-6.43 1.56 2.22-10.95-.66-11.12-11.64-20.19-3.03-23.7-5.04-7.69-6.28-4.69 2.5-3.92-2.37-1.47-1.78 1.5-.65-4.98-3.93.14 1.99-2.04-1.47-1.02-2.08 1.75-.47-6-8.97-6.6z"/><path id="IT-32" class="land" d="M285.92.44l1.73 1.36-1.7 2.99-4.29 1.58 2.45 5.32-1.3 1.92 3.71 2.75 3.13-.66 1.58 3.22-1.19 4.17 3.62.65 1.37 4.26 5.04 2.91-5.14 4.38-6.2-.65-3.34 2.65-.11-2.26-6.31-3.76-3.5 10.42-9.36 2.61 3.55 3.45-2.57 6.38-3.17.69 9.7 12.25-3.42 5.11-10.57 2.1-.9 9.54-4.21-.3-2.43-3.41-8.51 2.33-1.24 5.54-2.55-2.12-2.4 1.18-6.53 16.92-5.61-2.34-3.83 3.3-5.08-3.09 2.69-6.64-2.68-1.66-9.63-.08-.48 2.15-4.12 1.4-3.29-3.35.39-6.41-2.93-5.34 4.74-8.75 2.14-10.17-1.04-5.89-2.64-1.27 6.05-4.22-1.64-4.94-6.41-2.07-1.14-2.69 1.89-5.96-4.57-1.77-.84-3.65 4.66-12.91 3.55 1.58 6.09-2.84 4.97 3.88-1.75 2.64 14.94 1.58 3.23-4.06.67-6.86 3.53-3.95 7.94-1.99 4.31 2.06 3.87-3.51 2.93 2.12 4.2-2.24 6.58 3.29 11.63-6.11z"/><path id="IT-55" class="land" d="M297.73 254.39l-.74-.26-.19-.06.89-.37.1.53-.06.16zm-11.25-1.16l4.16 1.69 3.95-1.8-2.95 4.92 4.06 2.42 1.42-2.09 3.95 1.16 6.36 7.29 7.76-2.61-1.23 5.37 5.96 12.03-1.76 4.45 3.31 3.67.02 8.98 4 2.6.12 4.04 1.22-3.07 2.69-.61 5.51 6.24 3.92-2.43 1.16 5.43-3.47 3.91-2.08 5.73-13.29 2.25.04 3.72-9.22 4.4 1.37 2.04-2.99 1.97-3.29-1.73-.22 3.88-4.33 3.36-.82-2.68-3.64.53-1.12-7.05-6.56.42-4.8-12.05-8.49 1.29-4.14-2.56-1.29-2.11 2.86-3.02-4.4-5.68 3.23-2.42-1.25-2.56 2.42-9.85-2.89-1.88-.06-4.98 5.18-3.05.49-4.06 3.02.86 6.67-4.18-4.67.13-.81-4.9-4.66-3.51 5.94-4-2.34-3.8 2.75-.38 3.23-5.72z"/><path id="IT-23" class="land" d="M48.76 82.18l4.4.63 2.87 3.95 7.31.53v9.11l3.69 4.9-1.77 9.84-3.65-.45-4.89 3.47-12.45-2.33-13.73 8.1-3.97-.39-.36-2.85-1.77 3.56-5.24-2.78-.01-9.85-4.34-.87-5.49-5.28.62-8.29 6.19-.74 5.22-5.64 3.16 4.8 2.57-1.55 1.86 1.5 5.2-4.59 4.72 1.84z"/><path id="IT-34" class="land" d="M301.95 155.08l1.19.9-2.37.53 1.18-1.43zM301.58 31l11.33 3.22.96 6.89-6.01 2.24 1.5 3.48-6.69.03-10.73 14.67 9.01 8.4-.45 3.58-4.67 4.77 1.66 6.87 3.96 1.56 2.44 6.99 3.92.1 1.29 3.04 6.53-5.01 1.33 2.56 2.73-2.13 3.49 2.47 1.69-2.16 2.33 8.73 4.73 6.17h-6.29l-31.73 18.06-3.36 11.17 1.85 10.77 3.02 4.33-1.31.61 2.04 1.18.61-2.05 4.3 5.37-1.69 8.3-2.28-3.85-1.67 2.11 1.98 4.09-1.43 1.31-2.41-1.92-3.23-3.64-.53-5.22-6.98 1.05-2.29-3.08-15.17-.37-10.09 6.5-3.24-3.27-5.7.38-.16-1.49-8.2-5.32v-2.46l-4.55-.31 1.45-3.65-3-1.12-3.73 1.99-4.25-6.98-10.43-8.62-2.41 2.01-2-1.37.98-7.69-4-.5-.73-13.73 11.09-16.5 2.68 1.66-2.69 6.64 5.08 3.09 3.83-3.3 5.61 2.34 6.53-16.92 2.4-1.18 2.55 2.12 1.25-5.53 8.51-2.33 2.42 3.41 4.21.3.9-9.54 10.57-2.1 3.42-5.11-9.7-12.25 3.17-.7 2.57-6.37-3.55-3.46 9.36-2.61 3.5-10.42 6.32 3.76.11 2.26 3.34-2.65 6.2.65 5.14-4.38 1.46.06z"/></svg>